<svg width="226" height="36" viewBox="0 0 226 36" fill="none" xmlns="http://www.w3.org/2000/svg">
<path d="M31.1086 6.93262C31.9336 8.02839 32.632 9.21886 33.1897 10.4801L17.3695 22.4607L10.7578 18.2028V13.0805L17.3695 17.3383L31.1086 6.93262Z" fill="#21A038"/>
<path d="M4.01233 17.8413C4.01233 17.6114 4.01779 17.3831 4.0287 17.1561L0.0218221 16.9543C0.00818404 17.2486 4.84212e-06 17.5456 4.84212e-06 17.8454C-0.00169997 20.1878 0.446785 22.5074 1.31974 24.6712C2.1927 26.8351 3.47293 28.8006 5.08701 30.455L7.92919 27.5366C6.68673 26.2654 5.70108 24.7543 5.02889 23.0905C4.3567 21.4266 4.01123 19.6427 4.01233 17.8413Z" fill="url(#paint0_linear)"/>
<path d="M17.3678 4.12085C17.5915 4.12085 17.8137 4.12926 18.0346 4.14047L18.2351 0.0227373C17.9479 0.00872669 17.6587 0.00172222 17.3678 0.00172222C15.0866 -0.00113562 12.8275 0.458936 10.7199 1.35552C8.61238 2.2521 6.69799 3.56754 5.08667 5.2263L7.92885 8.14612C9.16635 6.8693 10.6373 5.85636 12.2572 5.16556C13.8771 4.47477 15.6138 4.11972 17.3678 4.12085Z" fill="url(#paint1_linear)"/>
<path d="M17.3687 31.5619C17.1451 31.5619 16.9227 31.5619 16.7005 31.5437L16.5 35.66C16.7882 35.675 17.0778 35.6825 17.3687 35.6825C19.6489 35.6849 21.907 35.2245 24.0134 34.3277C26.1199 33.4309 28.033 32.1152 29.6431 30.4565L26.8064 27.5381C25.5686 28.8142 24.0978 29.8266 22.4782 30.5171C20.8587 31.2077 19.1222 31.5628 17.3687 31.5619Z" fill="url(#paint2_linear)"/>
<path d="M24.8931 6.51499L28.2699 3.95804C25.1835 1.39053 21.3308 -0.00712713 17.3594 2.73312e-05V4.12056C20.0487 4.11713 22.6755 4.95205 24.8931 6.51499Z" fill="url(#paint3_linear)"/>
<path d="M34.731 17.8413C34.7331 16.7694 34.6418 15.6993 34.4581 14.644L30.72 17.4742C30.72 17.5962 30.72 17.718 30.72 17.8413C30.721 19.7583 30.3298 21.6542 29.5719 23.406C28.814 25.1578 27.7061 26.7264 26.3203 28.0102L29.0166 31.0716C30.8183 29.4007 32.258 27.3595 33.2424 25.0803C34.2269 22.8011 34.734 20.3348 34.731 17.8413Z" fill="#21A038"/>
<path d="M17.3628 31.5618C15.4966 31.5625 13.6511 31.1605 11.9456 30.3819C10.2403 29.6033 8.71306 28.4654 7.46293 27.042L4.48438 29.8105C6.11066 31.6617 8.09752 33.1409 10.3161 34.1525C12.5347 35.164 14.9355 35.6853 17.3628 35.6823V31.5618Z" fill="url(#paint4_linear)"/>
<path d="M8.41199 7.67217L5.7171 4.61084C3.91492 6.28144 2.47468 8.32253 1.48977 10.6017C0.504875 12.8809 -0.00268517 15.3474 1.06829e-05 17.8411H4.01234C4.01151 15.9241 4.40274 14.0282 5.16065 12.2765C5.91856 10.5247 7.02626 8.95607 8.41199 7.67217Z" fill="url(#paint5_linear)"/>
<path d="M100.232 10.2029L105.202 6.48438H88.5703V28.8292H105.202V25.1108H93.3159V19.3871H103.455V15.6686H93.3159V10.2029H100.232Z" fill="#21A038"/>
<path d="M77.3766 15.1892H71.6026V10.2015H80.8177L85.784 6.47168H66.8599V28.8166H76.7659C82.3197 28.8166 85.507 26.2599 85.507 21.8011C85.507 17.5356 82.62 15.1892 77.3766 15.1892ZM76.5523 25.0969H71.6026V18.9054H76.5523C79.5561 18.9054 80.9645 19.943 80.9645 22.0012C80.9645 24.0593 79.4659 25.0969 76.5523 25.0969Z" fill="#21A038"/>
<path d="M117.421 6.4812H108.368V28.826H113.113V22.4961H117.421C123.197 22.4961 126.77 19.4092 126.77 14.4767C126.77 9.54442 123.197 6.4812 117.421 6.4812ZM117.321 18.7748H113.113V10.2025H117.321C120.359 10.2025 122.036 11.7257 122.036 14.4904C122.036 17.255 120.359 18.7748 117.321 18.7748Z" fill="#21A038"/>
<path d="M59.7392 23.553C58.5134 24.2272 57.1401 24.5763 55.7463 24.568C51.5746 24.568 48.5482 21.543 48.5482 17.3776C48.5482 13.212 51.5746 10.1805 55.7463 10.1805C57.2507 10.1545 58.7239 10.6179 59.9507 11.5029L63.2698 9.02011L63.0454 8.85812C61.1092 7.12912 58.5221 6.21338 55.5609 6.21338C52.349 6.21338 49.4366 7.31094 47.3572 9.30773C46.3057 10.3358 45.4743 11.5731 44.9143 12.9421C44.3545 14.3112 44.0782 15.7828 44.1031 17.2651C44.0808 18.7625 44.3558 20.2491 44.9115 21.6361C45.4673 23.0232 46.2924 24.2823 47.3377 25.3383C49.4268 27.4144 52.3327 28.5582 55.5218 28.5582C58.854 28.5582 61.7665 27.3779 63.7385 25.2292L60.7675 22.9811L59.7392 23.553Z" fill="#21A038"/>
<path d="M145.587 15.1892H139.816V10.2015H152.219V6.47168H135.07V28.8166H144.963C150.516 28.8166 153.704 26.2599 153.704 21.8011C153.717 17.5356 150.831 15.1892 145.587 15.1892ZM144.763 25.0969H139.816V18.9054H144.763C147.767 18.9054 149.174 19.943 149.174 22.0012C149.174 24.0593 147.689 25.0969 144.763 25.0969Z" fill="#21A038"/>
<path d="M207.654 28.7848H202.844V6.43994H207.654V15.8249H210.273L217.343 6.43994H222.795L214.408 17.0696L224.147 28.7848H217.764L210.606 19.9968H207.654V28.7848Z" fill="#21A038"/>
<path d="M171.185 24.5384H161.009L159.284 28.8775H154.164L163.709 6.53271H168.827L178.217 28.8775H172.91L171.185 24.5384ZM169.591 20.4897L166.127 11.8114L162.643 20.4897H169.591Z" fill="#21A038"/>
<path d="M184.687 6.53271V15.8635H194.641V6.53271H199.602V28.8775H194.641V20.0729H184.687V28.8775H179.727V6.53271H184.687Z" fill="#21A038"/>
<defs>
<linearGradient id="paint0_linear" x1="5.89848" y1="29.9409" x2="1.29965" y2="17.0001" gradientUnits="userSpaceOnUse">
<stop offset="0.14" stop-color="#F1E813"/>
<stop offset="0.3" stop-color="#E6E418"/>
<stop offset="0.58" stop-color="#C9DA26"/>
<stop offset="0.89" stop-color="#A2CC39"/>
</linearGradient>
<linearGradient id="paint1_linear" x1="6.23226" y1="5.95486" x2="17.5988" y2="1.73839" gradientUnits="userSpaceOnUse">
<stop offset="0.06" stop-color="#0FA7DF"/>
<stop offset="0.54" stop-color="#0098F8"/>
<stop offset="0.92" stop-color="#0290EA"/>
</linearGradient>
<linearGradient id="paint2_linear" x1="16.2355" y1="33.1955" x2="29.036" y2="30.3807" gradientUnits="userSpaceOnUse">
<stop offset="0.12" stop-color="#A2CC39"/>
<stop offset="0.28" stop-color="#86C239"/>
<stop offset="0.87" stop-color="#219F38"/>
</linearGradient>
<linearGradient id="paint3_linear" x1="16.5248" y1="1.38008" x2="27.4907" y2="4.67414" gradientUnits="userSpaceOnUse">
<stop offset="0.06" stop-color="#0290EA"/>
<stop offset="0.79" stop-color="#0C89CA"/>
</linearGradient>
<linearGradient id="paint4_linear" x1="5.49086" y1="29.3089" x2="17.4493" y2="33.6594" gradientUnits="userSpaceOnUse">
<stop offset="0.13" stop-color="#F1E813"/>
<stop offset="0.3" stop-color="#EAE616"/>
<stop offset="0.53" stop-color="#D8DF1F"/>
<stop offset="0.8" stop-color="#BAD52D"/>
<stop offset="0.98" stop-color="#A2CC39"/>
</linearGradient>
<linearGradient id="paint5_linear" x1="1.49474" y1="18.3398" x2="6.49249" y2="5.68463" gradientUnits="userSpaceOnUse">
<stop offset="0.07" stop-color="#A2CC39"/>
<stop offset="0.26" stop-color="#81C45E"/>
<stop offset="0.92" stop-color="#0FA7DF"/>
</linearGradient>
</defs>
</svg>
