<svg width="141" height="50" viewBox="0 0 141 50" fill="none" xmlns="http://www.w3.org/2000/svg">
<path d="M6.80503 49.0359C5.97407 49.0399 5.14967 48.8886 4.37431 48.5897C3.62591 48.3021 2.94302 47.8668 2.36632 47.3098C1.77022 46.7215 1.29584 46.0216 0.970277 45.25C0.64471 44.4784 0.474337 43.6502 0.468885 42.8128C0.463433 41.9753 0.623016 41.145 0.938509 40.3692C1.254 39.5934 1.71923 38.8874 2.30762 38.2915L2.36632 38.2328C2.94237 37.672 3.62521 37.2328 4.37431 36.9411C5.15703 36.6393 5.98965 36.4879 6.8285 36.4949C7.8833 36.4898 8.92471 36.731 9.86982 37.1994C10.2668 37.3885 10.6346 37.6337 10.9619 37.9275C11.2394 38.1752 11.4771 38.4644 11.6665 38.7847L11.1732 40.2525C10.9575 39.9591 10.7049 39.6947 10.4217 39.4657C10.1145 39.2101 9.77972 38.9896 9.42362 38.8081C9.052 38.6118 8.65761 38.4619 8.24936 38.3619C7.82346 38.2529 7.38557 38.1976 6.94593 38.1975C6.27113 38.1884 5.5998 38.2956 4.96144 38.5146C4.38977 38.7079 3.86552 39.02 3.42316 39.4305C2.99783 39.8338 2.66181 40.3219 2.43679 40.8631C2.19712 41.468 2.08131 42.1149 2.09625 42.7654C2.08814 43.4202 2.2078 44.0704 2.44853 44.6794C2.66681 45.2273 3.00835 45.7175 3.44665 46.112C3.89545 46.5082 4.41827 46.8115 4.98493 47.0045C5.62329 47.2234 6.29462 47.3307 6.96942 47.3215C7.87824 47.3401 8.77762 47.1344 9.58801 46.7226C10.2707 46.3915 10.8629 45.9 11.3142 45.29L11.7839 46.7344C11.1655 47.4502 10.4016 48.0258 9.54295 48.4227C8.68434 48.8196 7.75091 49.0287 6.80503 49.0359Z" fill="#50287D"/>
<path d="M23.0199 36.707V38.3745H18.9335V48.7666H17.36V38.3627H13.2266V36.707H23.0316H23.0199Z" fill="#50287D"/>
<path d="M32.9997 40.3944C33.0066 40.8978 32.9107 41.3973 32.7179 41.8623C32.5427 42.2998 32.2834 42.6987 31.9546 43.0365C31.6228 43.3698 31.222 43.6264 30.7804 43.788C30.2867 43.9636 29.766 44.051 29.2421 44.0464H27.0227V48.7434H25.4492V36.7073H29.2421C29.733 36.6947 30.2215 36.7809 30.6785 36.9608C31.1354 37.1408 31.5515 37.4108 31.9021 37.7547C32.2526 38.0987 32.5304 38.5096 32.719 38.9631C32.9075 39.4166 33.003 39.9033 32.9997 40.3944ZM31.3557 40.3944C31.3605 40.132 31.3084 39.8716 31.2031 39.6312C31.1087 39.4013 30.9734 39.1904 30.8038 39.0088C30.6318 38.8323 30.4288 38.689 30.205 38.5861C29.9662 38.473 29.7059 38.4129 29.4417 38.4099H26.964V42.3907H29.4417C29.7038 42.4086 29.9667 42.3696 30.2123 42.2763C30.4579 42.183 30.6804 42.0376 30.8644 41.8502C31.0485 41.6627 31.1899 41.4377 31.2787 41.1904C31.3676 40.9432 31.4019 40.6797 31.3792 40.4179L31.3557 40.3944Z" fill="#50287D"/>
<path d="M36.2636 45.9597L35.0894 48.7779H33.3867L38.4243 36.7065H40.1739L45.141 48.7779H43.4384L42.2641 45.9597H36.2754H36.2636ZM41.5478 44.2922L39.1993 38.7263L36.8508 44.2922H41.4539H41.5478Z" fill="#50287D"/>
<path d="M46.2109 48.7658L50.497 42.5187L46.4458 36.6475H48.4303L51.4599 41.0157L54.5247 36.6827H56.4974L52.4462 42.554L56.7793 48.801H54.8652L51.5186 44.104L48.2307 48.801H46.2227L46.2109 48.7658Z" fill="#50287D"/>
<path d="M64.3721 49.001C63.5308 49.01 62.6963 48.8503 61.9179 48.5313C61.1642 48.2227 60.4722 47.7812 59.8747 47.2279C59.2736 46.6702 58.7939 45.9947 58.4656 45.2434C58.1274 44.4467 57.9531 43.5901 57.9531 42.7246C57.9531 41.8591 58.1274 41.0025 58.4656 40.2058C58.7942 39.4547 59.2738 38.7792 59.8747 38.2213C60.471 37.6781 61.1587 37.2448 61.9061 36.9414C63.4947 36.3164 65.2611 36.3164 66.8497 36.9414C67.6229 37.2409 68.3352 37.6785 68.9517 38.2331C69.552 38.7913 70.0316 39.4667 70.3608 40.2176C70.7003 41.0115 70.8722 41.867 70.8657 42.7305C70.8226 44.4187 70.1177 46.0223 68.9028 47.1954C67.688 48.3684 66.0607 49.017 64.3721 49.001ZM69.1865 42.7774C69.1893 42.1613 69.0571 41.5521 68.799 40.9926C68.5535 40.4415 68.2007 39.9448 67.7612 39.5315C67.3216 39.1182 66.8042 38.7966 66.2391 38.5853C65.0024 38.115 63.636 38.115 62.3993 38.5853C61.8342 38.8006 61.3178 39.1264 60.8802 39.5438C60.4427 39.9612 60.0928 40.4617 59.8512 41.016C59.6059 41.5709 59.4792 42.1708 59.4792 42.7774C59.4792 43.3841 59.6059 43.984 59.8512 44.5388C60.0961 45.0903 60.4488 45.5872 60.8883 46.0006C61.3279 46.414 61.8456 46.7354 62.411 46.946C63.648 47.4152 65.0139 47.4152 66.2509 46.946C66.8138 46.7335 67.329 46.4112 67.7664 45.998C68.2038 45.5848 68.5548 45.0888 68.799 44.5388C69.0571 43.9793 69.1893 43.3701 69.1865 42.7539V42.7774Z" fill="#50287D"/>
<path d="M79.8563 42.3307C80.3377 42.5841 80.743 42.961 81.0306 43.4228C81.367 43.9563 81.5385 44.5771 81.5238 45.2077C81.532 45.7351 81.432 46.2586 81.2302 46.7459C81.0491 47.1749 80.7719 47.5566 80.42 47.8615C80.078 48.1648 79.6787 48.3963 79.2457 48.5426C78.7638 48.6976 78.2607 48.7769 77.7544 48.7774H73.6562V36.706H77.179C77.6841 36.699 78.1871 36.7703 78.6703 36.9174C79.1002 37.0481 79.4995 37.2637 79.8446 37.5515C80.3549 38.0229 80.7034 38.6433 80.8404 39.3243C80.9775 40.0054 80.8961 40.7123 80.6078 41.3444C80.4261 41.7167 80.1656 42.0453 79.8446 42.3072L79.8563 42.3307ZM77.9775 47.0278C78.2337 47.0291 78.4881 46.9854 78.729 46.8986C78.9627 46.8172 79.1753 46.6848 79.3514 46.5111C79.5279 46.3391 79.6712 46.1361 79.7741 45.9122C79.8872 45.6735 79.9473 45.4131 79.9503 45.149C79.9499 44.9139 79.9018 44.6813 79.809 44.4654C79.7161 44.2494 79.5804 44.0545 79.4101 43.8925C79.2326 43.7126 79.0203 43.5708 78.786 43.4759C78.5518 43.381 78.3006 43.335 78.048 43.3406H75.2298V47.0043L77.9775 47.0278ZM77.4843 41.6732C77.9506 41.6823 78.4047 41.524 78.7643 41.2269C78.9381 41.0849 79.0779 40.9056 79.1734 40.7024C79.269 40.4992 79.3177 40.2772 79.3162 40.0527C79.3166 39.8318 79.2709 39.6132 79.1819 39.4109C79.0929 39.2087 78.9627 39.0273 78.7995 38.8784C78.6253 38.7146 78.4205 38.5868 78.1969 38.5021C77.9732 38.4175 77.7351 38.3778 77.4961 38.3852H75.2298V41.7906L77.4843 41.6732Z" fill="#50287D"/>
<path d="M86.0449 45.9602L84.8706 48.7784H83.168L88.1351 36.707H89.8847L94.8636 48.7784H93.1609L91.9866 45.9602H85.9862H86.0449ZM91.3291 44.2927L88.9805 38.7268L86.632 44.2927H91.2351H91.3291Z" fill="#50287D"/>
<path d="M98.8157 36.707V41.7211H106.002V36.707H107.587V48.7666H106.014V43.3651H98.8157V48.7666H97.2422V36.707H98.8157Z" fill="#50287D"/>
<path d="M120.26 48.7662V39.196L113.144 48.7662H111.371V36.7065H112.956V46.3002L120.119 36.7065H121.799V48.7662H120.225H120.26Z" fill="#50287D"/>
<path d="M132.44 36.707V38.3745H127.214V41.7211H131.911V43.3651H127.214V47.0992H132.44V48.7666H125.641V36.707H132.44Z" fill="#50287D"/>
<path d="M10.2982 10.1573C10.303 10.881 10.1674 11.5988 9.89899 12.2709C9.63144 12.8976 9.23076 13.4586 8.72473 13.9149C8.22748 14.3783 7.64532 14.7411 7.01031 14.9835C6.30517 15.2496 5.55634 15.381 4.80271 15.371H2.68905V21.9116H0V4.82613H4.83794C5.55264 4.79382 6.26637 4.90861 6.9349 5.1634C7.60343 5.41819 8.21252 5.80754 8.72443 6.30734C9.23634 6.80714 9.64016 7.40673 9.91087 8.06897C10.1816 8.73121 10.3134 9.44199 10.2982 10.1573ZM2.68905 12.5058H5.16673C5.47729 12.5153 5.78666 12.4632 6.07692 12.3523C6.36717 12.2414 6.63255 12.0741 6.85766 11.8599C7.07399 11.6431 7.24387 11.3845 7.35692 11.0998C7.46998 10.8151 7.52385 10.5104 7.51525 10.2042C7.5248 9.89367 7.47264 9.5843 7.36178 9.29405C7.25091 9.00379 7.08356 8.73842 6.8694 8.5133C6.65197 8.28561 6.38903 8.10624 6.0977 7.98688C5.80636 7.86751 5.49316 7.81082 5.17847 7.82049H2.68905V12.5175V12.5058Z" fill="#50287D"/>
<path d="M28.392 14.3147H34.1928V9.84082H36.7879V21.9004H34.1928V17.0742H28.392V21.9122H25.7969V9.85256H28.392V14.3265V14.3147Z" fill="#50287D"/>
<path d="M46.1382 19.6452C46.8393 19.6663 47.5365 19.5344 48.1814 19.2586C48.8263 18.9828 49.4033 18.5697 49.8723 18.0482L50.6356 20.0327C50.0847 20.7096 49.3926 21.2578 48.6076 21.6392C47.8226 22.0205 46.9638 22.2257 46.0912 22.2403C45.2305 22.2599 44.3739 22.1165 43.5666 21.8176C42.8252 21.5556 42.1457 21.1439 41.5703 20.6081C40.9832 20.0442 40.5264 19.3589 40.2317 18.6001C39.9063 17.7576 39.743 16.8612 39.7502 15.958C39.7463 15.1281 39.8935 14.3044 40.1847 13.5273C40.4503 12.7884 40.8482 12.104 41.359 11.5076C41.8857 10.908 42.5342 10.4276 43.2613 10.0985C44.0492 9.75315 44.9022 9.58097 45.7624 9.59355C46.5574 9.58018 47.3458 9.73909 48.0735 10.0594C48.8012 10.3796 49.4509 10.8537 49.978 11.4489C50.4981 12.0297 50.8973 12.7083 51.1523 13.4451C51.4076 14.2019 51.5384 14.995 51.5398 15.7936C51.5421 16.1121 51.5186 16.4302 51.4693 16.7448H42.3806C42.5472 17.6024 43.0206 18.37 43.7123 18.9038C44.4039 19.4376 45.2663 19.7012 46.1382 19.6452ZM45.6567 12.3178C44.9221 12.264 44.1919 12.4696 43.5933 12.8987C42.9946 13.3278 42.5655 13.9534 42.3806 14.6663H48.9212C48.7306 13.9589 48.3017 13.3389 47.7069 12.9111C47.1122 12.4832 46.3881 12.2737 45.6567 12.3178Z" fill="#50287D"/>
<path d="M17.5875 19.6452C18.2885 19.6655 18.9855 19.5333 19.6302 19.2575C20.275 18.9818 20.8521 18.5691 21.3216 18.0482L22.0849 20.0327C21.534 20.7096 20.8419 21.2578 20.0569 21.6392C19.2719 22.0205 18.4131 22.2257 17.5405 22.2403C16.6798 22.26 15.8232 22.1165 15.0159 21.8176C14.2622 21.5446 13.5741 21.1166 12.9961 20.5611C12.4127 19.9966 11.9598 19.3112 11.6692 18.5531C11.3431 17.7108 11.1797 16.8143 11.1878 15.9111C11.1808 15.082 11.3241 14.2584 11.6105 13.4804C11.8769 12.7418 12.2747 12.0575 12.7848 11.4606C13.3112 10.8608 13.9598 10.3803 14.6871 10.0515C15.4751 9.70619 16.328 9.534 17.1882 9.54659C17.9831 9.534 18.7712 9.69327 19.4988 10.0135C20.2264 10.3337 20.8762 10.8073 21.4038 11.4019C21.9239 11.9828 22.3231 12.6614 22.5781 13.3982C22.8382 14.154 22.973 14.9473 22.9773 15.7467C22.9805 16.0651 22.957 16.3833 22.9069 16.6978H13.8299C13.9864 17.5641 14.4555 18.3428 15.1482 18.8861C15.8408 19.4294 16.7089 19.6995 17.5875 19.6452ZM17.106 12.3178C16.3714 12.264 15.6412 12.4696 15.0426 12.8987C14.4439 13.3278 14.0148 13.9534 13.8299 14.6664H20.4292C20.2371 13.9505 19.8012 13.3242 19.1966 12.8955C18.5921 12.4667 17.8569 12.2624 17.1178 12.3178H17.106Z" fill="#50287D"/>
<path d="M72.759 22.2649C71.0772 22.2649 69.4644 21.5969 68.2752 20.4077C67.086 19.2185 66.418 17.6057 66.418 15.9239C66.418 14.2422 67.086 12.6293 68.2752 11.4402C69.4644 10.251 71.0772 9.58294 72.759 9.58294C73.6042 9.56082 74.4432 9.73362 75.2109 10.0879C75.9786 10.4423 76.6544 10.9686 77.1859 11.6261L76.4696 13.775C75.5488 12.9391 74.375 12.4348 73.1347 12.3424C72.6368 12.2958 72.1346 12.3512 71.6589 12.5053C71.1832 12.6594 70.7439 12.909 70.3679 13.2388C69.992 13.5686 69.6873 13.9716 69.4725 14.4232C69.2577 14.8748 69.1373 15.3655 69.1188 15.8652C69.1107 16.3576 69.2118 16.8457 69.4149 17.2944C69.6179 17.7431 69.9178 18.1413 70.293 18.4603C71.1056 19.1521 72.1509 19.5089 73.2169 19.4584C74.5225 19.4387 75.7756 18.9417 76.7397 18.0611L77.503 20.21C76.9023 20.8683 76.169 21.3918 75.3512 21.746C74.5335 22.1002 73.65 22.2771 72.759 22.2649Z" fill="#50287D"/>
<path d="M59.8136 22.2649C58.1319 22.2649 56.5191 21.5969 55.3299 20.4077C54.1407 19.2185 53.4727 17.6057 53.4727 15.9239C53.4727 14.2422 54.1407 12.6293 55.3299 11.4402C56.5191 10.251 58.1319 9.58294 59.8136 9.58294C60.6589 9.56082 61.4978 9.73362 62.2655 10.0879C63.0332 10.4423 63.7091 10.9686 64.2406 11.6261L63.5243 13.775C62.6035 12.9391 61.4297 12.4348 60.1894 12.3424C59.6915 12.2958 59.1893 12.3512 58.7136 12.5053C58.2378 12.6594 57.7986 12.909 57.4226 13.2388C57.0467 13.5686 56.742 13.9716 56.5272 14.4232C56.3124 14.8748 56.192 15.3655 56.1735 15.8652C56.1654 16.3576 56.2665 16.8457 56.4696 17.2944C56.6726 17.7431 56.9725 18.1413 57.3477 18.4603C58.1603 19.1521 59.2056 19.5089 60.2716 19.4584C61.5772 19.4387 62.8303 18.9417 63.7944 18.0611L64.5576 20.21C63.957 20.8683 63.2236 21.3918 62.4059 21.746C61.5882 22.1002 60.7047 22.2771 59.8136 22.2649Z" fill="#50287D"/>
<path d="M115.196 22.2649C113.515 22.2649 111.902 21.5969 110.713 20.4077C109.524 19.2185 108.855 17.6057 108.855 15.9239C108.855 14.2422 109.524 12.6293 110.713 11.4402C111.902 10.251 113.515 9.58294 115.196 9.58294C116.042 9.56082 116.881 9.73362 117.648 10.0879C118.416 10.4423 119.092 10.9686 119.623 11.6261L118.907 13.775C117.978 12.9385 116.796 12.4382 115.549 12.3542C115.051 12.3075 114.549 12.3629 114.073 12.517C113.597 12.6712 113.158 12.9208 112.782 13.2505C112.406 13.5803 112.101 13.9833 111.887 14.4349C111.672 14.8865 111.551 15.3772 111.533 15.877C111.525 16.3694 111.626 16.8575 111.829 17.3062C112.032 17.7549 112.332 18.153 112.707 18.4721C113.52 19.1638 114.565 19.5207 115.631 19.4702C116.936 19.4505 118.19 18.9534 119.154 18.0728L119.917 20.2217C119.317 20.8743 118.587 21.3935 117.774 21.7455C116.961 22.0975 116.083 22.2745 115.196 22.2649Z" fill="#50287D"/>
<path d="M89.1122 21.9113V20.6548C88.6476 21.1568 88.0847 21.5576 87.4584 21.8324C86.8321 22.1072 86.1559 22.2499 85.472 22.2518C84.6441 22.2635 83.8225 22.1068 83.0571 21.791C82.2917 21.4753 81.5985 21.0071 81.0197 20.4151C80.4408 19.8231 79.9884 19.1196 79.69 18.3473C79.3916 17.5749 79.2533 16.75 79.2836 15.9226C79.2123 15.0992 79.3156 14.27 79.5868 13.4893C79.8579 12.7086 80.2909 11.9939 80.8573 11.392C81.4237 10.7901 82.1108 10.3146 82.8736 9.99656C83.6365 9.67851 84.4579 9.52511 85.2841 9.54638C86.6947 9.55706 88.0477 10.1075 89.0652 11.0847V9.9104H91.5781V21.9113H89.1122ZM81.8553 15.9109C81.8623 16.3956 81.9676 16.8739 82.1649 17.3167C82.3622 17.7595 82.6474 18.1577 83.0031 18.4871C83.3588 18.8164 83.7777 19.0702 84.2344 19.2329C84.6911 19.3956 85.176 19.4639 85.6599 19.4336C86.2912 19.4619 86.9209 19.3478 87.5022 19.0998C88.0835 18.8518 88.6016 18.4763 89.0182 18.001V13.7385C88.5929 13.2749 88.0729 12.9081 87.4935 12.663C86.9141 12.4179 86.2887 12.3001 85.6599 12.3176C85.1681 12.278 84.6735 12.3422 84.2081 12.5059C83.7427 12.6696 83.3169 12.9292 82.9583 13.2679C82.5996 13.6067 82.3161 14.017 82.1261 14.4722C81.9361 14.9275 81.8438 15.4176 81.8553 15.9109Z" fill="#50287D"/>
<path d="M97.931 14.3147H103.802V9.84082H106.397V21.9004H103.802V17.0742H97.931V21.9122H95.3359V9.85256H97.931V14.3265V14.3147Z" fill="#50287D"/>
<path d="M125.761 18.5894H122.438V21.9125H125.761V18.5894Z" fill="#50287D"/>
<path d="M131.608 17.0737L122.438 0H140.779L131.608 17.0737Z" fill="#D0DF00"/>
</svg>
