<svg width="104" height="22" viewBox="0 0 104 22" fill="none" xmlns="http://www.w3.org/2000/svg">
<path d="M6.52857 22C5.45235 22 4.51856 21.8753 3.72722 21.626C2.93588 21.3767 2.27115 21.0277 1.73304 20.5789C1.21075 20.1302 0.807169 19.6066 0.522286 19.0083C0.237403 18.3934 0.0633074 17.7202 0 16.9889H2.84883C2.91214 17.3379 3.01501 17.6537 3.15746 17.9363C3.31572 18.2188 3.5373 18.4681 3.82218 18.6842C4.10707 18.9003 4.46317 19.0665 4.8905 19.1828C5.33365 19.2992 5.87967 19.3573 6.52857 19.3573C7.1933 19.3573 7.75516 19.2992 8.21413 19.1828C8.68894 19.0499 9.06878 18.8837 9.35367 18.6842C9.65438 18.4681 9.86804 18.2188 9.99465 17.9363C10.1371 17.6371 10.2083 17.3213 10.2083 16.9889C10.2083 16.1745 9.8443 15.5596 9.11626 15.144C8.40406 14.7285 7.28826 14.3546 5.76889 14.0222C4.91424 13.8227 4.15455 13.59 3.48982 13.3241C2.82509 13.0416 2.27115 12.7008 1.828 12.3019C1.38485 11.8864 1.04457 11.3961 0.807169 10.831C0.585593 10.2493 0.474805 9.55956 0.474805 8.76177C0.474805 8.11357 0.60142 7.49861 0.85465 6.9169C1.12371 6.33518 1.51146 5.82826 2.01792 5.39612C2.52438 4.96399 3.14954 4.62327 3.8934 4.37396C4.65309 4.12465 5.53148 4 6.52857 4C7.49401 4 8.34075 4.11634 9.06878 4.34903C9.79682 4.58172 10.4062 4.91413 10.8968 5.34626C11.4032 5.76177 11.791 6.26039 12.0601 6.84211C12.3449 7.42382 12.519 8.06371 12.5823 8.76177H9.73351C9.6069 8.13019 9.28245 7.62327 8.76016 7.241C8.2537 6.84211 7.50984 6.64266 6.52857 6.64266C5.38904 6.64266 4.56605 6.85042 4.05959 7.26593C3.56895 7.68144 3.32364 8.18006 3.32364 8.76177C3.32364 9.55956 3.64017 10.1579 4.27325 10.5568C4.90632 10.9557 5.87967 11.2964 7.1933 11.5789C8.15874 11.795 9.00548 12.0443 9.73351 12.3269C10.4774 12.6094 11.0946 12.9668 11.5853 13.3989C12.0759 13.8144 12.4399 14.313 12.6773 14.8947C12.9305 15.4765 13.0571 16.1745 13.0571 16.9889C13.0571 17.7036 12.9226 18.3684 12.6536 18.9834C12.3845 19.5983 11.973 20.1302 11.4191 20.5789C10.881 21.0277 10.2004 21.3767 9.37741 21.626C8.57024 21.8753 7.62063 22 6.52857 22Z" fill="#1C0F52"/>
<path d="M15.9153 8.51247H18.3368V10.7562C18.4792 10.4238 18.6691 10.108 18.9065 9.80886C19.1439 9.49307 19.413 9.21884 19.7137 8.98615C20.0302 8.75346 20.3705 8.57064 20.7345 8.43767C21.0985 8.30471 21.4863 8.23823 21.8978 8.23823C22.9424 8.23823 23.7575 8.47091 24.343 8.93629C24.9286 9.40166 25.3322 10.0083 25.5538 10.7562C25.9178 10.0083 26.4243 9.40166 27.0732 8.93629C27.7379 8.47091 28.5055 8.23823 29.376 8.23823C30.6896 8.23823 31.7025 8.64543 32.4147 9.45983C33.1269 10.2742 33.4831 11.5374 33.4831 13.2493V21.7258H30.8716V13.8726C30.8716 12.6925 30.658 11.8615 30.2306 11.3795C29.8191 10.8809 29.2573 10.6316 28.5451 10.6316C27.6904 10.6316 27.0494 10.9391 26.6221 11.554C26.2106 12.1524 26.0049 12.9252 26.0049 13.8726V21.7258H23.3934V13.8726C23.3934 12.6925 23.1798 11.8615 22.7525 11.3795C22.341 10.8809 21.7791 10.6316 21.0669 10.6316C20.2122 10.6316 19.5713 10.9391 19.1439 11.554C18.7324 12.1524 18.5267 12.9252 18.5267 13.8726V21.7258H15.9153V8.51247Z" fill="#1C0F52"/>
<path d="M40.3677 22C39.6872 22 39.0778 21.9003 38.5397 21.7008C38.0174 21.4848 37.5743 21.1939 37.2103 20.8283C36.8463 20.446 36.5693 20.0055 36.3794 19.5069C36.1894 19.0083 36.0945 18.4598 36.0945 17.8615C36.0945 16.5485 36.4664 15.5762 37.2103 14.9446C37.9541 14.2964 39.0462 13.9723 40.4864 13.9723H44.4036V13.2493C44.4036 12.2521 44.1899 11.5706 43.7626 11.205C43.3511 10.8227 42.6943 10.6316 41.7921 10.6316C40.985 10.6316 40.3915 10.7645 40.0116 11.0305C39.6318 11.2964 39.4102 11.662 39.3469 12.1274H36.8067C36.8383 11.5623 36.9729 11.0471 37.2103 10.5817C37.4635 10.0997 37.8038 9.68421 38.2311 9.33518C38.6743 8.98615 39.2045 8.72022 39.8217 8.5374C40.439 8.33795 41.1353 8.23823 41.9108 8.23823C42.6864 8.23823 43.3827 8.32964 44 8.51247C44.6331 8.69529 45.1712 8.98615 45.6143 9.38504C46.0575 9.76731 46.3978 10.2659 46.6352 10.8809C46.8884 11.4958 47.015 12.2355 47.015 13.0997V18.3601C47.015 19.0582 47.0229 19.6731 47.0387 20.205C47.0546 20.7202 47.0941 21.2271 47.1574 21.7258H44.7834C44.7359 21.3435 44.6964 21.0194 44.6647 20.7535C44.6489 20.4875 44.641 20.1551 44.641 19.7562C44.3403 20.3712 43.818 20.903 43.0741 21.3518C42.3461 21.7839 41.444 22 40.3677 22ZM41.0799 19.6066C41.5231 19.6066 41.9425 19.5485 42.3382 19.4321C42.7497 19.2992 43.1058 19.1163 43.4065 18.8837C43.7072 18.6343 43.9446 18.3352 44.1187 17.9861C44.3086 17.6205 44.4036 17.205 44.4036 16.7396V16.0166H40.9612C40.2965 16.0166 39.7584 16.1662 39.3469 16.4654C38.9512 16.7645 38.7534 17.205 38.7534 17.7867C38.7534 18.3352 38.9354 18.7756 39.2994 19.108C39.6793 19.4404 40.2728 19.6066 41.0799 19.6066Z" fill="#1C0F52"/>
<path d="M50.2274 8.51247H52.6489V10.7562C52.9021 10.0748 53.3136 9.48476 53.8834 8.98615C54.469 8.48753 55.1891 8.23823 56.0437 8.23823C56.4394 8.23823 56.7322 8.25485 56.9221 8.28809C57.1279 8.32133 57.2703 8.35457 57.3494 8.38781V10.8809C57.0804 10.7978 56.8351 10.7396 56.6135 10.7064C56.3919 10.6565 56.1229 10.6316 55.8063 10.6316C55.284 10.6316 54.833 10.7313 54.4531 10.9307C54.0891 11.1136 53.7884 11.3629 53.551 11.6787C53.3136 11.9778 53.1316 12.3352 53.005 12.7507C52.8942 13.1496 52.8388 13.5651 52.8388 13.9972V21.7258H50.2274V8.51247Z" fill="#1C0F52"/>
<path d="M64.8081 21.8504C63.3679 21.8504 62.3313 21.5263 61.6982 20.8781C61.0809 20.2299 60.7723 19.1828 60.7723 17.7368V10.856H58.9918V8.51247H60.7723V5.52078H63.3837V8.51247H66.5887V10.856H63.3837V17.3629C63.3837 18.144 63.5183 18.6925 63.7873 19.0083C64.0722 19.3075 64.6103 19.4571 65.4017 19.4571C65.8765 19.4571 66.3513 19.4321 66.8261 19.3823V21.7258C66.5254 21.759 66.2167 21.7839 65.9002 21.8006C65.5837 21.8338 65.2196 21.8504 64.8081 21.8504Z" fill="#1C0F52"/>
<path d="M75.5005 22C74.4243 22 73.4905 21.8753 72.6992 21.626C71.9079 21.3767 71.2431 21.0277 70.705 20.5789C70.1827 20.1302 69.7791 19.6066 69.4943 19.0083C69.2094 18.3934 69.0353 17.7202 68.972 16.9889H71.8208C71.8841 17.3379 71.987 17.6537 72.1294 17.9363C72.2877 18.2188 72.5093 18.4681 72.7942 18.6842C73.079 18.9003 73.4351 19.0665 73.8625 19.1828C74.3056 19.2992 74.8516 19.3573 75.5005 19.3573C76.1653 19.3573 76.7271 19.2992 77.1861 19.1828C77.6609 19.0499 78.0408 18.8837 78.3256 18.6842C78.6263 18.4681 78.84 18.2188 78.9666 17.9363C79.1091 17.6371 79.1803 17.3213 79.1803 16.9889C79.1803 16.1745 78.8163 15.5596 78.0882 15.144C77.376 14.7285 76.2602 14.3546 74.7409 14.0222C73.8862 13.8227 73.1265 13.59 72.4618 13.3241C71.7971 13.0416 71.2431 12.7008 70.8 12.3019C70.3568 11.8864 70.0165 11.3961 69.7791 10.831C69.5576 10.2493 69.4468 9.55956 69.4468 8.76177C69.4468 8.11357 69.5734 7.49861 69.8266 6.9169C70.0957 6.33518 70.4834 5.82826 70.9899 5.39612C71.4964 4.96399 72.1215 4.62327 72.8654 4.37396C73.6251 4.12465 74.5035 4 75.5005 4C76.466 4 77.3127 4.11634 78.0408 4.34903C78.7688 4.58172 79.3781 4.91413 79.8688 5.34626C80.3752 5.76177 80.763 6.26039 81.032 6.84211C81.3169 7.42382 81.491 8.06371 81.5543 8.76177H78.7055C78.5789 8.13019 78.2544 7.62327 77.7321 7.241C77.2257 6.84211 76.4818 6.64266 75.5005 6.64266C74.361 6.64266 73.538 6.85042 73.0316 7.26593C72.5409 7.68144 72.2956 8.18006 72.2956 8.76177C72.2956 9.55956 72.6121 10.1579 73.2452 10.5568C73.8783 10.9557 74.8516 11.2964 76.1653 11.5789C77.1307 11.795 77.9774 12.0443 78.7055 12.3269C79.4493 12.6094 80.0666 12.9668 80.5572 13.3989C81.0479 13.8144 81.4119 14.313 81.6493 14.8947C81.9025 15.4765 82.0291 16.1745 82.0291 16.9889C82.0291 17.7036 81.8946 18.3684 81.6255 18.9834C81.3565 19.5983 80.945 20.1302 80.391 20.5789C79.8529 21.0277 79.1724 21.3767 78.3494 21.626C77.5422 21.8753 76.5926 22 75.5005 22Z" fill="#1C0F52"/>
<path d="M90.3475 22C89.5087 22 88.7173 21.867 87.9735 21.6011C87.2296 21.3186 86.5728 20.903 86.003 20.3546C85.4491 19.7895 85.0059 19.0831 84.6736 18.2355C84.3412 17.3878 84.175 16.3906 84.175 15.2438V14.7452C84.175 13.6482 84.3333 12.6925 84.6498 11.8781C84.9664 11.0637 85.3937 10.3906 85.9318 9.85873C86.4857 9.31025 87.1188 8.90305 87.831 8.63712C88.5432 8.37119 89.3029 8.23823 90.1101 8.23823C92.0251 8.23823 93.4891 8.77839 94.502 9.85873C95.5308 10.9391 96.0452 12.4848 96.0452 14.4958V15.892H86.8339C86.8498 16.5734 86.9526 17.1551 87.1426 17.6371C87.3483 18.1025 87.6094 18.4848 87.926 18.7839C88.2583 19.0665 88.6303 19.2742 89.0418 19.4072C89.4691 19.5402 89.9043 19.6066 90.3475 19.6066C91.2496 19.6066 91.9064 19.4571 92.3179 19.1579C92.7453 18.8587 93.0381 18.4681 93.1963 17.9861H95.8078C95.5545 19.2992 94.9294 20.2964 93.9323 20.9778C92.951 21.6593 91.7561 22 90.3475 22ZM90.2288 10.6316C89.7856 10.6316 89.3583 10.6898 88.9468 10.8061C88.5511 10.9224 88.195 11.1136 87.8785 11.3795C87.5778 11.6288 87.3325 11.9612 87.1426 12.3767C86.9526 12.7756 86.8498 13.2659 86.8339 13.8476H93.4337C93.4179 13.2327 93.3229 12.7175 93.1488 12.3019C92.9906 11.8864 92.769 11.554 92.4841 11.3047C92.1992 11.0554 91.859 10.8809 91.4633 10.7812C91.0834 10.6814 90.6719 10.6316 90.2288 10.6316Z" fill="#1C0F52"/>
<path d="M102.694 21.8504C102.014 21.8504 101.428 21.7756 100.938 21.626C100.447 21.4765 100.035 21.2355 99.703 20.903C99.3865 20.554 99.1491 20.1053 98.9908 19.5568C98.8484 18.9917 98.7771 18.3102 98.7771 17.5125V4.27424H101.389V17.313C101.389 18.1274 101.515 18.6925 101.768 19.0083C102.022 19.3075 102.489 19.4571 103.169 19.4571C103.343 19.4571 103.494 19.4571 103.62 19.4571C103.747 19.4404 103.873 19.4238 104 19.4072V21.7756C103.873 21.8089 103.668 21.8255 103.383 21.8255C103.098 21.8421 102.868 21.8504 102.694 21.8504Z" fill="#1C0F52"/>
<path d="M7.5 18C6.42848 18 5.49879 17.8753 4.71091 17.626C3.92303 17.3767 3.26121 17.0277 2.72545 16.5789C2.20545 16.1302 1.80364 15.6066 1.52 15.0083C1.23636 14.3934 1.06303 13.7202 1 12.9889H3.83636C3.89939 13.3379 4.00182 13.6537 4.14364 13.9363C4.30121 14.2188 4.52182 14.4681 4.80545 14.6842C5.08909 14.9003 5.44364 15.0665 5.86909 15.1828C6.3103 15.2992 6.85394 15.3573 7.5 15.3573C8.16182 15.3573 8.72121 15.2992 9.17818 15.1828C9.65091 15.0499 10.0291 14.8837 10.3127 14.6842C10.6121 14.4681 10.8248 14.2188 10.9509 13.9363C11.0927 13.6371 11.1636 13.3213 11.1636 12.9889C11.1636 12.1745 10.8012 11.5596 10.0764 11.144C9.36727 10.7285 8.25636 10.3546 6.74364 10.0222C5.89273 9.82271 5.13636 9.59003 4.47455 9.3241C3.81273 9.04155 3.26121 8.70083 2.82 8.30194C2.37879 7.88643 2.04 7.39612 1.80364 6.83103C1.58303 6.24931 1.47273 5.55956 1.47273 4.76177C1.47273 4.11357 1.59879 3.49861 1.85091 2.9169C2.11879 2.33518 2.50485 1.82826 3.00909 1.39612C3.51333 0.963988 4.13576 0.623268 4.87636 0.373961C5.63273 0.124654 6.50727 0 7.5 0C8.46121 0 9.30424 0.116343 10.0291 0.34903C10.7539 0.581717 11.3606 0.914127 11.8491 1.34626C12.3533 1.76177 12.7394 2.26039 13.0073 2.84211C13.2909 3.42382 13.4642 4.06371 13.5273 4.76177H10.6909C10.5648 4.13019 10.2418 3.62327 9.72182 3.241C9.21758 2.84211 8.47697 2.64266 7.5 2.64266C6.36546 2.64266 5.54606 2.85042 5.04182 3.26593C4.55333 3.68144 4.30909 4.18006 4.30909 4.76177C4.30909 5.55956 4.62424 6.15789 5.25455 6.55679C5.88485 6.95568 6.85394 7.2964 8.16182 7.57895C9.12303 7.79501 9.96606 8.04432 10.6909 8.32687C11.4315 8.60942 12.0461 8.96676 12.5345 9.39889C13.023 9.8144 13.3855 10.313 13.6218 10.8947C13.8739 11.4765 14 12.1745 14 12.9889C14 13.7036 13.8661 14.3684 13.5982 14.9834C13.3303 15.5983 12.9206 16.1302 12.3691 16.5789C11.8333 17.0277 11.1558 17.3767 10.3364 17.626C9.53273 17.8753 8.58727 18 7.5 18Z" fill="#00B07A"/>
</svg>
