<svg width="70" height="30" viewBox="0 0 70 30" fill="none" xmlns="http://www.w3.org/2000/svg">
<path d="M69.856 13.2041V11.7743C69.856 6.84575 67.1307 4.62522 63.0094 4.62522C56.6947 4.62522 56.0632 10.1495 56.0632 11.8609C56.0632 17.5693 58.9879 19.5841 63.0094 19.6707H63.3529C64.8014 19.7397 66.2301 19.3201 67.3999 18.482C68.5696 17.644 69.4093 16.4384 69.7784 15.0672H65.8456C65.6633 15.5605 65.3211 15.982 64.8711 16.2676C64.4211 16.5531 63.8879 16.6869 63.3529 16.6486H63.0094C62.5745 16.6246 62.1494 16.5122 61.7614 16.3187C61.3733 16.1251 61.0308 15.8546 60.7556 15.5244C60.4804 15.1942 60.2786 14.8115 60.1631 14.4009C60.0476 13.9902 60.0209 13.5604 60.0847 13.1391H70L69.856 13.2041ZM62.9319 7.7448C63.3284 7.74433 63.7209 7.82269 64.0854 7.97513C64.45 8.12756 64.7791 8.35088 65.0526 8.63152C65.3262 8.91216 65.5385 9.24425 65.6767 9.60761C65.815 9.97098 65.8762 10.358 65.8566 10.7452H59.9407C60.1623 8.88215 61.1372 7.7448 62.9319 7.7448ZM55.0772 0H51.233V19.4432H55.0772V0ZM44.0541 4.65771C43.1591 4.62166 42.2723 4.83717 41.4987 5.27871C40.7251 5.72025 40.0971 6.36932 39.6891 7.14905V5.00433H36V25H39.8553V17.4935H39.9329C40.2303 18.0639 40.665 18.5551 41.1996 18.9249C41.7341 19.2947 42.3525 19.5321 43.0016 19.6166C43.3451 19.6707 43.6996 19.7032 44.0541 19.7032C48.4412 19.7032 50.2581 15.9662 50.2581 12.0451C50.2581 7.08406 47.3223 4.63605 44.1316 4.63605L44.0541 4.64688V4.65771ZM43.0016 16.6161H42.8908C40.4203 16.6161 39.7113 13.9731 39.7113 12.3267C39.7113 10.052 40.5644 7.93977 43.0016 7.93977C45.4389 7.93977 46.2255 10.2145 46.2255 12.5108C46.2255 14.818 45.2949 16.562 42.9241 16.6269L43.0016 16.6161Z" fill="#1D1D1B"/>
<path fill-rule="evenodd" clip-rule="evenodd" d="M15 4.47802V19.9414H18.6881V10.4805C18.6881 8.82746 19.2376 7.5027 20.9602 7.5027C22.6721 7.5027 23.1794 9.36674 23.1794 10.6681V19.9531H26.8252V10.6798C26.8252 8.83918 27.491 7.47925 29.3615 7.47925C30.4077 7.47925 31.3376 8.253 31.3376 10.5743V20H34.994V9.17916C35.027 8.47386 34.9229 7.76893 34.6887 7.11222C34.4544 6.45551 34.0956 5.86239 33.6365 5.3731C33.1774 4.88381 32.6288 4.50981 32.0279 4.27648C31.4271 4.04315 30.788 3.95595 30.154 4.0208C29.3963 4.03114 28.6545 4.26452 28.0047 4.69707C27.3548 5.12963 26.8202 5.74585 26.4554 6.48275C26.0927 5.69253 25.5288 5.03792 24.8337 4.60022C24.1385 4.16253 23.3428 3.96105 22.5453 4.0208C21.7157 3.98445 20.8956 4.22839 20.1937 4.72033C19.4917 5.21228 18.9409 5.92906 18.6141 6.77584V4.47802H15Z" fill="#1D1D1B"/>
<path d="M19 0H15V4H19V0Z" fill="#E83180"/>
<path fill-rule="evenodd" clip-rule="evenodd" d="M13.5376 9.72322C13.237 5.69015 9.66474 5 6.69364 5C1.93064 5 0.589595 7.67433 0.589595 9.76636C0.589595 15.115 10.0694 13.3142 10.0694 15.6758C10.0694 16.1934 9.57225 17.1855 7.49133 17.1855C4.9711 17.1855 4.17341 16.2689 4.17341 15.0611H0C0 18.8569 3.87283 20 7.32948 20C9.71098 20 14 19.2667 14 15.115C14 9.83106 4.45087 11.5025 4.45087 9.23796C4.45087 8.63408 4.72832 7.82531 6.92486 7.82531C9.12139 7.82531 9.46821 8.79583 9.6185 9.70165L13.5491 9.72322H13.5376Z" fill="#1D1D1B"/>
<path d="M46.7473 21.2619V26.8565C46.7473 28.5361 46.1978 30 43.8279 30C41.9846 30 41.229 28.956 41.1832 28.2183H41.9503C42.1563 29.1489 42.9578 29.3532 43.8279 29.3532C45.7971 29.3532 46.0261 27.8552 46.0261 26.4707C45.7848 26.8376 45.4532 27.1374 45.0626 27.3419C44.672 27.5464 44.2352 27.6489 43.7935 27.6396C41.893 27.6396 41 26.1416 41 24.3486C41 22.5442 41.8129 21.0917 43.8393 21.0917C44.2811 21.0961 44.714 21.2146 45.0955 21.4355C45.477 21.6564 45.7937 21.9721 46.0146 22.3513V21.2619H46.7473ZM41.7785 24.4394C41.737 24.7462 41.7599 25.0582 41.8458 25.3558C41.9316 25.6534 42.0786 25.9302 42.2774 26.1689C42.4763 26.4076 42.7228 26.6029 43.0014 26.7427C43.28 26.8826 43.5848 26.9638 43.8966 26.9814C44.2043 26.9572 44.504 26.8725 44.7784 26.7322C45.0527 26.5919 45.2961 26.3989 45.4943 26.1644C45.6926 25.9298 45.8417 25.6585 45.933 25.3663C46.0243 25.074 46.0559 24.7666 46.0261 24.4621C46.0261 22.9641 45.3964 21.7385 43.8966 21.7385C42.5685 21.7385 41.79 22.6918 41.79 24.4507L41.7785 24.4394ZM48.9684 22.4307C49.0908 22.0031 49.3635 21.633 49.7373 21.3873C50.1111 21.1417 50.5613 21.0368 51.0063 21.0917V21.8747C49.3806 21.8747 48.9455 23.0209 48.9455 24.4167V27.4126H48.2128V21.2619H48.9341L48.9684 22.4307ZM57.1429 24.3599C57.1822 24.7662 57.1373 25.1762 57.011 25.5647C56.8847 25.9532 56.6796 26.312 56.4084 26.6191C56.1371 26.9262 55.8054 27.1751 55.4337 27.3506C55.0619 27.5261 54.6578 27.6244 54.2463 27.6396C53.8287 27.6402 53.4158 27.5521 53.0355 27.3811C52.6551 27.21 52.3162 26.9601 52.0417 26.6482C51.7671 26.3362 51.5633 25.9695 51.4439 25.5728C51.3246 25.1761 51.2925 24.7586 51.3498 24.3486C51.2853 23.9345 51.3119 23.5115 51.4278 23.1085C51.5437 22.7056 51.7462 22.3323 52.0213 22.0142C52.2965 21.6961 52.6378 21.4407 53.0218 21.2657C53.4059 21.0906 53.8236 21 54.2463 21C54.6691 21 55.0868 21.0906 55.4708 21.2657C55.8549 21.4407 56.1962 21.6961 56.4714 22.0142C56.7465 22.3323 56.949 22.7056 57.0649 23.1085C57.1808 23.5115 57.2074 23.9345 57.1429 24.3486V24.3599ZM52.1169 24.3599C52.1169 25.8579 52.861 26.97 54.2463 26.97C55.6317 26.97 56.3644 25.6877 56.3644 24.3599C56.3644 23.0209 55.769 21.7385 54.2463 21.7385C52.7236 21.7385 52.1169 23.0209 52.1169 24.3486V24.3599ZM58.7114 21.2619V25.3245C58.7114 26.3913 59.1808 26.9814 60.3143 26.9814C61.4477 26.9814 62.1804 26.0054 62.1804 24.6436V21.2619H62.9131V27.458H62.1804V26.6636C61.9526 26.9797 61.6519 27.2372 61.3034 27.4148C60.955 27.5925 60.5687 27.6851 60.1769 27.685C59.8712 27.717 59.5622 27.6798 59.2733 27.576C58.9843 27.4722 58.723 27.3047 58.509 27.086C58.295 26.8674 58.134 26.6033 58.0381 26.3139C57.9423 26.0244 57.9141 25.7172 57.9558 25.4153V21.2619H58.7114ZM65.0083 29.8865H64.287V21.2619H65.0083V22.3513C65.2271 21.9711 65.5437 21.6552 65.9258 21.4359C66.308 21.2166 66.742 21.1017 67.1836 21.103C69.1871 21.103 70 22.5896 70 24.3372C70 26.0962 69.1299 27.6282 67.2065 27.6282C66.7664 27.6356 66.3315 27.5335 65.9415 27.3313C65.5515 27.1291 65.2188 26.8332 64.9739 26.4707L65.0083 29.8979V29.8865ZM65.0083 24.4394C64.9685 24.7447 64.9919 25.0549 65.0769 25.351C65.1619 25.6472 65.3069 25.923 65.5028 26.1619C65.6988 26.4007 65.9418 26.5976 66.217 26.7404C66.4921 26.8832 66.7937 26.9691 67.1034 26.9927C67.4131 26.9714 67.7154 26.8888 67.9924 26.7498C68.2693 26.6108 68.5154 26.4182 68.716 26.1833C68.9167 25.9485 69.0678 25.6762 69.1605 25.3825C69.2532 25.0888 69.2856 24.7797 69.2558 24.4734C69.2558 22.9755 68.6032 21.7499 67.1034 21.7499C65.8555 21.7499 64.9968 22.7031 64.9968 24.4621L65.0083 24.4394Z" fill="#1D1D1B"/>
</svg>
