<svg width="481" height="536" viewBox="0 0 481 536" fill="none" xmlns="http://www.w3.org/2000/svg">
    <rect width="481" height="536" fill="white" />
    <mask id="mask0" mask-type="alpha" maskUnits="userSpaceOnUse" x="35" y="0" width="444" height="536">
        <rect x="35" width="444" height="536" rx="10" fill="#F0F3F4" />
    </mask>
    <g mask="url(#mask0)">
        <path opacity="0.2"
            d="M420.018 292.747C316.238 290.01 219.666 211.729 222.607 100.205C224.082 44.2727 245.613 -12.4673 279.743 -54.8608C313.875 -97.2562 360.478 -125.162 412.085 -123.801C463.742 -122.439 510.714 -93.7877 544.444 -51.3716C578.172 -8.95764 598.552 47.0962 597.078 102.988C595.602 158.956 577.158 207.084 546.213 240.858C515.284 274.614 471.796 294.112 420.018 292.747Z"
            stroke="#BBBFC4" stroke-width="3" />
        <path opacity="0.2"
            d="M405.557 266.21C301.777 263.473 205.205 185.192 208.146 73.6681C209.621 17.7356 231.152 -39.0044 265.282 -81.398C299.414 -123.793 346.018 -151.7 397.624 -150.339C449.281 -148.976 496.253 -120.325 529.983 -77.9087C563.711 -35.4947 584.091 20.5591 582.617 76.4513C581.141 132.419 562.697 180.547 531.752 214.321C500.823 248.077 457.335 267.575 405.557 266.21Z"
            stroke="#BBBFC4" stroke-width="3" />
        <path opacity="0.2"
            d="M370.205 -134.71C472.497 -152.433 582.577 -94.6698 601.622 15.2556C611.174 70.3862 601.22 130.252 576.092 178.529C550.962 226.808 510.756 263.333 459.889 272.146C408.973 280.968 357.284 262.112 315.873 227.156C274.463 192.202 243.459 141.25 233.914 86.159C224.357 30.9939 232.977 -19.8213 256.677 -59.0203C280.365 -98.1994 319.169 -125.868 370.205 -134.71Z"
            stroke="#BBBFC4" stroke-width="3" />
    </g>
</svg>