<svg width="33" height="29" viewBox="0 0 33 29" fill="none" xmlns="http://www.w3.org/2000/svg">
<path d="M22 4.80116H32L28.2358 20.5C10.0779 20.5 5.82888 20.4962 5.82888 20.4962L6.75325 25.09H22.3782H30.2557M5.69047 4.77838L15 4.80116M0 1H5.00125L8.72727 20.4977M15 9L18 11.5L21 9M12.226 26.5449C12.226 27.3473 11.5387 28 10.694 28C9.84917 28 9.16193 27.3473 9.16193 26.5449C9.16193 25.7426 9.84923 25.0899 10.694 25.0899C11.5388 25.0899 12.226 25.7427 12.226 26.5449ZM26.8973 26.5449C26.8973 27.3473 26.2101 28 25.3653 28C24.5205 28 23.8332 27.3473 23.8332 26.5449C23.8332 25.7426 24.5205 25.0899 25.3653 25.0899C26.2101 25.0899 26.8973 25.7427 26.8973 26.5449Z" stroke="#00B07A" stroke-width="1.5"/>
</svg>
