<svg width="37" height="35" viewBox="0 0 37 35" fill="none" xmlns="http://www.w3.org/2000/svg">
<path d="M28.7118 18.3713V11H36V32.9297H17.0506M28.7118 18.3713H22.8812V24.2684M28.7118 18.3713V32.9297M22.8812 24.2684H17.7794C17.5861 24.2684 17.4008 24.346 17.2641 24.4843C17.1274 24.6225 17.0506 24.81 17.0506 25.0055V32.9297M22.8812 24.2684V32.9297M17.0506 32.9297C15.0711 34.6256 11.2801 34 9.74587 32.9288M17.0506 32.9297V26.1449V23.4463M17.0506 23.4463C16.3936 20.947 10.1339 21.4825 9.74587 23M17.0506 23.4463C16.8344 24.0711 16.1553 24.8745 13.3078 24.8745C12.1617 24.8745 9.83019 24.4858 9.74587 23M9.74587 23C9.61927 23.2282 8.75843 23.7348 5.37294 23.7348C1.98744 23.7348 1.12661 22.6241 1 22.3959M9.74587 23V20.7316V16M9.74587 23V26.1449M9.74587 19.0039C9.61927 19.2322 8.75843 20.3429 5.37294 20.3429C1.98744 20.3429 1.12661 19.2322 1 19.0039M9.74587 16C9.74587 15.5855 9.5477 14.8101 8.22039 14.2732C7.44806 13.9607 6.43681 13.7886 5.37294 13.7886C4.30906 13.7886 3.29781 13.9607 2.52548 14.2732C1.19817 14.8101 1 15.5855 1 16M9.74587 16C9.55636 16.2416 8.58211 17.2698 5.37294 17.2698C1.52898 17.2698 1.18952 16.2416 1 16M1 16V31.7886C1 32.203 1.19817 32.9785 2.52548 33.5154C3.29781 33.8279 4.30906 34 5.37294 34C6.43681 34 7.63345 33.8279 8.40578 33.5154C8.68888 33.4052 9.74587 32.9288 9.74587 32.9288M9.74587 32.9288V26.1449M9.83019 25.6085C9.80697 25.5991 9.78489 25.5895 9.76235 25.5799V27.5394M9.74587 26.1449C9.61927 26.3731 8.75843 27.4838 5.37294 27.4838C1.98744 27.4838 1.12661 26.3731 1 26.1449M1 29.8046C1.12661 30.0329 1.98744 31.1436 5.37294 31.1436C8.75843 31.1436 9.61927 30.0329 9.74587 29.8046C10.7835 30.608 13.697 31.7327 17.0506 29.8046" stroke="#00B07A" stroke-width="1.5"/>
<path d="M16 17H19.4211L36 1M36 1V4.16578M36 1H32.6667" stroke="#00B07A" stroke-width="1.5"/>
</svg>
