<svg width="36" height="30" viewBox="0 0 36 30" fill="none" xmlns="http://www.w3.org/2000/svg">
<path d="M32.9827 1.09786C31.2524 0.389928 29.0029 0 26.6484 0C24.294 0 22.0444 0.389928 20.3142 1.09786C19.2917 1.51621 18.511 2.0275 18 2.60121C17.489 2.0275 16.7083 1.51629 15.6858 1.09793C13.9556 0.389928 11.706 0 9.35156 0C6.99715 0 4.74757 0.389928 3.01732 1.09786C1.07156 1.894 0 3.02614 0 4.28571V21.4286C0 22.6881 1.07156 23.8203 3.01732 24.6164C4.62656 25.2749 6.68517 25.6577 8.85938 25.7081V25.7143C8.85938 28.1576 12.789 30 18 30C23.211 30 27.1406 28.1576 27.1406 25.7143V25.7081C29.3148 25.6577 31.3734 25.2749 32.9827 24.6164C34.9284 23.8203 36 22.6881 36 21.4286V4.28571C36 3.02614 34.9284 1.894 32.9827 1.09786ZM34.5938 17.1429C34.5938 17.7526 33.7751 18.4664 32.4573 19.0056C31.031 19.5891 29.1161 19.9422 27.1406 19.9929V17.1429C27.1406 17.1408 27.1405 17.1387 27.1405 17.1367C29.3148 17.0864 31.3734 16.7035 32.9828 16.045C33.6144 15.7866 34.1532 15.4926 34.5938 15.1704L34.5938 17.1429ZM17.2969 8.57143C17.2969 9.18121 16.4782 9.89493 15.1604 10.4341C13.6159 11.0661 11.4986 11.4286 9.35156 11.4286C7.2045 11.4286 5.08725 11.0661 3.5427 10.4341C2.2249 9.89493 1.40625 9.18121 1.40625 8.57143V6.599C1.8469 6.92114 2.3857 7.21514 3.01732 7.47357C4.74757 8.1815 6.99715 8.57143 9.35156 8.57143C11.706 8.57143 13.9556 8.1815 15.6858 7.47357C16.3174 7.21514 16.8562 6.92114 17.2969 6.599V8.57143ZM3.01732 11.7593C4.74757 12.4672 6.99715 12.8571 9.35156 12.8571C11.706 12.8571 13.9556 12.4672 15.6858 11.7593C16.3174 11.5009 16.8562 11.2069 17.2969 10.8847V12.8698C15.4779 12.9324 13.7334 13.2356 12.3225 13.7404C10.9073 14.2468 9.88896 14.922 9.33518 15.7141C7.19374 15.7122 5.08331 15.3502 3.5427 14.7199C2.2249 14.1806 1.40625 13.4669 1.40625 12.8571V10.8847C1.8469 11.2069 2.3857 11.5009 3.01732 11.7593ZM1.40625 15.1704C1.8469 15.4926 2.3857 15.7866 3.01732 16.045C4.62663 16.7034 6.68531 17.0863 8.85959 17.1367C8.85959 17.1388 8.85945 17.1409 8.85945 17.1429V19.9929C6.88387 19.9422 4.96906 19.5891 3.54277 19.0056C2.2249 18.4664 1.40625 17.7526 1.40625 17.1429V15.1704ZM10.34 16.7919C10.8611 15.56 13.8687 14.2857 18 14.2857C22.1313 14.2857 25.1389 15.56 25.6594 16.7905C25.7099 16.9106 25.7344 17.0258 25.7344 17.1429C25.7344 17.7709 24.9723 18.4684 23.6957 19.0088C22.1856 19.648 20.1629 20 18 20C15.8371 20 13.8144 19.648 12.3043 19.0088C11.0277 18.4684 10.2656 17.7709 10.2656 17.1429C10.2656 17.0258 10.2902 16.9106 10.34 16.7919ZM34.5938 12.8571C34.5938 13.4669 33.7751 14.1806 32.4573 14.7199C30.9168 15.3502 28.8064 15.7122 26.665 15.7141C26.1117 14.9224 25.0932 14.2469 23.6775 13.7404C22.2666 13.2356 20.5221 12.9324 18.7031 12.8698V10.8847C19.1438 11.2069 19.6826 11.5009 20.3142 11.7593C22.0444 12.4672 24.294 12.8571 26.6484 12.8571C29.0029 12.8571 31.2524 12.4672 32.9827 11.7593C33.6143 11.5009 34.1531 11.2069 34.5938 10.8847V12.8571ZM34.5938 8.57143C34.5938 9.18121 33.7751 9.89493 32.4573 10.4341C30.9128 11.0661 28.7955 11.4286 26.6484 11.4286C24.5014 11.4286 22.3841 11.0661 20.8396 10.4341C19.5218 9.89493 18.7031 9.18121 18.7031 8.57143V6.599C19.1438 6.92114 19.6826 7.21514 20.3142 7.47357C22.0444 8.1815 24.294 8.57143 26.6484 8.57143C29.0029 8.57143 31.2524 8.1815 32.9827 7.47357C33.6143 7.21514 34.1531 6.92114 34.5938 6.599V8.57143ZM20.8396 2.423C22.3841 1.791 24.5014 1.42857 26.6484 1.42857C28.7955 1.42857 30.9128 1.791 32.4573 2.423C33.7751 2.96221 34.5938 3.67593 34.5938 4.28571C34.5938 4.8955 33.7751 5.60921 32.4573 6.14843C30.9128 6.78043 28.7955 7.14286 26.6484 7.14286C24.5014 7.14286 22.3841 6.78043 20.8396 6.14843C19.5218 5.60921 18.7031 4.8955 18.7031 4.28571C18.7031 3.67593 19.5218 2.96221 20.8396 2.423ZM3.5427 2.423C5.08725 1.791 7.2045 1.42857 9.35156 1.42857C11.4986 1.42857 13.6159 1.791 15.1604 2.423C16.4782 2.96221 17.2969 3.67593 17.2969 4.28571C17.2969 4.8955 16.4782 5.60921 15.1604 6.14843C13.6159 6.78043 11.4986 7.14286 9.35156 7.14286C7.2045 7.14286 5.08725 6.78043 3.5427 6.14843C2.2249 5.60921 1.40625 4.8955 1.40625 4.28571C1.40625 3.67593 2.2249 2.96221 3.5427 2.423ZM3.5427 23.2913C2.2249 22.7521 1.40625 22.0384 1.40625 21.4286V19.4561C1.8469 19.7783 2.3857 20.0723 3.01732 20.3307C4.62656 20.9891 6.68517 21.372 8.85938 21.4224V24.2787C6.8838 24.2279 4.96898 23.8749 3.5427 23.2913ZM23.6957 27.5802C22.1856 28.2194 20.1629 28.5714 18 28.5714C15.8371 28.5714 13.8144 28.2194 12.3043 27.5802C11.0277 27.0399 10.2656 26.3423 10.2656 25.7143V23.7835C10.4249 23.9006 10.6009 24.0169 10.7961 24.1316C11.8879 24.7735 13.7143 25.7143 20.3472 25.5451C20.3818 25.5502 20.4161 25.5527 20.4502 25.5527C20.7933 25.5527 21.0936 25.2972 21.1449 24.9421C21.2013 24.5518 20.9355 24.1889 20.5514 24.1316C12.3043 24.4808 10.2656 22.3556 10.2656 21.4286V19.4914C11.8571 20.6744 14.6663 21.4286 18 21.4286C21.3337 21.4286 24.1429 20.6744 25.7344 19.4914V21.4286C25.7344 22.3556 23.9711 23.6038 20.7033 24.0911C20.3191 24.1484 20.0533 24.5113 20.1098 24.9016C20.1611 25.2568 20.4614 25.5122 20.8046 25.5122C20.8385 25.5122 20.873 25.5097 20.9076 25.5046C22.6264 25.2483 24.112 24.7736 25.2039 24.1316C25.3991 24.0169 25.5751 23.9006 25.7344 23.7835V25.7143C25.7344 26.3423 24.9723 27.0399 23.6957 27.5802ZM32.4573 23.2913C31.031 23.8749 29.1161 24.2279 27.1406 24.2786V21.4224C29.3148 21.3719 31.3734 20.9891 32.9827 20.3306C33.6143 20.0722 34.1531 19.7782 34.5938 19.4561V21.4286C34.5938 22.0384 33.7751 22.7521 32.4573 23.2913Z" fill="#00B07A"/>
</svg>
