<svg width="111" height="18" viewBox="0 0 111 18" fill="none" xmlns="http://www.w3.org/2000/svg">
<path d="M61.1118 1.99414H58.3464C57.3352 1.99414 56.3134 2.38692 55.4721 3.10349H55.4748L48.418 9.56584H50.8649L56.6399 4.27919C57.0937 3.90763 57.6351 3.70328 58.1739 3.70328H58.8851L58.4711 6.06529H57.0088C55.6473 6.06529 54.7609 6.90659 54.7609 6.90659L53.824 7.77443H58.1686L57.8527 9.56584H59.7795L61.1118 1.99414Z" fill="#1B1E1D"/>
<path d="M50.8438 1.99512H43.4393L43.1367 3.70426H45.9446L44.9122 9.56682H46.8151L47.8475 3.70426H50.528L50.8438 1.99512Z" fill="#1B1E1D"/>
<path d="M29.69 1.98779L23.8858 7.25587L24.8147 1.98779H22.9118L21.5742 9.56745H22.312C23.8354 9.56745 25.019 8.45811 25.019 8.45811L29.7165 4.19587L28.7691 9.57011H30.6719L32.0095 1.99045H29.69V1.98779Z" fill="#1B1E1D"/>
<path d="M92.8892 1.9873L87.085 7.25538L88.0139 1.9873H86.111L84.7734 9.56697H85.5112C87.0346 9.56697 88.2183 8.45762 88.2183 8.45762L92.9157 4.19539L91.9683 9.56962H93.8712L95.2087 1.98996H92.8892V1.9873Z" fill="#1B1E1D"/>
<path d="M36.4341 7.85768L36.4314 7.86564V7.85768C35.2876 7.85768 34.5179 6.92614 34.7196 5.78229C34.9213 4.63579 36.0174 3.70426 37.1639 3.70426H41.2032L41.6358 1.99512H37.2674C35.1788 1.99512 33.183 3.69629 32.8168 5.78229C32.4479 7.87095 33.8491 9.56682 35.9378 9.56682V9.56151V9.56682H40.561L40.8635 7.85768H36.4341Z" fill="#1B1E1D"/>
<path d="M73.4496 5.77832C73.0807 7.86697 74.482 9.56284 76.5706 9.56284V9.55753V9.56284H83.3647L83.6672 7.8537H77.0669L77.0642 7.86167V7.8537C75.9204 7.8537 75.1508 6.92217 75.3525 5.77832" fill="#1B1E1D"/>
<path d="M70.4111 1.98779L69.7051 6.01648H64.2964L64.9944 1.98779H63.0888L61.7539 9.57011L63.6754 9.5648L63.9938 7.76543H69.3946L69.0735 9.57011L70.9949 9.5648L72.3139 1.98779H70.4111Z" fill="#1B1E1D"/>
<path d="M98.9896 6.94092L96.1445 9.56832H96.8823C98.4057 9.56832 99.5894 8.45897 99.5894 8.45897L100.959 7.28858L98.9896 6.94092Z" fill="#1B1E1D"/>
<path d="M99.3352 6.0954C98.6266 6.0954 97.918 5.77958 98.0719 4.85335C98.2153 3.98551 98.8442 3.73339 100.161 3.73339H102.528L102.854 1.98975H99.5555C97.9791 1.98975 96.469 3.27425 96.193 4.8507C95.9143 6.42714 96.9732 7.71165 98.5497 7.71165V7.70634V7.71165H102.042L102.27 6.09274H99.3352V6.0954Z" fill="#1B1E1D"/>
<path d="M104.088 1.98535H102.185L100.848 9.56767L102.772 9.56236L104.088 1.98535Z" fill="#1B1E1D"/>
<path d="M75.2404 6.49636L76.0074 2.09082H74.1045L73.3906 6.13012" fill="#1B1E1D"/>
<path d="M81.9943 8.55897L83.1037 2.09131H81.2008L80.1445 8.19007" fill="#1B1E1D"/>
<path d="M16.2121 1.99512H13.4467C12.4355 1.99512 11.4138 2.3879 10.5725 3.10447H10.5751L3.51562 9.56682H5.96256L11.7375 4.28016C12.1914 3.90861 12.7328 3.70426 13.2715 3.70426H13.9828L12.9504 9.56682H14.8772L16.2121 1.99512Z" fill="#33AD6A"/>
<path d="M15.9103 9.56998H3.12891L3.43146 7.86084H16.2128L15.9103 9.56998Z" fill="#33AD6A"/>
<path d="M19.2 1.37209C19.2026 1.06423 19.1602 0.774951 19.0168 0.504249C18.8841 0.254779 18.701 0.0716565 18.3985 0.0557328C18.0827 0.0345013 17.7695 0 17.4563 0C15.8507 0 10.2323 0.0106158 8.03483 0.0132697C6.9361 0.0106158 4.04861 0 2.44297 0C2.12981 0 1.81664 0.0345013 1.50083 0.0530789C1.19828 0.0716565 1.01515 0.252125 0.882456 0.504249C0.739144 0.774951 0.696681 1.06423 0.699334 1.37209C0.707296 2.87157 0.701988 4.36839 0.701988 5.86787H0.704642C0.704642 7.36735 0.704642 8.86682 0.704642 10.3636C0.704642 11.2129 1.15581 11.6482 2.00507 11.6428C3.67175 11.6349 6.05499 11.6455 7.72167 11.6322C7.76678 11.6322 7.80925 11.6349 7.8464 11.6375C8.00299 11.6614 8.09322 11.7251 8.14895 11.8286C8.16753 11.8897 8.17549 11.964 8.16488 12.0622C8.13037 12.3727 8.25246 13.4873 7.70574 13.4608C7.43504 13.4475 7.16168 13.4502 6.88833 13.4555C6.68132 13.4581 6.47431 13.4608 6.26731 13.4608C6.17707 13.4608 6.0948 13.4688 6.02049 13.4873C6.00987 13.49 5.99926 13.4953 5.98864 13.498C5.97537 13.5033 5.95945 13.5059 5.94618 13.5112C5.76837 13.5749 5.6569 13.7129 5.64894 13.9969C5.63832 14.4507 5.9568 14.4162 6.23015 14.4162C7.7084 14.4189 9.1893 14.4162 10.6675 14.4162C12.1458 14.4162 12.1909 14.4189 13.6692 14.4162C13.9452 14.4162 14.2636 14.4507 14.2504 13.9969C14.2424 13.7129 14.1309 13.5749 13.9531 13.5112C13.9399 13.5059 13.9239 13.5033 13.9107 13.498C13.9 13.4953 13.8894 13.49 13.8788 13.4873C13.8045 13.4688 13.7222 13.4608 13.632 13.4608C13.425 13.4608 13.218 13.4581 13.011 13.4555C12.7376 13.4502 12.4643 13.4475 12.1936 13.4608C11.6442 13.4873 11.7663 12.3727 11.7344 12.0622C11.7238 11.964 11.7291 11.8897 11.7504 11.8286C11.8034 11.7251 11.8963 11.6641 12.0529 11.6375C12.0927 11.6349 12.1325 11.6322 12.1776 11.6322C13.8443 11.6455 16.2276 11.6349 17.8942 11.6428C18.7435 11.6455 19.1947 11.2129 19.1947 10.3636C19.1947 8.86417 19.1947 7.36469 19.1947 5.86787H19.1973C19.1973 4.36839 19.192 2.87157 19.2 1.37209ZM18.0375 10.0983C18.0375 10.6025 17.9738 10.6582 17.3608 10.6582C17.1617 10.6582 16.9627 10.6582 16.7636 10.6582C13.7753 10.6609 12.2201 10.6582 10.6649 10.6582C8.39311 10.6582 5.40478 10.6609 3.133 10.6582H3.13565C2.93661 10.6582 2.73491 10.6582 2.53586 10.6582C1.9228 10.6582 1.85911 10.6025 1.85911 10.0983C1.86176 7.25057 1.87768 4.40024 1.85911 1.55521C1.85645 1.08281 2.01834 0.971343 2.45359 0.976651C4.05657 0.989921 6.94937 0.979305 8.02422 0.976651C10.1845 0.981959 15.8401 0.989921 17.4431 0.976651C17.8783 0.973997 18.0429 1.08546 18.0375 1.55521C18.0216 4.40024 18.0349 7.25057 18.0375 10.0983Z" fill="#33AD6A"/>
<path d="M16.9054 14.4339H16.3747C16.1544 14.4339 15.9766 14.2561 15.9766 14.0358C15.9766 13.8155 16.1544 13.6377 16.3747 13.6377H16.9054C17.1257 13.6377 17.3035 13.8155 17.3035 14.0358C17.3035 14.2561 17.1257 14.4339 16.9054 14.4339Z" fill="#33AD6A"/>
<path d="M86.201 14.4339H85.1341C84.9139 14.4339 84.7361 14.2561 84.7361 14.0358C84.7361 13.8155 84.9139 13.6377 85.1341 13.6377H86.201C86.4213 13.6377 86.5991 13.8155 86.5991 14.0358C86.5991 14.2561 86.4213 14.4339 86.201 14.4339ZM82.735 14.4339H81.6681C81.4478 14.4339 81.27 14.2561 81.27 14.0358C81.27 13.8155 81.4478 13.6377 81.6681 13.6377H82.735C82.9553 13.6377 83.1331 13.8155 83.1331 14.0358C83.1331 14.2561 82.9553 14.4339 82.735 14.4339ZM79.2716 14.4339H78.2047C77.9844 14.4339 77.8066 14.2561 77.8066 14.0358C77.8066 13.8155 77.9844 13.6377 78.2047 13.6377H79.2716C79.4919 13.6377 79.6697 13.8155 79.6697 14.0358C79.6697 14.2561 79.4919 14.4339 79.2716 14.4339ZM75.8055 14.4339H74.7386C74.5184 14.4339 74.3406 14.2561 74.3406 14.0358C74.3406 13.8155 74.5184 13.6377 74.7386 13.6377H75.8055C76.0258 13.6377 76.2036 13.8155 76.2036 14.0358C76.2036 14.2561 76.0258 14.4339 75.8055 14.4339ZM72.3421 14.4339H71.2753C71.055 14.4339 70.8772 14.2561 70.8772 14.0358C70.8772 13.8155 71.055 13.6377 71.2753 13.6377H72.3421C72.5624 13.6377 72.7402 13.8155 72.7402 14.0358C72.7402 14.2561 72.5598 14.4339 72.3421 14.4339ZM68.8761 14.4339H67.8092C67.5889 14.4339 67.4111 14.2561 67.4111 14.0358C67.4111 13.8155 67.5889 13.6377 67.8092 13.6377H68.8761C69.0964 13.6377 69.2742 13.8155 69.2742 14.0358C69.2742 14.2561 69.0964 14.4339 68.8761 14.4339ZM65.41 14.4339H64.3432C64.1229 14.4339 63.9451 14.2561 63.9451 14.0358C63.9451 13.8155 64.1229 13.6377 64.3432 13.6377H65.41C65.6303 13.6377 65.8081 13.8155 65.8081 14.0358C65.8081 14.2561 65.6303 14.4339 65.41 14.4339ZM61.9466 14.4339H60.8798C60.6595 14.4339 60.4817 14.2561 60.4817 14.0358C60.4817 13.8155 60.6595 13.6377 60.8798 13.6377H61.9466C62.1669 13.6377 62.3447 13.8155 62.3447 14.0358C62.3447 14.2561 62.1669 14.4339 61.9466 14.4339ZM58.4806 14.4339H57.4137C57.1934 14.4339 57.0156 14.2561 57.0156 14.0358C57.0156 13.8155 57.1934 13.6377 57.4137 13.6377H58.4806C58.7009 13.6377 58.8787 13.8155 58.8787 14.0358C58.8787 14.2561 58.7009 14.4339 58.4806 14.4339ZM55.0172 14.4339H53.9503C53.73 14.4339 53.5522 14.2561 53.5522 14.0358C53.5522 13.8155 53.73 13.6377 53.9503 13.6377H55.0172C55.2375 13.6377 55.4153 13.8155 55.4153 14.0358C55.4153 14.2561 55.2348 14.4339 55.0172 14.4339ZM51.5512 14.4339H50.4843C50.264 14.4339 50.0862 14.2561 50.0862 14.0358C50.0862 13.8155 50.264 13.6377 50.4843 13.6377H51.5512C51.7714 13.6377 51.9492 13.8155 51.9492 14.0358C51.9492 14.2561 51.7714 14.4339 51.5512 14.4339ZM48.0851 14.4339H47.0182C46.7979 14.4339 46.6201 14.2561 46.6201 14.0358C46.6201 13.8155 46.7979 13.6377 47.0182 13.6377H48.0851C48.3054 13.6377 48.4832 13.8155 48.4832 14.0358C48.4832 14.2561 48.3054 14.4339 48.0851 14.4339ZM44.6217 14.4339H43.5548C43.3345 14.4339 43.1567 14.2561 43.1567 14.0358C43.1567 13.8155 43.3345 13.6377 43.5548 13.6377H44.6217C44.842 13.6377 45.0198 13.8155 45.0198 14.0358C45.0198 14.2561 44.842 14.4339 44.6217 14.4339ZM41.1557 14.4339H40.0888C39.8685 14.4339 39.6907 14.2561 39.6907 14.0358C39.6907 13.8155 39.8685 13.6377 40.0888 13.6377H41.1557C41.3759 13.6377 41.5537 13.8155 41.5537 14.0358C41.5537 14.2561 41.3759 14.4339 41.1557 14.4339ZM37.6923 14.4339H36.6254C36.4051 14.4339 36.2273 14.2561 36.2273 14.0358C36.2273 13.8155 36.4051 13.6377 36.6254 13.6377H37.6923C37.9125 13.6377 38.0904 13.8155 38.0904 14.0358C38.0904 14.2561 37.9099 14.4339 37.6923 14.4339ZM34.2262 14.4339H33.1593C32.939 14.4339 32.7612 14.2561 32.7612 14.0358C32.7612 13.8155 32.939 13.6377 33.1593 13.6377H34.2262C34.4465 13.6377 34.6243 13.8155 34.6243 14.0358C34.6243 14.2561 34.4465 14.4339 34.2262 14.4339ZM30.7602 14.4339H29.6933C29.473 14.4339 29.2952 14.2561 29.2952 14.0358C29.2952 13.8155 29.473 13.6377 29.6933 13.6377H30.7602C30.9804 13.6377 31.1583 13.8155 31.1583 14.0358C31.1583 14.2561 30.9804 14.4339 30.7602 14.4339ZM27.2968 14.4339H26.2299C26.0096 14.4339 25.8318 14.2561 25.8318 14.0358C25.8318 13.8155 26.0096 13.6377 26.2299 13.6377H27.2968C27.517 13.6377 27.6949 13.8155 27.6949 14.0358C27.6949 14.2561 27.517 14.4339 27.2968 14.4339ZM23.8307 14.4339H22.7638C22.5436 14.4339 22.3657 14.2561 22.3657 14.0358C22.3657 13.8155 22.5436 13.6377 22.7638 13.6377H23.8307C24.051 13.6377 24.2288 13.8155 24.2288 14.0358C24.2288 14.2561 24.051 14.4339 23.8307 14.4339ZM20.3673 14.4339H19.3004C19.0802 14.4339 18.9023 14.2561 18.9023 14.0358C18.9023 13.8155 19.0802 13.6377 19.3004 13.6377H20.3673C20.5876 13.6377 20.7654 13.8155 20.7654 14.0358C20.7654 14.2561 20.5849 14.4339 20.3673 14.4339Z" fill="#33AD6A"/>
<path d="M89.1372 14.9647H89.1345C88.9142 14.962 88.7391 14.7842 88.7391 14.5639V14.4339H88.609C88.3888 14.4339 88.2109 14.2561 88.2109 14.0358C88.2109 13.8155 88.3888 13.6377 88.609 13.6377H89.1398C89.246 13.6377 89.3468 13.6802 89.4238 13.7545C89.4981 13.8288 89.5406 13.9323 89.5379 14.0384L89.5326 14.5692C89.5353 14.7895 89.3574 14.9647 89.1372 14.9647Z" fill="#33AD6A"/>
<path d="M89.6398 17.4217H89.109C89.0029 17.4217 88.902 17.3792 88.8277 17.3049C88.7534 17.2306 88.7109 17.1271 88.7109 17.021L88.7162 16.4902C88.7189 16.2725 88.8967 16.0947 89.1143 16.0947H89.117C89.3373 16.0974 89.5151 16.2752 89.5124 16.4955V16.6255H89.6425C89.8628 16.6255 90.0406 16.8033 90.0406 17.0236C90.0379 17.2439 89.8601 17.4217 89.6398 17.4217Z" fill="#33AD6A"/>
<path d="M95.8611 17.4241H94.903C94.6828 17.4241 94.505 17.2463 94.505 17.026C94.505 16.8057 94.6828 16.6279 94.903 16.6279H95.8611C96.0814 16.6279 96.2592 16.8057 96.2592 17.026C96.2592 17.2463 96.0787 17.4241 95.8611 17.4241ZM92.7507 17.4241H91.7926C91.5723 17.4241 91.3945 17.2463 91.3945 17.026C91.3945 16.8057 91.5723 16.6279 91.7926 16.6279H92.7507C92.971 16.6279 93.1488 16.8057 93.1488 17.026C93.1488 17.2463 92.971 17.4241 92.7507 17.4241Z" fill="#33AD6A"/>
<path d="M98.5461 17.4236H98.0153C97.795 17.4236 97.6172 17.2458 97.6172 17.0255C97.6172 16.8053 97.795 16.6274 98.0153 16.6274H98.5461C98.7663 16.6274 98.9442 16.8053 98.9442 17.0255C98.9442 17.2458 98.7663 17.4236 98.5461 17.4236Z" fill="#33AD6A"/>
<path d="M109.874 6.70778C109.64 6.69451 109.407 6.66797 109.173 6.66797C108.648 6.66797 107.549 6.67062 106.342 6.67062V7.39515C107.546 7.39515 108.645 7.39515 109.165 7.38984C109.489 7.38719 109.611 7.46946 109.609 7.81978C109.595 9.93497 109.606 12.0475 109.609 14.1627C109.609 14.5369 109.561 14.5794 109.107 14.5794C108.958 14.5794 108.81 14.5794 108.664 14.5794C106.445 14.582 105.291 14.5794 104.136 14.5794C102.451 14.5794 100.229 14.5794 98.5442 14.5794H98.5469C98.3983 14.5794 98.2496 14.5794 98.101 14.5794C97.6472 14.5794 97.5994 14.5396 97.5994 14.1627C97.5994 13.1967 97.6021 12.2306 97.6047 11.2646H96.7422C96.7422 12.297 96.7422 13.3294 96.7422 14.3617C96.7422 14.9934 97.0766 15.3145 97.7082 15.3119C98.945 15.3066 100.715 15.3145 101.952 15.3039C101.986 15.3039 102.016 15.3039 102.045 15.3066C102.162 15.3251 102.228 15.3702 102.268 15.4472C102.281 15.4923 102.286 15.5481 102.278 15.6197C102.254 15.8506 102.345 16.6786 101.936 16.6601C101.734 16.6494 101.533 16.6521 101.328 16.6548C101.174 16.6574 101.02 16.6601 100.866 16.6601C100.8 16.6601 100.739 16.6654 100.683 16.6813C100.675 16.684 100.667 16.6866 100.659 16.6893C100.649 16.6919 100.638 16.6946 100.628 16.6999C100.495 16.7476 100.413 16.8511 100.407 17.0608C100.399 17.3979 100.636 17.3713 100.84 17.3713C101.939 17.3713 103.037 17.3713 104.133 17.3713C105.232 17.3713 105.264 17.374 106.363 17.3713C106.567 17.3713 106.803 17.3979 106.795 17.0608C106.79 16.8511 106.705 16.7476 106.575 16.6999C106.564 16.6946 106.554 16.6919 106.543 16.6893C106.535 16.6866 106.527 16.684 106.519 16.6813C106.464 16.668 106.403 16.6601 106.336 16.6601C106.182 16.6601 106.028 16.6574 105.874 16.6548C105.673 16.6521 105.468 16.6494 105.267 16.6601C104.861 16.6786 104.951 15.8506 104.924 15.6197C104.916 15.5481 104.922 15.4923 104.935 15.4472C104.975 15.3702 105.044 15.3251 105.158 15.3066C105.187 15.3039 105.216 15.3039 105.251 15.3039C106.487 15.3145 108.258 15.3066 109.494 15.3119C110.126 15.3145 110.46 14.9934 110.46 14.3617C110.46 13.2497 110.46 12.1351 110.46 11.0231H110.463C110.463 9.91109 110.46 8.79643 110.466 7.68443C110.466 7.45619 110.437 7.24122 110.33 7.03952C110.235 6.8564 110.099 6.72105 109.874 6.70778Z" fill="#33AD6A"/>
</svg>
