<svg id="Layer_1" data-name="Layer 1" xmlns="http://www.w3.org/2000/svg" xmlns:xlink="http://www.w3.org/1999/xlink" viewBox="0 0 232 215"><defs><style>.cls-1{opacity:0.4;}.cls-2,.cls-3,.cls-4,.cls-5{fill:none;stroke-width:3px;}.cls-2{stroke:url(#linear-gradient);}.cls-3{stroke:url(#linear-gradient-2);}.cls-4{stroke:url(#linear-gradient-3);}.cls-5{stroke:url(#linear-gradient-4);}</style><linearGradient id="linear-gradient" x1="28.25" y1="60.16" x2="197.99" y2="128.87" gradientTransform="matrix(1, 0, 0, -1, 0, 216)" gradientUnits="userSpaceOnUse"><stop offset="0.4" stop-color="#4ae7b6"/><stop offset="1" stop-color="#8038ed"/></linearGradient><linearGradient id="linear-gradient-2" x1="31.6" y1="66.85" x2="194.88" y2="125.55" xlink:href="#linear-gradient"/><linearGradient id="linear-gradient-3" x1="31.9" y1="60.01" x2="198.84" y2="141.27" xlink:href="#linear-gradient"/><linearGradient id="linear-gradient-4" x1="183.74" y1="160.27" x2="50.95" y2="34.28" xlink:href="#linear-gradient"/></defs><g class="cls-1"><path class="cls-2" d="M141.9,65.32c30.29,17.49,46.9,54.37,29.7,84.16-8.69,15.05-23.42,27.14-39.74,33.27s-34.1,6.26-49-2.33-24.52-24-28.18-41S53.33,103.79,62,88.78s21.22-25.25,35.23-29.5S126.86,56.64,141.9,65.32Z"/><path class="cls-3" d="M141.58,65c27.19,15.69,41.36,50.45,24.5,79.66a80.87,80.87,0,0,1-37.74,33.25c-15.24,6.42-31.55,7.1-44.9-.61S61.73,155.21,58.92,139a74,74,0,0,1,8.41-48.86c8.53-14.78,20.41-25,33.45-29.48S128.08,57.17,141.58,65Z"/><path class="cls-4" d="M142.64,60.88c16.89,9.75,30.48,24.2,37.74,39.8s8.13,32.19-.13,46.49c-16.75,29-60.2,44.46-93.67,25.13S41.33,108,58,79.09C66.37,64.6,79.14,55.24,94,51.89S125.8,51.16,142.64,60.88Z"/><path class="cls-5" d="M113.08,183.61c-33.08-3.73-61.59-31.36-57.6-66.68A84.74,84.74,0,0,1,78,69c12.08-12.61,27.64-20.14,43.89-18.3S152.37,62.85,162,77.33s14.56,32.94,12.56,50.73-9.24,32.68-20,42.55S129.5,185.47,113.08,183.61Z"/></g></svg>