<svg id="Layer_1" data-name="Layer 1" xmlns="http://www.w3.org/2000/svg" xmlns:xlink="http://www.w3.org/1999/xlink" viewBox="0 0 271.5 282"><defs><style>.cls-1,.cls-4,.cls-5,.cls-6,.cls-7{fill:none;}.cls-2{clip-path:url(#clip-path);}.cls-3,.cls-7{opacity:0.4;}.cls-4,.cls-5,.cls-6,.cls-7{stroke-width:3px;isolation:isolate;}.cls-4{opacity:0.27;stroke:url(#linear-gradient);}.cls-5{opacity:0.2;stroke:url(#linear-gradient-2);}.cls-6{opacity:0.36;stroke:url(#linear-gradient-3);}.cls-7{stroke:url(#linear-gradient-4);}</style><clipPath id="clip-path"><rect class="cls-1" x="0.5" y="0.5" width="270.5" height="281"/></clipPath><linearGradient id="linear-gradient" x1="-713.3" y1="138.34" x2="388.02" y2="414.96" gradientTransform="matrix(1, 0, 0, -1, 0, 283)" gradientUnits="userSpaceOnUse"><stop offset="0" stop-color="#8f5fe3"/><stop offset="1" stop-color="#00b07a"/></linearGradient><linearGradient id="linear-gradient-2" x1="-687.86" y1="176.26" x2="367.57" y2="397.72" xlink:href="#linear-gradient"/><linearGradient id="linear-gradient-3" x1="-687.73" y1="134.55" x2="403.11" y2="488.24" xlink:href="#linear-gradient"/><linearGradient id="linear-gradient-4" x1="328.13" y1="620.95" x2="-594.08" y2="-41.99" xlink:href="#linear-gradient"/></defs><g class="cls-2"><g class="cls-3"><path class="cls-4" d="M78.13-312.4C247.7-173,313.59,73.66,173.22,241.87,102.92,326.12-1.73,385.51-110,406.39s-219.95,3.27-304.51-66.27S-542.54,165-547.23,55.75s29.41-222.18,99.68-306.4S-288.1-385.14-195.46-396.91-6.56-382,78.13-312.4Z"/><path class="cls-5" d="M76.54-314.89C229.45-189.15,281.78,42,144.39,206.65,75.58,289.1-24.34,349.25-126.16,373.05s-205.35,11.22-281.59-51.47-112.85-161-113.12-264.4,35.79-211.61,104.57-294S-262.39-370.2-175.49-384.79.17-377.69,76.54-314.89Z"/><path class="cls-6" d="M87.38-338.7c94.47,77.69,163.67,181,192.29,285.22s16.65,209.09-51,290.17C93,399.21-194.55,449.65-383.21,294.51s-214.16-445.88-78.62-608.3C-394-395-303.93-440-207.21-445.36S-7-416.35,87.38-338.7Z"/><path class="cls-7" d="M-229.76,392.16C-431.88,334.47-581.45,133.12-518.52-83-487-191.23-415.77-290.89-327.15-356.26s194.46-96.36,295.25-67.59S146.45-315.4,190.89-215.75,246.61,3.4,215.11,111.58,122.78,304.38,44.7,354.65-128.8,421-229.76,392.16Z"/></g></g></svg>