<svg id="Layer_1" data-name="Layer 1" xmlns="http://www.w3.org/2000/svg" xmlns:xlink="http://www.w3.org/1999/xlink"
    viewBox="0 0 371 281">
    <defs>
        <style>
            .cls-1,
            .cls-10,
            .cls-4,
            .cls-5,
            .cls-6,
            .cls-7,
            .cls-9 {
                fill: none;
            }

            .cls-2 {
                clip-path: url(#clip-path);
            }

            .cls-3 {
                opacity: 0.92;
            }

            .cls-10,
            .cls-4,
            .cls-6 {
                stroke: #1c0f52;
            }

            .cls-10,
            .cls-4,
            .cls-5,
            .cls-6,
            .cls-7,
            .cls-9 {
                stroke-width: 3px;
                isolation: isolate;
            }

            .cls-4 {
                opacity: 0.22;
            }

            .cls-5,
            .cls-7,
            .cls-9 {
                stroke: #bbbfc4;
            }

            .cls-5 {
                opacity: 0.2;
            }

            .cls-6 {
                opacity: 0.04;
            }

            .cls-7 {
                opacity: 0.4;
            }

            .cls-8 {
                opacity: 0.14;
            }

            .cls-9 {
                opacity: 0.26;
            }

            .cls-10 {
                opacity: 0.06;
            }
        </style>
        <clipPath id="clip-path">
            <rect class="cls-1" width="371" height="281" />
        </clipPath>
    </defs>
    <g class="cls-2">
        <g class="cls-3">
            <path class="cls-4"
                d="M457.72,135.15c85.3,70.66,118.35,195.34,48.07,280.18C470.53,457.9,418,487.89,363.63,498.4s-110.39,1.54-152.82-33.6S146.49,376.29,144.08,321,158.75,208.66,194,166.13s80-67.91,126.44-73.81S415.17,99.91,457.72,135.15Z" />
            <path class="cls-5"
                d="M456.92,133.89c76.85,63.65,103.15,180.49,34.33,263.56-34.51,41.66-84.68,72-135.8,84s-103,5.55-141.24-26.09-56.66-81.34-56.84-133.62,17.87-107,52.36-148.63S287,105.79,330.52,98.47,418.59,102.13,456.92,133.89Z" />
            <path class="cls-6"
                d="M462.37,121.82c47.52,39.37,82.34,91.7,96.77,144.41s8.43,105.63-25.42,146.5c-68,82.09-212.39,107.45-307.16,28.94s-107.72-225.59-39.8-307.58c34-41,79.17-63.7,127.67-66.35S414.89,82.49,462.37,121.82Z" />
            <path class="cls-7"
                d="M303.65,491.14C202.1,461.86,127,360,158.46,250.88c15.78-54.73,51.52-105.12,96-138.15S352,64.15,402.52,78.7,492,133.54,514.37,184s28.09,110.87,12.33,165.56S480.41,447,441.27,472.33,354.31,505.74,303.65,491.14Z" />
            <g class="cls-8">
                <path class="cls-4"
                    d="M164.49-.4C157.68-26.86,133.44-47,107.55-40.33A61.24,61.24,0,0,0,74.22-17.42c-8,11-11.83,24.29-8.49,37.24S78.57,43.21,90.6,49.53s26.49,8.48,39.58,5.11S153.58,44,159.7,34.37,167.86,12.71,164.49-.4Z" />
                <path class="cls-9"
                    d="M162.54.27c-5.84-22.71-28-39.82-52.31-33.56a60.4,60.4,0,0,0-31.5,20.5C71.05-3.11,67.32,8.46,70.17,19.54s11.48,20,22.58,25.24a55.32,55.32,0,0,0,36.84,3.75c12.36-3.18,22-9.69,27.89-18.14S165.44,11.52,162.54.27Z" />
                <path class="cls-10"
                    d="M164.88.46c-3.58-13.9-11.13-26.38-20.74-34.58S123-46.19,111.34-43.18C87.54-37,68.05-9.36,75.12,18.09s36.6,44.68,60.27,38.58c11.88-3.05,21-10.22,26.27-20S168.45,14.31,164.88.46Z" />
                <path class="cls-7"
                    d="M141-40.24c-25-8.65-54.93,1.43-64.15,28.1a67.56,67.56,0,0,0-.26,42.19c4.35,13.2,12.93,23.9,25.18,28.14s26,1.68,37.85-5.43A61.85,61.85,0,0,0,166,20.64c4.68-13.53,4.57-26.63.24-37.38S153.41-35.95,141-40.24Z" />
            </g>
        </g>
    </g>
</svg>