<svg width="1680" height="521" viewBox="0 0 1680 521" fill="none" xmlns="http://www.w3.org/2000/svg">
<g clip-path="url(#clip0)">
<rect width="1680" height="521" fill="#1C0F52"/>
<g opacity="0.8" filter="url(#filter0_f)">
<circle cx="1290.61" cy="291.613" r="1008.06" transform="rotate(-135 1290.61 291.613)" fill="url(#paint0_radial)"/>
</g>
<g filter="url(#filter1_f)">
<circle cx="105.891" cy="1001.89" r="569.848" transform="rotate(-135 105.891 1001.89)" fill="url(#paint1_radial)"/>
</g>
<g filter="url(#filter2_d)">
<path d="M1312.46 156.282C1430.12 211.315 1504.08 342.871 1449.55 459.462C1422.12 518.098 1371.39 567.599 1312.84 595.549C1254.3 623.493 1188.22 629.778 1129.92 602.51C1071.54 575.202 1031.05 521.253 1012.03 459.286C993.007 397.313 995.552 327.588 1022.94 269.031C1050.39 210.333 1093.59 168.512 1144.42 148.172C1195.22 127.841 1253.87 128.876 1312.46 156.282Z" stroke="url(#paint2_linear)" stroke-width="6"/>
</g>
<g filter="url(#filter3_d)">
<path d="M1311.19 155.069C1417.06 204.589 1481.13 329.179 1427.7 443.396C1400.85 500.811 1352.91 550.055 1298.47 578.718C1244.03 607.384 1183.44 615.305 1131.01 590.785C1078.5 566.221 1043.02 515.481 1027.4 456.265C1011.79 397.056 1016.14 329.69 1042.96 272.348C1069.84 214.87 1110.66 173.259 1157.79 152.165C1204.88 131.091 1258.45 130.402 1311.19 155.069Z" stroke="url(#paint3_linear)" stroke-width="6"/>
</g>
<g filter="url(#filter4_d)">
<path d="M1313.81 139.726C1379.38 170.393 1434.32 219.516 1466.2 275.022C1498.08 330.505 1506.82 392.135 1480.58 448.24C1427.7 561.29 1271.5 632.555 1141.01 571.523C1010.28 510.377 952.473 347.496 1005.23 234.692C1031.65 178.206 1076.13 139.253 1130.24 121.994C1184.36 104.729 1248.34 109.102 1313.81 139.726Z" stroke="url(#paint4_linear)" stroke-width="6"/>
</g>
<g filter="url(#filter5_d)">
<path d="M1242.94 604.92C1119.16 601.656 1004.19 508.316 1007.69 375.565C1009.45 308.849 1035.14 241.15 1075.86 190.58C1116.57 140.006 1172.06 106.847 1233.38 108.464C1294.8 110.084 1350.75 144.159 1390.98 194.753C1431.21 245.342 1455.52 312.2 1453.76 378.835C1452 445.621 1429.99 502.967 1393.16 543.167C1356.36 583.333 1304.61 606.547 1242.94 604.92Z" stroke="url(#paint5_linear)" stroke-width="6"/>
</g>
<path d="M342.929 598.145C507.187 674.973 611.056 858.99 534.561 1022.54C496.208 1104.54 425.299 1173.71 343.467 1212.77C261.641 1251.83 169.083 1260.71 87.3079 1222.46C5.47582 1184.18 -51.1675 1108.62 -77.7523 1022.01C-104.338 935.389 -100.803 837.892 -62.4738 755.945C-24.1007 673.903 36.3415 615.329 107.577 586.82C178.797 558.318 260.956 559.804 342.929 598.145Z" stroke="url(#paint6_linear)" stroke-width="4"/>
<path d="M341.147 596.457C489.181 665.696 579.07 840.088 504.182 1000.2C466.643 1080.46 399.651 1149.27 323.555 1189.34C247.455 1229.4 162.489 1240.62 88.8131 1206.16C15.0766 1171.67 -34.5866 1100.51 -56.4154 1017.72C-78.243 934.948 -72.1718 840.766 -34.655 760.555C2.90418 680.253 59.9991 621.977 126.074 592.404C192.119 562.845 267.263 561.9 341.147 596.457Z" stroke="url(#paint7_linear)" stroke-width="4"/>
<g filter="url(#filter8_d)">
<path d="M344.791 575.123C436.303 617.926 513.039 686.509 557.617 764.108C602.186 841.691 614.545 928.131 577.688 1006.93C503.713 1165.09 285.298 1264.78 102.702 1179.38C-80.057 1093.89 -161.006 866.194 -87.108 708.198C-50.1329 629.145 12.1625 574.556 87.9857 550.368C163.82 526.176 253.339 532.348 344.791 575.123Z" stroke="url(#paint8_linear)" stroke-width="4"/>
</g>
<g filter="url(#filter9_d)">
<path d="M245.29 1226.02C72.2859 1221.46 -88.793 1090.95 -83.8871 904.924C-81.4282 811.685 -45.5389 717.107 11.3558 646.438C68.2525 575.767 145.983 529.194 232.108 531.466C318.299 533.739 396.635 581.542 452.863 652.25C509.09 722.955 543.065 816.399 540.608 909.585C538.147 1002.87 507.404 1083.13 455.787 1139.46C404.19 1195.78 331.643 1228.3 245.29 1226.02Z" stroke="url(#paint9_linear)" stroke-width="4"/>
</g>
</g>
<defs>
<filter id="filter0_f" x="32.5508" y="-966.448" width="2516.12" height="2516.12" filterUnits="userSpaceOnUse" color-interpolation-filters="sRGB">
<feFlood flood-opacity="0" result="BackgroundImageFix"/>
<feBlend mode="normal" in="SourceGraphic" in2="BackgroundImageFix" result="shape"/>
<feGaussianBlur stdDeviation="125" result="effect1_foregroundBlur"/>
</filter>
<filter id="filter1_f" x="-713.957" y="182.039" width="1639.7" height="1639.7" filterUnits="userSpaceOnUse" color-interpolation-filters="sRGB">
<feFlood flood-opacity="0" result="BackgroundImageFix"/>
<feBlend mode="normal" in="SourceGraphic" in2="BackgroundImageFix" result="shape"/>
<feGaussianBlur stdDeviation="125" result="effect1_foregroundBlur"/>
</filter>
<filter id="filter2_d" x="977.715" y="112.161" width="512.121" height="529.869" filterUnits="userSpaceOnUse" color-interpolation-filters="sRGB">
<feFlood flood-opacity="0" result="BackgroundImageFix"/>
<feColorMatrix in="SourceAlpha" type="matrix" values="0 0 0 0 0 0 0 0 0 0 0 0 0 0 0 0 0 0 127 0"/>
<feOffset/>
<feGaussianBlur stdDeviation="9.5"/>
<feColorMatrix type="matrix" values="0 0 0 0 0.561579 0 0 0 0 0.371528 0 0 0 0 0.891667 0 0 0 1 0"/>
<feBlend mode="normal" in2="BackgroundImageFix" result="effect1_dropShadow"/>
<feBlend mode="normal" in="SourceGraphic" in2="effect1_dropShadow" result="shape"/>
</filter>
<filter id="filter3_d" x="996.391" y="114.454" width="472.553" height="512.938" filterUnits="userSpaceOnUse" color-interpolation-filters="sRGB">
<feFlood flood-opacity="0" result="BackgroundImageFix"/>
<feColorMatrix in="SourceAlpha" type="matrix" values="0 0 0 0 0 0 0 0 0 0 0 0 0 0 0 0 0 0 127 0"/>
<feOffset/>
<feGaussianBlur stdDeviation="9.5"/>
<feColorMatrix type="matrix" values="0 0 0 0 0.561579 0 0 0 0 0.371528 0 0 0 0 0.891667 0 0 0 1 0"/>
<feBlend mode="normal" in2="BackgroundImageFix" result="effect1_dropShadow"/>
<feBlend mode="normal" in="SourceGraphic" in2="effect1_dropShadow" result="shape"/>
</filter>
<filter id="filter4_d" x="963.801" y="89.9373" width="554.235" height="525.976" filterUnits="userSpaceOnUse" color-interpolation-filters="sRGB">
<feFlood flood-opacity="0" result="BackgroundImageFix"/>
<feColorMatrix in="SourceAlpha" type="matrix" values="0 0 0 0 0 0 0 0 0 0 0 0 0 0 0 0 0 0 127 0"/>
<feOffset/>
<feGaussianBlur stdDeviation="9.5"/>
<feColorMatrix type="matrix" values="0 0 0 0 0.561579 0 0 0 0 0.371528 0 0 0 0 0.891667 0 0 0 1 0"/>
<feBlend mode="normal" in2="BackgroundImageFix" result="effect1_dropShadow"/>
<feBlend mode="normal" in="SourceGraphic" in2="effect1_dropShadow" result="shape"/>
</filter>
<filter id="filter5_d" x="985.617" y="86.4072" width="490.231" height="540.593" filterUnits="userSpaceOnUse" color-interpolation-filters="sRGB">
<feFlood flood-opacity="0" result="BackgroundImageFix"/>
<feColorMatrix in="SourceAlpha" type="matrix" values="0 0 0 0 0 0 0 0 0 0 0 0 0 0 0 0 0 0 127 0"/>
<feOffset/>
<feGaussianBlur stdDeviation="9.5"/>
<feColorMatrix type="matrix" values="0 0 0 0 0.561579 0 0 0 0 0.371528 0 0 0 0 0.891667 0 0 0 1 0"/>
<feBlend mode="normal" in2="BackgroundImageFix" result="effect1_dropShadow"/>
<feBlend mode="normal" in="SourceGraphic" in2="effect1_dropShadow" result="shape"/>
</filter>
<filter id="filter8_d" x="-135.328" y="515.284" width="755.712" height="716.425" filterUnits="userSpaceOnUse" color-interpolation-filters="sRGB">
<feFlood flood-opacity="0" result="BackgroundImageFix"/>
<feColorMatrix in="SourceAlpha" type="matrix" values="0 0 0 0 0 0 0 0 0 0 0 0 0 0 0 0 0 0 127 0"/>
<feOffset/>
<feGaussianBlur stdDeviation="9.5"/>
<feColorMatrix type="matrix" values="0 0 0 0 0.561579 0 0 0 0 0.371528 0 0 0 0 0.891667 0 0 0 1 0"/>
<feBlend mode="normal" in2="BackgroundImageFix" result="effect1_dropShadow"/>
<feBlend mode="normal" in="SourceGraphic" in2="effect1_dropShadow" result="shape"/>
</filter>
<filter id="filter9_d" x="-104.996" y="510.386" width="666.729" height="736.746" filterUnits="userSpaceOnUse" color-interpolation-filters="sRGB">
<feFlood flood-opacity="0" result="BackgroundImageFix"/>
<feColorMatrix in="SourceAlpha" type="matrix" values="0 0 0 0 0 0 0 0 0 0 0 0 0 0 0 0 0 0 127 0"/>
<feOffset/>
<feGaussianBlur stdDeviation="9.5"/>
<feColorMatrix type="matrix" values="0 0 0 0 0.561579 0 0 0 0 0.371528 0 0 0 0 0.891667 0 0 0 1 0"/>
<feBlend mode="normal" in2="BackgroundImageFix" result="effect1_dropShadow"/>
<feBlend mode="normal" in="SourceGraphic" in2="effect1_dropShadow" result="shape"/>
</filter>
<radialGradient id="paint0_radial" cx="0" cy="0" r="1" gradientUnits="userSpaceOnUse" gradientTransform="translate(1290.61 291.613) rotate(0.0160569) scale(920.979)">
<stop stop-color="#00B07A"/>
<stop offset="1" stop-color="#00B07A" stop-opacity="0"/>
</radialGradient>
<radialGradient id="paint1_radial" cx="0" cy="0" r="1" gradientUnits="userSpaceOnUse" gradientTransform="translate(105.891 1001.89) rotate(0.0160569) scale(520.622)">
<stop stop-color="#8F5FE3"/>
<stop offset="1" stop-color="#8F5FE3" stop-opacity="0"/>
</radialGradient>
<linearGradient id="paint2_linear" x1="910.176" y1="503.041" x2="1512.12" y2="196.713" gradientUnits="userSpaceOnUse">
<stop offset="0.395833" stop-color="#4AE7B6"/>
<stop offset="1" stop-color="#8038ED"/>
</linearGradient>
<linearGradient id="paint3_linear" x1="932.57" y1="501.279" x2="1513.93" y2="233.796" gradientUnits="userSpaceOnUse">
<stop offset="0.395833" stop-color="#4AE7B6"/>
<stop offset="1" stop-color="#8038ED"/>
</linearGradient>
<linearGradient id="paint4_linear" x1="896.352" y1="460.403" x2="1484.02" y2="108.859" gradientUnits="userSpaceOnUse">
<stop offset="0.395833" stop-color="#4AE7B6"/>
<stop offset="1" stop-color="#8038ED"/>
</linearGradient>
<linearGradient id="paint5_linear" x1="1463.81" y1="111.54" x2="1015.81" y2="616.623" gradientUnits="userSpaceOnUse">
<stop offset="0.395833" stop-color="#4AE7B6"/>
<stop offset="1" stop-color="#8038ED"/>
</linearGradient>
<linearGradient id="paint6_linear" x1="-217.281" y1="1082.2" x2="619.595" y2="656.322" gradientUnits="userSpaceOnUse">
<stop offset="0.395833" stop-color="#4AE7B6"/>
<stop offset="1" stop-color="#8038ED"/>
</linearGradient>
<linearGradient id="paint7_linear" x1="-186.16" y1="1079.75" x2="622.097" y2="707.876" gradientUnits="userSpaceOnUse">
<stop offset="0.395833" stop-color="#4AE7B6"/>
<stop offset="1" stop-color="#8038ED"/>
</linearGradient>
<linearGradient id="paint8_linear" x1="-236.52" y1="1022.92" x2="580.507" y2="534.175" gradientUnits="userSpaceOnUse">
<stop offset="0.395833" stop-color="#4AE7B6"/>
<stop offset="1" stop-color="#8038ED"/>
</linearGradient>
<linearGradient id="paint9_linear" x1="552.41" y1="537.912" x2="-70.4376" y2="1240.12" gradientUnits="userSpaceOnUse">
<stop offset="0.395833" stop-color="#4AE7B6"/>
<stop offset="1" stop-color="#8038ED"/>
</linearGradient>
<clipPath id="clip0">
<rect width="1680" height="521" fill="white"/>
</clipPath>
</defs>
</svg>
