<svg id="Layer_1" data-name="Layer 1" xmlns="http://www.w3.org/2000/svg" xmlns:xlink="http://www.w3.org/1999/xlink" viewBox="0 0 426 281"><defs><style>.cls-1,.cls-10,.cls-11,.cls-4,.cls-5,.cls-6,.cls-7,.cls-9{fill:none;}.cls-2{clip-path:url(#clip-path);}.cls-11,.cls-3{opacity:0.3;}.cls-10,.cls-11,.cls-4,.cls-5,.cls-6,.cls-7,.cls-9{stroke:#70acf3;isolation:isolate;}.cls-4,.cls-5,.cls-6,.cls-7{stroke-width:2px;}.cls-4{opacity:0.27;}.cls-5{opacity:0.2;}.cls-6{opacity:0.36;}.cls-7,.cls-8,.cls-9{opacity:0.4;}.cls-10,.cls-11,.cls-9{stroke-width:3px;}.cls-10{opacity:0.11;}</style><clipPath id="clip-path"><rect class="cls-1" width="426" height="281"/></clipPath></defs><g class="cls-2"><g class="cls-3"><path class="cls-4" d="M441.5,74.54c21.42,16.18,29.31,44.94,11.4,64.69-9,10-22.42,17.08-36.22,19.68s-27.87.66-38.43-7.31-16-20.26-16.41-33.08a51.4,51.4,0,0,1,13.06-36c9.05-10,20.41-16,32.12-17.46A46.79,46.79,0,0,1,441.5,74.54Z"/><path class="cls-5" d="M441.3,74.24c19.24,14.54,25.49,41.48,7.93,60.84A68,68,0,0,1,414.61,155c-13,2.93-26,1.56-35.46-5.59s-14-18.57-13.92-30.69A53,53,0,0,1,378.9,84.08c8.87-9.79,19.73-15.83,30.71-17.65A40.71,40.71,0,0,1,441.3,74.24Z"/><path class="cls-6" d="M442.73,71.4c11.94,9,20.61,21.08,24.11,33.26s1.81,24.39-6.79,33.88c-17.42,19.21-54,25.49-77.7,7.59s-26.56-52-9.21-71.14a47.22,47.22,0,0,1,32.37-15.71C417.74,58.53,430.81,62.4,442.73,71.4Z"/><path class="cls-7" d="M401.69,157.36c-25.69-6.52-44.24-29.93-36-55.14C369.81,89.49,379,77.7,390.35,69.91s24.76-11.51,37.42-8.3,22.41,12.41,27.92,24A52.52,52.52,0,0,1,458.34,124c-4.15,12.75-12,22.7-21.9,28.66S414.45,160.6,401.69,157.36Z"/></g><g class="cls-8"><path class="cls-9" d="M79,353.93C78.1,202.33,180.22,67.08,331.79,79.85c76,6.4,153.94,42.16,213,95.25S643.88,298.51,644.3,374s-36.49,142.09-92.59,188.16-131.29,71.6-207.23,65.2-142.17-37-189.43-84.82S79.37,429.6,79,353.93Z"/><path class="cls-9" d="M78.33,355.82c-.77-136.64,99.1-258.08,247.48-245.58,74.36,6.26,150.63,39,208.38,87.33s96.85,112,97.23,180S595.71,505.42,540.8,546.64,412.31,610.41,338,604.15s-139.13-34.31-185.33-77.76S78.71,424,78.33,355.82Z"/><path class="cls-10" d="M60.83,359.14c-.47-84.47,23.91-164.79,66.7-222.41s103.89-92.45,176.93-86.3C451,62.78,605.17,205.83,606.12,374.4s-142.55,298.54-289,286.21c-73.25-6.17-137.06-39.38-182.69-92.08S61.31,443.55,60.83,359.14Z"/><path class="cls-11" d="M590.12,248.61C649,386.25,607.89,551,465.16,601.06c-71.54,25.11-156.13,24.31-230.16,0S97.63,529.1,68.33,460.55s-21.23-144.2,12.14-209,92-118.64,163.47-143.74,143.46-24.22,204.74.07S560.75,179.9,590.12,248.61Z"/></g></g></svg>