<svg width="829" height="778" viewBox="0 0 829 778" fill="none" xmlns="http://www.w3.org/2000/svg">
<g filter="url(#filter0_d)">
<path d="M495.462 156.282C613.121 211.315 687.078 342.871 632.546 459.462C605.12 518.098 554.389 567.599 495.837 595.549C437.296 623.493 371.221 629.778 312.922 602.51C254.538 575.202 214.048 521.253 195.029 459.286C176.007 397.313 178.552 327.588 205.94 269.031C233.395 210.333 276.594 168.512 327.42 148.172C378.221 127.841 436.867 128.876 495.462 156.282Z" stroke="url(#paint0_linear)" stroke-width="6"/>
</g>
<g filter="url(#filter1_d)">
<path d="M494.189 155.069C600.064 204.589 664.127 329.179 610.705 443.396C583.851 500.811 535.909 550.055 481.47 578.718C427.026 607.384 366.439 615.305 314.014 590.785C261.498 566.221 226.018 515.481 210.403 456.265C194.79 397.056 199.139 329.69 225.959 272.348C252.843 214.87 293.661 173.259 340.791 152.165C387.877 131.091 441.452 130.402 494.189 155.069Z" stroke="url(#paint1_linear)" stroke-width="6"/>
</g>
<g filter="url(#filter2_d)">
<path d="M496.814 139.726C562.38 170.393 617.316 219.516 649.203 275.022C681.076 330.505 689.821 392.135 663.58 448.24C610.703 561.29 454.495 632.555 324.008 571.523C193.276 510.377 135.473 347.496 188.234 234.692C214.654 178.206 259.132 139.253 313.236 121.994C367.356 104.729 431.339 109.102 496.814 139.726Z" stroke="url(#paint2_linear)" stroke-width="6"/>
</g>
<g filter="url(#filter3_d)">
<path d="M425.945 604.92C302.163 601.656 187.194 508.315 190.694 375.565C192.454 308.849 218.142 241.15 258.856 190.579C299.572 140.006 355.057 106.846 416.381 108.464C477.805 110.084 533.752 144.159 573.985 194.752C614.214 245.342 638.516 312.199 636.758 378.835C634.997 445.62 612.992 502.966 576.158 543.167C539.356 583.333 487.612 606.546 425.945 604.92Z" stroke="url(#paint3_linear)" stroke-width="6"/>
</g>
<defs>
<filter id="filter0_d" x="74.1758" y="42.4229" width="673.103" height="680.06" filterUnits="userSpaceOnUse" color-interpolation-filters="sRGB">
<feFlood flood-opacity="0" result="BackgroundImageFix"/>
<feColorMatrix in="SourceAlpha" type="matrix" values="0 0 0 0 0 0 0 0 0 0 0 0 0 0 0 0 0 0 127 0"/>
<feOffset/>
<feGaussianBlur stdDeviation="9.5"/>
<feColorMatrix type="matrix" values="0 0 0 0 0.561579 0 0 0 0 0.371528 0 0 0 0 0.891667 0 0 0 1 0"/>
<feBlend mode="normal" in2="BackgroundImageFix" result="effect1_dropShadow"/>
<feBlend mode="normal" in="SourceGraphic" in2="effect1_dropShadow" result="shape"/>
</filter>
<filter id="filter1_d" x="96.5703" y="50.1934" width="626.86" height="650.984" filterUnits="userSpaceOnUse" color-interpolation-filters="sRGB">
<feFlood flood-opacity="0" result="BackgroundImageFix"/>
<feColorMatrix in="SourceAlpha" type="matrix" values="0 0 0 0 0 0 0 0 0 0 0 0 0 0 0 0 0 0 127 0"/>
<feOffset/>
<feGaussianBlur stdDeviation="9.5"/>
<feColorMatrix type="matrix" values="0 0 0 0 0.561579 0 0 0 0 0.371528 0 0 0 0 0.891667 0 0 0 1 0"/>
<feBlend mode="normal" in2="BackgroundImageFix" result="effect1_dropShadow"/>
<feBlend mode="normal" in="SourceGraphic" in2="effect1_dropShadow" result="shape"/>
</filter>
<filter id="filter2_d" x="60.3516" y="15.3604" width="714.681" height="687.339" filterUnits="userSpaceOnUse" color-interpolation-filters="sRGB">
<feFlood flood-opacity="0" result="BackgroundImageFix"/>
<feColorMatrix in="SourceAlpha" type="matrix" values="0 0 0 0 0 0 0 0 0 0 0 0 0 0 0 0 0 0 127 0"/>
<feOffset/>
<feGaussianBlur stdDeviation="9.5"/>
<feColorMatrix type="matrix" values="0 0 0 0 0.561579 0 0 0 0 0.371528 0 0 0 0 0.891667 0 0 0 1 0"/>
<feBlend mode="normal" in2="BackgroundImageFix" result="effect1_dropShadow"/>
<feBlend mode="normal" in="SourceGraphic" in2="effect1_dropShadow" result="shape"/>
</filter>
<filter id="filter3_d" x="162.734" y="80.6235" width="503.073" height="551.773" filterUnits="userSpaceOnUse" color-interpolation-filters="sRGB">
<feFlood flood-opacity="0" result="BackgroundImageFix"/>
<feColorMatrix in="SourceAlpha" type="matrix" values="0 0 0 0 0 0 0 0 0 0 0 0 0 0 0 0 0 0 127 0"/>
<feOffset/>
<feGaussianBlur stdDeviation="9.5"/>
<feColorMatrix type="matrix" values="0 0 0 0 0.561579 0 0 0 0 0.371528 0 0 0 0 0.891667 0 0 0 1 0"/>
<feBlend mode="normal" in2="BackgroundImageFix" result="effect1_dropShadow"/>
<feBlend mode="normal" in="SourceGraphic" in2="effect1_dropShadow" result="shape"/>
</filter>
<linearGradient id="paint0_linear" x1="93.1758" y1="503.041" x2="695.123" y2="196.713" gradientUnits="userSpaceOnUse">
<stop offset="0.395833" stop-color="#4AE7B6"/>
<stop offset="1" stop-color="#8038ED"/>
</linearGradient>
<linearGradient id="paint1_linear" x1="115.57" y1="501.279" x2="696.932" y2="233.796" gradientUnits="userSpaceOnUse">
<stop offset="0.395833" stop-color="#4AE7B6"/>
<stop offset="1" stop-color="#8038ED"/>
</linearGradient>
<linearGradient id="paint2_linear" x1="79.3516" y1="460.403" x2="667.021" y2="108.859" gradientUnits="userSpaceOnUse">
<stop offset="0.395833" stop-color="#4AE7B6"/>
<stop offset="1" stop-color="#8038ED"/>
</linearGradient>
<linearGradient id="paint3_linear" x1="646.809" y1="111.54" x2="198.807" y2="616.623" gradientUnits="userSpaceOnUse">
<stop offset="0.395833" stop-color="#4AE7B6"/>
<stop offset="1" stop-color="#8038ED"/>
</linearGradient>
</defs>
</svg>
