<svg width="202" height="33" viewBox="0 0 202 33" fill="none" xmlns="http://www.w3.org/2000/svg">
<g clip-path="url(#clip0)">
<path d="M27.8068 6.33008C28.5442 7.3041 29.1685 8.36229 29.667 9.48341L15.5268 20.1328L9.61719 16.3481V11.7948L15.5268 15.5796L27.8068 6.33008Z" fill="#21A038"/>
<path d="M3.58624 16.0266C3.58624 15.8223 3.59112 15.6194 3.60087 15.4176L0.0195047 15.2383C0.00731494 15.4998 4.32791e-06 15.7639 4.32791e-06 16.0303C-0.00151944 18.1125 0.399339 20.1743 1.17959 22.0977C1.95984 24.0212 3.10412 25.7683 4.5468 27.2389L7.08715 24.6447C5.97663 23.5147 5.09565 22.1716 4.49485 20.6926C3.89404 19.2137 3.58526 17.6279 3.58624 16.0266Z" fill="url(#paint0_linear)"/>
<path d="M15.5238 3.8309C15.7237 3.8309 15.9223 3.83837 16.1198 3.84833L16.299 0.188125C16.0423 0.175672 15.7838 0.169445 15.5238 0.169445C13.4849 0.166905 11.4657 0.575858 9.58192 1.37282C7.69817 2.16979 5.98708 3.33907 4.54688 4.81352L7.08723 7.40891C8.19331 6.27396 9.50808 5.37357 10.9559 4.75953C12.4038 4.14548 13.9561 3.82989 15.5238 3.8309Z" fill="url(#paint1_linear)"/>
<path d="M15.5225 28.2232C15.3227 28.2232 15.1239 28.2232 14.9253 28.207L14.7461 31.866C15.0037 31.8793 15.2625 31.886 15.5225 31.886C17.5606 31.8881 19.5789 31.4789 21.4616 30.6817C23.3444 29.8845 25.0543 28.715 26.4935 27.2406L23.958 24.6465C22.8517 25.7808 21.537 26.6807 20.0895 27.2945C18.6419 27.9084 17.0899 28.224 15.5225 28.2232Z" fill="url(#paint2_linear)"/>
<path d="M22.2493 5.95907L25.2675 3.68622C22.5089 1.40399 19.0653 0.161634 15.5156 0.167993V3.83069C17.9193 3.82764 20.2672 4.56979 22.2493 5.95907Z" fill="url(#paint3_linear)"/>
<path d="M31.0409 16.0266C31.0428 15.0737 30.9613 14.1226 30.7971 13.1846L27.4559 15.7003C27.4559 15.8087 27.4559 15.917 27.4559 16.0266C27.4568 17.7306 27.1071 19.4158 26.4297 20.973C25.7523 22.5301 24.7621 23.9244 23.5234 25.0656L25.9334 27.7868C27.5437 26.3016 28.8306 24.4872 29.7104 22.4613C30.5904 20.4353 31.0436 18.243 31.0409 16.0266Z" fill="#21A038"/>
<path d="M15.5187 28.2227C13.8506 28.2233 12.201 27.866 10.6767 27.1739C9.15246 26.4818 7.78743 25.4703 6.67006 24.2051L4.00781 26.666C5.46139 28.3115 7.23726 29.6264 9.22027 30.5256C11.2033 31.4247 13.3491 31.888 15.5187 31.8854V28.2227Z" fill="url(#paint4_linear)"/>
<path d="M7.51868 6.98779L5.10997 4.2666C3.49918 5.75158 2.21188 7.56588 1.33156 9.59185C0.45126 11.6178 -0.00240002 13.8102 9.54845e-06 16.0268H3.58625C3.58551 14.3229 3.93519 12.6376 4.61261 11.0805C5.29004 9.5234 6.28011 8.12903 7.51868 6.98779Z" fill="url(#paint5_linear)"/>
<path d="M89.5876 9.23696L94.0292 5.93164H79.1641V25.7937H94.0292V22.4884H83.4057V17.4007H92.468V14.0954H83.4057V9.23696H89.5876Z" fill="#21A038"/>
<path d="M69.1577 13.6694H63.9969V9.23578H72.2334L76.6723 5.92041H59.7578V25.7825H68.6119C73.5759 25.7825 76.4247 23.5099 76.4247 19.5466C76.4247 15.755 73.8443 13.6694 69.1577 13.6694ZM68.4209 22.4761H63.9969V16.9726H68.4209C71.1058 16.9726 72.3646 17.8949 72.3646 19.7244C72.3646 21.5539 71.0252 22.4761 68.4209 22.4761Z" fill="#21A038"/>
<path d="M104.951 5.92871H96.8594V25.7907H101.1V20.1642H104.951C110.113 20.1642 113.307 17.4202 113.307 13.0358C113.307 8.65157 110.113 5.92871 104.951 5.92871ZM104.861 16.8563H101.1V9.23655H104.861C107.577 9.23655 109.076 10.5905 109.076 13.048C109.076 15.5055 107.577 16.8563 104.861 16.8563Z" fill="#21A038"/>
<path d="M53.395 21.1039C52.2993 21.7032 51.0719 22.0135 49.8261 22.0061C46.0974 22.0061 43.3924 19.3172 43.3924 15.6146C43.3924 11.912 46.0974 9.21725 49.8261 9.21725C51.1707 9.19418 52.4875 9.60604 53.584 10.3927L56.5507 8.18579L56.35 8.0418C54.6195 6.50491 52.3071 5.69092 49.6604 5.69092C46.7896 5.69092 44.1865 6.66653 42.3279 8.44145C41.3881 9.35533 40.6449 10.4551 40.1444 11.672C39.644 12.889 39.3971 14.197 39.4193 15.5147C39.3994 16.8457 39.6452 18.1671 40.1419 19.4C40.6387 20.633 41.3761 21.7521 42.3104 22.6908C44.1777 24.5362 46.775 25.553 49.6254 25.553C52.6038 25.553 55.207 24.5039 56.9696 22.5938L54.3141 20.5956L53.395 21.1039Z" fill="#21A038"/>
<path d="M130.127 13.6694H124.969V9.23578H136.055V5.92041H120.727V25.7825H129.569C134.533 25.7825 137.382 23.5099 137.382 19.5466C137.394 15.755 134.814 13.6694 130.127 13.6694ZM129.39 22.4761H124.969V16.9726H129.39C132.075 16.9726 133.333 17.8949 133.333 19.7244C133.333 21.5539 132.006 22.4761 129.39 22.4761Z" fill="#21A038"/>
<path d="M185.6 25.7542H181.301V5.89209H185.6V14.2343H187.941L194.26 5.89209H199.134L191.637 15.3407L200.342 25.7542H194.637L188.239 17.9426H185.6V25.7542Z" fill="#21A038"/>
<path d="M153.006 21.9797H143.911L142.369 25.8367H137.793L146.324 5.97461H150.899L159.292 25.8367H154.548L153.006 21.9797ZM151.582 18.3809L148.486 10.6668L145.372 18.3809H151.582Z" fill="#21A038"/>
<path d="M165.074 5.97461V14.2687H173.972V5.97461H178.405V25.8367H173.972V18.0103H165.074V25.8367H160.641V5.97461H165.074Z" fill="#21A038"/>
</g>
<defs>
<linearGradient id="paint0_linear" x1="5.27209" y1="26.7818" x2="1.20173" y2="15.2648" gradientUnits="userSpaceOnUse">
<stop offset="0.14" stop-color="#F1E813"/>
<stop offset="0.3" stop-color="#E6E418"/>
<stop offset="0.58" stop-color="#C9DA26"/>
<stop offset="0.89" stop-color="#A2CC39"/>
</linearGradient>
<linearGradient id="paint1_linear" x1="5.57081" y1="5.46112" x2="15.7167" y2="1.67666" gradientUnits="userSpaceOnUse">
<stop offset="0.06" stop-color="#0FA7DF"/>
<stop offset="0.54" stop-color="#0098F8"/>
<stop offset="0.92" stop-color="#0290EA"/>
</linearGradient>
<linearGradient id="paint2_linear" x1="14.5097" y1="29.6753" x2="25.945" y2="27.1468" gradientUnits="userSpaceOnUse">
<stop offset="0.12" stop-color="#A2CC39"/>
<stop offset="0.28" stop-color="#86C239"/>
<stop offset="0.87" stop-color="#219F38"/>
</linearGradient>
<linearGradient id="paint3_linear" x1="14.7697" y1="1.3947" x2="24.5621" y2="4.35252" gradientUnits="userSpaceOnUse">
<stop offset="0.06" stop-color="#0290EA"/>
<stop offset="0.79" stop-color="#0C89CA"/>
</linearGradient>
<linearGradient id="paint4_linear" x1="4.90741" y1="26.2201" x2="15.5821" y2="30.125" gradientUnits="userSpaceOnUse">
<stop offset="0.13" stop-color="#F1E813"/>
<stop offset="0.3" stop-color="#EAE616"/>
<stop offset="0.53" stop-color="#D8DF1F"/>
<stop offset="0.8" stop-color="#BAD52D"/>
<stop offset="0.98" stop-color="#A2CC39"/>
</linearGradient>
<linearGradient id="paint5_linear" x1="1.33601" y1="16.4702" x2="5.76057" y2="5.20441" gradientUnits="userSpaceOnUse">
<stop offset="0.07" stop-color="#A2CC39"/>
<stop offset="0.26" stop-color="#81C45E"/>
<stop offset="0.92" stop-color="#0FA7DF"/>
</linearGradient>
<clipPath id="clip0">
<rect width="202" height="32" fill="white" transform="translate(0 0.167969)"/>
</clipPath>
</defs>
</svg>
