<svg id="Layer_1" data-name="Layer 1" xmlns="http://www.w3.org/2000/svg" viewBox="0 0 30.39 32.5"><path d="M15.2,0A3.82,3.82,0,0,0,13,.74L10.9,2.19,8.52,2.5h0l0,0a4.26,4.26,0,0,0-3.21,3.2l0,0v0L4.88,8.24,3.44,10.12l0,0v0a4.08,4.08,0,0,0,0,4.53L4.92,16.8,5.31,19l-4,6.13L0,27H6l1.44,3.36.9,2.15,1.29-1.95,3.94-5.94a4.18,4.18,0,0,0,3.29,0l3.94,5.94,1.29,1.95.9-2.15L24.41,27h6L29.1,25.08l-3.9-5.94.31-2.34L27,14.73l0,0v0a4,4,0,0,0,0-4.49L25.51,8.09,25,5.74h0s0,0,0-.08A3.69,3.69,0,0,0,21.88,2.5h0l-2.35-.31L17.42.74A3.82,3.82,0,0,0,15.2,0Zm0,2.54a1.46,1.46,0,0,1,.78.23L18.2,4.38l.28.19.31,0L21.52,5h0a1.11,1.11,0,0,1,1,1v.07l.51,2.78,0,.27.19.24,1.6,2.22a1.58,1.58,0,0,1,0,1.72l-1.75,2.46,0,.31-.39,2.74v0a1.35,1.35,0,0,1-.2.54l-.08,0v0a1.06,1.06,0,0,1-.74.39H21.6l-2.85.51-.31,0-.24.2L16,22.23a1.69,1.69,0,0,1-1.76,0l-2-1.56-.24-.2-.35,0L8.87,20h0A1.07,1.07,0,0,1,8,19.45,1.14,1.14,0,0,1,7.81,19v-.07L7.3,16.05l0-.31-.2-.23-1.6-2.23a1.65,1.65,0,0,1,0-1.76l1.56-2,.2-.23,0-.35.36-2.62s0,0,0,0A1.72,1.72,0,0,1,9,5S9,5,9,5l2.62-.35.31,0,.28-.19,2.22-1.61A1.47,1.47,0,0,1,15.2,2.54Zm8.63,19,1.91,2.93h-3l-.31.78-.86,2L18.91,23.2l.58-.43L22,22.34v0s.05,0,.08,0A3.62,3.62,0,0,0,23.83,21.56Zm-17.27,0a3.56,3.56,0,0,0,2,.9h0l2.39.31.54.43-2.65,4-.86-2-.31-.78h-3Z"/></svg>