<svg id="Layer_1" data-name="Layer 1" xmlns="http://www.w3.org/2000/svg" viewBox="0 0 30.73 26.96"><defs><style>.cls-1{fill:none;stroke:#000;}</style></defs><path class="cls-1" d="M30.73,26.46H28.61m0,0V11.63A1.59,1.59,0,0,0,27,10m1.59,16.42H2.12M27,10V6.86a1.59,1.59,0,0,0-1.59-1.59M27,10H11.6M25.43,5.27V2.09A1.59,1.59,0,0,0,23.84.5H6.89A1.59,1.59,0,0,0,5.3,2.09V5.27m20.13,0H13.19m-7.89,0A1.59,1.59,0,0,0,3.71,6.86V10M5.3,5.27H8M3.71,10a1.59,1.59,0,0,0-1.59,1.59V26.46M3.71,10h2.7M2.12,26.46H0M13.19,5.27A2.65,2.65,0,0,0,8,5.27m5.19,0H8M11.6,10a2.65,2.65,0,0,0-5.19,0m5.19,0H6.41"/><path class="cls-1" d="M11.15,16.4a2.68,2.68,0,1,1-2.67-2.68A2.66,2.66,0,0,1,11.15,16.4Z"/><path class="cls-1" d="M24.9,13.22H13.78"/><path class="cls-1" d="M24.9,15.87H13.78"/><path class="cls-1" d="M24.9,18.52H13.78"/><path class="cls-1" d="M24.9,21.44H5.83"/><path class="cls-1" d="M24.9,24.11H5.83"/></svg>