<svg id="Layer_1" data-name="Layer 1" xmlns="http://www.w3.org/2000/svg" viewBox="0 0 35 26.34"><path d="M21.64,0a8.63,8.63,0,0,0-2.11.23,7.7,7.7,0,0,0-2.23,1A7.62,7.62,0,0,0,14.53.12a21.5,21.5,0,0,0-3.32,0C9.8.11,8.88.83,7.38,1.41A16.43,16.43,0,0,1,1.25,2.54H0v12l.7.35L3,16.06l8.2,9.14,0,0a4.28,4.28,0,0,0,3.32,1.1,6.52,6.52,0,0,0,3-.9c1.84-1.11,6.87-4.61,6.87-4.61l.12-.08.08-.08a4.38,4.38,0,0,0,1.09-2.07l4.81-2.42L34.14,15l.86-.27V2.54H33.75a16.14,16.14,0,0,1-6.13-1.17C26.12.78,25.21.07,23.79,0,23,0,22.33,0,21.64,0Zm0,2.5c.56,0,1.21,0,2,0,.13,0,1.33.52,3,1.17A19.42,19.42,0,0,0,32.5,4.92v8l-2.89,1h-.08l-.08,0-3.79,1.91a4.38,4.38,0,0,0-.93-1.56l-.08-.12L19.34,7.62l-.79-1-1,.78-3.36,2.74a2.65,2.65,0,0,1-3,.11,2,2,0,0,1-.47-.31l5.7-4.73.08-.07a8.45,8.45,0,0,1,3.64-2.5A5.6,5.6,0,0,1,21.68,2.5ZM13,2.54a8.19,8.19,0,0,1,1.25,0,5.57,5.57,0,0,1,1,.43c-.12.12-.22.18-.35.31l-.08.08L8,9.06l-1.06.86.94,1a8.11,8.11,0,0,0,2.31,1.64,5.45,5.45,0,0,0,5.5-.31l.08-.08,2.42-2,4.61,5.66,0,.08,0,0a2.05,2.05,0,0,1,0,2.93s0,0,0,0l-.19.11L21,16.8l-2,1.48,1.61,2.15c-.65.44-.95.67-1.64,1.13L17.27,19.3l-2,1.48,1.61,2.15-.55.35a4.54,4.54,0,0,1-1.84.55,2.07,2.07,0,0,1-1.36-.31l0,0L4.69,14.22,4.53,14l-2-1V4.92A20,20,0,0,0,8.28,3.75c1.67-.64,2.86-1.17,3-1.17Z"/></svg>