<svg id="Layer_1" data-name="Layer 1" xmlns="http://www.w3.org/2000/svg" viewBox="0 0 22 22"><defs><style>.cls-1{fill-rule:evenodd;}</style></defs><path class="cls-1" d="M4.84,4.51a.76.76,0,0,0-.76.76v8.8a.76.76,0,0,0,.76.76H6.6a1,1,0,0,1,1,1v2.38l3.51-3.12a1,1,0,0,1,.66-.26h5.39a.76.76,0,0,0,.76-.76V5.27a.76.76,0,0,0-.76-.76Zm-2.76.76A2.77,2.77,0,0,1,4.84,2.51H17.16a2.76,2.76,0,0,1,2.76,2.76v8.8a2.75,2.75,0,0,1-2.76,2.76h-5L8.73,19.88h0A1.88,1.88,0,0,1,5.6,18.47V16.83H4.84a2.76,2.76,0,0,1-2.76-2.76Z"/><path class="cls-1" d="M5.6,7.47a1,1,0,0,1,1-1h8.8a1,1,0,0,1,0,2H6.6A1,1,0,0,1,5.6,7.47Z"/><path class="cls-1" d="M5.6,11.43a1,1,0,0,1,1-1h6.16a1,1,0,0,1,0,2H6.6A1,1,0,0,1,5.6,11.43Z"/></svg>