<svg id="Layer_1" data-name="Layer 1" xmlns="http://www.w3.org/2000/svg" viewBox="0 0 45.75 35.42"><defs><style>.cls-1{fill-rule:evenodd;}</style></defs><path class="cls-1" d="M24.35,19.19h-3V1.48h3ZM19.92.74a.71.71,0,0,1,.22-.52A.74.74,0,0,1,20.66,0h4.43a.74.74,0,0,1,.52.22.71.71,0,0,1,.22.52V5.17H43.54a2.2,2.2,0,0,1,2.21,2.21h0V28h0a2.22,2.22,0,0,1-2.21,2.21h-16l.37,1.48h2.37a.75.75,0,0,1,.53.22.71.71,0,0,1,.18.3.78.78,0,0,1,0,.22v2.21a.76.76,0,0,1-.21.52.75.75,0,0,1-.53.22H15.5A.75.75,0,0,1,15,35.2a.76.76,0,0,1-.21-.52V32.47a.78.78,0,0,1,0-.22A.71.71,0,0,1,15,32a.75.75,0,0,1,.53-.22h2.37l.37-1.48h-16A2.19,2.19,0,0,1,.65,29.6,2.17,2.17,0,0,1,0,28H0V7.38H0A2.2,2.2,0,0,1,2.21,5.17H13.28V3.69A.75.75,0,0,1,14,3h4.43a.74.74,0,0,1,.52.22.73.73,0,0,1,.22.52V5.17h.73Zm-.73,5.9V19.19h.73V6.64Zm-8.12,14a.76.76,0,0,1-.52-.21.74.74,0,0,1,0-1.05.72.72,0,0,1,.52-.21h2.21V6.64H2.21a.74.74,0,0,0-.52.22.72.72,0,0,0-.21.52v17H44.27v-17a.72.72,0,0,0-.21-.52.74.74,0,0,0-.52-.22H25.83V19.19h.73V10.33a.73.73,0,0,1,.22-.52.74.74,0,0,1,.52-.22h4.43a.75.75,0,0,1,.74.74v8.86h2.21a.72.72,0,0,1,.52.21.74.74,0,0,1,0,1.05.76.76,0,0,1-.52.21ZM31,19.19V11.07H28v8.12ZM1.48,25.83V28a.72.72,0,0,0,.21.52.74.74,0,0,0,.52.22H43.54a.74.74,0,0,0,.52-.22.72.72,0,0,0,.21-.52V25.83Zm17.91,5.9h7L26,30.25H19.76Zm-3.16,1.48v.73H29.52v-.73Zm-1.47-14h3V4.43h-3Z"/><path class="cls-1" d="M4.43,26.56a.73.73,0,0,0-.52.22.74.74,0,0,0-.22.52.71.71,0,0,0,.22.52.73.73,0,0,0,.52.22H8.12a.74.74,0,0,0,.52-.22.71.71,0,0,0,.22-.52.75.75,0,0,0-.74-.74Z"/><path class="cls-1" d="M10,26.65a.59.59,0,0,0-.18.13.74.74,0,0,0-.22.52.71.71,0,0,0,.22.52A.62.62,0,0,0,10,28a1,1,0,0,1-.1-.21,1.12,1.12,0,0,1-.08-.45,1.11,1.11,0,0,1,.08-.44A1,1,0,0,1,10,26.65ZM11.42,28a2,2,0,0,0,.1-.21,1.28,1.28,0,0,0,0-.89,2,2,0,0,0-.1-.21.74.74,0,0,1,.4.65.71.71,0,0,1-.22.52A.79.79,0,0,1,11.42,28Z"/></svg>