<svg id="Layer_1" data-name="Layer 1" xmlns="http://www.w3.org/2000/svg" viewBox="0 0 35 25"><path d="M11.88,0a4.38,4.38,0,1,0,4.37,4.38A4.39,4.39,0,0,0,11.88,0ZM23.13,0A4.38,4.38,0,1,0,27.5,4.38,4.39,4.39,0,0,0,23.13,0ZM11.88,2.5A1.88,1.88,0,1,1,10,4.38,1.86,1.86,0,0,1,11.88,2.5Zm11.25,0a1.88,1.88,0,1,1-1.88,1.88A1.86,1.86,0,0,1,23.13,2.5ZM6.25,7.5a5,5,0,0,0-3.48,8.55A6.31,6.31,0,0,0,0,21.25H2.5a3.75,3.75,0,0,1,7.5,0h2.5a6.31,6.31,0,0,0-2.77-5.2A5,5,0,0,0,6.25,7.5ZM12.5,21.25A6.28,6.28,0,0,0,11.25,25h2.5a3.75,3.75,0,0,1,7.5,0h2.5a6.28,6.28,0,0,0-1.25-3.75A6.34,6.34,0,0,0,21,19.8a5,5,0,1,0-7,0A6.34,6.34,0,0,0,12.5,21.25Zm10,0H25a3.75,3.75,0,0,1,7.5,0H35a6.31,6.31,0,0,0-2.77-5.2,5,5,0,1,0-7,0A6.31,6.31,0,0,0,22.5,21.25ZM6.25,10a2.5,2.5,0,1,1-2.5,2.5A2.48,2.48,0,0,1,6.25,10Zm22.5,0a2.5,2.5,0,1,1-2.5,2.5A2.48,2.48,0,0,1,28.75,10ZM17.5,13.75a2.5,2.5,0,1,1-2.5,2.5A2.48,2.48,0,0,1,17.5,13.75Z"/></svg>