<svg id="Layer_1" data-name="Layer 1" xmlns="http://www.w3.org/2000/svg" viewBox="0 0 35.5 33.5"><path d="M27.71,33.5H7.79a1.75,1.75,0,1,1,0-3.5h2.72l.83-2.5H3.74A3.75,3.75,0,0,1,0,23.75v-20A3.75,3.75,0,0,1,3.74,0h28A3.75,3.75,0,0,1,35.5,3.75v20a3.75,3.75,0,0,1-3.74,3.75h-7.6L25,30h2.72a1.75,1.75,0,0,1,0,3.5Zm-19.92-2a.25.25,0,1,0,0,.5H27.71a.25.25,0,0,0,0-.5H23.9l-1.32-4H12.92l-1.32,4ZM12.38,26H23.12v0h8.64A2.24,2.24,0,0,0,34,23.75V23.5H1.5v.25A2.24,2.24,0,0,0,3.74,26Zm15.08-4H34V3.75A2.24,2.24,0,0,0,31.76,1.5h-28A2.24,2.24,0,0,0,1.5,3.75V22H8V19.88h2a.25.25,0,0,0,.24-.18,7.6,7.6,0,0,1,.82-2,.26.26,0,0,0,0-.31L9.65,16l2.47-2.48,1.43,1.44a.24.24,0,0,0,.3,0,7.21,7.21,0,0,1,2-.82.25.25,0,0,0,.18-.24v-2h3.5v2a.25.25,0,0,0,.18.24,7.54,7.54,0,0,1,2,.82.24.24,0,0,0,.3,0l1.43-1.44L25.85,16l-1.43,1.43a.26.26,0,0,0,0,.31,7.81,7.81,0,0,1,.82,2,.25.25,0,0,0,.24.18h2Zm-4.62,0H26v-.62h-.52a1.74,1.74,0,0,1-1.69-1.31,6.51,6.51,0,0,0-.66-1.59,1.73,1.73,0,0,1,.27-2.12l.38-.38-.36-.36L23,16a1.73,1.73,0,0,1-2.12.27,6,6,0,0,0-1.59-.66A1.74,1.74,0,0,1,18,13.92v-.54h-.5v.54a1.74,1.74,0,0,1-1.3,1.69,6,6,0,0,0-1.59.66A1.73,1.73,0,0,1,12.49,16l-.37-.38-.35.36.37.38a1.73,1.73,0,0,1,.27,2.12,6.68,6.68,0,0,0-.66,1.59,1.74,1.74,0,0,1-1.69,1.31H9.54V22h3.35c0-.12,0-.25,0-.37a4.62,4.62,0,0,1,4.87-4.69c3.1,0,5.1,1.89,5.1,4.81A2.09,2.09,0,0,1,22.84,22ZM14.4,22h6.94a2.09,2.09,0,0,0,0-.25c0-2.07-1.35-3.31-3.6-3.31a3.15,3.15,0,0,0-3.37,3.19C14.38,21.75,14.39,21.88,14.4,22Z"/></svg>