<svg id="Layer_1" data-name="Layer 1" xmlns="http://www.w3.org/2000/svg" viewBox="0 0 16 16"><defs><style>.cls-1{fill-rule:evenodd;}</style></defs><path class="cls-1" d="M15.33,0A.67.67,0,0,1,16,.67V5.33a.67.67,0,0,1-.67.67H10.67A.67.67,0,0,1,10,5.33V.67A.67.67,0,0,1,10.67,0Z"/><path class="cls-1" d="M15.33,10a.67.67,0,0,1,.67.67v4.66a.67.67,0,0,1-.67.67H10.67a.67.67,0,0,1-.67-.67V10.67a.67.67,0,0,1,.67-.67Z"/><path class="cls-1" d="M5.33,10a.67.67,0,0,1,.67.67v4.66a.67.67,0,0,1-.67.67H.67A.67.67,0,0,1,0,15.33V10.67A.67.67,0,0,1,.67,10Z"/><path class="cls-1" d="M5.33,0A.67.67,0,0,1,6,.67V5.33A.67.67,0,0,1,5.33,6H.67A.67.67,0,0,1,0,5.33V.67A.67.67,0,0,1,.67,0Z"/></svg>