<svg id="Layer_1" data-name="Layer 1" xmlns="http://www.w3.org/2000/svg" viewBox="0 0 22 17"><path d="M21.46,2A8.57,8.57,0,0,1,19,2.69,4.3,4.3,0,0,0,20.88.31a8.64,8.64,0,0,1-2.72,1.05A4.22,4.22,0,0,0,15,0a4.28,4.28,0,0,0-4.27,4.29,4.46,4.46,0,0,0,.11,1A12.19,12.19,0,0,1,2,.79a4.24,4.24,0,0,0-.58,2.15A4.22,4.22,0,0,0,3.33,6.5,4.24,4.24,0,0,1,1.38,6V6a4.29,4.29,0,0,0,3.44,4.21,4.21,4.21,0,0,1-1.93.07,4.28,4.28,0,0,0,4,3,8.52,8.52,0,0,1-5.33,1.84,8.72,8.72,0,0,1-1-.06A12.14,12.14,0,0,0,7.12,17,12.14,12.14,0,0,0,19.33,4.79c0-.19,0-.37,0-.56A8.57,8.57,0,0,0,21.46,2Z"/></svg>