<svg width="375" height="349" viewBox="0 0 375 349" fill="none" xmlns="http://www.w3.org/2000/svg">
<path opacity="0.3" d="M214.42 73.9061C275.104 100.924 313.175 165.474 285.096 222.618C270.971 251.364 244.84 275.639 214.669 289.348C184.506 303.054 150.44 306.145 120.37 292.757C60.1003 265.924 36.9428 186.702 65.2055 129.184C79.3454 100.407 101.596 79.8994 127.785 69.9226C153.967 59.949 184.204 60.4533 214.42 73.9061Z" stroke="white" stroke-width="3"/>
<path opacity="0.3" d="M245.936 49.6437C310.745 78.498 350.537 149.619 318.935 213.934C303.053 246.257 274.306 273.816 241.443 289.679C208.585 305.539 171.763 309.643 139.624 295.334C107.441 281.005 85.495 251.94 75.5756 218.278C65.6557 184.613 67.8093 146.486 83.6727 114.202C99.5705 81.8479 124.052 58.5511 152.551 46.9181C181.035 35.291 213.646 35.2673 245.936 49.6437Z" stroke="white" stroke-width="3"/>
<path opacity="0.3" d="M215.113 65.7836C248.913 80.8324 277.232 104.937 293.668 132.171C310.099 159.397 314.594 189.617 301.084 217.112C273.86 272.517 193.377 307.519 126.078 277.557C58.6547 247.538 28.9126 167.623 56.0776 112.338C69.6827 84.6499 92.5901 65.5471 120.473 57.0803C148.368 48.6096 181.355 50.754 215.113 65.7836Z" stroke="white" stroke-width="3"/>
<path opacity="0.3" d="M218.214 58.1356C276.067 83.893 311.111 148.42 282.141 207.377C267.578 237.016 241.511 262.414 211.867 277.17C182.225 291.925 149.17 295.969 120.506 283.207C91.797 270.425 72.3832 244.118 63.7987 213.486C55.2143 182.854 57.506 148.04 72.0511 118.439C86.63 88.7689 108.825 67.3044 134.5 56.4505C160.157 45.6042 189.396 45.3052 218.214 58.1356Z" stroke="white" stroke-width="3"/>
</svg>
