<svg width="318" height="346" viewBox="0 0 318 346" fill="none" xmlns="http://www.w3.org/2000/svg">
<path fill-rule="evenodd" clip-rule="evenodd" d="M135.88 221.691C153.677 227.167 171.921 225.706 187.764 218.845L197.976 242.424C176.728 251.626 152.188 253.592 128.324 246.25L135.88 221.691Z" fill="url(#paint0_linear)"/>
<path fill-rule="evenodd" clip-rule="evenodd" d="M194.667 215.548C210.992 206.448 223.938 191.31 229.864 172.049L254.423 179.605C246.472 205.446 229.055 225.796 207.178 237.991L194.667 215.548Z" fill="#0AD899"/>
<path fill-rule="evenodd" clip-rule="evenodd" d="M233.06 151.091C233.562 119.78 214.267 90.5323 183.75 79.4061L192.551 55.2656C233.58 70.2244 259.426 109.488 258.752 151.503C258.66 157.228 258.076 163.001 256.972 168.767L231.735 163.937C232.558 159.639 232.992 155.345 233.06 151.091Z" fill="#1C0F52"/>
<path fill-rule="evenodd" clip-rule="evenodd" d="M86.1949 127.847C74.5358 165.741 94.3618 205.823 130.761 219.918L121.483 243.879C72.5994 224.95 45.9834 171.165 61.6361 120.291L86.1949 127.847Z" fill="#9C65E5"/>
<path fill-rule="evenodd" clip-rule="evenodd" d="M178.4 77.6765C141.147 67.1179 102.168 86.6997 88.1346 122.308L64.2291 112.887C83.0769 65.0611 135.379 38.776 185.407 52.9554L178.4 77.6765Z" fill="#087856"/>
<circle cx="157.907" cy="149.397" r="84.5854" transform="rotate(-27.8981 157.907 149.397)" fill="white"/>
<path d="M114.488 130.68H125.888V144.68H123.488V132.76H116.888V144.68H114.488V130.68ZM129.088 134.08H131.128V135.86C131.448 135.246 131.921 134.76 132.548 134.4C133.188 134.04 133.908 133.86 134.708 133.86C136.094 133.86 137.188 134.293 137.988 135.16C138.788 136.026 139.188 137.333 139.188 139.08V139.48C139.188 140.386 139.081 141.18 138.868 141.86C138.654 142.54 138.348 143.106 137.948 143.56C137.561 144 137.094 144.333 136.548 144.56C136.001 144.786 135.388 144.9 134.708 144.9C133.948 144.9 133.254 144.733 132.628 144.4C132.001 144.066 131.554 143.6 131.288 143V148.68H129.088V134.08ZM134.188 142.98C135.014 142.98 135.681 142.693 136.188 142.12C136.694 141.546 136.948 140.666 136.948 139.48V139.08C136.948 137.96 136.701 137.133 136.208 136.6C135.714 136.053 135.041 135.78 134.188 135.78C133.814 135.78 133.454 135.84 133.108 135.96C132.761 136.08 132.448 136.26 132.168 136.5C131.901 136.726 131.688 137.02 131.528 137.38C131.368 137.726 131.288 138.126 131.288 138.58V139.98C131.288 140.486 131.368 140.926 131.528 141.3C131.688 141.673 131.901 141.986 132.168 142.24C132.434 142.493 132.741 142.68 133.088 142.8C133.434 142.92 133.801 142.98 134.188 142.98ZM145.992 144.9C145.259 144.9 144.572 144.786 143.932 144.56C143.306 144.32 142.759 143.973 142.292 143.52C141.826 143.066 141.459 142.506 141.192 141.84C140.926 141.16 140.792 140.373 140.792 139.48V139.08C140.792 138.24 140.926 137.5 141.192 136.86C141.459 136.206 141.826 135.66 142.292 135.22C142.759 134.766 143.306 134.426 143.932 134.2C144.572 133.973 145.259 133.86 145.992 133.86C146.726 133.86 147.406 133.973 148.032 134.2C148.672 134.426 149.226 134.766 149.692 135.22C150.159 135.66 150.526 136.206 150.792 136.86C151.059 137.5 151.192 138.24 151.192 139.08V139.48C151.192 140.373 151.059 141.16 150.792 141.84C150.526 142.506 150.159 143.066 149.692 143.52C149.226 143.973 148.672 144.32 148.032 144.56C147.406 144.786 146.726 144.9 145.992 144.9ZM145.992 142.98C146.379 142.98 146.746 142.913 147.092 142.78C147.452 142.646 147.766 142.44 148.032 142.16C148.312 141.88 148.532 141.52 148.692 141.08C148.866 140.64 148.952 140.106 148.952 139.48V139.08C148.952 138.506 148.866 138.013 148.692 137.6C148.532 137.186 148.312 136.846 148.032 136.58C147.766 136.313 147.452 136.113 147.092 135.98C146.746 135.846 146.379 135.78 145.992 135.78C145.606 135.78 145.232 135.846 144.872 135.98C144.526 136.113 144.212 136.313 143.932 136.58C143.666 136.846 143.446 137.186 143.272 137.6C143.112 138.013 143.032 138.506 143.032 139.08V139.48C143.032 140.106 143.112 140.64 143.272 141.08C143.446 141.52 143.666 141.88 143.932 142.16C144.212 142.44 144.526 142.646 144.872 142.78C145.232 142.913 145.606 142.98 145.992 142.98ZM152.287 142.8H153.487C153.62 142.6 153.74 142.3 153.847 141.9C153.967 141.5 154.067 141.046 154.147 140.54C154.227 140.02 154.287 139.466 154.327 138.88C154.367 138.28 154.387 137.68 154.387 137.08V134.08H162.287V142.8H163.687V147.18H161.647V144.68H154.327V147.18H152.287V142.8ZM160.087 142.8V135.96H156.507V137.48C156.507 138.506 156.447 139.493 156.327 140.44C156.207 141.373 156.007 142.16 155.727 142.8H160.087ZM168.887 144.9C168.313 144.9 167.8 144.82 167.347 144.66C166.907 144.486 166.533 144.253 166.227 143.96C165.92 143.653 165.687 143.3 165.527 142.9C165.367 142.5 165.287 142.06 165.287 141.58C165.287 140.526 165.6 139.746 166.227 139.24C166.853 138.72 167.773 138.46 168.987 138.46H172.287V137.88C172.287 137.08 172.107 136.533 171.747 136.24C171.4 135.933 170.847 135.78 170.087 135.78C169.407 135.78 168.907 135.886 168.587 136.1C168.267 136.313 168.08 136.606 168.027 136.98H165.887C165.913 136.526 166.027 136.113 166.227 135.74C166.44 135.353 166.727 135.02 167.087 134.74C167.46 134.46 167.907 134.246 168.427 134.1C168.947 133.94 169.533 133.86 170.187 133.86C170.84 133.86 171.427 133.933 171.947 134.08C172.48 134.226 172.933 134.46 173.307 134.78C173.68 135.086 173.967 135.486 174.167 135.98C174.38 136.473 174.487 137.066 174.487 137.76V141.98C174.487 142.54 174.493 143.033 174.507 143.46C174.52 143.873 174.553 144.28 174.607 144.68H172.607C172.567 144.373 172.533 144.113 172.507 143.9C172.493 143.686 172.487 143.42 172.487 143.1C172.233 143.593 171.793 144.02 171.167 144.38C170.553 144.726 169.793 144.9 168.887 144.9ZM169.487 142.98C169.86 142.98 170.213 142.933 170.547 142.84C170.893 142.733 171.193 142.586 171.447 142.4C171.7 142.2 171.9 141.96 172.047 141.68C172.207 141.386 172.287 141.053 172.287 140.68V140.1H169.387C168.827 140.1 168.373 140.22 168.027 140.46C167.693 140.7 167.527 141.053 167.527 141.52C167.527 141.96 167.68 142.313 167.987 142.58C168.307 142.846 168.807 142.98 169.487 142.98ZM179.993 139.22L176.393 134.08H178.913L181.793 138.34H182.793V134.08H184.993V138.34H185.993L189.113 134.08H191.393L187.593 139.12L191.593 144.68H189.113L185.993 140.22H184.993V144.68H182.793V140.22H181.793L178.793 144.68H176.193L179.993 139.22ZM196.289 144.9C195.716 144.9 195.202 144.82 194.749 144.66C194.309 144.486 193.936 144.253 193.629 143.96C193.322 143.653 193.089 143.3 192.929 142.9C192.769 142.5 192.689 142.06 192.689 141.58C192.689 140.526 193.002 139.746 193.629 139.24C194.256 138.72 195.176 138.46 196.389 138.46H199.689V137.88C199.689 137.08 199.509 136.533 199.149 136.24C198.802 135.933 198.249 135.78 197.489 135.78C196.809 135.78 196.309 135.886 195.989 136.1C195.669 136.313 195.482 136.606 195.429 136.98H193.289C193.316 136.526 193.429 136.113 193.629 135.74C193.842 135.353 194.129 135.02 194.489 134.74C194.862 134.46 195.309 134.246 195.829 134.1C196.349 133.94 196.936 133.86 197.589 133.86C198.242 133.86 198.829 133.933 199.349 134.08C199.882 134.226 200.336 134.46 200.709 134.78C201.082 135.086 201.369 135.486 201.569 135.98C201.782 136.473 201.889 137.066 201.889 137.76V141.98C201.889 142.54 201.896 143.033 201.909 143.46C201.922 143.873 201.956 144.28 202.009 144.68H200.009C199.969 144.373 199.936 144.113 199.909 143.9C199.896 143.686 199.889 143.42 199.889 143.1C199.636 143.593 199.196 144.02 198.569 144.38C197.956 144.726 197.196 144.9 196.289 144.9ZM196.889 142.98C197.262 142.98 197.616 142.933 197.949 142.84C198.296 142.733 198.596 142.586 198.849 142.4C199.102 142.2 199.302 141.96 199.449 141.68C199.609 141.386 199.689 141.053 199.689 140.68V140.1H196.789C196.229 140.1 195.776 140.22 195.429 140.46C195.096 140.7 194.929 141.053 194.929 141.52C194.929 141.96 195.082 142.313 195.389 142.58C195.709 142.846 196.209 142.98 196.889 142.98ZM97.7984 158.08H106.998V168.68H104.798V159.96H99.9984V168.68H97.7984V158.08ZM114.391 168.9C113.657 168.9 112.971 168.786 112.331 168.56C111.704 168.32 111.157 167.973 110.691 167.52C110.224 167.066 109.857 166.506 109.591 165.84C109.324 165.16 109.191 164.373 109.191 163.48V163.08C109.191 162.24 109.324 161.5 109.591 160.86C109.857 160.206 110.224 159.66 110.691 159.22C111.157 158.766 111.704 158.426 112.331 158.2C112.971 157.973 113.657 157.86 114.391 157.86C115.124 157.86 115.804 157.973 116.431 158.2C117.071 158.426 117.624 158.766 118.091 159.22C118.557 159.66 118.924 160.206 119.191 160.86C119.457 161.5 119.591 162.24 119.591 163.08V163.48C119.591 164.373 119.457 165.16 119.191 165.84C118.924 166.506 118.557 167.066 118.091 167.52C117.624 167.973 117.071 168.32 116.431 168.56C115.804 168.786 115.124 168.9 114.391 168.9ZM114.391 166.98C114.777 166.98 115.144 166.913 115.491 166.78C115.851 166.646 116.164 166.44 116.431 166.16C116.711 165.88 116.931 165.52 117.091 165.08C117.264 164.64 117.351 164.106 117.351 163.48V163.08C117.351 162.506 117.264 162.013 117.091 161.6C116.931 161.186 116.711 160.846 116.431 160.58C116.164 160.313 115.851 160.113 115.491 159.98C115.144 159.846 114.777 159.78 114.391 159.78C114.004 159.78 113.631 159.846 113.271 159.98C112.924 160.113 112.611 160.313 112.331 160.58C112.064 160.846 111.844 161.186 111.671 161.6C111.511 162.013 111.431 162.506 111.431 163.08V163.48C111.431 164.106 111.511 164.64 111.671 165.08C111.844 165.52 112.064 165.88 112.331 166.16C112.611 166.44 112.924 166.646 113.271 166.78C113.631 166.913 114.004 166.98 114.391 166.98ZM131.188 168.9C130.454 168.9 129.768 168.786 129.128 168.56C128.501 168.32 127.954 167.973 127.488 167.52C127.021 167.066 126.654 166.506 126.388 165.84C126.121 165.16 125.988 164.373 125.988 163.48V163.08C125.988 162.24 126.121 161.5 126.388 160.86C126.654 160.206 127.021 159.66 127.488 159.22C127.954 158.766 128.501 158.426 129.128 158.2C129.768 157.973 130.454 157.86 131.188 157.86C131.921 157.86 132.601 157.973 133.228 158.2C133.868 158.426 134.421 158.766 134.888 159.22C135.354 159.66 135.721 160.206 135.988 160.86C136.254 161.5 136.388 162.24 136.388 163.08V163.48C136.388 164.373 136.254 165.16 135.988 165.84C135.721 166.506 135.354 167.066 134.888 167.52C134.421 167.973 133.868 168.32 133.228 168.56C132.601 168.786 131.921 168.9 131.188 168.9ZM131.188 166.98C131.574 166.98 131.941 166.913 132.288 166.78C132.648 166.646 132.961 166.44 133.228 166.16C133.508 165.88 133.728 165.52 133.888 165.08C134.061 164.64 134.148 164.106 134.148 163.48V163.08C134.148 162.506 134.061 162.013 133.888 161.6C133.728 161.186 133.508 160.846 133.228 160.58C132.961 160.313 132.648 160.113 132.288 159.98C131.941 159.846 131.574 159.78 131.188 159.78C130.801 159.78 130.428 159.846 130.068 159.98C129.721 160.113 129.408 160.313 129.128 160.58C128.861 160.846 128.641 161.186 128.468 161.6C128.308 162.013 128.228 162.506 128.228 163.08V163.48C128.228 164.106 128.308 164.64 128.468 165.08C128.641 165.52 128.861 165.88 129.128 166.16C129.408 166.44 129.721 166.646 130.068 166.78C130.428 166.913 130.801 166.98 131.188 166.98ZM140.884 159.96H137.384V158.08H146.584V159.96H143.084V168.68H140.884V159.96ZM148.384 158.08H150.424V159.86C150.744 159.246 151.218 158.76 151.844 158.4C152.484 158.04 153.204 157.86 154.004 157.86C155.391 157.86 156.484 158.293 157.284 159.16C158.084 160.026 158.484 161.333 158.484 163.08V163.48C158.484 164.386 158.378 165.18 158.164 165.86C157.951 166.54 157.644 167.106 157.244 167.56C156.858 168 156.391 168.333 155.844 168.56C155.298 168.786 154.684 168.9 154.004 168.9C153.244 168.9 152.551 168.733 151.924 168.4C151.298 168.066 150.851 167.6 150.584 167V172.68H148.384V158.08ZM153.484 166.98C154.311 166.98 154.978 166.693 155.484 166.12C155.991 165.546 156.244 164.666 156.244 163.48V163.08C156.244 161.96 155.998 161.133 155.504 160.6C155.011 160.053 154.338 159.78 153.484 159.78C153.111 159.78 152.751 159.84 152.404 159.96C152.058 160.08 151.744 160.26 151.464 160.5C151.198 160.726 150.984 161.02 150.824 161.38C150.664 161.726 150.584 162.126 150.584 162.58V163.98C150.584 164.486 150.664 164.926 150.824 165.3C150.984 165.673 151.198 165.986 151.464 166.24C151.731 166.493 152.038 166.68 152.384 166.8C152.731 166.92 153.098 166.98 153.484 166.98ZM163.789 168.9C163.216 168.9 162.702 168.82 162.249 168.66C161.809 168.486 161.436 168.253 161.129 167.96C160.822 167.653 160.589 167.3 160.429 166.9C160.269 166.5 160.189 166.06 160.189 165.58C160.189 164.526 160.502 163.746 161.129 163.24C161.756 162.72 162.676 162.46 163.889 162.46H167.189V161.88C167.189 161.08 167.009 160.533 166.649 160.24C166.302 159.933 165.749 159.78 164.989 159.78C164.309 159.78 163.809 159.886 163.489 160.1C163.169 160.313 162.982 160.606 162.929 160.98H160.789C160.816 160.526 160.929 160.113 161.129 159.74C161.342 159.353 161.629 159.02 161.989 158.74C162.362 158.46 162.809 158.246 163.329 158.1C163.849 157.94 164.436 157.86 165.089 157.86C165.742 157.86 166.329 157.933 166.849 158.08C167.382 158.226 167.836 158.46 168.209 158.78C168.582 159.086 168.869 159.486 169.069 159.98C169.282 160.473 169.389 161.066 169.389 161.76V165.98C169.389 166.54 169.396 167.033 169.409 167.46C169.422 167.873 169.456 168.28 169.509 168.68H167.509C167.469 168.373 167.436 168.113 167.409 167.9C167.396 167.686 167.389 167.42 167.389 167.1C167.136 167.593 166.696 168.02 166.069 168.38C165.456 168.726 164.696 168.9 163.789 168.9ZM164.389 166.98C164.762 166.98 165.116 166.933 165.449 166.84C165.796 166.733 166.096 166.586 166.349 166.4C166.602 166.2 166.802 165.96 166.949 165.68C167.109 165.386 167.189 165.053 167.189 164.68V164.1H164.289C163.729 164.1 163.276 164.22 162.929 164.46C162.596 164.7 162.429 165.053 162.429 165.52C162.429 165.96 162.582 166.313 162.889 166.58C163.209 166.846 163.709 166.98 164.389 166.98ZM176.495 168.9C175.775 168.9 175.109 168.793 174.495 168.58C173.895 168.353 173.369 168.013 172.915 167.56C172.475 167.106 172.129 166.54 171.875 165.86C171.622 165.18 171.495 164.386 171.495 163.48V163.08C171.495 162.226 171.629 161.473 171.895 160.82C172.162 160.166 172.522 159.62 172.975 159.18C173.442 158.74 173.975 158.413 174.575 158.2C175.189 157.973 175.829 157.86 176.495 157.86C177.189 157.86 177.802 157.953 178.335 158.14C178.882 158.326 179.342 158.586 179.715 158.92C180.102 159.24 180.409 159.62 180.635 160.06C180.862 160.5 181.015 160.973 181.095 161.48H178.855C178.722 160.986 178.482 160.58 178.135 160.26C177.789 159.94 177.242 159.78 176.495 159.78C176.122 159.78 175.769 159.846 175.435 159.98C175.102 160.1 174.809 160.293 174.555 160.56C174.302 160.826 174.102 161.173 173.955 161.6C173.809 162.013 173.735 162.506 173.735 163.08V163.48C173.735 164.106 173.809 164.646 173.955 165.1C174.102 165.54 174.302 165.9 174.555 166.18C174.809 166.46 175.102 166.666 175.435 166.8C175.769 166.92 176.122 166.98 176.495 166.98C177.735 166.98 178.522 166.413 178.855 165.28H181.095C180.989 165.84 180.802 166.346 180.535 166.8C180.282 167.24 179.955 167.62 179.555 167.94C179.155 168.246 178.695 168.486 178.175 168.66C177.655 168.82 177.095 168.9 176.495 168.9ZM182.989 168.9C182.882 168.9 182.762 168.893 182.629 168.88C182.509 168.88 182.396 168.866 182.289 168.84V166.76C182.356 166.773 182.456 166.78 182.589 166.78C182.869 166.78 183.109 166.7 183.309 166.54C183.509 166.366 183.669 166.073 183.789 165.66C183.922 165.233 184.022 164.666 184.089 163.96C184.156 163.253 184.189 162.36 184.189 161.28V158.08H192.189V168.68H189.989V159.96H186.309V161.68C186.309 163.106 186.236 164.286 186.089 165.22C185.956 166.14 185.749 166.873 185.469 167.42C185.189 167.966 184.842 168.353 184.429 168.58C184.016 168.793 183.536 168.9 182.989 168.9ZM197.046 164.66C196.246 164.42 195.653 164.026 195.266 163.48C194.879 162.933 194.686 162.273 194.686 161.5C194.686 160.46 195.033 159.633 195.726 159.02C196.419 158.393 197.473 158.08 198.886 158.08H203.686V168.68H201.486V164.92H199.206L196.846 168.68H194.286L197.046 164.66ZM196.926 161.5C196.926 162.06 197.093 162.46 197.426 162.7C197.759 162.926 198.213 163.04 198.786 163.04H201.486V159.96H198.786C198.213 159.96 197.759 160.08 197.426 160.32C197.093 160.546 196.926 160.94 196.926 161.5ZM206.49 158.08H208.97L212.35 164.28L215.73 158.08H218.09V168.68H215.89V161.38L213.09 166.48H211.49L208.69 161.38V168.68H206.49V158.08Z" fill="black"/>
<path d="M1.05 41.18L8.88 34.4C9.52 33.84 10.06 33.34 10.5 32.9C10.96 32.46 11.33 32.05 11.61 31.67C11.91 31.27 12.12 30.88 12.24 30.5C12.38 30.12 12.45 29.72 12.45 29.3C12.45 28.28 12.14 27.45 11.52 26.81C10.92 26.17 10.08 25.85 9 25.85C7.72 25.85 6.72 26.2 6 26.9C5.3 27.58 4.95 28.63 4.95 30.05H1.35C1.35 28.95 1.53 27.95 1.89 27.05C2.25 26.13 2.76 25.35 3.42 24.71C4.08 24.05 4.88 23.55 5.82 23.21C6.76 22.85 7.82 22.67 9 22.67C10.14 22.67 11.15 22.84 12.03 23.18C12.91 23.5 13.64 23.96 14.22 24.56C14.82 25.14 15.27 25.84 15.57 26.66C15.89 27.46 16.05 28.34 16.05 29.3C16.05 30.02 15.93 30.7 15.69 31.34C15.47 31.98 15.15 32.59 14.73 33.17C14.33 33.75 13.84 34.32 13.26 34.88C12.7 35.44 12.08 35.99 11.4 36.53L6.06 40.88H16.35V44H1.05V41.18ZM26.3953 44.33C24.5553 44.33 23.0453 43.94 21.8653 43.16C20.6853 42.36 19.9453 41.09 19.6453 39.35H23.2453C23.4653 39.99 23.8353 40.45 24.3553 40.73C24.8753 41.01 25.5553 41.15 26.3953 41.15C27.0353 41.15 27.6353 41.05 28.1953 40.85C28.7553 40.63 29.2453 40.26 29.6653 39.74C30.1053 39.22 30.4553 38.52 30.7153 37.64C30.9753 36.74 31.1153 35.61 31.1353 34.25C30.8753 34.69 30.5453 35.07 30.1453 35.39C29.7653 35.69 29.3353 35.94 28.8553 36.14C28.3953 36.32 27.9153 36.46 27.4153 36.56C26.9153 36.64 26.4253 36.68 25.9453 36.68C23.8253 36.68 22.1653 36.1 20.9653 34.94C19.7853 33.76 19.1953 32.11 19.1953 29.99V29.69C19.1953 28.65 19.3753 27.7 19.7353 26.84C20.1153 25.98 20.6353 25.24 21.2953 24.62C21.9553 24 22.7353 23.52 23.6353 23.18C24.5353 22.84 25.5053 22.67 26.5453 22.67C27.8053 22.67 28.9253 22.86 29.9053 23.24C30.8853 23.62 31.7153 24.21 32.3953 25.01C33.0753 25.79 33.5953 26.8 33.9553 28.04C34.3153 29.28 34.4953 30.75 34.4953 32.45V33.05C34.4953 35.09 34.2853 36.83 33.8653 38.27C33.4453 39.69 32.8653 40.85 32.1253 41.75C31.4053 42.65 30.5553 43.31 29.5753 43.73C28.5953 44.13 27.5353 44.33 26.3953 44.33ZM26.7853 33.8C27.9853 33.8 28.9453 33.45 29.6653 32.75C30.4053 32.03 30.7753 31.11 30.7753 29.99V29.69C30.7753 29.15 30.6753 28.65 30.4753 28.19C30.2753 27.71 29.9953 27.3 29.6353 26.96C29.2953 26.6 28.8753 26.33 28.3753 26.15C27.8953 25.95 27.3653 25.85 26.7853 25.85C25.5853 25.85 24.6153 26.21 23.8753 26.93C23.1553 27.63 22.7953 28.55 22.7953 29.69V29.99C22.7953 31.11 23.1553 32.03 23.8753 32.75C24.6153 33.45 25.5853 33.8 26.7853 33.8ZM54.1523 23H57.7523L43.3523 44H39.7523L54.1523 23ZM41.8523 32.93C41.1123 32.93 40.4323 32.81 39.8123 32.57C39.2123 32.33 38.6923 31.99 38.2523 31.55C37.8323 31.11 37.5023 30.59 37.2623 29.99C37.0223 29.37 36.9023 28.69 36.9023 27.95V27.65C36.9023 26.91 37.0223 26.24 37.2623 25.64C37.5023 25.02 37.8323 24.49 38.2523 24.05C38.6923 23.61 39.2123 23.27 39.8123 23.03C40.4323 22.79 41.1123 22.67 41.8523 22.67C42.5923 22.67 43.2623 22.79 43.8623 23.03C44.4623 23.27 44.9823 23.61 45.4223 24.05C45.8623 24.49 46.2023 25.02 46.4423 25.64C46.6823 26.24 46.8023 26.91 46.8023 27.65V27.95C46.8023 28.69 46.6823 29.37 46.4423 29.99C46.2023 30.59 45.8623 31.11 45.4223 31.55C44.9823 31.99 44.4623 32.33 43.8623 32.57C43.2623 32.81 42.5923 32.93 41.8523 32.93ZM41.8523 30.23C42.3923 30.23 42.8223 30.05 43.1423 29.69C43.4623 29.33 43.6223 28.75 43.6223 27.95V27.65C43.6223 26.85 43.4623 26.27 43.1423 25.91C42.8223 25.55 42.3923 25.37 41.8523 25.37C41.3123 25.37 40.8823 25.55 40.5623 25.91C40.2423 26.27 40.0823 26.85 40.0823 27.65V27.95C40.0823 28.75 40.2423 29.33 40.5623 29.69C40.8823 30.05 41.3123 30.23 41.8523 30.23ZM55.6523 44.3C54.9123 44.3 54.2323 44.18 53.6123 43.94C53.0123 43.7 52.4923 43.36 52.0523 42.92C51.6323 42.48 51.3023 41.96 51.0623 41.36C50.8223 40.74 50.7023 40.06 50.7023 39.32V39.02C50.7023 38.28 50.8223 37.61 51.0623 37.01C51.3023 36.39 51.6323 35.86 52.0523 35.42C52.4923 34.98 53.0123 34.64 53.6123 34.4C54.2323 34.16 54.9123 34.04 55.6523 34.04C56.3923 34.04 57.0623 34.16 57.6623 34.4C58.2623 34.64 58.7823 34.98 59.2223 35.42C59.6623 35.86 60.0023 36.39 60.2423 37.01C60.4823 37.61 60.6023 38.28 60.6023 39.02V39.32C60.6023 40.06 60.4823 40.74 60.2423 41.36C60.0023 41.96 59.6623 42.48 59.2223 42.92C58.7823 43.36 58.2623 43.7 57.6623 43.94C57.0623 44.18 56.3923 44.3 55.6523 44.3ZM55.6523 41.6C56.1923 41.6 56.6223 41.42 56.9423 41.06C57.2623 40.7 57.4223 40.12 57.4223 39.32V39.02C57.4223 38.22 57.2623 37.64 56.9423 37.28C56.6223 36.92 56.1923 36.74 55.6523 36.74C55.1123 36.74 54.6823 36.92 54.3623 37.28C54.0423 37.64 53.8823 38.22 53.8823 39.02V39.32C53.8823 40.12 54.0423 40.7 54.3623 41.06C54.6823 41.42 55.1123 41.6 55.6523 41.6Z" fill="#087856"/>
<path d="M6.596 8.484C5.98 8.484 5.428 8.396 4.94 8.22C4.452 8.044 4.04 7.796 3.704 7.476C3.368 7.148 3.108 6.76 2.924 6.312C2.748 5.856 2.66 5.352 2.66 4.8V4.56C2.66 4.072 2.748 3.616 2.924 3.192C3.108 2.768 3.368 2.404 3.704 2.1C4.04 1.796 4.452 1.556 4.94 1.38C5.428 1.204 5.98 1.116 6.596 1.116V0.24H7.724V1.116C8.34 1.116 8.892 1.204 9.38 1.38C9.868 1.556 10.28 1.796 10.616 2.1C10.952 2.404 11.208 2.768 11.384 3.192C11.568 3.616 11.66 4.072 11.66 4.56V4.8C11.66 5.352 11.568 5.856 11.384 6.312C11.208 6.76 10.952 7.148 10.616 7.476C10.28 7.796 9.868 8.044 9.38 8.22C8.892 8.396 8.34 8.484 7.724 8.484V9.36H6.596V8.484ZM10.46 4.56C10.46 4.216 10.4 3.896 10.28 3.6C10.16 3.304 9.984 3.048 9.752 2.832C9.52 2.608 9.232 2.436 8.888 2.316C8.552 2.188 8.164 2.124 7.724 2.124V7.476C8.164 7.476 8.552 7.412 8.888 7.284C9.232 7.156 9.52 6.976 9.752 6.744C9.984 6.512 10.16 6.232 10.28 5.904C10.4 5.576 10.46 5.208 10.46 4.8V4.56ZM3.86 4.8C3.86 5.208 3.92 5.576 4.04 5.904C4.16 6.232 4.336 6.512 4.568 6.744C4.8 6.976 5.084 7.156 5.42 7.284C5.764 7.412 6.156 7.476 6.596 7.476V2.124C6.156 2.124 5.764 2.188 5.42 2.316C5.084 2.436 4.8 2.608 4.568 2.832C4.336 3.048 4.16 3.304 4.04 3.6C3.92 3.896 3.86 4.216 3.86 4.56V4.8ZM13.2842 2.64H14.3402V7.44L17.6282 2.64H18.6842V9H17.6282V4.2L14.3402 9H13.2842V2.64ZM20.6084 2.64H21.6644V5.292H24.9524V2.64H26.0084V9H24.9524V6.228H21.6644V9H20.6084V2.64ZM29.7447 9.12C29.3927 9.12 29.0807 9.072 28.8087 8.976C28.5447 8.872 28.3207 8.732 28.1367 8.556C27.9527 8.38 27.8127 8.172 27.7167 7.932C27.6207 7.692 27.5727 7.428 27.5727 7.14C27.5727 6.508 27.7567 6.052 28.1247 5.772C28.5007 5.492 29.0367 5.352 29.7327 5.352H31.7967V4.92C31.7967 4.376 31.6727 4 31.4247 3.792C31.1847 3.584 30.8207 3.48 30.3327 3.48C29.8767 3.48 29.5447 3.568 29.3367 3.744C29.1287 3.912 29.0127 4.104 28.9887 4.32H27.9327C27.9487 4.064 28.0167 3.828 28.1367 3.612C28.2647 3.388 28.4327 3.196 28.6407 3.036C28.8567 2.876 29.1127 2.752 29.4087 2.664C29.7047 2.568 30.0327 2.52 30.3927 2.52C31.1447 2.52 31.7407 2.7 32.1807 3.06C32.6287 3.412 32.8527 3.992 32.8527 4.8V7.38C32.8527 7.716 32.8527 8.012 32.8527 8.268C32.8607 8.516 32.8807 8.76 32.9127 9H31.9887C31.9647 8.816 31.9487 8.644 31.9407 8.484C31.9327 8.316 31.9287 8.128 31.9287 7.92C31.7607 8.256 31.4887 8.54 31.1127 8.772C30.7367 9.004 30.2807 9.12 29.7447 9.12ZM29.9727 8.16C30.2207 8.16 30.4527 8.128 30.6687 8.064C30.8927 7.992 31.0887 7.892 31.2567 7.764C31.4247 7.628 31.5567 7.464 31.6527 7.272C31.7487 7.08 31.7967 6.856 31.7967 6.6V6.168H29.9127C29.5207 6.168 29.2127 6.248 28.9887 6.408C28.7647 6.56 28.6527 6.804 28.6527 7.14C28.6527 7.436 28.7567 7.68 28.9647 7.872C29.1807 8.064 29.5167 8.16 29.9727 8.16ZM34.7178 2.64H35.7738V5.292H39.0618V2.64H40.1178V9H39.0618V6.228H35.7738V9H34.7178V2.64ZM44.502 9.12C44.094 9.12 43.714 9.056 43.362 8.928C43.01 8.792 42.706 8.592 42.45 8.328C42.194 8.056 41.99 7.716 41.838 7.308C41.694 6.9 41.622 6.424 41.622 5.88V5.64C41.622 5.128 41.702 4.676 41.862 4.284C42.022 3.892 42.234 3.568 42.498 3.312C42.762 3.048 43.066 2.852 43.41 2.724C43.762 2.588 44.126 2.52 44.502 2.52C44.878 2.52 45.214 2.572 45.51 2.676C45.814 2.78 46.074 2.924 46.29 3.108C46.514 3.292 46.694 3.508 46.83 3.756C46.974 4.004 47.078 4.272 47.142 4.56H46.062C45.998 4.408 45.922 4.268 45.834 4.14C45.754 4.004 45.65 3.888 45.522 3.792C45.402 3.696 45.258 3.62 45.09 3.564C44.922 3.508 44.726 3.48 44.502 3.48C44.27 3.48 44.046 3.524 43.83 3.612C43.614 3.692 43.422 3.82 43.254 3.996C43.086 4.164 42.95 4.384 42.846 4.656C42.75 4.928 42.702 5.256 42.702 5.64V5.88C42.702 6.288 42.75 6.64 42.846 6.936C42.95 7.224 43.086 7.46 43.254 7.644C43.422 7.82 43.614 7.952 43.83 8.04C44.046 8.12 44.27 8.16 44.502 8.16C44.894 8.16 45.222 8.064 45.486 7.872C45.758 7.68 45.95 7.416 46.062 7.08H47.142C46.99 7.712 46.678 8.212 46.206 8.58C45.734 8.94 45.166 9.12 44.502 9.12ZM51.2211 9.12C50.8131 9.12 50.4251 9.056 50.0571 8.928C49.6891 8.792 49.3651 8.592 49.0851 8.328C48.8051 8.056 48.5811 7.716 48.4131 7.308C48.2451 6.9 48.1611 6.424 48.1611 5.88V5.64C48.1611 5.128 48.2451 4.676 48.4131 4.284C48.5811 3.892 48.8051 3.568 49.0851 3.312C49.3651 3.048 49.6891 2.852 50.0571 2.724C50.4251 2.588 50.8131 2.52 51.2211 2.52C51.6291 2.52 52.0171 2.588 52.3851 2.724C52.7531 2.852 53.0771 3.048 53.3571 3.312C53.6371 3.568 53.8611 3.892 54.0291 4.284C54.1971 4.676 54.2811 5.128 54.2811 5.64V5.88C54.2811 6.424 54.1971 6.9 54.0291 7.308C53.8611 7.716 53.6371 8.056 53.3571 8.328C53.0771 8.592 52.7531 8.792 52.3851 8.928C52.0171 9.056 51.6291 9.12 51.2211 9.12ZM51.2211 8.16C51.4611 8.16 51.7011 8.12 51.9411 8.04C52.1811 7.952 52.3931 7.82 52.5771 7.644C52.7611 7.46 52.9091 7.224 53.0211 6.936C53.1411 6.648 53.2011 6.296 53.2011 5.88V5.64C53.2011 5.256 53.1411 4.928 53.0211 4.656C52.9091 4.384 52.7611 4.16 52.5771 3.984C52.3931 3.808 52.1811 3.68 51.9411 3.6C51.7011 3.52 51.4611 3.48 51.2211 3.48C50.9811 3.48 50.7411 3.52 50.5011 3.6C50.2611 3.68 50.0491 3.808 49.8651 3.984C49.6811 4.16 49.5291 4.384 49.4091 4.656C49.2971 4.928 49.2411 5.256 49.2411 5.64V5.88C49.2411 6.296 49.2971 6.648 49.4091 6.936C49.5291 7.224 49.6811 7.46 49.8651 7.644C50.0491 7.82 50.2611 7.952 50.5011 8.04C50.7411 8.12 50.9811 8.16 51.2211 8.16ZM55.7764 2.64H58.5364C59.3204 2.64 59.8964 2.804 60.2644 3.132C60.6324 3.452 60.8164 3.868 60.8164 4.38C60.8164 4.516 60.7924 4.656 60.7444 4.8C60.6964 4.936 60.6284 5.064 60.5404 5.184C60.4604 5.304 60.3604 5.408 60.2404 5.496C60.1284 5.584 60.0004 5.652 59.8564 5.7C60.2484 5.796 60.5444 5.98 60.7444 6.252C60.9524 6.516 61.0564 6.828 61.0564 7.188C61.0564 7.74 60.8724 8.18 60.5044 8.508C60.1364 8.836 59.5604 9 58.7764 9H55.7764V2.64ZM58.7764 8.064C59.2244 8.064 59.5404 7.984 59.7244 7.824C59.9084 7.664 60.0004 7.436 60.0004 7.14C60.0004 6.836 59.9084 6.604 59.7244 6.444C59.5404 6.276 59.2244 6.192 58.7764 6.192H56.8324V8.064H58.7764ZM58.5364 5.328C58.9924 5.328 59.3084 5.248 59.4844 5.088C59.6684 4.928 59.7604 4.708 59.7604 4.428C59.7604 4.164 59.6684 3.956 59.4844 3.804C59.3084 3.652 58.9924 3.576 58.5364 3.576H56.8324V5.328H58.5364ZM62.5616 2.64H63.6176V5.04H64.9016C65.7016 5.04 66.2896 5.216 66.6656 5.568C67.0496 5.92 67.2416 6.408 67.2416 7.032C67.2416 7.64 67.0496 8.12 66.6656 8.472C66.2896 8.824 65.7016 9 64.9016 9H62.5616V2.64ZM64.8416 8.064C65.3376 8.064 65.6856 7.976 65.8856 7.8C66.0856 7.624 66.1856 7.364 66.1856 7.02C66.1856 6.676 66.0856 6.416 65.8856 6.24C65.6856 6.064 65.3376 5.976 64.8416 5.976H63.6176V8.064H64.8416ZM68.2256 2.64H69.2816V9H68.2256V2.64ZM71.1983 2.64H72.2543V7.44L75.5423 2.64H76.5983V9H75.5423V4.2L72.2543 9H71.1983V2.64ZM73.8983 1.86C73.2743 1.86 72.8183 1.728 72.5303 1.464C72.2423 1.192 72.0983 0.803999 72.0983 0.3H73.1303C73.1303 0.844 73.3863 1.116 73.8983 1.116C74.4263 1.116 74.6903 0.844 74.6903 0.3H75.6983C75.6983 0.803999 75.5543 1.192 75.2663 1.464C74.9783 1.728 74.5223 1.86 73.8983 1.86ZM83.9825 9.12C83.5745 9.12 83.1945 9.056 82.8425 8.928C82.4905 8.792 82.1865 8.592 81.9305 8.328C81.6745 8.056 81.4705 7.716 81.3185 7.308C81.1745 6.9 81.1025 6.424 81.1025 5.88V5.64C81.1025 5.128 81.1825 4.676 81.3425 4.284C81.5025 3.892 81.7145 3.568 81.9785 3.312C82.2425 3.048 82.5465 2.852 82.8905 2.724C83.2425 2.588 83.6065 2.52 83.9825 2.52C84.3585 2.52 84.6945 2.572 84.9905 2.676C85.2945 2.78 85.5545 2.924 85.7705 3.108C85.9945 3.292 86.1745 3.508 86.3105 3.756C86.4545 4.004 86.5585 4.272 86.6225 4.56H85.5425C85.4785 4.408 85.4025 4.268 85.3145 4.14C85.2345 4.004 85.1305 3.888 85.0025 3.792C84.8825 3.696 84.7385 3.62 84.5705 3.564C84.4025 3.508 84.2065 3.48 83.9825 3.48C83.7505 3.48 83.5265 3.524 83.3105 3.612C83.0945 3.692 82.9025 3.82 82.7345 3.996C82.5665 4.164 82.4305 4.384 82.3265 4.656C82.2305 4.928 82.1825 5.256 82.1825 5.64V5.88C82.1825 6.288 82.2305 6.64 82.3265 6.936C82.4305 7.224 82.5665 7.46 82.7345 7.644C82.9025 7.82 83.0945 7.952 83.3105 8.04C83.5265 8.12 83.7505 8.16 83.9825 8.16C84.3745 8.16 84.7025 8.064 84.9665 7.872C85.2385 7.68 85.4305 7.416 85.5425 7.08H86.6225C86.4705 7.712 86.1585 8.212 85.6865 8.58C85.2145 8.94 84.6465 9.12 83.9825 9.12ZM90.7016 9.12C90.2936 9.12 89.9056 9.056 89.5376 8.928C89.1696 8.8 88.8456 8.604 88.5656 8.34C88.2856 8.068 88.0616 7.728 87.8936 7.32C87.7256 6.912 87.6416 6.432 87.6416 5.88V5.64C87.6416 5.112 87.7216 4.656 87.8816 4.272C88.0416 3.88 88.2536 3.556 88.5176 3.3C88.7896 3.036 89.1016 2.84 89.4536 2.712C89.8136 2.584 90.1896 2.52 90.5816 2.52C91.5176 2.52 92.2416 2.776 92.7536 3.288C93.2656 3.8 93.5216 4.524 93.5216 5.46V6.132H88.6976C88.6976 6.508 88.7576 6.824 88.8776 7.08C88.9976 7.336 89.1536 7.544 89.3456 7.704C89.5376 7.864 89.7496 7.98 89.9816 8.052C90.2216 8.124 90.4616 8.16 90.7016 8.16C91.1816 8.16 91.5496 8.08 91.8056 7.92C92.0696 7.76 92.2576 7.54 92.3696 7.26H93.4016C93.3376 7.564 93.2216 7.832 93.0536 8.064C92.8936 8.296 92.6936 8.492 92.4536 8.652C92.2216 8.804 91.9536 8.92 91.6496 9C91.3536 9.08 91.0376 9.12 90.7016 9.12ZM90.6416 3.48C90.3936 3.48 90.1536 3.516 89.9216 3.588C89.6896 3.652 89.4816 3.76 89.2976 3.912C89.1216 4.056 88.9776 4.24 88.8656 4.464C88.7536 4.688 88.6976 4.956 88.6976 5.268H92.5256C92.5176 4.94 92.4616 4.664 92.3576 4.44C92.2616 4.208 92.1296 4.024 91.9616 3.888C91.7936 3.744 91.5936 3.64 91.3616 3.576C91.1376 3.512 90.8976 3.48 90.6416 3.48ZM95.0225 2.64H96.0785V5.304H96.9185L99.2945 2.64H100.543L97.7825 5.688L100.663 9H99.3185L96.9185 6.216H96.0785V9H95.0225V2.64ZM103.377 3.576H101.205V2.64H106.605V3.576H104.433V9H103.377V3.576ZM110.33 9.12C109.922 9.12 109.534 9.056 109.166 8.928C108.798 8.792 108.474 8.592 108.194 8.328C107.914 8.056 107.69 7.716 107.522 7.308C107.354 6.9 107.27 6.424 107.27 5.88V5.64C107.27 5.128 107.354 4.676 107.522 4.284C107.69 3.892 107.914 3.568 108.194 3.312C108.474 3.048 108.798 2.852 109.166 2.724C109.534 2.588 109.922 2.52 110.33 2.52C110.738 2.52 111.126 2.588 111.494 2.724C111.862 2.852 112.186 3.048 112.466 3.312C112.746 3.568 112.97 3.892 113.138 4.284C113.306 4.676 113.39 5.128 113.39 5.64V5.88C113.39 6.424 113.306 6.9 113.138 7.308C112.97 7.716 112.746 8.056 112.466 8.328C112.186 8.592 111.862 8.792 111.494 8.928C111.126 9.056 110.738 9.12 110.33 9.12ZM110.33 8.16C110.57 8.16 110.81 8.12 111.05 8.04C111.29 7.952 111.502 7.82 111.686 7.644C111.87 7.46 112.018 7.224 112.13 6.936C112.25 6.648 112.31 6.296 112.31 5.88V5.64C112.31 5.256 112.25 4.928 112.13 4.656C112.018 4.384 111.87 4.16 111.686 3.984C111.502 3.808 111.29 3.68 111.05 3.6C110.81 3.52 110.57 3.48 110.33 3.48C110.09 3.48 109.85 3.52 109.61 3.6C109.37 3.68 109.158 3.808 108.974 3.984C108.79 4.16 108.638 4.384 108.518 4.656C108.406 4.928 108.35 5.256 108.35 5.64V5.88C108.35 6.296 108.406 6.648 108.518 6.936C108.638 7.224 108.79 7.46 108.974 7.644C109.158 7.82 109.37 7.952 109.61 8.04C109.85 8.12 110.09 8.16 110.33 8.16ZM114.886 2.64H115.87V3.84C116.086 3.416 116.386 3.092 116.77 2.868C117.162 2.636 117.614 2.52 118.126 2.52C118.926 2.52 119.566 2.784 120.046 3.312C120.526 3.832 120.766 4.608 120.766 5.64V5.88C120.766 6.424 120.702 6.9 120.574 7.308C120.446 7.708 120.266 8.044 120.034 8.316C119.802 8.58 119.522 8.78 119.194 8.916C118.874 9.052 118.518 9.12 118.126 9.12C117.582 9.12 117.126 9 116.758 8.76C116.398 8.52 116.126 8.22 115.942 7.86V11.4H114.886V2.64ZM117.886 8.184C118.142 8.184 118.382 8.136 118.606 8.04C118.83 7.936 119.022 7.788 119.182 7.596C119.35 7.404 119.478 7.164 119.566 6.876C119.662 6.588 119.71 6.256 119.71 5.88V5.64C119.71 5.296 119.662 4.988 119.566 4.716C119.478 4.444 119.35 4.216 119.182 4.032C119.022 3.84 118.83 3.696 118.606 3.6C118.382 3.504 118.142 3.456 117.886 3.456C117.598 3.456 117.334 3.504 117.094 3.6C116.854 3.688 116.65 3.816 116.482 3.984C116.314 4.144 116.182 4.336 116.086 4.56C115.99 4.784 115.942 5.024 115.942 5.28V6.24C115.942 6.528 115.99 6.792 116.086 7.032C116.182 7.272 116.314 7.476 116.482 7.644C116.65 7.812 116.854 7.944 117.094 8.04C117.334 8.136 117.598 8.184 117.886 8.184Z" fill="black"/>
<path d="M1.5 244.88H6.45V230.81L1.5 234.32V230.6L6.57 227H10.05V244.88H14.1V248H1.5V244.88ZM23.5535 248.33C21.7135 248.33 20.2035 247.94 19.0235 247.16C17.8435 246.36 17.1035 245.09 16.8035 243.35H20.4035C20.6235 243.99 20.9935 244.45 21.5135 244.73C22.0335 245.01 22.7135 245.15 23.5535 245.15C24.1935 245.15 24.7935 245.05 25.3535 244.85C25.9135 244.63 26.4035 244.26 26.8235 243.74C27.2635 243.22 27.6135 242.52 27.8735 241.64C28.1335 240.74 28.2735 239.61 28.2935 238.25C28.0335 238.69 27.7035 239.07 27.3035 239.39C26.9235 239.69 26.4935 239.94 26.0135 240.14C25.5535 240.32 25.0735 240.46 24.5735 240.56C24.0735 240.64 23.5835 240.68 23.1035 240.68C20.9835 240.68 19.3235 240.1 18.1235 238.94C16.9435 237.76 16.3535 236.11 16.3535 233.99V233.69C16.3535 232.65 16.5335 231.7 16.8935 230.84C17.2735 229.98 17.7935 229.24 18.4535 228.62C19.1135 228 19.8935 227.52 20.7935 227.18C21.6935 226.84 22.6635 226.67 23.7035 226.67C24.9635 226.67 26.0835 226.86 27.0635 227.24C28.0435 227.62 28.8735 228.21 29.5535 229.01C30.2335 229.79 30.7535 230.8 31.1135 232.04C31.4735 233.28 31.6535 234.75 31.6535 236.45V237.05C31.6535 239.09 31.4435 240.83 31.0235 242.27C30.6035 243.69 30.0235 244.85 29.2835 245.75C28.5635 246.65 27.7135 247.31 26.7335 247.73C25.7535 248.13 24.6935 248.33 23.5535 248.33ZM23.9435 237.8C25.1435 237.8 26.1035 237.45 26.8235 236.75C27.5635 236.03 27.9335 235.11 27.9335 233.99V233.69C27.9335 233.15 27.8335 232.65 27.6335 232.19C27.4335 231.71 27.1535 231.3 26.7935 230.96C26.4535 230.6 26.0335 230.33 25.5335 230.15C25.0535 229.95 24.5235 229.85 23.9435 229.85C22.7435 229.85 21.7735 230.21 21.0335 230.93C20.3135 231.63 19.9535 232.55 19.9535 233.69V233.99C19.9535 235.11 20.3135 236.03 21.0335 236.75C21.7735 237.45 22.7435 237.8 23.9435 237.8ZM51.3105 227H54.9105L40.5105 248H36.9105L51.3105 227ZM39.0105 236.93C38.2705 236.93 37.5905 236.81 36.9705 236.57C36.3705 236.33 35.8505 235.99 35.4105 235.55C34.9905 235.11 34.6605 234.59 34.4205 233.99C34.1805 233.37 34.0605 232.69 34.0605 231.95V231.65C34.0605 230.91 34.1805 230.24 34.4205 229.64C34.6605 229.02 34.9905 228.49 35.4105 228.05C35.8505 227.61 36.3705 227.27 36.9705 227.03C37.5905 226.79 38.2705 226.67 39.0105 226.67C39.7505 226.67 40.4205 226.79 41.0205 227.03C41.6205 227.27 42.1405 227.61 42.5805 228.05C43.0205 228.49 43.3605 229.02 43.6005 229.64C43.8405 230.24 43.9605 230.91 43.9605 231.65V231.95C43.9605 232.69 43.8405 233.37 43.6005 233.99C43.3605 234.59 43.0205 235.11 42.5805 235.55C42.1405 235.99 41.6205 236.33 41.0205 236.57C40.4205 236.81 39.7505 236.93 39.0105 236.93ZM39.0105 234.23C39.5505 234.23 39.9805 234.05 40.3005 233.69C40.6205 233.33 40.7805 232.75 40.7805 231.95V231.65C40.7805 230.85 40.6205 230.27 40.3005 229.91C39.9805 229.55 39.5505 229.37 39.0105 229.37C38.4705 229.37 38.0405 229.55 37.7205 229.91C37.4005 230.27 37.2405 230.85 37.2405 231.65V231.95C37.2405 232.75 37.4005 233.33 37.7205 233.69C38.0405 234.05 38.4705 234.23 39.0105 234.23ZM52.8105 248.3C52.0705 248.3 51.3905 248.18 50.7705 247.94C50.1705 247.7 49.6505 247.36 49.2105 246.92C48.7905 246.48 48.4605 245.96 48.2205 245.36C47.9805 244.74 47.8605 244.06 47.8605 243.32V243.02C47.8605 242.28 47.9805 241.61 48.2205 241.01C48.4605 240.39 48.7905 239.86 49.2105 239.42C49.6505 238.98 50.1705 238.64 50.7705 238.4C51.3905 238.16 52.0705 238.04 52.8105 238.04C53.5505 238.04 54.2205 238.16 54.8205 238.4C55.4205 238.64 55.9405 238.98 56.3805 239.42C56.8205 239.86 57.1605 240.39 57.4005 241.01C57.6405 241.61 57.7605 242.28 57.7605 243.02V243.32C57.7605 244.06 57.6405 244.74 57.4005 245.36C57.1605 245.96 56.8205 246.48 56.3805 246.92C55.9405 247.36 55.4205 247.7 54.8205 247.94C54.2205 248.18 53.5505 248.3 52.8105 248.3ZM52.8105 245.6C53.3505 245.6 53.7805 245.42 54.1005 245.06C54.4205 244.7 54.5805 244.12 54.5805 243.32V243.02C54.5805 242.22 54.4205 241.64 54.1005 241.28C53.7805 240.92 53.3505 240.74 52.8105 240.74C52.2705 240.74 51.8405 240.92 51.5205 241.28C51.2005 241.64 51.0405 242.22 51.0405 243.02V243.32C51.0405 244.12 51.2005 244.7 51.5205 245.06C51.8405 245.42 52.2705 245.6 52.8105 245.6Z" fill="#9C65E5"/>
<path d="M5.156 206.584H2.24V205.6H9.2V206.584H6.284V214H5.156V206.584ZM11.9633 214.12C11.5553 214.12 11.1673 214.056 10.7993 213.928C10.4313 213.8 10.1073 213.604 9.82728 213.34C9.54728 213.068 9.32328 212.728 9.15528 212.32C8.98728 211.912 8.90328 211.432 8.90328 210.88V210.64C8.90328 210.112 8.98328 209.656 9.14328 209.272C9.30328 208.88 9.51528 208.556 9.77928 208.3C10.0513 208.036 10.3633 207.84 10.7153 207.712C11.0753 207.584 11.4513 207.52 11.8433 207.52C12.7793 207.52 13.5033 207.776 14.0153 208.288C14.5273 208.8 14.7833 209.524 14.7833 210.46V211.132H9.95928C9.95928 211.508 10.0193 211.824 10.1393 212.08C10.2593 212.336 10.4153 212.544 10.6073 212.704C10.7993 212.864 11.0113 212.98 11.2433 213.052C11.4833 213.124 11.7233 213.16 11.9633 213.16C12.4433 213.16 12.8113 213.08 13.0673 212.92C13.3313 212.76 13.5193 212.54 13.6313 212.26H14.6633C14.5993 212.564 14.4833 212.832 14.3153 213.064C14.1553 213.296 13.9553 213.492 13.7153 213.652C13.4833 213.804 13.2153 213.92 12.9113 214C12.6153 214.08 12.2993 214.12 11.9633 214.12ZM11.9033 208.48C11.6553 208.48 11.4153 208.516 11.1833 208.588C10.9513 208.652 10.7433 208.76 10.5593 208.912C10.3833 209.056 10.2393 209.24 10.1273 209.464C10.0153 209.688 9.95928 209.956 9.95928 210.268H13.7873C13.7793 209.94 13.7233 209.664 13.6193 209.44C13.5233 209.208 13.3913 209.024 13.2233 208.888C13.0553 208.744 12.8553 208.64 12.6233 208.576C12.3993 208.512 12.1593 208.48 11.9033 208.48ZM15.867 214.12C15.747 214.12 15.627 214.108 15.507 214.084V213.028C15.547 213.036 15.607 213.04 15.687 213.04C15.863 213.04 16.015 212.984 16.143 212.872C16.279 212.76 16.387 212.564 16.467 212.284C16.547 212.004 16.607 211.624 16.647 211.144C16.687 210.664 16.707 210.056 16.707 209.32V207.64H21.267V214H20.211V208.576H17.763V209.56C17.763 210.448 17.723 211.184 17.643 211.768C17.563 212.352 17.443 212.82 17.283 213.172C17.131 213.516 16.935 213.76 16.695 213.904C16.455 214.048 16.179 214.12 15.867 214.12ZM25.8266 214.12C25.4186 214.12 25.0306 214.056 24.6626 213.928C24.2946 213.8 23.9706 213.604 23.6906 213.34C23.4106 213.068 23.1866 212.728 23.0186 212.32C22.8506 211.912 22.7666 211.432 22.7666 210.88V210.64C22.7666 210.112 22.8466 209.656 23.0066 209.272C23.1666 208.88 23.3786 208.556 23.6426 208.3C23.9146 208.036 24.2266 207.84 24.5786 207.712C24.9386 207.584 25.3146 207.52 25.7066 207.52C26.6426 207.52 27.3666 207.776 27.8786 208.288C28.3906 208.8 28.6466 209.524 28.6466 210.46V211.132H23.8226C23.8226 211.508 23.8826 211.824 24.0026 212.08C24.1226 212.336 24.2786 212.544 24.4706 212.704C24.6626 212.864 24.8746 212.98 25.1066 213.052C25.3466 213.124 25.5866 213.16 25.8266 213.16C26.3066 213.16 26.6746 213.08 26.9306 212.92C27.1946 212.76 27.3826 212.54 27.4946 212.26H28.5266C28.4626 212.564 28.3466 212.832 28.1786 213.064C28.0186 213.296 27.8186 213.492 27.5786 213.652C27.3466 213.804 27.0786 213.92 26.7746 214C26.4786 214.08 26.1626 214.12 25.8266 214.12ZM25.7666 208.48C25.5186 208.48 25.2786 208.516 25.0466 208.588C24.8146 208.652 24.6066 208.76 24.4226 208.912C24.2466 209.056 24.1026 209.24 23.9906 209.464C23.8786 209.688 23.8226 209.956 23.8226 210.268H27.6506C27.6426 209.94 27.5866 209.664 27.4826 209.44C27.3866 209.208 27.2546 209.024 27.0866 208.888C26.9186 208.744 26.7186 208.64 26.4866 208.576C26.2626 208.512 26.0226 208.48 25.7666 208.48ZM30.1475 207.64H31.2035V210.304H32.0435L34.4195 207.64H35.6675L32.9075 210.688L35.7875 214H34.4435L32.0435 211.216H31.2035V214H30.1475V207.64ZM39.4555 214.12C39.0475 214.12 38.6595 214.056 38.2915 213.928C37.9235 213.792 37.5995 213.592 37.3195 213.328C37.0395 213.056 36.8155 212.716 36.6475 212.308C36.4795 211.9 36.3955 211.424 36.3955 210.88V210.64C36.3955 210.128 36.4795 209.676 36.6475 209.284C36.8155 208.892 37.0395 208.568 37.3195 208.312C37.5995 208.048 37.9235 207.852 38.2915 207.724C38.6595 207.588 39.0475 207.52 39.4555 207.52C39.8635 207.52 40.2515 207.588 40.6195 207.724C40.9875 207.852 41.3115 208.048 41.5915 208.312C41.8715 208.568 42.0955 208.892 42.2635 209.284C42.4315 209.676 42.5155 210.128 42.5155 210.64V210.88C42.5155 211.424 42.4315 211.9 42.2635 212.308C42.0955 212.716 41.8715 213.056 41.5915 213.328C41.3115 213.592 40.9875 213.792 40.6195 213.928C40.2515 214.056 39.8635 214.12 39.4555 214.12ZM39.4555 213.16C39.6955 213.16 39.9355 213.12 40.1755 213.04C40.4155 212.952 40.6275 212.82 40.8115 212.644C40.9955 212.46 41.1435 212.224 41.2555 211.936C41.3755 211.648 41.4355 211.296 41.4355 210.88V210.64C41.4355 210.256 41.3755 209.928 41.2555 209.656C41.1435 209.384 40.9955 209.16 40.8115 208.984C40.6275 208.808 40.4155 208.68 40.1755 208.6C39.9355 208.52 39.6955 208.48 39.4555 208.48C39.2155 208.48 38.9755 208.52 38.7355 208.6C38.4955 208.68 38.2835 208.808 38.0995 208.984C37.9155 209.16 37.7635 209.384 37.6435 209.656C37.5315 209.928 37.4755 210.256 37.4755 210.64V210.88C37.4755 211.296 37.5315 211.648 37.6435 211.936C37.7635 212.224 37.9155 212.46 38.0995 212.644C38.2835 212.82 38.4955 212.952 38.7355 213.04C38.9755 213.12 39.2155 213.16 39.4555 213.16ZM44.0108 207.64H45.1388L47.4068 211.6L49.6748 207.64H50.7308V214H49.6748V209.38L47.7908 212.62H46.9508L45.0668 209.38V214H44.0108V207.64Z" fill="black"/>
<path d="M218.05 30.18L225.88 23.4C226.52 22.84 227.06 22.34 227.5 21.9C227.96 21.46 228.33 21.05 228.61 20.67C228.91 20.27 229.12 19.88 229.24 19.5C229.38 19.12 229.45 18.72 229.45 18.3C229.45 17.28 229.14 16.45 228.52 15.81C227.92 15.17 227.08 14.85 226 14.85C224.72 14.85 223.72 15.2 223 15.9C222.3 16.58 221.95 17.63 221.95 19.05H218.35C218.35 17.95 218.53 16.95 218.89 16.05C219.25 15.13 219.76 14.35 220.42 13.71C221.08 13.05 221.88 12.55 222.82 12.21C223.76 11.85 224.82 11.67 226 11.67C227.14 11.67 228.15 11.84 229.03 12.18C229.91 12.5 230.64 12.96 231.22 13.56C231.82 14.14 232.27 14.84 232.57 15.66C232.89 16.46 233.05 17.34 233.05 18.3C233.05 19.02 232.93 19.7 232.69 20.34C232.47 20.98 232.15 21.59 231.73 22.17C231.33 22.75 230.84 23.32 230.26 23.88C229.7 24.44 229.08 24.99 228.4 25.53L223.06 29.88H233.35V33H218.05V30.18ZM243.395 33.33C241.555 33.33 240.045 32.94 238.865 32.16C237.685 31.36 236.945 30.09 236.645 28.35H240.245C240.465 28.99 240.835 29.45 241.355 29.73C241.875 30.01 242.555 30.15 243.395 30.15C244.035 30.15 244.635 30.05 245.195 29.85C245.755 29.63 246.245 29.26 246.665 28.74C247.105 28.22 247.455 27.52 247.715 26.64C247.975 25.74 248.115 24.61 248.135 23.25C247.875 23.69 247.545 24.07 247.145 24.39C246.765 24.69 246.335 24.94 245.855 25.14C245.395 25.32 244.915 25.46 244.415 25.56C243.915 25.64 243.425 25.68 242.945 25.68C240.825 25.68 239.165 25.1 237.965 23.94C236.785 22.76 236.195 21.11 236.195 18.99V18.69C236.195 17.65 236.375 16.7 236.735 15.84C237.115 14.98 237.635 14.24 238.295 13.62C238.955 13 239.735 12.52 240.635 12.18C241.535 11.84 242.505 11.67 243.545 11.67C244.805 11.67 245.925 11.86 246.905 12.24C247.885 12.62 248.715 13.21 249.395 14.01C250.075 14.79 250.595 15.8 250.955 17.04C251.315 18.28 251.495 19.75 251.495 21.45V22.05C251.495 24.09 251.285 25.83 250.865 27.27C250.445 28.69 249.865 29.85 249.125 30.75C248.405 31.65 247.555 32.31 246.575 32.73C245.595 33.13 244.535 33.33 243.395 33.33ZM243.785 22.8C244.985 22.8 245.945 22.45 246.665 21.75C247.405 21.03 247.775 20.11 247.775 18.99V18.69C247.775 18.15 247.675 17.65 247.475 17.19C247.275 16.71 246.995 16.3 246.635 15.96C246.295 15.6 245.875 15.33 245.375 15.15C244.895 14.95 244.365 14.85 243.785 14.85C242.585 14.85 241.615 15.21 240.875 15.93C240.155 16.63 239.795 17.55 239.795 18.69V18.99C239.795 20.11 240.155 21.03 240.875 21.75C241.615 22.45 242.585 22.8 243.785 22.8ZM271.152 12H274.752L260.352 33H256.752L271.152 12ZM258.852 21.93C258.112 21.93 257.432 21.81 256.812 21.57C256.212 21.33 255.692 20.99 255.252 20.55C254.832 20.11 254.502 19.59 254.262 18.99C254.022 18.37 253.902 17.69 253.902 16.95V16.65C253.902 15.91 254.022 15.24 254.262 14.64C254.502 14.02 254.832 13.49 255.252 13.05C255.692 12.61 256.212 12.27 256.812 12.03C257.432 11.79 258.112 11.67 258.852 11.67C259.592 11.67 260.262 11.79 260.862 12.03C261.462 12.27 261.982 12.61 262.422 13.05C262.862 13.49 263.202 14.02 263.442 14.64C263.682 15.24 263.802 15.91 263.802 16.65V16.95C263.802 17.69 263.682 18.37 263.442 18.99C263.202 19.59 262.862 20.11 262.422 20.55C261.982 20.99 261.462 21.33 260.862 21.57C260.262 21.81 259.592 21.93 258.852 21.93ZM258.852 19.23C259.392 19.23 259.822 19.05 260.142 18.69C260.462 18.33 260.622 17.75 260.622 16.95V16.65C260.622 15.85 260.462 15.27 260.142 14.91C259.822 14.55 259.392 14.37 258.852 14.37C258.312 14.37 257.882 14.55 257.562 14.91C257.242 15.27 257.082 15.85 257.082 16.65V16.95C257.082 17.75 257.242 18.33 257.562 18.69C257.882 19.05 258.312 19.23 258.852 19.23ZM272.652 33.3C271.912 33.3 271.232 33.18 270.612 32.94C270.012 32.7 269.492 32.36 269.052 31.92C268.632 31.48 268.302 30.96 268.062 30.36C267.822 29.74 267.702 29.06 267.702 28.32V28.02C267.702 27.28 267.822 26.61 268.062 26.01C268.302 25.39 268.632 24.86 269.052 24.42C269.492 23.98 270.012 23.64 270.612 23.4C271.232 23.16 271.912 23.04 272.652 23.04C273.392 23.04 274.062 23.16 274.662 23.4C275.262 23.64 275.782 23.98 276.222 24.42C276.662 24.86 277.002 25.39 277.242 26.01C277.482 26.61 277.602 27.28 277.602 28.02V28.32C277.602 29.06 277.482 29.74 277.242 30.36C277.002 30.96 276.662 31.48 276.222 31.92C275.782 32.36 275.262 32.7 274.662 32.94C274.062 33.18 273.392 33.3 272.652 33.3ZM272.652 30.6C273.192 30.6 273.622 30.42 273.942 30.06C274.262 29.7 274.422 29.12 274.422 28.32V28.02C274.422 27.22 274.262 26.64 273.942 26.28C273.622 25.92 273.192 25.74 272.652 25.74C272.112 25.74 271.682 25.92 271.362 26.28C271.042 26.64 270.882 27.22 270.882 28.02V28.32C270.882 29.12 271.042 29.7 271.362 30.06C271.682 30.42 272.112 30.6 272.652 30.6Z" fill="#1C0F52"/>
<path d="M113.7 339.33C111.86 339.33 110.35 338.94 109.17 338.16C107.99 337.36 107.25 336.09 106.95 334.35H110.55C110.77 334.99 111.14 335.45 111.66 335.73C112.18 336.01 112.86 336.15 113.7 336.15C114.34 336.15 114.94 336.05 115.5 335.85C116.06 335.63 116.55 335.26 116.97 334.74C117.41 334.22 117.76 333.52 118.02 332.64C118.28 331.74 118.42 330.61 118.44 329.25C118.18 329.69 117.85 330.07 117.45 330.39C117.07 330.69 116.64 330.94 116.16 331.14C115.7 331.32 115.22 331.46 114.72 331.56C114.22 331.64 113.73 331.68 113.25 331.68C111.13 331.68 109.47 331.1 108.27 329.94C107.09 328.76 106.5 327.11 106.5 324.99V324.69C106.5 323.65 106.68 322.7 107.04 321.84C107.42 320.98 107.94 320.24 108.6 319.62C109.26 319 110.04 318.52 110.94 318.18C111.84 317.84 112.81 317.67 113.85 317.67C115.11 317.67 116.23 317.86 117.21 318.24C118.19 318.62 119.02 319.21 119.7 320.01C120.38 320.79 120.9 321.8 121.26 323.04C121.62 324.28 121.8 325.75 121.8 327.45V328.05C121.8 330.09 121.59 331.83 121.17 333.27C120.75 334.69 120.17 335.85 119.43 336.75C118.71 337.65 117.86 338.31 116.88 338.73C115.9 339.13 114.84 339.33 113.7 339.33ZM114.09 328.8C115.29 328.8 116.25 328.45 116.97 327.75C117.71 327.03 118.08 326.11 118.08 324.99V324.69C118.08 324.15 117.98 323.65 117.78 323.19C117.58 322.71 117.3 322.3 116.94 321.96C116.6 321.6 116.18 321.33 115.68 321.15C115.2 320.95 114.67 320.85 114.09 320.85C112.89 320.85 111.92 321.21 111.18 321.93C110.46 322.63 110.1 323.55 110.1 324.69V324.99C110.1 326.11 110.46 327.03 111.18 327.75C111.92 328.45 112.89 328.8 114.09 328.8ZM141.457 318H145.057L130.657 339H127.057L141.457 318ZM129.157 327.93C128.417 327.93 127.737 327.81 127.117 327.57C126.517 327.33 125.997 326.99 125.557 326.55C125.137 326.11 124.807 325.59 124.567 324.99C124.327 324.37 124.207 323.69 124.207 322.95V322.65C124.207 321.91 124.327 321.24 124.567 320.64C124.807 320.02 125.137 319.49 125.557 319.05C125.997 318.61 126.517 318.27 127.117 318.03C127.737 317.79 128.417 317.67 129.157 317.67C129.897 317.67 130.567 317.79 131.167 318.03C131.767 318.27 132.287 318.61 132.727 319.05C133.167 319.49 133.507 320.02 133.747 320.64C133.987 321.24 134.107 321.91 134.107 322.65V322.95C134.107 323.69 133.987 324.37 133.747 324.99C133.507 325.59 133.167 326.11 132.727 326.55C132.287 326.99 131.767 327.33 131.167 327.57C130.567 327.81 129.897 327.93 129.157 327.93ZM129.157 325.23C129.697 325.23 130.127 325.05 130.447 324.69C130.767 324.33 130.927 323.75 130.927 322.95V322.65C130.927 321.85 130.767 321.27 130.447 320.91C130.127 320.55 129.697 320.37 129.157 320.37C128.617 320.37 128.187 320.55 127.867 320.91C127.547 321.27 127.387 321.85 127.387 322.65V322.95C127.387 323.75 127.547 324.33 127.867 324.69C128.187 325.05 128.617 325.23 129.157 325.23ZM142.957 339.3C142.217 339.3 141.537 339.18 140.917 338.94C140.317 338.7 139.797 338.36 139.357 337.92C138.937 337.48 138.607 336.96 138.367 336.36C138.127 335.74 138.007 335.06 138.007 334.32V334.02C138.007 333.28 138.127 332.61 138.367 332.01C138.607 331.39 138.937 330.86 139.357 330.42C139.797 329.98 140.317 329.64 140.917 329.4C141.537 329.16 142.217 329.04 142.957 329.04C143.697 329.04 144.367 329.16 144.967 329.4C145.567 329.64 146.087 329.98 146.527 330.42C146.967 330.86 147.307 331.39 147.547 332.01C147.787 332.61 147.907 333.28 147.907 334.02V334.32C147.907 335.06 147.787 335.74 147.547 336.36C147.307 336.96 146.967 337.48 146.527 337.92C146.087 338.36 145.567 338.7 144.967 338.94C144.367 339.18 143.697 339.3 142.957 339.3ZM142.957 336.6C143.497 336.6 143.927 336.42 144.247 336.06C144.567 335.7 144.727 335.12 144.727 334.32V334.02C144.727 333.22 144.567 332.64 144.247 332.28C143.927 331.92 143.497 331.74 142.957 331.74C142.417 331.74 141.987 331.92 141.667 332.28C141.347 332.64 141.187 333.22 141.187 334.02V334.32C141.187 335.12 141.347 335.7 141.667 336.06C141.987 336.42 142.417 336.6 142.957 336.6Z" fill="url(#paint1_linear)"/>
<path d="M109.9 291.12C109.476 291.12 109.076 291.072 108.7 290.976C108.332 290.872 108 290.712 107.704 290.496C107.416 290.28 107.176 290.008 106.984 289.68C106.792 289.344 106.664 288.944 106.6 288.48H107.8C107.872 288.96 108.084 289.352 108.436 289.656C108.788 289.96 109.276 290.112 109.9 290.112C110.148 290.112 110.404 290.068 110.668 289.98C110.932 289.892 111.176 289.736 111.4 289.512C111.624 289.288 111.812 288.992 111.964 288.624C112.116 288.256 112.204 287.788 112.228 287.22H108.88V286.26H112.228C112.204 285.732 112.12 285.292 111.976 284.94C111.84 284.58 111.664 284.292 111.448 284.076C111.232 283.86 110.988 283.708 110.716 283.62C110.452 283.532 110.18 283.488 109.9 283.488C109.332 283.488 108.868 283.624 108.508 283.896C108.148 284.168 107.912 284.576 107.8 285.12H106.6C106.648 284.704 106.76 284.332 106.936 284.004C107.12 283.676 107.356 283.4 107.644 283.176C107.932 282.952 108.264 282.78 108.64 282.66C109.024 282.54 109.444 282.48 109.9 282.48C110.364 282.48 110.808 282.556 111.232 282.708C111.664 282.86 112.044 283.1 112.372 283.428C112.7 283.756 112.96 284.184 113.152 284.712C113.344 285.24 113.44 285.876 113.44 286.62V286.86C113.44 287.636 113.344 288.296 113.152 288.84C112.96 289.376 112.7 289.816 112.372 290.16C112.044 290.496 111.664 290.74 111.232 290.892C110.808 291.044 110.364 291.12 109.9 291.12ZM115.356 282.6H116.484V286.212H117.444L120.732 282.6H122.076L118.404 286.608L122.196 291H120.756L117.444 287.148H116.484V291H115.356V282.6ZM126.639 287.88C126.639 287.096 126.747 286.384 126.963 285.744C127.187 285.104 127.435 284.548 127.707 284.076C128.019 283.532 128.375 283.04 128.775 282.6H129.999C129.567 283.04 129.187 283.532 128.859 284.076C128.715 284.308 128.575 284.564 128.439 284.844C128.303 285.124 128.179 285.424 128.067 285.744C127.963 286.064 127.879 286.404 127.815 286.764C127.751 287.116 127.719 287.488 127.719 287.88V288.12C127.719 288.512 127.751 288.888 127.815 289.248C127.879 289.608 127.963 289.948 128.067 290.268C128.179 290.588 128.303 290.888 128.439 291.168C128.575 291.448 128.715 291.704 128.859 291.936C129.187 292.488 129.567 292.976 129.999 293.4H128.727C128.335 292.976 127.987 292.488 127.683 291.936C127.419 291.472 127.179 290.916 126.963 290.268C126.747 289.62 126.639 288.904 126.639 288.12V287.88ZM131.077 284.64H132.133V287.292H135.421V284.64H136.477V291H135.421V288.228H132.133V291H131.077V284.64ZM141.041 291.12C140.633 291.12 140.245 291.056 139.877 290.928C139.509 290.8 139.185 290.604 138.905 290.34C138.625 290.068 138.401 289.728 138.233 289.32C138.065 288.912 137.981 288.432 137.981 287.88V287.64C137.981 287.112 138.061 286.656 138.221 286.272C138.381 285.88 138.593 285.556 138.857 285.3C139.129 285.036 139.441 284.84 139.793 284.712C140.153 284.584 140.529 284.52 140.921 284.52C141.857 284.52 142.581 284.776 143.093 285.288C143.605 285.8 143.861 286.524 143.861 287.46V288.132H139.037C139.037 288.508 139.097 288.824 139.217 289.08C139.337 289.336 139.493 289.544 139.685 289.704C139.877 289.864 140.089 289.98 140.321 290.052C140.561 290.124 140.801 290.16 141.041 290.16C141.521 290.16 141.889 290.08 142.145 289.92C142.409 289.76 142.597 289.54 142.709 289.26H143.741C143.677 289.564 143.561 289.832 143.393 290.064C143.233 290.296 143.033 290.492 142.793 290.652C142.561 290.804 142.293 290.92 141.989 291C141.693 291.08 141.377 291.12 141.041 291.12ZM140.981 285.48C140.733 285.48 140.493 285.516 140.261 285.588C140.029 285.652 139.821 285.76 139.637 285.912C139.461 286.056 139.317 286.24 139.205 286.464C139.093 286.688 139.037 286.956 139.037 287.268H142.865C142.857 286.94 142.801 286.664 142.697 286.44C142.601 286.208 142.469 286.024 142.301 285.888C142.133 285.744 141.933 285.64 141.701 285.576C141.477 285.512 141.237 285.48 140.981 285.48ZM148.314 291.12C147.21 291.12 146.37 290.84 145.794 290.28C145.226 289.72 144.942 288.924 144.942 287.892V287.652C144.942 286.668 145.226 285.9 145.794 285.348C146.37 284.796 147.21 284.52 148.314 284.52V282.6H149.37V284.52C150.474 284.52 151.31 284.796 151.878 285.348C152.454 285.9 152.742 286.668 152.742 287.652V287.892C152.742 288.924 152.454 289.72 151.878 290.28C151.31 290.84 150.474 291.12 149.37 291.12V293.4H148.314V291.12ZM151.662 287.652C151.662 286.924 151.474 286.38 151.098 286.02C150.73 285.66 150.15 285.48 149.358 285.48V290.16C150.15 290.16 150.73 289.976 151.098 289.608C151.474 289.24 151.662 288.668 151.662 287.892V287.652ZM146.022 287.892C146.022 288.668 146.206 289.24 146.574 289.608C146.95 289.976 147.534 290.16 148.326 290.16V285.48C147.534 285.48 146.95 285.66 146.574 286.02C146.206 286.38 146.022 286.924 146.022 287.652V287.892ZM155.58 285.576H153.408V284.64H158.808V285.576H156.636V291H155.58V285.576ZM162.534 291.12C162.126 291.12 161.738 291.056 161.37 290.928C161.002 290.8 160.678 290.604 160.398 290.34C160.118 290.068 159.894 289.728 159.726 289.32C159.558 288.912 159.474 288.432 159.474 287.88V287.64C159.474 287.112 159.554 286.656 159.714 286.272C159.874 285.88 160.086 285.556 160.35 285.3C160.622 285.036 160.934 284.84 161.286 284.712C161.646 284.584 162.022 284.52 162.414 284.52C163.35 284.52 164.074 284.776 164.586 285.288C165.098 285.8 165.354 286.524 165.354 287.46V288.132H160.53C160.53 288.508 160.59 288.824 160.71 289.08C160.83 289.336 160.986 289.544 161.178 289.704C161.37 289.864 161.582 289.98 161.814 290.052C162.054 290.124 162.294 290.16 162.534 290.16C163.014 290.16 163.382 290.08 163.638 289.92C163.902 289.76 164.09 289.54 164.202 289.26H165.234C165.17 289.564 165.054 289.832 164.886 290.064C164.726 290.296 164.526 290.492 164.286 290.652C164.054 290.804 163.786 290.92 163.482 291C163.186 291.08 162.87 291.12 162.534 291.12ZM162.474 285.48C162.226 285.48 161.986 285.516 161.754 285.588C161.522 285.652 161.314 285.76 161.13 285.912C160.954 286.056 160.81 286.24 160.698 286.464C160.586 286.688 160.53 286.956 160.53 287.268H164.358C164.35 286.94 164.294 286.664 164.19 286.44C164.094 286.208 163.962 286.024 163.794 285.888C163.626 285.744 163.426 285.64 163.194 285.576C162.97 285.512 162.73 285.48 162.474 285.48ZM166.855 284.64H171.175V285.576H167.911V291H166.855V284.64ZM173.952 291.12C173.6 291.12 173.288 291.072 173.016 290.976C172.752 290.872 172.528 290.732 172.344 290.556C172.16 290.38 172.02 290.172 171.924 289.932C171.828 289.692 171.78 289.428 171.78 289.14C171.78 288.508 171.964 288.052 172.332 287.772C172.708 287.492 173.244 287.352 173.94 287.352H176.004V286.92C176.004 286.376 175.88 286 175.632 285.792C175.392 285.584 175.028 285.48 174.54 285.48C174.084 285.48 173.752 285.568 173.544 285.744C173.336 285.912 173.22 286.104 173.196 286.32H172.14C172.156 286.064 172.224 285.828 172.344 285.612C172.472 285.388 172.64 285.196 172.848 285.036C173.064 284.876 173.32 284.752 173.616 284.664C173.912 284.568 174.24 284.52 174.6 284.52C175.352 284.52 175.948 284.7 176.388 285.06C176.836 285.412 177.06 285.992 177.06 286.8V289.38C177.06 289.716 177.06 290.012 177.06 290.268C177.068 290.516 177.088 290.76 177.12 291H176.196C176.172 290.816 176.156 290.644 176.148 290.484C176.14 290.316 176.136 290.128 176.136 289.92C175.968 290.256 175.696 290.54 175.32 290.772C174.944 291.004 174.488 291.12 173.952 291.12ZM174.18 290.16C174.428 290.16 174.66 290.128 174.876 290.064C175.1 289.992 175.296 289.892 175.464 289.764C175.632 289.628 175.764 289.464 175.86 289.272C175.956 289.08 176.004 288.856 176.004 288.6V288.168H174.12C173.728 288.168 173.42 288.248 173.196 288.408C172.972 288.56 172.86 288.804 172.86 289.14C172.86 289.436 172.964 289.68 173.172 289.872C173.388 290.064 173.724 290.16 174.18 290.16ZM181.085 291.12C180.285 291.12 179.657 290.952 179.201 290.616C178.745 290.28 178.493 289.808 178.445 289.2H179.501C179.557 289.512 179.721 289.752 179.993 289.92C180.273 290.08 180.637 290.16 181.085 290.16C181.637 290.16 182.037 290.068 182.285 289.884C182.541 289.692 182.669 289.464 182.669 289.2C182.669 288.888 182.565 288.644 182.357 288.468C182.149 288.284 181.789 288.192 181.277 288.192H180.185V287.328H181.205C181.645 287.328 181.957 287.244 182.141 287.076C182.333 286.908 182.429 286.672 182.429 286.368C182.429 286.128 182.317 285.92 182.093 285.744C181.869 285.568 181.533 285.48 181.085 285.48C180.597 285.48 180.241 285.56 180.017 285.72C179.801 285.872 179.669 286.092 179.621 286.38H178.565C178.589 286.116 178.661 285.872 178.781 285.648C178.909 285.416 179.081 285.216 179.297 285.048C179.513 284.88 179.769 284.752 180.065 284.664C180.369 284.568 180.709 284.52 181.085 284.52C181.493 284.52 181.845 284.568 182.141 284.664C182.445 284.752 182.697 284.88 182.897 285.048C183.097 285.208 183.245 285.4 183.341 285.624C183.437 285.848 183.485 286.096 183.485 286.368C183.485 286.672 183.409 286.94 183.257 287.172C183.105 287.396 182.861 287.572 182.525 287.7C182.973 287.82 183.285 288.012 183.461 288.276C183.637 288.54 183.725 288.848 183.725 289.2C183.725 289.464 183.669 289.712 183.557 289.944C183.445 290.176 183.277 290.38 183.053 290.556C182.837 290.724 182.561 290.86 182.225 290.964C181.897 291.068 181.517 291.12 181.085 291.12ZM187.87 291.12C187.462 291.12 187.074 291.056 186.706 290.928C186.338 290.792 186.014 290.592 185.734 290.328C185.454 290.056 185.23 289.716 185.062 289.308C184.894 288.9 184.81 288.424 184.81 287.88V287.64C184.81 287.128 184.894 286.676 185.062 286.284C185.23 285.892 185.454 285.568 185.734 285.312C186.014 285.048 186.338 284.852 186.706 284.724C187.074 284.588 187.462 284.52 187.87 284.52C188.278 284.52 188.666 284.588 189.034 284.724C189.402 284.852 189.726 285.048 190.006 285.312C190.286 285.568 190.51 285.892 190.678 286.284C190.846 286.676 190.93 287.128 190.93 287.64V287.88C190.93 288.424 190.846 288.9 190.678 289.308C190.51 289.716 190.286 290.056 190.006 290.328C189.726 290.592 189.402 290.792 189.034 290.928C188.666 291.056 188.278 291.12 187.87 291.12ZM187.87 290.16C188.11 290.16 188.35 290.12 188.59 290.04C188.83 289.952 189.042 289.82 189.226 289.644C189.41 289.46 189.558 289.224 189.67 288.936C189.79 288.648 189.85 288.296 189.85 287.88V287.64C189.85 287.256 189.79 286.928 189.67 286.656C189.558 286.384 189.41 286.16 189.226 285.984C189.042 285.808 188.83 285.68 188.59 285.6C188.35 285.52 188.11 285.48 187.87 285.48C187.63 285.48 187.39 285.52 187.15 285.6C186.91 285.68 186.698 285.808 186.514 285.984C186.33 286.16 186.178 286.384 186.058 286.656C185.946 286.928 185.89 287.256 185.89 287.64V287.88C185.89 288.296 185.946 288.648 186.058 288.936C186.178 289.224 186.33 289.46 186.514 289.644C186.698 289.82 186.91 289.952 187.15 290.04C187.39 290.12 187.63 290.16 187.87 290.16ZM192.425 284.64H195.185C195.969 284.64 196.545 284.804 196.913 285.132C197.281 285.452 197.465 285.868 197.465 286.38C197.465 286.516 197.441 286.656 197.393 286.8C197.345 286.936 197.277 287.064 197.189 287.184C197.109 287.304 197.009 287.408 196.889 287.496C196.777 287.584 196.649 287.652 196.505 287.7C196.897 287.796 197.193 287.98 197.393 288.252C197.601 288.516 197.705 288.828 197.705 289.188C197.705 289.74 197.521 290.18 197.153 290.508C196.785 290.836 196.209 291 195.425 291H192.425V284.64ZM195.425 290.064C195.873 290.064 196.189 289.984 196.373 289.824C196.557 289.664 196.649 289.436 196.649 289.14C196.649 288.836 196.557 288.604 196.373 288.444C196.189 288.276 195.873 288.192 195.425 288.192H193.481V290.064H195.425ZM195.185 287.328C195.641 287.328 195.957 287.248 196.133 287.088C196.317 286.928 196.409 286.708 196.409 286.428C196.409 286.164 196.317 285.956 196.133 285.804C195.957 285.652 195.641 285.576 195.185 285.576H193.481V287.328H195.185ZM199.21 284.64H200.266V287.04H201.55C202.35 287.04 202.938 287.216 203.314 287.568C203.698 287.92 203.89 288.408 203.89 289.032C203.89 289.64 203.698 290.12 203.314 290.472C202.938 290.824 202.35 291 201.55 291H199.21V284.64ZM201.49 290.064C201.986 290.064 202.334 289.976 202.534 289.8C202.734 289.624 202.834 289.364 202.834 289.02C202.834 288.676 202.734 288.416 202.534 288.24C202.334 288.064 201.986 287.976 201.49 287.976H200.266V290.064H201.49ZM204.874 284.64H205.93V291H204.874V284.64ZM207.847 284.64H208.903V289.44L212.191 284.64H213.247V291H212.191V286.2L208.903 291H207.847V284.64ZM210.547 283.86C209.923 283.86 209.467 283.728 209.179 283.464C208.891 283.192 208.747 282.804 208.747 282.3H209.779C209.779 282.844 210.035 283.116 210.547 283.116C211.075 283.116 211.339 282.844 211.339 282.3H212.347C212.347 282.804 212.203 283.192 211.915 283.464C211.627 283.728 211.171 283.86 210.547 283.86ZM109.42 305.12C109.012 305.12 108.632 305.056 108.28 304.928C107.928 304.792 107.624 304.592 107.368 304.328C107.112 304.056 106.908 303.716 106.756 303.308C106.612 302.9 106.54 302.424 106.54 301.88V301.64C106.54 301.128 106.62 300.676 106.78 300.284C106.94 299.892 107.152 299.568 107.416 299.312C107.68 299.048 107.984 298.852 108.328 298.724C108.68 298.588 109.044 298.52 109.42 298.52C109.796 298.52 110.132 298.572 110.428 298.676C110.732 298.78 110.992 298.924 111.208 299.108C111.432 299.292 111.612 299.508 111.748 299.756C111.892 300.004 111.996 300.272 112.06 300.56H110.98C110.916 300.408 110.84 300.268 110.752 300.14C110.672 300.004 110.568 299.888 110.44 299.792C110.32 299.696 110.176 299.62 110.008 299.564C109.84 299.508 109.644 299.48 109.42 299.48C109.188 299.48 108.964 299.524 108.748 299.612C108.532 299.692 108.34 299.82 108.172 299.996C108.004 300.164 107.868 300.384 107.764 300.656C107.668 300.928 107.62 301.256 107.62 301.64V301.88C107.62 302.288 107.668 302.64 107.764 302.936C107.868 303.224 108.004 303.46 108.172 303.644C108.34 303.82 108.532 303.952 108.748 304.04C108.964 304.12 109.188 304.16 109.42 304.16C109.812 304.16 110.14 304.064 110.404 303.872C110.676 303.68 110.868 303.416 110.98 303.08H112.06C111.908 303.712 111.596 304.212 111.124 304.58C110.652 304.94 110.084 305.12 109.42 305.12ZM116.139 305.12C115.731 305.12 115.343 305.056 114.975 304.928C114.607 304.8 114.283 304.604 114.003 304.34C113.723 304.068 113.499 303.728 113.331 303.32C113.163 302.912 113.079 302.432 113.079 301.88V301.64C113.079 301.112 113.159 300.656 113.319 300.272C113.479 299.88 113.691 299.556 113.955 299.3C114.227 299.036 114.539 298.84 114.891 298.712C115.251 298.584 115.627 298.52 116.019 298.52C116.955 298.52 117.679 298.776 118.191 299.288C118.703 299.8 118.959 300.524 118.959 301.46V302.132H114.135C114.135 302.508 114.195 302.824 114.315 303.08C114.435 303.336 114.591 303.544 114.783 303.704C114.975 303.864 115.187 303.98 115.419 304.052C115.659 304.124 115.899 304.16 116.139 304.16C116.619 304.16 116.987 304.08 117.243 303.92C117.507 303.76 117.695 303.54 117.807 303.26H118.839C118.775 303.564 118.659 303.832 118.491 304.064C118.331 304.296 118.131 304.492 117.891 304.652C117.659 304.804 117.391 304.92 117.087 305C116.791 305.08 116.475 305.12 116.139 305.12ZM116.079 299.48C115.831 299.48 115.591 299.516 115.359 299.588C115.127 299.652 114.919 299.76 114.735 299.912C114.559 300.056 114.415 300.24 114.303 300.464C114.191 300.688 114.135 300.956 114.135 301.268H117.963C117.955 300.94 117.899 300.664 117.795 300.44C117.699 300.208 117.567 300.024 117.399 299.888C117.231 299.744 117.031 299.64 116.799 299.576C116.575 299.512 116.335 299.48 116.079 299.48ZM120.46 298.64H121.516V301.304H122.356L124.732 298.64H125.98L123.22 301.688L126.1 305H124.756L122.356 302.216H121.516V305H120.46V298.64ZM128.814 299.576H126.642V298.64H132.042V299.576H129.87V305H128.814V299.576ZM135.768 305.12C135.36 305.12 134.972 305.056 134.604 304.928C134.236 304.792 133.912 304.592 133.632 304.328C133.352 304.056 133.128 303.716 132.96 303.308C132.792 302.9 132.708 302.424 132.708 301.88V301.64C132.708 301.128 132.792 300.676 132.96 300.284C133.128 299.892 133.352 299.568 133.632 299.312C133.912 299.048 134.236 298.852 134.604 298.724C134.972 298.588 135.36 298.52 135.768 298.52C136.176 298.52 136.564 298.588 136.932 298.724C137.3 298.852 137.624 299.048 137.904 299.312C138.184 299.568 138.408 299.892 138.576 300.284C138.744 300.676 138.828 301.128 138.828 301.64V301.88C138.828 302.424 138.744 302.9 138.576 303.308C138.408 303.716 138.184 304.056 137.904 304.328C137.624 304.592 137.3 304.792 136.932 304.928C136.564 305.056 136.176 305.12 135.768 305.12ZM135.768 304.16C136.008 304.16 136.248 304.12 136.488 304.04C136.728 303.952 136.94 303.82 137.124 303.644C137.308 303.46 137.456 303.224 137.568 302.936C137.688 302.648 137.748 302.296 137.748 301.88V301.64C137.748 301.256 137.688 300.928 137.568 300.656C137.456 300.384 137.308 300.16 137.124 299.984C136.94 299.808 136.728 299.68 136.488 299.6C136.248 299.52 136.008 299.48 135.768 299.48C135.528 299.48 135.288 299.52 135.048 299.6C134.808 299.68 134.596 299.808 134.412 299.984C134.228 300.16 134.076 300.384 133.956 300.656C133.844 300.928 133.788 301.256 133.788 301.64V301.88C133.788 302.296 133.844 302.648 133.956 302.936C134.076 303.224 134.228 303.46 134.412 303.644C134.596 303.82 134.808 303.952 135.048 304.04C135.288 304.12 135.528 304.16 135.768 304.16ZM140.323 298.64H141.307V299.84C141.523 299.416 141.823 299.092 142.207 298.868C142.599 298.636 143.051 298.52 143.563 298.52C144.363 298.52 145.003 298.784 145.483 299.312C145.963 299.832 146.203 300.608 146.203 301.64V301.88C146.203 302.424 146.139 302.9 146.011 303.308C145.883 303.708 145.703 304.044 145.471 304.316C145.239 304.58 144.959 304.78 144.631 304.916C144.311 305.052 143.955 305.12 143.563 305.12C143.019 305.12 142.563 305 142.195 304.76C141.835 304.52 141.563 304.22 141.379 303.86V307.4H140.323V298.64ZM143.323 304.184C143.579 304.184 143.819 304.136 144.043 304.04C144.267 303.936 144.459 303.788 144.619 303.596C144.787 303.404 144.915 303.164 145.003 302.876C145.099 302.588 145.147 302.256 145.147 301.88V301.64C145.147 301.296 145.099 300.988 145.003 300.716C144.915 300.444 144.787 300.216 144.619 300.032C144.459 299.84 144.267 299.696 144.043 299.6C143.819 299.504 143.579 299.456 143.323 299.456C143.035 299.456 142.771 299.504 142.531 299.6C142.291 299.688 142.087 299.816 141.919 299.984C141.751 300.144 141.619 300.336 141.523 300.56C141.427 300.784 141.379 301.024 141.379 301.28V302.24C141.379 302.528 141.427 302.792 141.523 303.032C141.619 303.272 141.751 303.476 141.919 303.644C142.087 303.812 142.291 303.944 142.531 304.04C142.771 304.136 143.035 304.184 143.323 304.184ZM147.652 305V303.68H148.972V305L147.772 306.8H147.172L147.652 305ZM156.229 305.12C155.565 305.12 154.997 304.94 154.525 304.58C154.053 304.212 153.741 303.712 153.589 303.08H154.669C154.781 303.416 154.969 303.68 155.233 303.872C155.505 304.064 155.837 304.16 156.229 304.16C156.469 304.16 156.689 304.124 156.889 304.052C157.097 303.98 157.277 303.868 157.429 303.716C157.589 303.564 157.721 303.368 157.825 303.128C157.929 302.88 157.993 302.58 158.017 302.228H155.509V301.292H158.017C157.961 300.652 157.769 300.192 157.441 299.912C157.113 299.624 156.709 299.48 156.229 299.48C156.005 299.48 155.809 299.508 155.641 299.564C155.473 299.62 155.325 299.696 155.197 299.792C155.077 299.888 154.973 300.004 154.885 300.14C154.797 300.268 154.725 300.408 154.669 300.56H153.589C153.645 300.272 153.745 300.004 153.889 299.756C154.033 299.508 154.213 299.292 154.429 299.108C154.653 298.924 154.913 298.78 155.209 298.676C155.513 298.572 155.853 298.52 156.229 298.52C156.637 298.52 157.013 298.588 157.357 298.724C157.709 298.852 158.013 299.048 158.269 299.312C158.533 299.568 158.737 299.892 158.881 300.284C159.033 300.676 159.109 301.128 159.109 301.64V301.88C159.109 302.424 159.037 302.9 158.893 303.308C158.749 303.716 158.549 304.056 158.293 304.328C158.045 304.592 157.741 304.792 157.381 304.928C157.029 305.056 156.645 305.12 156.229 305.12ZM160.608 298.64H161.664V301.292H164.952V298.64H166.008V305H164.952V302.228H161.664V305H160.608V298.64ZM170.573 305.12C170.165 305.12 169.777 305.056 169.409 304.928C169.041 304.8 168.717 304.604 168.437 304.34C168.157 304.068 167.933 303.728 167.765 303.32C167.597 302.912 167.513 302.432 167.513 301.88V301.64C167.513 301.112 167.593 300.656 167.753 300.272C167.913 299.88 168.125 299.556 168.389 299.3C168.661 299.036 168.973 298.84 169.325 298.712C169.685 298.584 170.061 298.52 170.453 298.52C171.389 298.52 172.113 298.776 172.625 299.288C173.137 299.8 173.393 300.524 173.393 301.46V302.132H168.569C168.569 302.508 168.629 302.824 168.749 303.08C168.869 303.336 169.025 303.544 169.217 303.704C169.409 303.864 169.621 303.98 169.853 304.052C170.093 304.124 170.333 304.16 170.573 304.16C171.053 304.16 171.421 304.08 171.677 303.92C171.941 303.76 172.129 303.54 172.241 303.26H173.273C173.209 303.564 173.093 303.832 172.925 304.064C172.765 304.296 172.565 304.492 172.325 304.652C172.093 304.804 171.825 304.92 171.521 305C171.225 305.08 170.909 305.12 170.573 305.12ZM170.513 299.48C170.265 299.48 170.025 299.516 169.793 299.588C169.561 299.652 169.353 299.76 169.169 299.912C168.993 300.056 168.849 300.24 168.737 300.464C168.625 300.688 168.569 300.956 168.569 301.268H172.397C172.389 300.94 172.333 300.664 172.229 300.44C172.133 300.208 172.001 300.024 171.833 299.888C171.665 299.744 171.465 299.64 171.233 299.576C171.009 299.512 170.769 299.48 170.513 299.48ZM174.894 298.64H175.878V299.84C176.094 299.416 176.394 299.092 176.778 298.868C177.17 298.636 177.622 298.52 178.134 298.52C178.934 298.52 179.574 298.784 180.054 299.312C180.534 299.832 180.774 300.608 180.774 301.64V301.88C180.774 302.424 180.71 302.9 180.582 303.308C180.454 303.708 180.274 304.044 180.042 304.316C179.81 304.58 179.53 304.78 179.202 304.916C178.882 305.052 178.526 305.12 178.134 305.12C177.59 305.12 177.134 305 176.766 304.76C176.406 304.52 176.134 304.22 175.95 303.86V307.4H174.894V298.64ZM177.894 304.184C178.15 304.184 178.39 304.136 178.614 304.04C178.838 303.936 179.03 303.788 179.19 303.596C179.358 303.404 179.486 303.164 179.574 302.876C179.67 302.588 179.718 302.256 179.718 301.88V301.64C179.718 301.296 179.67 300.988 179.574 300.716C179.486 300.444 179.358 300.216 179.19 300.032C179.03 299.84 178.838 299.696 178.614 299.6C178.39 299.504 178.15 299.456 177.894 299.456C177.606 299.456 177.342 299.504 177.102 299.6C176.862 299.688 176.658 299.816 176.49 299.984C176.322 300.144 176.19 300.336 176.094 300.56C175.998 300.784 175.95 301.024 175.95 301.28V302.24C175.95 302.528 175.998 302.792 176.094 303.032C176.19 303.272 176.322 303.476 176.49 303.644C176.658 303.812 176.862 303.944 177.102 304.04C177.342 304.136 177.606 304.184 177.894 304.184ZM182.276 298.64H186.596V299.576H183.332V305H182.276V298.64ZM190.319 305.12C189.911 305.12 189.523 305.056 189.155 304.928C188.787 304.8 188.463 304.604 188.183 304.34C187.903 304.068 187.679 303.728 187.511 303.32C187.343 302.912 187.259 302.432 187.259 301.88V301.64C187.259 301.112 187.339 300.656 187.499 300.272C187.659 299.88 187.871 299.556 188.135 299.3C188.407 299.036 188.719 298.84 189.071 298.712C189.431 298.584 189.807 298.52 190.199 298.52C191.135 298.52 191.859 298.776 192.371 299.288C192.883 299.8 193.139 300.524 193.139 301.46V302.132H188.315C188.315 302.508 188.375 302.824 188.495 303.08C188.615 303.336 188.771 303.544 188.963 303.704C189.155 303.864 189.367 303.98 189.599 304.052C189.839 304.124 190.079 304.16 190.319 304.16C190.799 304.16 191.167 304.08 191.423 303.92C191.687 303.76 191.875 303.54 191.987 303.26H193.019C192.955 303.564 192.839 303.832 192.671 304.064C192.511 304.296 192.311 304.492 192.071 304.652C191.839 304.804 191.571 304.92 191.267 305C190.971 305.08 190.655 305.12 190.319 305.12ZM190.259 299.48C190.011 299.48 189.771 299.516 189.539 299.588C189.307 299.652 189.099 299.76 188.915 299.912C188.739 300.056 188.595 300.24 188.483 300.464C188.371 300.688 188.315 300.956 188.315 301.268H192.143C192.135 300.94 192.079 300.664 191.975 300.44C191.879 300.208 191.747 300.024 191.579 299.888C191.411 299.744 191.211 299.64 190.979 299.576C190.755 299.512 190.515 299.48 190.259 299.48ZM195.975 299.576H193.803V298.64H199.203V299.576H197.031V305H195.975V299.576ZM200.405 298.64H201.461V303.44L204.749 298.64H205.805V305H204.749V300.2L201.461 305H200.405V298.64ZM207.73 298.64H208.786V301.304H209.626L212.002 298.64H213.25L210.49 301.688L213.37 305H212.026L209.626 302.216H208.786V305H207.73V298.64ZM216.327 305.12C215.975 305.12 215.663 305.072 215.391 304.976C215.127 304.872 214.903 304.732 214.719 304.556C214.535 304.38 214.395 304.172 214.299 303.932C214.203 303.692 214.155 303.428 214.155 303.14C214.155 302.508 214.339 302.052 214.707 301.772C215.083 301.492 215.619 301.352 216.315 301.352H218.379V300.92C218.379 300.376 218.255 300 218.007 299.792C217.767 299.584 217.403 299.48 216.915 299.48C216.459 299.48 216.127 299.568 215.919 299.744C215.711 299.912 215.595 300.104 215.571 300.32H214.515C214.531 300.064 214.599 299.828 214.719 299.612C214.847 299.388 215.015 299.196 215.223 299.036C215.439 298.876 215.695 298.752 215.991 298.664C216.287 298.568 216.615 298.52 216.975 298.52C217.727 298.52 218.323 298.7 218.763 299.06C219.211 299.412 219.435 299.992 219.435 300.8V303.38C219.435 303.716 219.435 304.012 219.435 304.268C219.443 304.516 219.463 304.76 219.495 305H218.571C218.547 304.816 218.531 304.644 218.523 304.484C218.515 304.316 218.511 304.128 218.511 303.92C218.343 304.256 218.071 304.54 217.695 304.772C217.319 305.004 216.863 305.12 216.327 305.12ZM216.555 304.16C216.803 304.16 217.035 304.128 217.251 304.064C217.475 303.992 217.671 303.892 217.839 303.764C218.007 303.628 218.139 303.464 218.235 303.272C218.331 303.08 218.379 302.856 218.379 302.6V302.168H216.495C216.103 302.168 215.795 302.248 215.571 302.408C215.347 302.56 215.235 302.804 215.235 303.14C215.235 303.436 215.339 303.68 215.547 303.872C215.763 304.064 216.099 304.16 216.555 304.16ZM223.808 302.12C223.808 302.904 223.696 303.616 223.472 304.256C223.256 304.896 223.012 305.452 222.74 305.924C222.428 306.468 222.072 306.96 221.672 307.4H220.448C220.88 306.96 221.26 306.468 221.588 305.924C221.732 305.692 221.872 305.436 222.008 305.156C222.144 304.876 222.264 304.576 222.368 304.256C222.48 303.936 222.568 303.6 222.632 303.248C222.696 302.888 222.728 302.512 222.728 302.12V301.88C222.728 301.488 222.696 301.112 222.632 300.752C222.568 300.392 222.48 300.052 222.368 299.732C222.264 299.412 222.144 299.112 222.008 298.832C221.872 298.552 221.732 298.296 221.588 298.064C221.26 297.512 220.88 297.024 220.448 296.6H221.72C222.112 297.024 222.46 297.512 222.764 298.064C223.028 298.528 223.268 299.084 223.484 299.732C223.7 300.38 223.808 301.096 223.808 301.88V302.12Z" fill="black"/>
<path d="M255.5 245.88H260.45V231.81L255.5 235.32V231.6L260.57 228H264.05V245.88H268.1V249H255.5V245.88ZM279.804 244.26H269.454V241.59L279.654 228H283.404V241.14H285.954V244.26H283.404V249H279.804V244.26ZM279.804 241.14V232.14L273.054 241.14H279.804ZM305.311 228H308.911L294.511 249H290.911L305.311 228ZM293.011 237.93C292.271 237.93 291.591 237.81 290.971 237.57C290.371 237.33 289.851 236.99 289.411 236.55C288.991 236.11 288.661 235.59 288.421 234.99C288.181 234.37 288.061 233.69 288.061 232.95V232.65C288.061 231.91 288.181 231.24 288.421 230.64C288.661 230.02 288.991 229.49 289.411 229.05C289.851 228.61 290.371 228.27 290.971 228.03C291.591 227.79 292.271 227.67 293.011 227.67C293.751 227.67 294.421 227.79 295.021 228.03C295.621 228.27 296.141 228.61 296.581 229.05C297.021 229.49 297.361 230.02 297.601 230.64C297.841 231.24 297.961 231.91 297.961 232.65V232.95C297.961 233.69 297.841 234.37 297.601 234.99C297.361 235.59 297.021 236.11 296.581 236.55C296.141 236.99 295.621 237.33 295.021 237.57C294.421 237.81 293.751 237.93 293.011 237.93ZM293.011 235.23C293.551 235.23 293.981 235.05 294.301 234.69C294.621 234.33 294.781 233.75 294.781 232.95V232.65C294.781 231.85 294.621 231.27 294.301 230.91C293.981 230.55 293.551 230.37 293.011 230.37C292.471 230.37 292.041 230.55 291.721 230.91C291.401 231.27 291.241 231.85 291.241 232.65V232.95C291.241 233.75 291.401 234.33 291.721 234.69C292.041 235.05 292.471 235.23 293.011 235.23ZM306.811 249.3C306.071 249.3 305.391 249.18 304.771 248.94C304.171 248.7 303.651 248.36 303.211 247.92C302.791 247.48 302.461 246.96 302.221 246.36C301.981 245.74 301.861 245.06 301.861 244.32V244.02C301.861 243.28 301.981 242.61 302.221 242.01C302.461 241.39 302.791 240.86 303.211 240.42C303.651 239.98 304.171 239.64 304.771 239.4C305.391 239.16 306.071 239.04 306.811 239.04C307.551 239.04 308.221 239.16 308.821 239.4C309.421 239.64 309.941 239.98 310.381 240.42C310.821 240.86 311.161 241.39 311.401 242.01C311.641 242.61 311.761 243.28 311.761 244.02V244.32C311.761 245.06 311.641 245.74 311.401 246.36C311.161 246.96 310.821 247.48 310.381 247.92C309.941 248.36 309.421 248.7 308.821 248.94C308.221 249.18 307.551 249.3 306.811 249.3ZM306.811 246.6C307.351 246.6 307.781 246.42 308.101 246.06C308.421 245.7 308.581 245.12 308.581 244.32V244.02C308.581 243.22 308.421 242.64 308.101 242.28C307.781 241.92 307.351 241.74 306.811 241.74C306.271 241.74 305.841 241.92 305.521 242.28C305.201 242.64 305.041 243.22 305.041 244.02V244.32C305.041 245.12 305.201 245.7 305.521 246.06C305.841 246.42 306.271 246.6 306.811 246.6Z" fill="#3ED9A9"/>
<path d="M257.2 209.6H262.48V210.584H258.328V218H257.2V209.6ZM264.991 218.12C264.583 218.12 264.195 218.056 263.827 217.928C263.459 217.792 263.135 217.592 262.855 217.328C262.575 217.056 262.351 216.716 262.183 216.308C262.015 215.9 261.931 215.424 261.931 214.88V214.64C261.931 214.128 262.015 213.676 262.183 213.284C262.351 212.892 262.575 212.568 262.855 212.312C263.135 212.048 263.459 211.852 263.827 211.724C264.195 211.588 264.583 211.52 264.991 211.52C265.399 211.52 265.787 211.588 266.155 211.724C266.523 211.852 266.847 212.048 267.127 212.312C267.407 212.568 267.631 212.892 267.799 213.284C267.967 213.676 268.051 214.128 268.051 214.64V214.88C268.051 215.424 267.967 215.9 267.799 216.308C267.631 216.716 267.407 217.056 267.127 217.328C266.847 217.592 266.523 217.792 266.155 217.928C265.787 218.056 265.399 218.12 264.991 218.12ZM264.991 217.16C265.231 217.16 265.471 217.12 265.711 217.04C265.951 216.952 266.163 216.82 266.347 216.644C266.531 216.46 266.679 216.224 266.791 215.936C266.911 215.648 266.971 215.296 266.971 214.88V214.64C266.971 214.256 266.911 213.928 266.791 213.656C266.679 213.384 266.531 213.16 266.347 212.984C266.163 212.808 265.951 212.68 265.711 212.6C265.471 212.52 265.231 212.48 264.991 212.48C264.751 212.48 264.511 212.52 264.271 212.6C264.031 212.68 263.819 212.808 263.635 212.984C263.451 213.16 263.299 213.384 263.179 213.656C263.067 213.928 263.011 214.256 263.011 214.64V214.88C263.011 215.296 263.067 215.648 263.179 215.936C263.299 216.224 263.451 216.46 263.635 216.644C263.819 216.82 264.031 216.952 264.271 217.04C264.511 217.12 264.751 217.16 264.991 217.16ZM272.006 218.12C271.598 218.12 271.218 218.056 270.866 217.928C270.514 217.792 270.21 217.592 269.954 217.328C269.698 217.056 269.494 216.716 269.342 216.308C269.198 215.9 269.126 215.424 269.126 214.88V214.64C269.126 214.128 269.206 213.676 269.366 213.284C269.526 212.892 269.738 212.568 270.002 212.312C270.266 212.048 270.57 211.852 270.914 211.724C271.266 211.588 271.63 211.52 272.006 211.52C272.382 211.52 272.718 211.572 273.014 211.676C273.318 211.78 273.578 211.924 273.794 212.108C274.018 212.292 274.198 212.508 274.334 212.756C274.478 213.004 274.582 213.272 274.646 213.56H273.566C273.502 213.408 273.426 213.268 273.338 213.14C273.258 213.004 273.154 212.888 273.026 212.792C272.906 212.696 272.762 212.62 272.594 212.564C272.426 212.508 272.23 212.48 272.006 212.48C271.774 212.48 271.55 212.524 271.334 212.612C271.118 212.692 270.926 212.82 270.758 212.996C270.59 213.164 270.454 213.384 270.35 213.656C270.254 213.928 270.206 214.256 270.206 214.64V214.88C270.206 215.288 270.254 215.64 270.35 215.936C270.454 216.224 270.59 216.46 270.758 216.644C270.926 216.82 271.118 216.952 271.334 217.04C271.55 217.12 271.774 217.16 272.006 217.16C272.398 217.16 272.726 217.064 272.99 216.872C273.262 216.68 273.454 216.416 273.566 216.08H274.646C274.494 216.712 274.182 217.212 273.71 217.58C273.238 217.94 272.67 218.12 272.006 218.12ZM278.545 218.12C278.137 218.12 277.757 218.056 277.405 217.928C277.053 217.792 276.749 217.592 276.493 217.328C276.237 217.056 276.033 216.716 275.881 216.308C275.737 215.9 275.665 215.424 275.665 214.88V214.64C275.665 214.128 275.745 213.676 275.905 213.284C276.065 212.892 276.277 212.568 276.541 212.312C276.805 212.048 277.109 211.852 277.453 211.724C277.805 211.588 278.169 211.52 278.545 211.52C278.921 211.52 279.257 211.572 279.553 211.676C279.857 211.78 280.117 211.924 280.333 212.108C280.557 212.292 280.737 212.508 280.873 212.756C281.017 213.004 281.121 213.272 281.185 213.56H280.105C280.041 213.408 279.965 213.268 279.877 213.14C279.797 213.004 279.693 212.888 279.565 212.792C279.445 212.696 279.301 212.62 279.133 212.564C278.965 212.508 278.769 212.48 278.545 212.48C278.313 212.48 278.089 212.524 277.873 212.612C277.657 212.692 277.465 212.82 277.297 212.996C277.129 213.164 276.993 213.384 276.889 213.656C276.793 213.928 276.745 214.256 276.745 214.64V214.88C276.745 215.288 276.793 215.64 276.889 215.936C276.993 216.224 277.129 216.46 277.297 216.644C277.465 216.82 277.657 216.952 277.873 217.04C278.089 217.12 278.313 217.16 278.545 217.16C278.937 217.16 279.265 217.064 279.529 216.872C279.801 216.68 279.993 216.416 280.105 216.08H281.185C281.033 216.712 280.721 217.212 280.249 217.58C279.777 217.94 279.209 218.12 278.545 218.12ZM285.264 218.12C284.856 218.12 284.468 218.056 284.1 217.928C283.732 217.8 283.408 217.604 283.128 217.34C282.848 217.068 282.624 216.728 282.456 216.32C282.288 215.912 282.204 215.432 282.204 214.88V214.64C282.204 214.112 282.284 213.656 282.444 213.272C282.604 212.88 282.816 212.556 283.08 212.3C283.352 212.036 283.664 211.84 284.016 211.712C284.376 211.584 284.752 211.52 285.144 211.52C286.08 211.52 286.804 211.776 287.316 212.288C287.828 212.8 288.084 213.524 288.084 214.46V215.132H283.26C283.26 215.508 283.32 215.824 283.44 216.08C283.56 216.336 283.716 216.544 283.908 216.704C284.1 216.864 284.312 216.98 284.544 217.052C284.784 217.124 285.024 217.16 285.264 217.16C285.744 217.16 286.112 217.08 286.368 216.92C286.632 216.76 286.82 216.54 286.932 216.26H287.964C287.9 216.564 287.784 216.832 287.616 217.064C287.456 217.296 287.256 217.492 287.016 217.652C286.784 217.804 286.516 217.92 286.212 218C285.916 218.08 285.6 218.12 285.264 218.12ZM285.204 212.48C284.956 212.48 284.716 212.516 284.484 212.588C284.252 212.652 284.044 212.76 283.86 212.912C283.684 213.056 283.54 213.24 283.428 213.464C283.316 213.688 283.26 213.956 283.26 214.268H287.088C287.08 213.94 287.024 213.664 286.92 213.44C286.824 213.208 286.692 213.024 286.524 212.888C286.356 212.744 286.156 212.64 285.924 212.576C285.7 212.512 285.46 212.48 285.204 212.48ZM289.585 211.64H290.641V214.304H291.481L293.857 211.64H295.105L292.345 214.688L295.225 218H293.881L291.481 215.216H290.641V218H289.585V211.64ZM297.939 212.576H295.767V211.64H301.167V212.576H298.995V218H297.939V212.576ZM304.893 218.12C304.485 218.12 304.097 218.056 303.729 217.928C303.361 217.792 303.037 217.592 302.757 217.328C302.477 217.056 302.253 216.716 302.085 216.308C301.917 215.9 301.833 215.424 301.833 214.88V214.64C301.833 214.128 301.917 213.676 302.085 213.284C302.253 212.892 302.477 212.568 302.757 212.312C303.037 212.048 303.361 211.852 303.729 211.724C304.097 211.588 304.485 211.52 304.893 211.52C305.301 211.52 305.689 211.588 306.057 211.724C306.425 211.852 306.749 212.048 307.029 212.312C307.309 212.568 307.533 212.892 307.701 213.284C307.869 213.676 307.953 214.128 307.953 214.64V214.88C307.953 215.424 307.869 215.9 307.701 216.308C307.533 216.716 307.309 217.056 307.029 217.328C306.749 217.592 306.425 217.792 306.057 217.928C305.689 218.056 305.301 218.12 304.893 218.12ZM304.893 217.16C305.133 217.16 305.373 217.12 305.613 217.04C305.853 216.952 306.065 216.82 306.249 216.644C306.433 216.46 306.581 216.224 306.693 215.936C306.813 215.648 306.873 215.296 306.873 214.88V214.64C306.873 214.256 306.813 213.928 306.693 213.656C306.581 213.384 306.433 213.16 306.249 212.984C306.065 212.808 305.853 212.68 305.613 212.6C305.373 212.52 305.133 212.48 304.893 212.48C304.653 212.48 304.413 212.52 304.173 212.6C303.933 212.68 303.721 212.808 303.537 212.984C303.353 213.16 303.201 213.384 303.081 213.656C302.969 213.928 302.913 214.256 302.913 214.64V214.88C302.913 215.296 302.969 215.648 303.081 215.936C303.201 216.224 303.353 216.46 303.537 216.644C303.721 216.82 303.933 216.952 304.173 217.04C304.413 217.12 304.653 217.16 304.893 217.16ZM309.448 211.64H310.432V212.84C310.648 212.416 310.948 212.092 311.332 211.868C311.724 211.636 312.176 211.52 312.688 211.52C313.488 211.52 314.128 211.784 314.608 212.312C315.088 212.832 315.328 213.608 315.328 214.64V214.88C315.328 215.424 315.264 215.9 315.136 216.308C315.008 216.708 314.828 217.044 314.596 217.316C314.364 217.58 314.084 217.78 313.756 217.916C313.436 218.052 313.08 218.12 312.688 218.12C312.144 218.12 311.688 218 311.32 217.76C310.96 217.52 310.688 217.22 310.504 216.86V220.4H309.448V211.64ZM312.448 217.184C312.704 217.184 312.944 217.136 313.168 217.04C313.392 216.936 313.584 216.788 313.744 216.596C313.912 216.404 314.04 216.164 314.128 215.876C314.224 215.588 314.272 215.256 314.272 214.88V214.64C314.272 214.296 314.224 213.988 314.128 213.716C314.04 213.444 313.912 213.216 313.744 213.032C313.584 212.84 313.392 212.696 313.168 212.6C312.944 212.504 312.704 212.456 312.448 212.456C312.16 212.456 311.896 212.504 311.656 212.6C311.416 212.688 311.212 212.816 311.044 212.984C310.876 213.144 310.744 213.336 310.648 213.56C310.552 213.784 310.504 214.024 310.504 214.28V215.24C310.504 215.528 310.552 215.792 310.648 216.032C310.744 216.272 310.876 216.476 311.044 216.644C311.212 216.812 311.416 216.944 311.656 217.04C311.896 217.136 312.16 217.184 312.448 217.184Z" fill="black"/>
<defs>
<linearGradient id="paint0_linear" x1="141.103" y1="252.587" x2="187.433" y2="233.25" gradientUnits="userSpaceOnUse">
<stop stop-color="#3DD8A8"/>
<stop offset="1" stop-color="#227182"/>
</linearGradient>
<linearGradient id="paint1_linear" x1="102.684" y1="317.744" x2="116.209" y2="347.522" gradientUnits="userSpaceOnUse">
<stop stop-color="#3DD8A8"/>
<stop offset="1" stop-color="#227182"/>
</linearGradient>
</defs>
</svg>
