<svg width="496" height="303" viewBox="0 0 496 303" fill="none" xmlns="http://www.w3.org/2000/svg">
<g opacity="0.45">
<path opacity="0.5" d="M120.867 698.523C-54.3542 694.391 -217.261 576.212 -212.302 408.038C-209.816 323.757 -173.539 238.247 -115.993 174.33C-58.4535 110.421 20.2513 68.2003 107.563 70.2593C282.33 74.3808 424.808 243.685 419.836 412.274C417.349 496.59 386.277 569.168 334.043 620.147C281.814 671.119 208.338 700.586 120.867 698.523Z" stroke="#BBBFC4" stroke-width="3"/>
<path opacity="0.5" d="M96.5368 658.594C-78.6843 654.461 -241.592 536.283 -236.632 368.109C-234.146 283.828 -197.869 198.318 -140.323 134.401C-82.7836 70.4914 -4.07874 28.2711 83.2331 30.3301C258 34.4516 400.478 203.756 395.506 372.345C393.019 456.661 361.947 529.239 309.713 580.217C257.484 631.19 184.008 660.656 96.5368 658.594Z" stroke="#BBBFC4" stroke-width="3"/>
<path opacity="0.5" d="M36.9248 53.8512C209.623 27.0952 395.342 114.315 427.461 280.089C443.557 363.166 426.789 453.389 384.422 526.176C342.058 598.956 274.175 654.188 188.12 667.521C15.8701 694.207 -161.061 553.268 -193.259 387.084C-209.362 303.973 -194.854 227.345 -154.849 168.177C-114.849 109.016 -49.2881 67.2081 36.9248 53.8512Z" stroke="#BBBFC4" stroke-width="3"/>
</g>
</svg>
