<svg width="508" height="497" viewBox="0 0 508 497" fill="none" xmlns="http://www.w3.org/2000/svg">
<g filter="url(#filter0_d)">
<path d="M288.68 116.525C364.746 152.103 412.684 237.227 377.356 312.759C359.612 350.696 326.797 382.712 288.925 400.791C251.058 418.866 208.278 422.949 170.509 405.284C132.699 387.599 106.499 352.672 94.196 312.589C81.8923 272.503 83.534 227.394 101.259 189.497C119.018 151.529 146.973 124.454 179.888 111.281C212.791 98.1134 250.763 98.7908 288.68 116.525Z" stroke="url(#paint0_linear)" stroke-width="3"/>
</g>
<g filter="url(#filter1_d)">
<path d="M328.151 84.604C409.402 122.607 459.471 216.383 419.737 301.334C399.795 343.971 363.71 380.308 322.468 401.221C281.226 422.134 234.991 427.554 194.625 408.674C154.214 389.773 126.666 351.438 114.217 307.054C101.768 262.67 104.464 212.385 124.389 169.786C144.346 127.118 175.09 96.3737 210.896 81.0191C246.684 65.6724 287.632 65.6523 328.151 84.604Z" stroke="url(#paint1_linear)" stroke-width="3"/>
</g>
<g filter="url(#filter2_d)">
<path d="M289.548 105.839C331.932 125.663 367.457 157.422 388.084 193.329C408.705 229.224 414.389 269.149 397.379 305.516C363.163 378.67 262.106 424.783 177.659 385.286C93.0907 345.731 55.6702 240.366 89.8288 167.334C106.928 130.777 135.723 105.552 170.76 94.3749C205.805 83.1952 247.209 86.0358 289.548 105.839Z" stroke="url(#paint2_linear)" stroke-width="3"/>
</g>
<g filter="url(#filter3_d)">
<path d="M293.435 95.7757C365.984 129.709 410.092 214.813 373.658 292.707C355.37 331.808 322.644 365.302 285.434 384.76C248.222 404.22 206.701 409.565 170.683 392.719C134.62 375.851 110.244 341.141 99.4678 300.744C88.6921 260.349 91.5639 214.425 109.836 175.36C128.139 136.227 156.017 107.893 188.285 93.562C220.532 79.2406 257.261 78.8565 293.435 95.7757Z" stroke="url(#paint3_linear)" stroke-width="3"/>
</g>
<defs>
<filter id="filter0_d" x="9.88281" y="36.7031" width="447.859" height="452.349" filterUnits="userSpaceOnUse" color-interpolation-filters="sRGB">
<feFlood flood-opacity="0" result="BackgroundImageFix"/>
<feColorMatrix in="SourceAlpha" type="matrix" values="0 0 0 0 0 0 0 0 0 0 0 0 0 0 0 0 0 0 127 0"/>
<feOffset/>
<feGaussianBlur stdDeviation="9.5"/>
<feColorMatrix type="matrix" values="0 0 0 0 0.561579 0 0 0 0 0.371528 0 0 0 0 0.891667 0 0 0 1 0"/>
<feBlend mode="normal" in2="BackgroundImageFix" result="effect1_dropShadow"/>
<feBlend mode="normal" in="SourceGraphic" in2="effect1_dropShadow" result="shape"/>
</filter>
<filter id="filter1_d" x="24.3242" y="0.702148" width="483.142" height="496.09" filterUnits="userSpaceOnUse" color-interpolation-filters="sRGB">
<feFlood flood-opacity="0" result="BackgroundImageFix"/>
<feColorMatrix in="SourceAlpha" type="matrix" values="0 0 0 0 0 0 0 0 0 0 0 0 0 0 0 0 0 0 127 0"/>
<feOffset/>
<feGaussianBlur stdDeviation="9.5"/>
<feColorMatrix type="matrix" values="0 0 0 0 0.561579 0 0 0 0 0.371528 0 0 0 0 0.891667 0 0 0 1 0"/>
<feBlend mode="normal" in2="BackgroundImageFix" result="effect1_dropShadow"/>
<feBlend mode="normal" in="SourceGraphic" in2="effect1_dropShadow" result="shape"/>
</filter>
<filter id="filter2_d" x="0.957031" y="19.2368" width="474.691" height="457.046" filterUnits="userSpaceOnUse" color-interpolation-filters="sRGB">
<feFlood flood-opacity="0" result="BackgroundImageFix"/>
<feColorMatrix in="SourceAlpha" type="matrix" values="0 0 0 0 0 0 0 0 0 0 0 0 0 0 0 0 0 0 127 0"/>
<feOffset/>
<feGaussianBlur stdDeviation="9.5"/>
<feColorMatrix type="matrix" values="0 0 0 0 0.561579 0 0 0 0 0.371528 0 0 0 0 0.891667 0 0 0 1 0"/>
<feBlend mode="normal" in2="BackgroundImageFix" result="effect1_dropShadow"/>
<feBlend mode="normal" in="SourceGraphic" in2="effect1_dropShadow" result="shape"/>
</filter>
<filter id="filter3_d" x="16.3477" y="18.6069" width="439.481" height="455.05" filterUnits="userSpaceOnUse" color-interpolation-filters="sRGB">
<feFlood flood-opacity="0" result="BackgroundImageFix"/>
<feColorMatrix in="SourceAlpha" type="matrix" values="0 0 0 0 0 0 0 0 0 0 0 0 0 0 0 0 0 0 127 0"/>
<feOffset/>
<feGaussianBlur stdDeviation="9.5"/>
<feColorMatrix type="matrix" values="0 0 0 0 0.561579 0 0 0 0 0.371528 0 0 0 0 0.891667 0 0 0 1 0"/>
<feBlend mode="normal" in2="BackgroundImageFix" result="effect1_dropShadow"/>
<feBlend mode="normal" in="SourceGraphic" in2="effect1_dropShadow" result="shape"/>
</filter>
<linearGradient id="paint0_linear" x1="28.8828" y1="340.698" x2="417.345" y2="143.012" gradientUnits="userSpaceOnUse">
<stop offset="0.395833" stop-color="#4AE7B6"/>
<stop offset="1" stop-color="#8038ED"/>
</linearGradient>
<linearGradient id="paint1_linear" x1="43.3242" y1="339.563" x2="476.133" y2="132.191" gradientUnits="userSpaceOnUse">
<stop offset="0.395833" stop-color="#4AE7B6"/>
<stop offset="1" stop-color="#8038ED"/>
</linearGradient>
<linearGradient id="paint2_linear" x1="19.957" y1="313.18" x2="399.205" y2="86.3139" gradientUnits="userSpaceOnUse">
<stop offset="0.395833" stop-color="#4AE7B6"/>
<stop offset="1" stop-color="#8038ED"/>
</linearGradient>
<linearGradient id="paint3_linear" x1="35.3477" y1="331.075" x2="430.635" y2="147.828" gradientUnits="userSpaceOnUse">
<stop offset="0.395833" stop-color="#4AE7B6"/>
<stop offset="1" stop-color="#8038ED"/>
</linearGradient>
</defs>
</svg>
