<svg width="314" height="262" viewBox="0 0 314 262" fill="none" xmlns="http://www.w3.org/2000/svg">
<path opacity="0.22" d="M340.362 40.7939C348.43 121.85 301.245 204.016 220.776 212.026C180.354 216.049 137.391 204.574 103.539 181.97C69.6921 159.37 45.0757 125.737 41.0707 85.5002C37.0611 45.2169 53.1795 6.05765 80.4903 -24.0764C107.803 -54.2128 146.218 -75.215 186.597 -79.234C227.053 -83.2608 263.483 -73.3854 290.784 -52.4839C318.075 -31.5903 336.341 0.394513 340.362 40.7939Z" stroke="#1C0F52" stroke-width="3"/>
<path opacity="0.2" d="M340.6 39.7154C347.864 112.697 301.232 187.281 222.42 195.125C182.847 199.064 140.92 189.013 108.001 168.854C75.0792 148.695 51.3258 118.538 47.7217 82.3291C44.1126 46.0696 60.1191 10.6296 87.04 -16.7874C113.959 -44.2022 151.679 -63.4709 191.213 -67.4059C230.821 -71.3483 266.373 -62.6922 292.897 -44.0251C319.401 -25.3719 336.979 3.33471 340.6 39.7154Z" stroke="#BBBFC4" stroke-width="3"/>
<path opacity="0.08" d="M349.703 36.2197C354.198 81.3845 345.342 126.749 325.641 161.751C305.947 196.741 275.49 221.274 236.748 225.13C158.802 232.888 70.2475 171.52 61.2917 81.5438C52.3225 -8.56653 121.595 -92.0109 199.405 -99.7558C238.356 -103.633 273.66 -92.1406 300.35 -68.4808C327.046 -44.8155 345.212 -8.8955 349.703 36.2197Z" stroke="#1C0F52" stroke-width="3"/>
<path opacity="0.5" d="M75.999 147.226C38.0515 79.4387 51.4701 -12.5556 124.243 -53.2939C160.778 -73.7463 205.513 -81.6111 245.837 -75.882C286.163 -70.1526 321.891 -50.8667 340.726 -17.2205C359.586 16.4695 359.146 57.6027 344.774 95.5241C330.403 133.443 302.151 167.994 265.652 188.427C229.086 208.897 191.093 215.439 157.567 208.468C124.065 201.501 94.9181 181.022 75.999 147.226Z" stroke="#BBBFC4" stroke-width="3"/>
</svg>
