<svg id="Layer_1" data-name="Layer 1" xmlns="http://www.w3.org/2000/svg" xmlns:xlink="http://www.w3.org/1999/xlink" viewBox="0 0 105 18"><defs><style>.cls-1{fill:none;}.cls-2{clip-path:url(#clip-path);}.cls-3{fill:#fff;}.cls-4{fill:#00b07a;}</style><clipPath id="clip-path"><rect class="cls-1" width="105" height="18"/></clipPath></defs><g class="cls-2"><path class="cls-3" d="M47.31,6.93,44,17.12a.56.56,0,0,1-.52.32h-2.7c-.22,0-.36-.14-.3-.33L43.78,6.93H38.51c-.23,0-.37-.15-.31-.33l.72-2.16a.55.55,0,0,1,.51-.33H53.51c.23,0,.36.15.31.33L53.1,6.6a.56.56,0,0,1-.52.33Zm28,3.94L77.4,4.44c.06-.18-.07-.33-.3-.33H74.4a.56.56,0,0,0-.52.33L69.71,17.11c-.06.19.07.33.3.33h2.7a.57.57,0,0,0,.52-.32l1.57-4.77h1.67a.87.87,0,0,0,.22.41L81,17.44h5l-5.78-6.27.11-.34L90.93,4.11H86.75a2.72,2.72,0,0,0-1.46.42l-10,6.34ZM97.45,3.6H99c4.3,0,6.89,2.81,5.75,6.26l-1,3.12a2,2,0,0,1-.85,1l-5.33,3.37a3,3,0,0,1-1,.38,12,12,0,0,1-2.27.26H92.7c-4.3,0-6.89-2.81-5.75-6.26l1-3.12a2,2,0,0,1,.86-1l5.32-3.37a3,3,0,0,1,1-.38A12,12,0,0,1,97.45,3.6Zm.6,2.82H96.52a5.91,5.91,0,0,0-.93.07L91.31,9.2l-.84,2.54c-.62,1.89.8,3.44,3.16,3.44h1.53a6,6,0,0,0,.94-.07l4.28-2.71.83-2.54C101.83,8,100.41,6.42,98.05,6.42Zm-92,11a6.55,6.55,0,0,1-4.91-1.83,4.28,4.28,0,0,1-.84-4.42l.84-2.57a2,2,0,0,1,.86-1L7.29,4.24a2.84,2.84,0,0,1,1-.38,11.72,11.72,0,0,1,2.28-.26h1.53A6.58,6.58,0,0,1,17,5.44a4.32,4.32,0,0,1,.84,4.42l-2.39,7.26a.57.57,0,0,1-.52.32h-2.7c-.23,0-.36-.14-.3-.33l.66-2L9.7,17a3.07,3.07,0,0,1-1.61.49Zm6.76-2.82,1.57-4.76a2.35,2.35,0,0,0-.47-2.43,3.61,3.61,0,0,0-2.7-1H9.65a5.82,5.82,0,0,0-.93.07L4.44,9.2l-.65,2a2.36,2.36,0,0,0,.46,2.42,3.57,3.57,0,0,0,2.7,1Zm12.3,2.82c-3.64,0-7.06-2.3-5.76-6.26l2.23-6.74a.55.55,0,0,1,.51-.33h2.7c.23,0,.37.15.31.33l-2.23,6.74C22.13,13.35,24,14.62,26,14.62h4.73L34.09,4.44a.56.56,0,0,1,.52-.33H37.3c.23,0,.37.15.31.33L33.43,17.12a.56.56,0,0,1-.52.32Zm38.53,0H58.18c-4.3,0-6.89-2.81-5.75-6.25l.84-2.57a2,2,0,0,1,.86-1l5.33-3.37a3,3,0,0,1,1-.38,12,12,0,0,1,2.27-.26h1.53c3.63,0,7.06,2.31,5.76,6.26l-.36,1.08a2.41,2.41,0,0,1-2.22,1.41H55.82c.17,1.32,1.44,2.28,3.29,2.28h5.43c.23,0,.36.15.3.33l-.71,2.16a.56.56,0,0,1-.52.33Zm3-7.78c.52-2.11-1.32-3.24-3.21-3.24H61.81a5.91,5.91,0,0,0-.93.07L56.6,9.2l-.15.46Z"/><path class="cls-4" d="M29,0h7.4L27.09,5.92Z"/></g></svg>