<svg id="Слой_1" data-name="Слой 1" xmlns="http://www.w3.org/2000/svg" viewBox="0 0 711.66 145.14"><defs><style>.cls-1{fill:#010101;}.cls-2{fill:#00b17b;}</style></defs><path class="cls-1" d="M143,140.19l-1.61-3.68L122.8,94.22,115.24,77Q98.95,39.93,82.68,2.84A4.39,4.39,0,0,0,78.28,0C74.53,0,71,0,67.13,0A4.75,4.75,0,0,0,62.3,3.17Q38,58.65,13.58,114.12L4.69,134.36l-2.18,5L0,145.11H9.4c3.84,0,7.82,0,11.72,0h.09a4.29,4.29,0,0,0,4.26-2.88q3-7,6-14,3.17-7.31,6.3-14.62l0-.07H38c23.88.05,47.16.05,69.21,0h.13l.1.2c3.83,9,7.89,18.29,12.4,28.57a4.4,4.4,0,0,0,3.52,2.69c4.74.07,9.4.06,14.34.06H145l-1.55-3.87c-.15-.39-.28-.72-.43-1.05M97.77,92H47.37L72.66,34.15Z"/><path class="cls-1" d="M241.6,36.17a4.39,4.39,0,0,0-3.08,1.71q-5.16,6-10.28,12l-50,58.7V36.19H156.85V145.11h5.85c3.07,0,6,0,8.92,0h.13a5.53,5.53,0,0,0,4.49-2.08q24.21-28.35,48.48-56.66l11.4-13.31V145h21.44V36.13h-5.39c-3.63,0-7.06,0-10.57.05"/><path class="cls-1" d="M657,36.25h0c-15,0-28.85,5.59-38.94,15.73a54.14,54.14,0,0,0-15.51,38.79c.12,30.94,23.56,54.21,54.56,54.21h.17c15,0,28.78-5.61,38.85-15.68a54,54,0,0,0,15.56-38.73c-.09-31-23.59-54.32-54.66-54.32m0,88.06c-18.87,0-33.12-14.43-33.16-33.59S638,57,656.88,56.94H657a33.23,33.23,0,0,1,23.72,9.5,33.73,33.73,0,0,1,9.68,24.18c0,19.17-14.31,33.65-33.32,33.69Z"/><polygon class="cls-1" points="273.82 57.06 312.94 57.06 312.94 144.98 334.48 144.98 334.48 57.06 373.44 57.06 373.44 36.25 273.82 36.25 273.82 57.06"/><path class="cls-1" d="M529.85,85.89,574,37.9a5.61,5.61,0,0,1,4.12-1.8l24.12,0L554.41,88.8l54.33,56.34-26.29,0a5.53,5.53,0,0,1-4-1.73L529.85,91.73V145H508.49V36.21h21.36Z"/><path class="cls-2" d="M244.67,0h-41a5.38,5.38,0,0,0-3.94,1.73L182.15,20.79l41.23,0a5.33,5.33,0,0,0,4-1.75Z"/><path class="cls-1" d="M433.33,36.25h0c-15,0-28.85,5.59-38.95,15.73a54.17,54.17,0,0,0-15.5,38.79,56.86,56.86,0,0,0,4.21,21.47h0c8.08,19.63,27.09,32.74,50.36,32.74h.17c15,0,28.74-4.65,39.26-14.51a47.07,47.07,0,0,0,10.75-14.12,1.09,1.09,0,0,0-1-1.58H460.47a4.77,4.77,0,0,0-3.06,1.12,38.44,38.44,0,0,1-24,8.42h-.06a32.37,32.37,0,0,1-31.59-23,.37.37,0,0,1,.36-.49H487l.08-.41a61,61,0,0,0,.89-9.81C488.29,56.33,464.4,36.25,433.33,36.25Zm31.51,44.46H402a.37.37,0,0,1-.36-.48C405.76,66.46,418,57,433.21,56.94h.09A33.23,33.23,0,0,1,457,66.44a32.45,32.45,0,0,1,8.18,13.79A.38.38,0,0,1,464.84,80.71Z"/></svg>