<svg width="105" height="18" viewBox="0 0 105 18" fill="none" xmlns="http://www.w3.org/2000/svg">
<g clip-path="url(#clip0)">
<path d="M47.3054 6.92911L43.9494 17.1151C43.8897 17.2965 43.6567 17.4428 43.4304 17.4428H40.7321C40.5051 17.4428 40.3695 17.2955 40.4294 17.1137L43.7848 6.92911H38.5061C38.2797 6.92911 38.1433 6.78218 38.2029 6.60138L38.915 4.44014C38.9749 4.25834 39.2074 4.11103 39.4344 4.11103H53.5122C53.7386 4.11103 53.8749 4.25797 53.8153 4.43867L53.1033 6.60001C53.0436 6.78172 52.8108 6.92911 52.5839 6.92911H47.3053H47.3054ZM75.286 10.8654L77.4033 4.43876C77.4628 4.25806 77.3266 4.11113 77.1 4.11113H74.4018C74.1746 4.11113 73.9421 4.25843 73.8823 4.44023C72.4904 8.66492 71.0987 12.8892 69.707 17.1138C69.647 17.2956 69.7827 17.4429 70.0096 17.4429H72.708C72.9344 17.4429 73.1674 17.2966 73.227 17.1152L74.7966 12.3509H76.4657C76.5049 12.5046 76.5826 12.6431 76.6933 12.7605L81.0141 17.4429H85.9924L80.2101 11.1717L80.3233 10.8282L90.9279 4.11122H86.75C86.2036 4.11122 85.7017 4.27002 85.2938 4.52828C81.9577 6.64058 78.6218 8.75287 75.286 10.8654V10.8654ZM97.4468 3.60205H98.9789C103.281 3.60205 105.867 6.41443 104.733 9.85733L103.703 12.9823C103.574 13.3759 103.252 13.7298 102.845 13.9876L97.5223 17.3589C97.2048 17.5601 96.8538 17.6736 96.5116 17.7419C95.7609 17.8917 94.9611 18 94.2355 18H92.7034C88.402 18 85.8149 15.1878 86.9493 11.7448L87.9789 8.61993C88.1085 8.22614 88.4278 7.87016 88.8372 7.61447L94.16 4.24306C94.478 4.04166 94.8286 3.9284 95.1708 3.86013C95.9215 3.71025 96.7211 3.60205 97.4468 3.60205ZM98.0504 6.42004H96.5185C96.206 6.42004 95.9095 6.43945 95.5874 6.49226L91.3071 9.20325L90.4699 11.7447C89.8481 13.6321 91.2735 15.182 93.6318 15.182H95.1638C95.4766 15.182 95.7728 15.1625 96.0951 15.1096L100.375 12.3987L101.212 9.85733C101.834 7.96971 100.408 6.42004 98.0504 6.42004ZM6.02096 17.4429C3.87293 17.4429 2.14776 16.7396 1.1053 15.6066C0.0631204 14.4735 -0.300321 12.9093 0.266881 11.1877L1.11279 8.62002C1.24253 8.22623 1.56346 7.87292 1.97126 7.61457L7.29407 4.24316C7.61204 4.04175 7.96486 3.92426 8.30483 3.86022C9.07856 3.71439 9.78752 3.60214 10.5808 3.60214H12.1129C14.2637 3.60214 15.9862 4.30554 17.0284 5.4386C18.0707 6.57176 18.4342 8.13597 17.867 9.85742L15.4758 17.1152C15.4161 17.2965 15.1831 17.4429 14.9567 17.4429H12.2584C12.0317 17.4429 11.8958 17.2956 11.9557 17.1138L12.6249 15.0826L9.69973 16.9476C9.53885 17.0501 8.92101 17.4428 8.08711 17.4428H6.02087L6.02096 17.4429ZM12.7757 14.6249L14.3464 9.85742C14.6573 8.9138 14.4566 8.05463 13.8829 7.43101C13.3092 6.80739 12.3635 6.42013 11.1845 6.42013H9.65251C9.33527 6.42013 9.03374 6.44111 8.72131 6.49236L4.44115 9.20334L3.78745 11.1877C3.4765 12.1315 3.67721 12.9905 4.25088 13.6142C4.82455 14.2378 5.77025 14.6249 6.94938 14.6249C8.89153 14.6249 10.8336 14.6249 12.7757 14.6249ZM25.0761 17.4429C21.4446 17.4429 18.0198 15.14 19.3233 11.1838L21.545 4.44033C21.6049 4.25852 21.8375 4.11122 22.0644 4.11122H24.7627C24.9893 4.11122 25.1254 4.25815 25.0659 4.43885L22.8439 11.1838C22.129 13.3538 24.0113 14.6249 26.0045 14.6249H30.7307L34.0861 4.44033C34.146 4.25852 34.3786 4.11122 34.6056 4.11122H37.3039C37.5305 4.11122 37.6665 4.25824 37.607 4.43913L33.4308 17.1154C33.3711 17.2965 33.1381 17.443 32.9118 17.443H25.0761V17.4429ZM63.6137 17.4382L58.1824 17.4429C53.8811 17.4466 51.2939 14.6308 52.4282 11.1877L53.2742 8.62002C53.4039 8.22623 53.7248 7.87292 54.1327 7.61457L59.4555 4.24316C59.7735 4.04175 60.1268 3.92794 60.4662 3.86022C61.2196 3.7097 62.0165 3.60214 62.7422 3.60214H64.2742C67.8953 3.60214 71.3296 5.90765 70.0283 9.85742L69.6709 10.942C69.4146 11.7201 68.4185 12.351 67.4465 12.351H55.8213C55.9862 13.6724 57.2617 14.6267 59.1106 14.625L64.5419 14.6204C64.7691 14.6203 64.9044 14.7681 64.8446 14.9495L64.1327 17.1105C64.0731 17.2917 63.8395 17.4383 63.6137 17.4384V17.4382ZM66.5624 9.6596C67.0838 7.55485 65.2439 6.42004 63.3458 6.42004H61.8138C61.5012 6.42004 61.2049 6.43945 60.8827 6.49226L56.6025 9.20325L56.4522 9.6596H66.5624Z" fill="#1B1E1D"/>
<path d="M29.0375 0H36.4378L27.0859 5.92359L29.0375 0Z" fill="#00B07A"/>
</g>
<defs>
<clipPath id="clip0">
<rect width="105" height="18" fill="white"/>
</clipPath>
</defs>
</svg>
