<svg id="Layer_1" data-name="Layer 1" xmlns="http://www.w3.org/2000/svg" xmlns:xlink="http://www.w3.org/1999/xlink" viewBox="0 0 361 239"><defs><style>.cls-1,.cls-3{fill:none;}.cls-2{clip-path:url(#clip-path);}.cls-3{stroke:#1c0f52;stroke-width:3px;opacity:0.07;isolation:isolate;}</style><clipPath id="clip-path"><rect class="cls-1" width="361" height="239"/></clipPath></defs><g class="cls-2"><path class="cls-3" d="M-6.8,55.65C126.6,24.65,274.14,85.49,305,218.32c15.48,66.59,5.63,140.76-24.75,202.14S199.05,530.28,132.63,545.72s-135.35-3-191.55-42.05-99.59-98.6-115-165.16-6.91-129.62,22.09-179.78S-73.38,71.12-6.8,55.65Z"/><path class="cls-3" d="M-8.65,55.48c120.23-27.94,255,33.7,285.2,163.74C291.69,284.4,284,356.53,257.5,415.83s-71.74,105.6-131.58,119.5S3.34,530.15-48.25,491.17s-91.91-97.75-107-162.9-8.43-126.47,17-174.86S-68.66,69.42-8.65,55.48Z"/><path class="cls-3" d="M-16.44,41.11c74.32-17.27,151.89-12.34,214.57,13s110.34,70.86,125.21,134.86C353.19,317.38,270,478.49,121.67,513s-302.73-63-332.55-191.3c-14.92-64.21-3.39-125.69,30.36-175.44S-90.71,58.37-16.44,41.11Z"/><path class="cls-3" d="M228.12,474.12C123.23,552.13-33.33,549.76-117.2,437c-42-56.53-64.85-129.44-64-198S-156,106.57-103.75,67.74s121.09-47,187.47-31.25S213.88,91.9,255.89,148.4,317.14,267,312.76,324.51,280.47,435.19,228.12,474.12Z"/></g></svg>