<svg width="80" height="20" viewBox="0 0 80 20" fill="none" xmlns="http://www.w3.org/2000/svg">
<g clip-path="url(#clip0)">
<path fill-rule="evenodd" clip-rule="evenodd" d="M43.0111 5.48766C43.2036 5.67889 44.9353 10.2348 45.1164 10.7973C45.2967 11.3999 45.5514 11.978 45.8747 12.5184C46.4746 12.6534 46.5312 12.0572 46.7123 11.5848C47.697 9.03117 49.1911 5.30767 49.9381 2.79908C50.4588 1.58416 50.5041 1.25793 49.5646 1.25793C48.6252 1.25793 48.727 1.8654 48.3535 2.65284C48.0253 4.14899 46.7576 7.31004 46.2935 8.76119C46.2935 8.95243 46.2935 8.95243 46.0558 8.95243C45.2749 6.79257 44.3694 4.14899 43.4865 2.01164C43.2488 1.59541 42.83 1.50542 42.5471 2.43911C42.0717 3.92401 41.4152 5.69014 40.9059 7.13005C40.9059 7.13005 40.2947 8.95243 40.2494 9.04242C39.9257 8.52516 39.6887 7.95908 39.5476 7.36628C38.8459 5.64515 38.2347 3.78902 37.6348 2.06788C37.4876 1.74165 37.4877 1.55042 37.1594 1.35918C36.8304 1.238 36.4747 1.20692 36.1294 1.26918C35.2013 1.41542 35.8012 2.15788 35.9936 2.70909C37.1255 5.73514 38.3818 9.36865 39.6382 12.2485C39.6676 12.3198 39.7154 12.3822 39.7768 12.4294C39.8382 12.4765 39.911 12.5067 39.9879 12.517C40.0648 12.5273 40.1431 12.5172 40.2148 12.4878C40.2865 12.4585 40.3492 12.4108 40.3965 12.3497C40.5776 12.001 42.8753 5.48766 43.0111 5.48766Z" fill="#1B1E1D"/>
<path fill-rule="evenodd" clip-rule="evenodd" d="M0.18238 1.44919C0.135593 1.63659 0.151486 1.83403 0.227655 2.01165C0.420071 2.7991 -0.14586 11.776 0.00128249 12.136C0.459431 12.3407 0.973095 12.3882 1.46138 12.271C1.68776 12.0347 1.59721 11.8098 1.59721 11.4385C1.59721 9.85239 1.73303 8.32249 1.73303 6.69134C1.78962 6.08388 1.8349 5.66766 1.8349 5.29644C1.8349 4.92521 1.8349 4.97021 1.92545 4.88021C2.016 4.79022 3.49874 7.35505 3.64588 7.63628C3.92884 8.1875 4.48346 9.03119 4.85697 9.68365C5.4229 10.7073 5.70587 10.0099 5.84169 9.77364C6.16993 9.35742 8.7053 4.93646 8.8864 4.84647C9.05618 5.02645 9.05618 9.44741 9.05618 9.77364C9.05618 12.1922 8.77321 12.4285 10.3125 12.3272C10.7879 12.3272 10.8332 11.956 10.7879 11.5398C10.7879 10.7523 10.7879 9.86364 10.7879 9.07619C10.6634 7.07382 10.5729 4.79022 10.5729 2.7991C10.5729 2.56287 10.6634 1.67417 10.6634 1.53918C10.5249 1.38399 10.3372 1.28045 10.1313 1.24568C9.92553 1.2109 9.71394 1.24698 9.53156 1.34795C9.20332 1.53918 9.11277 1.95541 8.87508 2.23664C7.92432 3.91278 6.64531 5.8139 5.75114 7.40005C5.4229 7.96251 5.4229 7.77127 5.13994 7.40005C4.52873 6.51136 3.73643 4.98146 3.18181 4.09276L2.04995 2.23664C1.89262 1.91408 1.69071 1.61495 1.45007 1.34795C1.13314 1.12296 0.51062 1.30295 0.18238 1.44919Z" fill="#1B1E1D"/>
<path fill-rule="evenodd" clip-rule="evenodd" d="M59.9076 6.65798C60.3082 6.33312 60.7834 6.11176 61.2909 6.01362C61.7984 5.91549 62.3225 5.94362 62.8164 6.09552C64.3105 6.74798 64.5029 8.94158 63.8464 10.0103C63.5668 10.4268 63.1641 10.7467 62.6937 10.9261C62.2234 11.1054 61.7086 11.1352 61.2205 11.0114C60.7477 10.9187 60.3001 10.727 59.9076 10.449V6.65798ZM59.9076 5.07184C59.837 3.84667 59.837 2.6185 59.9076 1.39333C59.9076 0.887114 59.7265 0.79712 59.2511 0.977108C58.1192 1.44958 58.1192 1.25834 58.2777 2.28202C58.3682 2.79949 58.2777 8.79534 58.2777 9.63904C58.2777 11.3039 58.04 11.6864 60.4735 12.3839C61.1664 12.5283 61.8816 12.532 62.5759 12.3947C63.2703 12.2575 63.9296 11.9821 64.5142 11.5852C66.9025 9.63904 66.246 4.1494 61.8883 4.56562C61.5085 4.58605 61.1304 4.63115 60.7564 4.70061C60.6093 4.74561 60.0547 5.07184 59.9868 5.07184H59.9076Z" fill="#1B1E1D"/>
<path fill-rule="evenodd" clip-rule="evenodd" d="M26.9059 12.2372C27.0829 11.6506 27.133 11.0334 27.053 10.4261C27.0067 9.78949 27.0067 9.15037 27.053 8.51374C27.1888 8.51374 27.336 8.74998 27.6189 9.03121C27.9019 9.31244 30.2335 11.731 30.6071 12.001C30.7374 12.1216 30.8945 12.2098 31.0656 12.2587C31.2367 12.3076 31.4169 12.3156 31.5918 12.2822C31.92 12.2822 32.4407 12.2822 32.6218 12.0573C32.6218 11.731 31.9653 11.2136 31.6823 10.9323C31.3994 10.6511 31.0372 10.2911 30.7089 9.90865C29.989 9.27894 29.3157 8.59847 28.6942 7.87253C28.6942 7.77129 31.2635 5.62268 31.7389 5.21771C31.92 5.02647 32.1124 4.98147 32.0672 4.70024C31.4846 4.52163 30.8614 4.52163 30.2788 4.70024C30.0524 4.80149 28.5018 6.19639 28.083 6.56762C27.9472 6.70261 27.1436 7.54631 27.053 7.50131C26.9172 7.07384 27.053 1.25797 26.9625 0.931739C26.8719 0.605511 25.276 1.12298 25.3213 1.68544C25.41 2.08063 25.4555 2.4842 25.4571 2.88911V10.9323C25.4571 11.2136 25.3665 12.0573 25.5589 12.1923C25.9993 12.3041 26.4589 12.3195 26.9059 12.2372Z" fill="#1B1E1D"/>
<path fill-rule="evenodd" clip-rule="evenodd" d="M14.7138 8.42373C15.2345 8.28874 16.9775 8.70496 17.0568 9.16618C17.102 9.66388 17.102 10.1646 17.0568 10.6623C16.7285 11.0786 14.4761 11.911 13.7291 10.4261C13.6284 10.2152 13.5762 9.98461 13.5762 9.75114C13.5762 9.51767 13.6284 9.28713 13.7291 9.07619C13.8378 8.90468 13.9817 8.7579 14.1513 8.64547C14.321 8.53303 14.5127 8.45747 14.7138 8.42373ZM17.102 7.86127C16.6622 7.57168 16.1703 7.36924 15.6532 7.26506C15.0089 7.19415 14.357 7.23988 13.7291 7.40005C13.2004 7.55054 12.7342 7.86568 12.3991 8.2991C12.0641 8.73252 11.8778 9.26137 11.8676 9.80786C11.8575 10.3544 12.0241 10.8897 12.3428 11.3351C12.6616 11.7805 13.1158 12.1125 13.6385 12.2822C14.5338 12.5856 15.505 12.5856 16.4003 12.2822C16.5927 12.1922 16.9662 11.956 17.102 11.911C17.2378 11.866 17.2944 12.2372 17.4755 12.3272C17.6566 12.4172 18.5055 12.3272 18.7432 12.1022C18.9809 11.8773 19.0262 11.911 18.879 11.5848C18.6601 11.1543 18.581 10.6669 18.6527 10.1899V6.83758C18.7119 6.36292 18.5952 5.88307 18.3244 5.48767C17.4303 3.72154 12.0426 4.41899 12.4727 5.91515C12.9028 7.4113 13.6046 5.39768 15.9815 5.67891C17.2605 5.8139 17.1247 7.02882 17.1247 7.86127H17.102Z" fill="#1B1E1D"/>
<path fill-rule="evenodd" clip-rule="evenodd" d="M72.5114 7.63668H68.6291C68.6811 7.17478 68.8932 6.74526 69.229 6.42176C69.5955 6.10231 70.056 5.90898 70.5419 5.87054C70.795 5.84976 71.0498 5.8799 71.2909 5.95914C71.5321 6.03838 71.7547 6.16511 71.9454 6.33176C72.1375 6.48879 72.289 6.68912 72.3874 6.91609C72.4859 7.14306 72.5283 7.3901 72.5114 7.63668ZM68.5272 8.84035C68.8102 8.70536 73.0546 8.84035 73.8243 8.84035C74.594 8.84035 74.2431 6.33176 72.8396 5.30808C72.2662 4.88322 71.5836 4.6282 70.8706 4.57246C70.1576 4.51672 69.4433 4.66253 68.8101 4.99305C68.1769 5.32358 67.6507 5.82535 67.2922 6.44042C66.9338 7.0555 66.7576 7.7588 66.7841 8.46912C66.7573 9.15903 66.9188 9.8433 67.2516 10.4493C67.5844 11.0554 68.076 11.5606 68.6743 11.9114C69.9307 12.7551 73.3037 12.7101 73.7224 11.4052C74.2431 9.72904 73.0207 10.6627 72.5906 10.8427C72.2289 10.9901 71.8477 11.0848 71.4587 11.1239C68.9573 11.4052 68.3461 9.21158 68.5272 8.84035Z" fill="#1B1E1D"/>
<path fill-rule="evenodd" clip-rule="evenodd" d="M51.5323 7.63592C51.5721 7.15545 51.7918 6.70732 52.1482 6.38024C52.5045 6.05316 52.9715 5.87099 53.4565 5.86979C54.4299 5.76854 55.5618 6.61224 55.3694 7.63592H51.5323ZM51.3399 8.76085C51.5776 8.76085 55.9806 8.76085 56.5918 8.76085C57.203 8.76085 57.1011 8.38962 57.0558 7.9284C57.0228 7.30379 56.827 6.69843 56.4878 6.17161C56.1485 5.64479 55.6774 5.21458 55.1206 4.92313C54.5637 4.63168 53.9403 4.48897 53.3113 4.50899C52.6823 4.52901 52.0693 4.71107 51.5323 5.03734C50.9286 5.39184 50.4349 5.90488 50.1054 6.5201C49.7759 7.13531 49.6235 7.82889 49.6648 8.52461C49.6167 9.21139 49.7723 9.8971 50.1123 10.4969C50.4523 11.0967 50.9617 11.5843 51.5776 11.8994C53.1736 12.8781 56.3088 12.4619 56.5918 11.3482C56.5918 11.0219 56.8181 10.2233 56.3088 10.4145C55.6936 10.7602 55.0238 10.9998 54.3281 11.1232C53.9571 11.1724 53.5801 11.1481 53.2187 11.0515C52.8574 10.955 52.5188 10.7882 52.2228 10.5607C51.8153 10.2345 51.1588 9.25581 51.3399 8.76085Z" fill="#1B1E1D"/>
<path fill-rule="evenodd" clip-rule="evenodd" d="M76.7615 12.2827C77.0444 12.0015 76.9992 11.8665 76.9992 11.4503V10.3254C76.9992 8.84045 76.7162 6.37687 78.4479 6.00564C78.8214 5.91565 78.912 6.23063 79.3874 6.14063C79.6677 5.89066 79.8783 5.5729 79.9986 5.21819C79.9986 4.50949 78.8667 4.3745 77.8367 4.83572C77.5085 4.98196 77.2368 5.48817 76.9992 5.53317C76.9992 5.11695 77.0897 4.93696 76.8067 4.56573C76.4439 4.60031 76.0928 4.71154 75.7767 4.89196C75.3127 5.11695 75.2221 5.11695 75.3127 5.67941C75.4032 6.24187 75.3127 10.1004 75.3127 11.0228C75.358 12.429 75.3579 12.384 76.7615 12.2827Z" fill="#1B1E1D"/>
<path fill-rule="evenodd" clip-rule="evenodd" d="M21.5742 12.2373V12.1473C21.7056 11.0048 21.7397 9.85324 21.6761 8.70501C21.6761 7.81632 21.9025 6.37642 22.8872 6.09518C23.6795 5.81395 23.7248 6.5564 24.2454 6.09518C25.4565 4.83527 23.8266 4.32905 22.8419 4.74527C21.8572 5.1615 21.993 5.48772 21.7101 5.57772C21.6873 5.39468 21.6873 5.20955 21.7101 5.0265C21.7101 4.79027 21.6082 4.79027 21.5176 4.65528C21.1547 4.65234 20.7981 4.74971 20.4876 4.93651C20.0236 5.1165 19.8764 5.1615 20.0236 5.72396C20.1231 6.58639 20.1534 7.45533 20.1141 8.32254V10.8874C20.216 12.2823 20.0236 12.3835 21.5742 12.2373Z" fill="#1B1E1D"/>
<path fill-rule="evenodd" clip-rule="evenodd" d="M42.6851 13.7333C40.8166 13.9624 38.9793 14.3963 37.2069 15.027C36.6522 15.2632 36.075 15.3982 35.5204 15.6345C34.3885 16.0507 33.3246 16.4219 32.204 16.8494C31.8305 16.9844 29.1593 17.7718 28.6953 17.8731C26.4315 18.4243 23.0359 19.0767 20.8741 18.0981C19.8441 17.5918 19.7422 19.1667 22.0852 19.7292C23.4553 19.9677 24.8613 19.9063 26.2052 19.5492C27.337 19.313 28.6953 18.8968 29.7705 18.5705C30.8458 18.2443 32.1135 17.8731 33.2793 17.5468C33.5623 17.4456 33.7886 17.3556 34.1169 17.2656L35.8486 16.7481C36.1769 16.6581 36.4146 16.5232 36.6975 16.4219L38.4859 16.0057C38.8141 15.9157 39.0518 15.8257 39.3348 15.7245C41.7045 15.222 44.1216 14.9731 46.5447 14.982C47.1446 14.982 48.0388 15.1282 48.65 15.2182C49.7818 15.3532 49.5328 14.757 48.7858 14.3745C46.8435 13.6349 44.7401 13.4138 42.6851 13.7333Z" fill="#F9CC46"/>
</g>
<defs>
<clipPath id="clip0">
<rect width="80" height="19" fill="white" transform="translate(0 0.886719)"/>
</clipPath>
</defs>
</svg>
