<svg width="254" height="255" viewBox="0 0 254 255" fill="none" xmlns="http://www.w3.org/2000/svg">
<g opacity="0.08">
<path opacity="0.5" d="M203.813 241.54C108.159 239.017 19.1681 166.869 21.8783 64.1023C23.2378 12.5488 43.0837 -39.751 74.5424 -78.8259C106.003 -117.903 148.947 -143.612 196.491 -142.358C244.085 -141.103 287.372 -114.704 318.461 -75.6088C349.549 -36.5156 368.332 15.1495 366.973 66.6627C365.613 118.251 348.613 162.605 320.098 193.727C291.599 224.831 251.528 242.798 203.813 241.54Z" stroke="#1C0F52" stroke-width="3"/>
<path opacity="0.5" d="M190.481 217.067C94.8266 214.545 5.83606 142.396 8.54623 39.6296C9.90581 -11.9239 29.7516 -64.2237 61.2104 -103.299C92.6705 -142.375 135.615 -168.084 183.159 -166.831C230.753 -165.575 274.04 -139.177 305.129 -100.081C336.217 -60.9883 355 -9.32318 353.641 42.19C352.281 93.7785 335.281 138.133 306.766 169.254C278.267 200.358 238.196 218.326 190.481 217.067Z" stroke="#1C0F52" stroke-width="3"/>
<path opacity="0.5" d="M157.9 -152.418C252.183 -168.754 353.623 -115.511 371.173 -14.2184C379.977 36.5959 370.802 91.777 347.641 136.275C324.478 180.775 287.427 214.426 240.565 222.545C193.654 230.673 146.021 213.301 107.851 181.082C69.6837 148.865 41.1082 101.902 32.3112 51.1272C23.5013 0.278258 31.4482 -46.5529 53.287 -82.6735C75.1137 -118.774 110.869 -144.27 157.9 -152.418Z" stroke="#1C0F52" stroke-width="3"/>
</g>
</svg>
