<svg width="491" height="151" viewBox="0 0 491 151" fill="none" xmlns="http://www.w3.org/2000/svg">
<path opacity="0.5" d="M244.674 513.576C129.712 510.544 22.7055 423.825 25.9645 300.249C27.5985 238.29 51.4481 175.44 89.2555 128.479C127.064 81.5167 178.703 50.5868 235.9 52.0952C293.148 53.605 345.191 85.3567 382.556 132.343C419.918 179.327 442.494 241.42 440.861 303.338C439.226 365.332 418.796 418.653 384.507 456.077C350.233 493.484 302.043 515.089 244.674 513.576Z" stroke="#F0F3F4" stroke-width="3"/>
<path opacity="0.5" d="M228.67 484.195C113.709 481.163 6.70161 394.444 9.96059 270.868C11.5946 208.909 35.4442 146.059 73.2516 99.0981C111.06 52.1358 162.699 21.206 219.896 22.7144C277.144 24.2241 329.187 55.9759 366.552 102.962C403.914 149.946 426.49 212.039 424.857 273.957C423.222 335.951 402.792 389.273 368.503 426.696C334.229 464.103 286.039 485.708 228.67 484.195Z" stroke="#F0F3F4" stroke-width="3"/>
<path opacity="0.5" d="M189.513 40.0197C302.827 20.3874 424.796 84.3724 445.9 206.177C456.481 267.248 445.455 333.561 417.619 387.038C389.783 440.518 345.234 480.998 288.857 490.766C232.43 500.542 175.159 479.644 129.286 440.922C83.414 402.202 49.0692 345.76 38.4953 284.729C27.9085 223.624 37.4549 167.326 63.7163 123.891C89.9656 80.4755 132.967 49.8168 189.513 40.0197Z" stroke="#F0F3F4" stroke-width="3"/>
</svg>
