<svg width="1400" height="292" viewBox="0 0 1400 292" fill="none" xmlns="http://www.w3.org/2000/svg">
<rect width="1400" height="292" fill="#F0F3F4"/>
<mask id="mask0" mask-type="alpha" maskUnits="userSpaceOnUse" x="4" y="0" width="1396" height="292">
<rect x="4" width="1396" height="292" fill="#F0F3F4"/>
</mask>
<g mask="url(#mask0)">
<path opacity="0.07" d="M1412.91 215.328C1514.88 263.024 1579.29 377.223 1531.84 478.663C1508.04 529.553 1464.03 572.49 1413.24 596.736C1362.45 620.979 1305.03 626.476 1254.31 602.752C1203.54 579.009 1168.39 532.129 1151.89 478.369C1135.39 424.606 1137.59 364.097 1161.37 313.246C1185.19 262.324 1222.69 225.983 1266.89 208.298C1311.06 190.617 1362.04 191.535 1412.91 215.328Z" stroke="#1C0F52" stroke-width="3"/>
<path opacity="0.07" d="M1411.8 214.279C1503.67 257.252 1559.43 365.463 1512.97 464.785C1489.67 514.599 1448.09 557.31 1400.86 582.178C1353.63 607.047 1300.92 613.99 1255.24 592.624C1209.51 571.236 1178.7 527.095 1165.15 475.717C1151.6 424.342 1155.37 365.888 1178.65 316.11C1201.97 266.265 1237.4 230.108 1278.39 211.763C1319.35 193.428 1365.96 192.84 1411.8 214.279Z" stroke="#1C0F52" stroke-width="3"/>
<path opacity="0.07" d="M1414.06 201.025C1470.88 227.599 1518.51 270.176 1546.18 318.338C1573.84 366.487 1581.49 420.104 1558.64 468.968C1512.73 567.116 1377.18 628.982 1263.87 575.985C1150.44 522.931 1100.21 381.607 1146.06 283.582C1169.01 234.527 1207.66 200.662 1254.7 185.657C1301.74 170.649 1357.29 174.472 1414.06 201.025Z" stroke="#1C0F52" stroke-width="3"/>
<path opacity="0.07" d="M1352.36 604.931C1244.97 602.099 1145.04 521.101 1148.09 405.696C1149.61 347.823 1171.89 289.116 1207.2 245.252C1242.52 201.386 1290.74 172.506 1344.15 173.914C1397.61 175.324 1446.21 204.974 1481.11 248.861C1516.01 292.747 1537.1 350.745 1535.57 408.578C1534.05 466.486 1514.96 516.286 1482.94 551.235C1450.94 586.167 1405.93 606.344 1352.36 604.931Z" stroke="#1C0F52" stroke-width="3"/>
<path opacity="0.03" d="M369.906 68.3283C471.88 116.024 536.29 230.223 488.844 331.663C465.042 382.553 421.03 425.49 370.238 449.736C319.451 473.979 262.027 479.476 211.305 455.752C160.541 432.009 125.39 385.129 108.889 331.369C92.388 277.606 94.585 217.097 118.369 166.246C142.186 115.324 179.694 78.9833 223.885 61.2979C268.064 43.6174 319.036 44.5352 369.906 68.3283Z" stroke="#1C0F52" stroke-width="3"/>
<path opacity="0.03" d="M368.799 67.2792C460.675 110.252 516.426 218.463 469.97 317.785C446.671 367.599 405.089 410.31 357.858 435.178C310.626 460.047 257.922 466.99 212.241 445.624C166.514 424.236 135.697 380.095 122.149 328.717C108.602 277.342 112.371 218.888 135.653 169.11C158.967 119.265 194.4 83.1078 235.387 64.7632C276.353 46.4284 322.962 45.8399 368.799 67.2792Z" stroke="#1C0F52" stroke-width="3"/>
<path opacity="0.03" d="M371.063 54.0251C427.878 80.5988 475.511 123.176 503.179 171.338C530.839 219.487 538.494 273.104 515.639 321.968C469.733 420.116 334.177 481.982 220.87 428.985C107.439 375.931 57.2147 234.607 103.063 136.582C126.007 87.5274 164.657 53.6623 211.695 38.6568C258.741 23.6487 314.293 27.4725 371.063 54.0251Z" stroke="#1C0F52" stroke-width="3"/>
<path opacity="0.03" d="M309.355 457.931C201.975 455.099 102.042 374.101 105.086 258.696C106.612 200.823 128.89 142.116 164.204 98.2515C199.52 54.3857 247.745 25.5058 301.151 26.9142C354.608 28.324 403.213 57.9738 438.114 101.861C473.012 145.747 494.099 203.745 492.574 261.578C491.047 319.486 471.963 369.286 439.942 404.235C407.935 439.167 362.934 459.344 309.355 457.931Z" stroke="#1C0F52" stroke-width="3"/>
</g>
</svg>
