<svg width="241" height="307" viewBox="0 0 241 307" fill="none" xmlns="http://www.w3.org/2000/svg">
<path opacity="0.2" d="M221.018 292.747C117.238 290.01 20.6655 211.73 23.6067 100.205C25.0817 44.273 46.6125 -12.467 80.7431 -54.8605C114.875 -97.2558 161.478 -125.162 213.085 -123.801C264.742 -122.439 311.714 -93.7874 345.444 -51.3713C379.172 -8.95734 399.552 47.0965 398.078 102.989C396.602 158.956 378.158 207.084 347.213 240.858C316.284 274.614 272.796 294.113 221.018 292.747Z" stroke="#BBBFC4" stroke-width="3"/>
<path opacity="0.2" d="M206.557 266.209C102.777 263.473 6.20459 185.192 9.14573 73.6677C10.6208 17.7353 32.1516 -39.0047 66.2822 -81.3983C100.414 -123.794 147.018 -151.7 198.624 -150.339C250.281 -148.977 297.253 -120.325 330.983 -77.9091C364.711 -35.4951 385.091 20.5587 383.617 76.4509C382.141 132.418 363.697 180.547 332.752 214.32C301.823 248.077 258.335 267.575 206.557 266.209Z" stroke="#BBBFC4" stroke-width="3"/>
<path opacity="0.2" d="M171.205 -134.71C273.497 -152.433 383.577 -94.6699 402.622 15.2555C412.174 70.386 402.22 130.252 377.092 178.529C351.962 226.808 311.756 263.333 260.889 272.146C209.973 280.968 158.284 262.112 116.873 227.156C75.4627 192.202 44.4593 141.25 34.9144 86.1588C25.3567 30.9938 33.9768 -19.8214 57.6768 -59.0205C81.3647 -98.1995 120.169 -125.868 171.205 -134.71Z" stroke="#BBBFC4" stroke-width="3"/>
</svg>
