<svg width="899" height="683" viewBox="0 0 899 683" fill="none" xmlns="http://www.w3.org/2000/svg">
<path opacity="0.05" d="M1383.57 519.075C1452.27 806.084 1308.25 1128.92 999.654 1202.79C844.972 1239.82 673.356 1222.37 531.873 1159.77C390.385 1097.18 279.428 989.655 245.229 846.794C211.004 703.82 255.234 553.719 346.942 429.939C438.647 306.164 577.612 209.026 732.202 172.02C886.964 134.972 1032.71 150.26 1148.25 210.469C1263.74 270.652 1349.27 375.825 1383.57 519.075Z" stroke="#1C0F52" stroke-width="7"/>
<path opacity="0.05" d="M1321.38 578.217C1390.08 865.226 1246.06 1188.06 937.467 1261.93C782.784 1298.96 611.169 1281.51 469.685 1218.92C328.197 1156.32 217.241 1048.8 183.042 905.936C148.816 762.961 193.047 612.861 284.755 489.081C376.459 365.306 515.424 268.168 670.015 231.161C824.776 194.114 970.525 209.402 1086.06 269.61C1201.55 329.793 1287.09 434.967 1321.38 578.217Z" stroke="#1C0F52" stroke-width="7"/>
<path opacity="0.05" d="M246.084 969.833C122.286 701.937 200.021 357.084 488.062 223.976C632.444 157.256 804.141 140.624 955.169 174.173C1106.2 207.723 1236.14 291.333 1297.76 424.681C1359.43 558.134 1345.58 714.002 1280 853.398C1214.42 992.788 1097.27 1115.35 952.973 1182.04C808.517 1248.79 662.608 1262.46 537.486 1226.15C412.416 1189.85 307.874 1103.54 246.084 969.833Z" stroke="#1C0F52" stroke-width="7"/>
</svg>
