<svg width="1400" height="460" viewBox="0 0 1400 460" fill="none" xmlns="http://www.w3.org/2000/svg">
<mask id="mask0" mask-type="alpha" maskUnits="userSpaceOnUse" x="0" y="0" width="1400" height="460">
<rect width="1400" height="460" fill="#F0F3F4"/>
</mask>
<g mask="url(#mask0)">
<rect width="1400" height="460" fill="#00B07A"/>
<mask id="mask1" mask-type="alpha" maskUnits="userSpaceOnUse" x="-2" y="0" width="1403" height="460">
<path d="M-2 0H1400V460H-2V0Z" fill="#1C0F52"/>
</mask>
<g mask="url(#mask1)">
<g filter="url(#filter0_f)">
<circle cx="-122.113" cy="6.88656" r="569.848" transform="rotate(-135 -122.113 6.88656)" fill="url(#paint0_radial)"/>
</g>
<g filter="url(#filter1_f)">
<circle r="1811.45" transform="matrix(-0.707107 -0.707107 -0.707107 0.707107 1690.77 581.887)" fill="url(#paint1_radial)"/>
</g>
<g filter="url(#filter2_f)">
<circle cx="-80.7773" cy="61.2222" r="368.56" transform="rotate(-135 -80.7773 61.2222)" fill="url(#paint2_radial)"/>
</g>
<path d="M34.2005 210.647C149.165 283.021 209.278 429.463 137.218 543.929C101.088 601.321 41.9496 646.154 -22.5112 667.588C-86.9665 689.02 -156.595 687.016 -213.829 650.985C-271.103 614.93 -306.189 553.498 -317.903 486.641C-329.617 419.781 -317.929 347.633 -281.823 290.279C-245.674 232.857 -195.301 194.932 -139.698 180.359C-84.1083 165.79 -23.1724 174.529 34.2005 210.647Z" stroke="white" stroke-opacity="0.25" stroke-width="3"/>
<path d="M33.0377 209.227C136.647 274.452 187.263 412.441 116.716 524.502C81.3533 580.676 25.1601 625.603 -35.1297 648.315C-95.4222 671.029 -159.625 671.47 -211.19 639.008C-262.798 606.519 -293.104 549.004 -301.638 485.44C-310.173 421.879 -296.908 352.431 -261.566 296.292C-226.185 240.088 -178.327 202.074 -126.462 186.23C-74.62 170.393 -18.6735 176.673 33.0377 209.227Z" stroke="white" stroke-opacity="0.1" stroke-width="3"/>
<path d="M37.7351 193.707C101.785 234.028 152.454 292.141 178.381 353.966C204.303 415.78 205.458 481.185 170.739 536.336C101.053 647.032 -70.5724 700.843 -198.371 620.389C-326.284 539.864 -365.301 363.078 -295.687 252.498C-260.855 197.168 -209.475 162.378 -150.864 151.442C-92.2439 140.506 -26.2725 153.412 37.7351 193.707Z" stroke="white" stroke-opacity="0.08" stroke-width="3"/>
<path d="M-96.7103 668.303C-224.891 648.836 -332.504 536.854 -311.572 399.026C-301.08 329.944 -265.613 262.973 -216.753 215.727C-167.892 168.48 -105.782 141.082 -41.9719 150.773C21.8878 160.472 75.678 203.286 110.906 261.072C146.132 318.856 162.706 391.475 152.22 460.518C141.723 529.635 111.412 586.437 67.8072 623.519C24.2199 660.585 -32.7305 678.019 -96.7103 668.303Z" stroke="white" stroke-opacity="0.25" stroke-width="3"/>
<path opacity="0.1" d="M1041.89 131.902C1206.94 147.527 1353.08 274.035 1337.51 438.505C1329.71 520.926 1289.93 602.31 1231.47 661.124C1173.02 719.934 1096.02 756.074 1013.79 748.289C931.504 740.5 859.464 692.837 809.923 626.425C760.381 560.011 733.426 474.957 741.224 392.579C749.03 310.123 783.063 241.067 835.661 194.58C888.25 148.102 959.489 124.102 1041.89 131.902Z" stroke="#EAEAEA" stroke-opacity="0.9" stroke-width="3"/>
<path opacity="0.1" d="M1039.84 130.996C1188.63 145.081 1319.75 267.624 1304.51 428.622C1296.88 509.289 1260.35 589.152 1207.15 647.066C1153.94 704.983 1084.19 740.814 1010.07 733.798C935.911 726.777 871.228 680.743 826.961 616.168C782.697 551.597 758.948 468.621 766.58 387.993C774.22 307.292 805.46 239.524 853.287 193.707C901.096 147.906 965.554 123.964 1039.84 130.996Z" stroke="#EAEAEA" stroke-opacity="0.9" stroke-width="3"/>
<path opacity="0.1" d="M1036.42 111.517C1128.38 120.221 1215.55 155.667 1277.81 208.78C1340.06 261.883 1377.33 332.556 1369.83 411.816C1354.78 570.799 1197.35 723.858 1013.8 706.482C830.11 689.094 690.325 517.913 705.362 359.065C712.885 279.596 749.748 213.394 807.628 169.219C865.514 125.038 944.519 102.817 1036.42 111.517Z" stroke="#EAEAEA" stroke-opacity="0.9" stroke-width="3"/>
<path opacity="0.1" d="M1150.94 702.763C1000.56 752.058 821.635 689.238 768.608 527.463C742.041 446.414 743.851 353.934 771.105 275.575C798.36 197.215 850.985 133.154 925.909 108.595C1000.88 84.0208 1083.08 101.105 1153.25 144.697C1223.42 188.288 1281.43 258.304 1307.98 339.315C1334.56 420.398 1332.78 498.982 1305.65 563.404C1278.53 627.804 1226.03 678.151 1150.94 702.763Z" stroke="#EAEAEA" stroke-opacity="0.9" stroke-width="3"/>
</g>
</g>
<defs>
<filter id="filter0_f" x="-1178" y="-1049" width="2111.77" height="2111.77" filterUnits="userSpaceOnUse" color-interpolation-filters="sRGB">
<feFlood flood-opacity="0" result="BackgroundImageFix"/>
<feBlend mode="normal" in="SourceGraphic" in2="BackgroundImageFix" result="shape"/>
<feGaussianBlur stdDeviation="125" result="effect1_foregroundBlur"/>
</filter>
<filter id="filter1_f" x="-1121" y="-2229.89" width="5623.55" height="5623.55" filterUnits="userSpaceOnUse" color-interpolation-filters="sRGB">
<feFlood flood-opacity="0" result="BackgroundImageFix"/>
<feBlend mode="normal" in="SourceGraphic" in2="BackgroundImageFix" result="shape"/>
<feGaussianBlur stdDeviation="125" result="effect1_foregroundBlur"/>
</filter>
<filter id="filter2_f" x="-852" y="-710" width="1542.44" height="1542.44" filterUnits="userSpaceOnUse" color-interpolation-filters="sRGB">
<feFlood flood-opacity="0" result="BackgroundImageFix"/>
<feBlend mode="normal" in="SourceGraphic" in2="BackgroundImageFix" result="shape"/>
<feGaussianBlur stdDeviation="125" result="effect1_foregroundBlur"/>
</filter>
<radialGradient id="paint0_radial" cx="0" cy="0" r="1" gradientUnits="userSpaceOnUse" gradientTransform="translate(-122.113 6.88653) rotate(0.0160569) scale(520.622)">
<stop stop-color="#8F5FE3"/>
<stop offset="1" stop-color="#8F5FE3" stop-opacity="0"/>
</radialGradient>
<radialGradient id="paint1_radial" cx="0" cy="0" r="1" gradientUnits="userSpaceOnUse" gradientTransform="translate(1811.45 1811.45) rotate(0.0160569) scale(1654.97)">
<stop stop-color="#8F5FE3"/>
<stop offset="1" stop-color="#8F5FE3" stop-opacity="0"/>
</radialGradient>
<radialGradient id="paint2_radial" cx="0" cy="0" r="1" gradientUnits="userSpaceOnUse" gradientTransform="translate(-80.7773 61.2222) rotate(0.0160569) scale(336.722)">
<stop stop-color="#00B07A"/>
<stop offset="1" stop-color="#00B07A" stop-opacity="0"/>
</radialGradient>
</defs>
</svg>
