<svg width="773" height="439" viewBox="0 0 773 439" fill="none" xmlns="http://www.w3.org/2000/svg">
<path opacity="0.05" d="M993.023 378.907C1041.94 583.263 939.369 812.949 719.863 865.495C609.724 891.861 487.509 879.432 386.764 834.863C286.015 790.293 207.134 713.786 182.828 612.251C158.495 510.603 189.926 403.812 255.226 315.676C320.521 227.546 419.469 158.386 529.517 132.042C639.736 105.658 743.467 116.561 825.65 159.388C907.785 202.189 968.624 276.983 993.023 378.907Z" stroke="#1C0F52" stroke-width="7"/>
<path opacity="0.05" d="M948.648 421.1C997.568 625.456 894.994 855.142 675.488 907.688C565.349 934.054 443.134 921.625 342.389 877.057C241.64 832.486 162.759 755.979 138.453 654.445C114.12 552.796 145.551 446.006 210.851 357.87C276.146 269.739 375.094 200.579 485.142 174.236C595.361 147.851 699.092 158.754 781.275 201.581C863.41 244.382 924.249 319.177 948.648 421.1Z" stroke="#1C0F52" stroke-width="7"/>
<path opacity="0.05" d="M176.477 691.804C88.3302 501.056 143.738 255.685 348.627 161.004C451.432 113.496 573.704 101.651 681.246 125.54C788.793 149.43 881.177 208.933 924.973 303.706C968.818 398.586 958.999 509.472 912.304 608.727C865.612 707.976 782.195 795.242 679.476 842.71C576.597 890.252 472.747 899.958 383.747 874.127C294.799 848.312 220.441 786.94 176.477 691.804Z" stroke="#1C0F52" stroke-width="7"/>
</svg>
