<svg id="Layer_1" data-name="Layer 1" xmlns="http://www.w3.org/2000/svg" viewBox="0 0 431 748"><defs><style>.cls-1{fill:none;stroke:#1c0f52;stroke-width:6px;opacity:0.03;isolation:isolate;}</style></defs><path class="cls-1" d="M702.68,294.93c34.54,144.29-37.9,306.37-192.77,343.44C432.14,657,345.84,648.21,274.7,616.74s-126.77-85.46-143.91-157,5-147,51.11-209.28,116-111.06,193.65-129.66,151.06-10.92,209,19.29S685.46,223,702.68,294.93Z"/><path class="cls-1" d="M671.3,324.77c34.54,144.28-37.9,306.37-192.77,343.44-77.77,18.62-164.07,9.84-235.21-21.63S116.55,561.12,99.41,489.52s5-147,51.11-209.28,116-111,193.65-129.65c77.84-18.63,151.06-10.93,209,19.29S654.08,252.84,671.3,324.77Z"/><path class="cls-1" d="M126.27,515.84C64,381.16,103.18,208,247.74,141.2c72.59-33.55,158.93-41.91,234.87-25s141.1,58.87,172,125.7,24,145.16-9,215.24-91.86,131.69-164.38,165.2-146,40.42-208.75,22.19S157.29,583,126.27,515.84Z"/></svg>