<svg id="Layer_1" data-name="Layer 1" xmlns="http://www.w3.org/2000/svg" viewBox="0 0 80.75 13.57"><path d="M21.7,6.79a1.85,1.85,0,0,0-.3-1,1.56,1.56,0,0,0-.76-.61,1.38,1.38,0,0,0-.94,0,1.56,1.56,0,0,0-.77.58H17a7,7,0,0,0-2.08-4.13,5.8,5.8,0,0,0-8.08,0A7,7,0,0,0,4.73,5.77h-2A1.57,1.57,0,0,0,2,5.17a1.47,1.47,0,0,0-.95,0,1.55,1.55,0,0,0-.77.62,1.79,1.79,0,0,0-.29,1,1.82,1.82,0,0,0,.29,1,1.53,1.53,0,0,0,.77.61A1.35,1.35,0,0,0,2,8.4a1.46,1.46,0,0,0,.77-.6h2a7,7,0,0,0,1.92,4,5.91,5.91,0,0,0,3.77,1.78,5.78,5.78,0,0,0,4-1.19,6.76,6.76,0,0,0,2.41-3.64l-2.12-.54a4.38,4.38,0,0,1-1.77,2.4,3.72,3.72,0,0,1-2.78.55A4,4,0,0,1,7.69,9.54,4.74,4.74,0,0,1,6.82,6.6,4.61,4.61,0,0,1,7.93,3.76a3.9,3.9,0,0,1,2.54-1.35,3.77,3.77,0,0,1,2.72.8,4.48,4.48,0,0,1,1.58,2.57H12.44a1.88,1.88,0,0,0-.9-.86,1.64,1.64,0,0,0-1.19-.09,1.8,1.8,0,0,0-1,.73A2.15,2.15,0,0,0,9.36,8a1.8,1.8,0,0,0,1,.73,1.64,1.64,0,0,0,1.19-.09,1.88,1.88,0,0,0,.9-.86h6.49a1.58,1.58,0,0,0,.78.6,1.47,1.47,0,0,0,.95,0,1.57,1.57,0,0,0,.76-.62,1.77,1.77,0,0,0,.29-1"/><path d="M29.14,9.35V8.57a.17.17,0,0,0,0-.1.12.12,0,0,0-.08,0H27.47a1.31,1.31,0,0,1-1-.48,1.83,1.83,0,0,1-.41-1.17,1.89,1.89,0,0,1,.1-.63,1.76,1.76,0,0,1,.3-.54,1.31,1.31,0,0,1,.46-.36,1.22,1.22,0,0,1,.53-.13H29a.09.09,0,0,0,.08,0,.12.12,0,0,0,0-.09V4.21a.14.14,0,0,0,0-.09.09.09,0,0,0-.08,0H27.47a1.88,1.88,0,0,0-.9.17,2.34,2.34,0,0,0-.76.58,2.71,2.71,0,0,0-.52.89,3.18,3.18,0,0,0,0,2.11,2.82,2.82,0,0,0,.52.89,2.17,2.17,0,0,0,.76.57,2,2,0,0,0,.9.18H29a.12.12,0,0,0,.08,0,.14.14,0,0,0,0-.09ZM34.52,5.1V4.32a.17.17,0,0,0,0-.1.12.12,0,0,0-.08,0H31l0,0,0,0a.43.43,0,0,0,0,.05V5.1a.36.36,0,0,0,0,.09.12.12,0,0,0,.08,0h3.35a.12.12,0,0,0,.08,0A.16.16,0,0,0,34.52,5.1Zm0,2.06V6.38a.12.12,0,0,0,0-.09.09.09,0,0,0-.08,0H31.06a.11.11,0,0,0-.08,0,.18.18,0,0,0,0,.1v.78a.15.15,0,0,0,0,.09.09.09,0,0,0,.08,0h3.35a.09.09,0,0,0,.08,0A.14.14,0,0,0,34.52,7.16Zm0,2.06V8.47a.17.17,0,0,0,0-.1.12.12,0,0,0-.08,0H31.06a.14.14,0,0,0-.08.05.24.24,0,0,0,0,.09v.78a.14.14,0,0,0,0,.09.09.09,0,0,0,.08,0h3.35a.12.12,0,0,0,.08,0,.25.25,0,0,0,0-.09Zm4.8-3.12a1,1,0,0,1-.22.58.62.62,0,0,1-.5.23H37.29V5.23H38.6a.64.64,0,0,1,.5.25.94.94,0,0,1,.2.59Zm.39,1.29a2,2,0,0,0,.43-.95,2.2,2.2,0,0,0-.09-1.08,1.87,1.87,0,0,0-.58-.84,1.5,1.5,0,0,0-.87-.32H36.54a.14.14,0,0,0-.08,0,.14.14,0,0,0,0,.09V9.25a.14.14,0,0,0,0,.09.12.12,0,0,0,.08,0h.65a.09.09,0,0,0,.08,0,.14.14,0,0,0,0-.09V8h1.31a1.39,1.39,0,0,0,.6-.14,1.34,1.34,0,0,0,.51-.41Zm5,.39a.58.58,0,0,1-.14.39.44.44,0,0,1-.33.16H42.63V7.2H44.2a.46.46,0,0,1,.34.16.63.63,0,0,1,.14.4ZM44.42,5.7a.57.57,0,0,1,0,.18.53.53,0,0,1-.08.15.38.38,0,0,1-.28.14h-1.4V5.23H44a.35.35,0,0,1,.27.14A.5.5,0,0,1,44.42,5.7Zm.73.93-.08-.08a1.8,1.8,0,0,0,.21-.76A1.86,1.86,0,0,0,45.14,5a1.52,1.52,0,0,0-.46-.59A1.12,1.12,0,0,0,44,4.21h-2.2l0,0,0,0v5l0,0,0,0H44.2A1.17,1.17,0,0,0,45,9.11a1.53,1.53,0,0,0,.5-.71,1.84,1.84,0,0,0,.07-.93,1.71,1.71,0,0,0-.37-.82Zm6,2.62V4.34a.09.09,0,0,0,0,0s0,0,0,0l0,0h-.7l0,0,0,0L48.07,7.62V4.34a.07.07,0,0,0,0,0s0,0,0,0l0,0h-.7a.14.14,0,0,0-.08,0,.14.14,0,0,0,0,.09V9.25a.14.14,0,0,0,0,.09.12.12,0,0,0,.08,0h.62a.1.1,0,0,0,.07,0,.12.12,0,0,0,.06-.06L50.28,6V9.25a.14.14,0,0,0,0,.09.12.12,0,0,0,.08,0h.66a.08.08,0,0,0,.07,0,.11.11,0,0,0,0-.09ZM56.5,6.8a1.88,1.88,0,0,1-.16.78,1.61,1.61,0,0,1-.45.6,1.21,1.21,0,0,1-1.31.15A1.45,1.45,0,0,1,54,7.85a1.87,1.87,0,0,1-.25-1.53,1.62,1.62,0,0,1,.35-.69,1.37,1.37,0,0,1,.45-.35,1.15,1.15,0,0,1,1.06,0,1.37,1.37,0,0,1,.45.35,1.83,1.83,0,0,1,.41,1.17Zm.22,1.91a2.9,2.9,0,0,0,.62-1.38,3.17,3.17,0,0,0-.13-1.56,2.68,2.68,0,0,0-.83-1.21,2,2,0,0,0-2.86.34,2.93,2.93,0,0,0-.67,1.9,3,3,0,0,0,.38,1.5,2.45,2.45,0,0,0,1,1,2,2,0,0,0,1.31.15A2.12,2.12,0,0,0,56.72,8.71Zm6.18.54V4.34a.14.14,0,0,0,0-.09.14.14,0,0,0-.08,0h-.7l0,0,0,0a.07.07,0,0,0,0,0v2H59.86V4.34a.15.15,0,0,0,0-.09.14.14,0,0,0-.08,0h-.65l0,0,0,0s0,0,0,0a.09.09,0,0,0,0,0V9.25a.14.14,0,0,0,0,.09.09.09,0,0,0,.08,0h.65a.12.12,0,0,0,.08,0,.25.25,0,0,0,0-.09V7.3H62v2a.15.15,0,0,0,0,.09.09.09,0,0,0,.08,0h.65a.12.12,0,0,0,.08,0A.14.14,0,0,0,62.9,9.25Zm5.92,0V4.34a.17.17,0,0,0,0-.1.12.12,0,0,0-.08,0h-.66l0,0a.1.1,0,0,0,0,0L65.72,7.62V4.34a.09.09,0,0,0,0,0s0,0,0,0a.05.05,0,0,0,0,0l0,0H65a.15.15,0,0,0-.07,0,.15.15,0,0,0,0,.09V9.25a.15.15,0,0,0,0,.09.13.13,0,0,0,.07,0h.62a.12.12,0,0,0,.08,0,.15.15,0,0,0,0-.06L68,6v3.3a.14.14,0,0,0,0,.09.12.12,0,0,0,.08,0h.65a.09.09,0,0,0,.08,0,.15.15,0,0,0,0-.09Zm5.92,0,0-.07-2-2.84,1.75-2s.05-.14-.06-.14H73.5a.32.32,0,0,0-.17.09l-1.68,1.9V4.29l0,0,0,0,0,0h-.65l0,0s0,0,0,0a.05.05,0,0,0,0,0,.09.09,0,0,0,0,0V9.25a.14.14,0,0,0,0,.09.12.12,0,0,0,.08,0h.65a.12.12,0,0,0,.08,0,.14.14,0,0,0,0-.09V7.6l.5-.57,1.48,2.22a.27.27,0,0,0,.08.07l.09,0h.85c.11,0,.12,0,.09-.11Zm4.38-1.89H77.59l.76-2.08Zm1.63,1.85L79,4.31c0-.11-.08-.11-.16-.11h-.87c-.08,0-.12,0-.16.11L76,9.25c0,.1,0,.11.07.11h.75a.09.09,0,0,0,.07,0,.14.14,0,0,0,0-.08l.33-.91h2.23l.33.91a.13.13,0,0,0,0,.07.08.08,0,0,0,.08,0h.73c.08,0,.11,0,.07-.11"/></svg>