<svg width="1402" height="580" viewBox="0 0 1402 580" fill="none" xmlns="http://www.w3.org/2000/svg">
<rect width="1402" height="580" fill="#1C0F52"/>
<mask id="mask0" mask-type="alpha" maskUnits="userSpaceOnUse" x="0" y="0" width="1402" height="580">
<rect width="1402" height="580" fill="#1C0F52"/>
</mask>
<g mask="url(#mask0)">
<g filter="url(#filter0_f)">
<circle cx="5.07422" cy="626.07" r="332.39" transform="rotate(-135 5.07422 626.07)" fill="url(#paint0_radial)"/>
</g>
<g filter="url(#filter1_d)">
<path d="M236.74 280.966C359.794 338.522 437.606 476.377 380.3 598.897C351.568 660.327 298.447 712.15 237.143 741.413C175.843 770.675 106.504 777.323 45.2425 748.669C-16.0615 719.996 -58.4956 663.39 -78.4116 598.502C-98.3284 533.611 -95.6795 460.571 -66.9657 399.181C-38.2187 337.72 7.06133 293.839 60.4272 272.482C113.781 251.13 175.33 252.244 236.74 280.966Z" stroke="url(#paint1_linear)" stroke-width="3"/>
</g>
<g filter="url(#filter2_d)">
<path d="M235.407 279.701C346.306 331.572 413.646 462.216 357.544 582.163C329.422 642.289 279.235 693.838 222.228 723.854C165.218 753.87 101.566 762.271 46.3722 736.456C-8.86702 710.619 -46.072 657.307 -62.4249 595.292C-78.777 533.28 -74.2288 462.724 -46.1232 402.634C-17.9859 342.476 24.7865 298.819 74.2861 276.665C123.764 254.521 180.057 253.813 235.407 279.701Z" stroke="url(#paint2_linear)" stroke-width="3"/>
</g>
<g filter="url(#filter3_d)">
<path d="M238.145 263.719C306.701 295.784 364.187 347.163 397.583 405.296C430.971 463.417 440.23 528.174 412.619 587.206C357.201 705.69 193.576 780.372 56.7851 716.392C-80.1282 652.354 -140.771 481.773 -85.4104 363.412C-57.7107 304.189 -11.0424 263.294 45.7602 245.174C102.571 227.051 169.634 231.674 238.145 263.719Z" stroke="url(#paint3_linear)" stroke-width="3"/>
</g>
<g filter="url(#filter4_d)">
<path d="M163.601 751.326C33.9949 747.908 -86.6765 650.139 -83.0013 510.779C-81.1592 440.928 -54.2729 370.076 -11.6503 317.134C30.9736 264.191 89.2054 229.302 153.725 231.003C218.294 232.706 276.98 268.518 319.103 321.488C361.225 374.457 386.677 444.46 384.836 514.27C382.993 584.155 359.962 644.278 321.293 686.482C282.64 728.668 228.292 753.032 163.601 751.326Z" stroke="url(#paint4_linear)" stroke-width="3"/>
</g>
<g opacity="0.1">
<g filter="url(#filter5_d)">
<path d="M1329.02 -115.585C1427.79 -69.3886 1490.16 41.213 1444.21 139.448C1421.16 188.736 1378.53 230.322 1329.34 253.804C1280.15 277.285 1224.54 282.607 1175.42 259.633C1126.26 236.638 1092.21 191.237 1076.23 139.169C1060.25 87.0982 1062.38 28.4941 1085.41 -20.754C1108.48 -70.073 1144.81 -105.268 1187.6 -122.395C1230.39 -139.517 1279.75 -138.629 1329.02 -115.585Z" stroke="url(#paint5_linear)" stroke-width="3"/>
</g>
<g filter="url(#filter6_d)">
<path d="M1327.95 -116.604C1416.93 -74.984 1470.92 29.8162 1425.93 126.002C1403.37 174.248 1363.09 215.616 1317.35 239.701C1271.6 263.787 1220.57 270.509 1176.33 249.819C1132.05 229.108 1102.2 186.361 1089.08 136.6C1075.96 86.8422 1079.61 30.2286 1102.16 -17.9811C1124.74 -66.2588 1159.06 -101.275 1198.75 -119.04C1238.42 -136.796 1283.56 -137.366 1327.95 -116.604Z" stroke="url(#paint6_linear)" stroke-width="3"/>
</g>
<g filter="url(#filter7_d)">
<path d="M1330.14 -129.442C1385.17 -103.703 1431.31 -62.4647 1458.11 -15.8192C1484.9 30.8147 1492.31 82.7371 1470.18 130.055C1425.72 225.111 1294.43 285.028 1184.69 233.701C1074.83 182.317 1026.19 45.4419 1070.59 -49.4912C1092.81 -96.9994 1130.24 -129.796 1175.8 -144.328C1221.36 -158.862 1275.16 -155.16 1330.14 -129.442Z" stroke="url(#paint7_linear)" stroke-width="3"/>
</g>
<g filter="url(#filter8_d)">
<path d="M1270.4 261.74C1166.4 258.997 1069.62 180.549 1072.56 68.7865C1074.04 12.7348 1095.62 -44.1261 1129.82 -86.6101C1164.03 -129.096 1210.73 -157.062 1262.45 -155.698C1314.21 -154.333 1361.29 -125.62 1395.09 -83.1134C1428.89 -40.609 1449.31 15.5643 1447.83 71.5758C1446.36 127.662 1427.87 175.893 1396.86 209.739C1365.87 243.568 1322.29 263.108 1270.4 261.74Z" stroke="url(#paint8_linear)" stroke-width="3"/>
</g>
</g>
</g>
<defs>
<filter id="filter0_f" x="-714.996" y="-94.0003" width="1440.14" height="1440.14" filterUnits="userSpaceOnUse" color-interpolation-filters="sRGB">
<feFlood flood-opacity="0" result="BackgroundImageFix"/>
<feBlend mode="normal" in="SourceGraphic" in2="BackgroundImageFix" result="shape"/>
<feGaussianBlur stdDeviation="125" result="effect1_foregroundBlur"/>
</filter>
<filter id="filter1_d" x="-201.941" y="164.639" width="699.479" height="706.726" filterUnits="userSpaceOnUse" color-interpolation-filters="sRGB">
<feFlood flood-opacity="0" result="BackgroundImageFix"/>
<feColorMatrix in="SourceAlpha" type="matrix" values="0 0 0 0 0 0 0 0 0 0 0 0 0 0 0 0 0 0 127 0"/>
<feOffset/>
<feGaussianBlur stdDeviation="9.5"/>
<feColorMatrix type="matrix" values="0 0 0 0 0.561579 0 0 0 0 0.371528 0 0 0 0 0.891667 0 0 0 1 0"/>
<feBlend mode="normal" in2="BackgroundImageFix" result="effect1_dropShadow"/>
<feBlend mode="normal" in="SourceGraphic" in2="effect1_dropShadow" result="shape"/>
</filter>
<filter id="filter2_d" x="-178.625" y="172.731" width="651.316" height="676.442" filterUnits="userSpaceOnUse" color-interpolation-filters="sRGB">
<feFlood flood-opacity="0" result="BackgroundImageFix"/>
<feColorMatrix in="SourceAlpha" type="matrix" values="0 0 0 0 0 0 0 0 0 0 0 0 0 0 0 0 0 0 127 0"/>
<feOffset/>
<feGaussianBlur stdDeviation="9.5"/>
<feColorMatrix type="matrix" values="0 0 0 0 0.561579 0 0 0 0 0.371528 0 0 0 0 0.891667 0 0 0 1 0"/>
<feBlend mode="normal" in2="BackgroundImageFix" result="effect1_dropShadow"/>
<feBlend mode="normal" in="SourceGraphic" in2="effect1_dropShadow" result="shape"/>
</filter>
<filter id="filter3_d" x="-216.344" y="136.449" width="742.784" height="714.307" filterUnits="userSpaceOnUse" color-interpolation-filters="sRGB">
<feFlood flood-opacity="0" result="BackgroundImageFix"/>
<feColorMatrix in="SourceAlpha" type="matrix" values="0 0 0 0 0 0 0 0 0 0 0 0 0 0 0 0 0 0 127 0"/>
<feOffset/>
<feGaussianBlur stdDeviation="9.5"/>
<feColorMatrix type="matrix" values="0 0 0 0 0.561579 0 0 0 0 0.371528 0 0 0 0 0.891667 0 0 0 1 0"/>
<feBlend mode="normal" in2="BackgroundImageFix" result="effect1_dropShadow"/>
<feBlend mode="normal" in="SourceGraphic" in2="effect1_dropShadow" result="shape"/>
</filter>
<filter id="filter4_d" x="-109.707" y="204.42" width="522.388" height="573.11" filterUnits="userSpaceOnUse" color-interpolation-filters="sRGB">
<feFlood flood-opacity="0" result="BackgroundImageFix"/>
<feColorMatrix in="SourceAlpha" type="matrix" values="0 0 0 0 0 0 0 0 0 0 0 0 0 0 0 0 0 0 127 0"/>
<feOffset/>
<feGaussianBlur stdDeviation="9.5"/>
<feColorMatrix type="matrix" values="0 0 0 0 0.561579 0 0 0 0 0.371528 0 0 0 0 0.891667 0 0 0 1 0"/>
<feBlend mode="normal" in2="BackgroundImageFix" result="effect1_dropShadow"/>
<feBlend mode="normal" in="SourceGraphic" in2="effect1_dropShadow" result="shape"/>
</filter>
<filter id="filter5_d" x="972.973" y="-213.046" width="569.432" height="575.254" filterUnits="userSpaceOnUse" color-interpolation-filters="sRGB">
<feFlood flood-opacity="0" result="BackgroundImageFix"/>
<feColorMatrix in="SourceAlpha" type="matrix" values="0 0 0 0 0 0 0 0 0 0 0 0 0 0 0 0 0 0 127 0"/>
<feOffset/>
<feGaussianBlur stdDeviation="9.5"/>
<feColorMatrix type="matrix" values="0 0 0 0 0.561579 0 0 0 0 0.371528 0 0 0 0 0.891667 0 0 0 1 0"/>
<feBlend mode="normal" in2="BackgroundImageFix" result="effect1_dropShadow"/>
<feBlend mode="normal" in="SourceGraphic" in2="effect1_dropShadow" result="shape"/>
</filter>
<filter id="filter6_d" x="991.707" y="-206.546" width="530.738" height="550.924" filterUnits="userSpaceOnUse" color-interpolation-filters="sRGB">
<feFlood flood-opacity="0" result="BackgroundImageFix"/>
<feColorMatrix in="SourceAlpha" type="matrix" values="0 0 0 0 0 0 0 0 0 0 0 0 0 0 0 0 0 0 127 0"/>
<feOffset/>
<feGaussianBlur stdDeviation="9.5"/>
<feColorMatrix type="matrix" values="0 0 0 0 0.561579 0 0 0 0 0.371528 0 0 0 0 0.891667 0 0 0 1 0"/>
<feBlend mode="normal" in2="BackgroundImageFix" result="effect1_dropShadow"/>
<feBlend mode="normal" in="SourceGraphic" in2="effect1_dropShadow" result="shape"/>
</filter>
<filter id="filter7_d" x="961.398" y="-235.693" width="604.223" height="581.345" filterUnits="userSpaceOnUse" color-interpolation-filters="sRGB">
<feFlood flood-opacity="0" result="BackgroundImageFix"/>
<feColorMatrix in="SourceAlpha" type="matrix" values="0 0 0 0 0 0 0 0 0 0 0 0 0 0 0 0 0 0 127 0"/>
<feOffset/>
<feGaussianBlur stdDeviation="9.5"/>
<feColorMatrix type="matrix" values="0 0 0 0 0.561579 0 0 0 0 0.371528 0 0 0 0 0.891667 0 0 0 1 0"/>
<feBlend mode="normal" in2="BackgroundImageFix" result="effect1_dropShadow"/>
<feBlend mode="normal" in="SourceGraphic" in2="effect1_dropShadow" result="shape"/>
</filter>
<filter id="filter8_d" x="1047.08" y="-181.085" width="427.157" height="467.908" filterUnits="userSpaceOnUse" color-interpolation-filters="sRGB">
<feFlood flood-opacity="0" result="BackgroundImageFix"/>
<feColorMatrix in="SourceAlpha" type="matrix" values="0 0 0 0 0 0 0 0 0 0 0 0 0 0 0 0 0 0 127 0"/>
<feOffset/>
<feGaussianBlur stdDeviation="9.5"/>
<feColorMatrix type="matrix" values="0 0 0 0 0.561579 0 0 0 0 0.371528 0 0 0 0 0.891667 0 0 0 1 0"/>
<feBlend mode="normal" in2="BackgroundImageFix" result="effect1_dropShadow"/>
<feBlend mode="normal" in="SourceGraphic" in2="effect1_dropShadow" result="shape"/>
</filter>
<radialGradient id="paint0_radial" cx="0" cy="0" r="1" gradientUnits="userSpaceOnUse" gradientTransform="translate(5.07422 626.07) rotate(0.0160569) scale(303.676)">
<stop stop-color="#8F5FE3"/>
<stop offset="1" stop-color="#8F5FE3" stop-opacity="0"/>
</radialGradient>
<linearGradient id="paint1_linear" x1="-182.941" y1="643.598" x2="444.005" y2="324.548" gradientUnits="userSpaceOnUse">
<stop offset="0.395833" stop-color="#4AE7B6"/>
<stop offset="1" stop-color="#8038ED"/>
</linearGradient>
<linearGradient id="paint2_linear" x1="-159.625" y1="641.762" x2="445.881" y2="363.169" gradientUnits="userSpaceOnUse">
<stop offset="0.395833" stop-color="#4AE7B6"/>
<stop offset="1" stop-color="#8038ED"/>
</linearGradient>
<linearGradient id="paint3_linear" x1="-197.344" y1="599.186" x2="414.732" y2="233.041" gradientUnits="userSpaceOnUse">
<stop offset="0.395833" stop-color="#4AE7B6"/>
<stop offset="1" stop-color="#8038ED"/>
</linearGradient>
<linearGradient id="paint4_linear" x1="393.68" y1="235.831" x2="-72.9273" y2="761.891" gradientUnits="userSpaceOnUse">
<stop offset="0.395833" stop-color="#4AE7B6"/>
<stop offset="1" stop-color="#8038ED"/>
</linearGradient>
<linearGradient id="paint5_linear" x1="991.973" y1="175.485" x2="1495.66" y2="-80.8393" gradientUnits="userSpaceOnUse">
<stop offset="0.395833" stop-color="#4AE7B6"/>
<stop offset="1" stop-color="#8038ED"/>
</linearGradient>
<linearGradient id="paint6_linear" x1="1010.71" y1="174.009" x2="1497.17" y2="-49.8123" gradientUnits="userSpaceOnUse">
<stop offset="0.395833" stop-color="#4AE7B6"/>
<stop offset="1" stop-color="#8038ED"/>
</linearGradient>
<linearGradient id="paint7_linear" x1="980.398" y1="139.805" x2="1472.14" y2="-154.356" gradientUnits="userSpaceOnUse">
<stop offset="0.395833" stop-color="#4AE7B6"/>
<stop offset="1" stop-color="#8038ED"/>
</linearGradient>
<linearGradient id="paint8_linear" x1="1455.23" y1="-152.114" x2="1080.36" y2="270.522" gradientUnits="userSpaceOnUse">
<stop offset="0.395833" stop-color="#4AE7B6"/>
<stop offset="1" stop-color="#8038ED"/>
</linearGradient>
</defs>
</svg>
