<svg width="1680" height="412" viewBox="0 0 1680 412" fill="none" xmlns="http://www.w3.org/2000/svg">
<path d="M-437 0H2117V412H-437V0Z" fill="#1C0F52"/>
<mask id="mask0" mask-type="alpha" maskUnits="userSpaceOnUse" x="-437" y="0" width="2554" height="412">
<path d="M-437 0H2117V412H-437V0Z" fill="#1C0F52"/>
</mask>
<g mask="url(#mask0)">
<g filter="url(#filter0_f)">
<circle cx="17.8867" cy="-32.1134" r="569.848" transform="rotate(-135 17.8867 -32.1134)" fill="url(#paint0_radial)"/>
</g>
<g filter="url(#filter1_f)">
<circle cx="59.2227" cy="22.2222" r="368.56" transform="rotate(-135 59.2227 22.2222)" fill="url(#paint1_radial)"/>
</g>
<path d="M174.2 171.647C289.165 244.021 349.278 390.463 277.218 504.929C241.088 562.321 181.95 607.154 117.489 628.588C53.0335 650.02 -16.5948 648.016 -73.8293 611.985C-131.103 575.93 -166.189 514.498 -177.903 447.641C-189.617 380.781 -177.929 308.633 -141.823 251.279C-105.674 193.857 -55.3012 155.932 0.301562 141.359C55.8917 126.79 116.828 135.529 174.2 171.647Z" stroke="white" stroke-opacity="0.25" stroke-width="3"/>
<path d="M173.038 170.227C276.647 235.452 327.263 373.441 256.716 485.502C221.353 541.676 165.16 586.603 104.87 609.315C44.5778 632.029 -19.6251 632.47 -71.1904 600.008C-122.798 567.519 -153.104 510.004 -161.638 446.44C-170.173 382.879 -156.908 313.431 -121.566 257.292C-86.1845 201.088 -38.3274 163.074 13.5378 147.23C65.38 131.393 121.327 137.673 173.038 170.227Z" stroke="white" stroke-opacity="0.1" stroke-width="3"/>
<path d="M177.735 154.707C241.785 195.028 292.454 253.141 318.381 314.966C344.303 376.78 345.458 442.185 310.739 497.336C241.053 608.032 69.4276 661.843 -58.3712 581.389C-186.284 500.864 -225.301 324.078 -155.687 213.498C-120.855 158.168 -69.4752 123.378 -10.8637 112.442C47.7561 101.506 113.727 114.412 177.735 154.707Z" stroke="white" stroke-opacity="0.08" stroke-width="3"/>
<path d="M43.2897 629.303C-84.8912 609.836 -192.504 497.854 -171.572 360.026C-161.08 290.944 -125.613 223.973 -76.7532 176.727C-27.8916 129.48 34.218 102.082 98.0281 111.773C161.888 121.472 215.678 164.286 250.906 222.072C286.132 279.856 302.706 352.475 292.22 421.518C281.723 490.635 251.412 547.437 207.807 584.519C164.22 621.585 107.27 639.019 43.2897 629.303Z" stroke="white" stroke-opacity="0.25" stroke-width="3"/>
<path opacity="0.1" d="M1181.89 92.9025C1346.94 108.527 1493.08 235.035 1477.51 399.505C1469.71 481.926 1429.93 563.31 1371.47 622.124C1313.02 680.934 1236.02 717.074 1153.79 709.289C1071.5 701.5 999.464 653.837 949.923 587.425C900.381 521.011 873.426 435.957 881.224 353.579C889.03 271.123 923.063 202.067 975.661 155.58C1028.25 109.102 1099.49 85.1023 1181.89 92.9025Z" stroke="#EAEAEA" stroke-opacity="0.9" stroke-width="3"/>
<path opacity="0.1" d="M1179.84 91.9958C1328.63 106.081 1459.75 228.624 1444.51 389.622C1436.88 470.289 1400.35 550.152 1347.15 608.066C1293.94 665.983 1224.19 701.814 1150.07 694.798C1075.91 687.777 1011.23 641.743 966.961 577.168C922.697 512.597 898.948 429.621 906.58 348.993C914.22 268.292 945.46 200.524 993.287 154.707C1041.1 108.906 1105.55 84.9637 1179.84 91.9958Z" stroke="#EAEAEA" stroke-opacity="0.9" stroke-width="3"/>
<path opacity="0.1" d="M1176.42 72.5167C1268.38 81.2213 1355.55 116.667 1417.81 169.78C1480.06 222.883 1517.33 293.556 1509.83 372.816C1494.78 531.799 1337.35 684.858 1153.8 667.482C970.11 650.094 830.325 478.913 845.362 320.065C852.885 240.596 889.748 174.394 947.628 130.219C1005.51 86.0376 1084.52 63.8168 1176.42 72.5167Z" stroke="#EAEAEA" stroke-opacity="0.9" stroke-width="3"/>
<path opacity="0.1" d="M1290.94 663.763C1140.56 713.058 961.635 650.238 908.608 488.463C882.041 407.414 883.851 314.934 911.105 236.575C938.36 158.215 990.985 94.1543 1065.91 69.5954C1140.88 45.0208 1223.08 62.1055 1293.25 105.697C1363.42 149.288 1421.43 219.304 1447.98 300.315C1474.56 381.398 1472.78 459.982 1445.65 524.404C1418.53 588.804 1366.03 639.151 1290.94 663.763Z" stroke="#EAEAEA" stroke-opacity="0.9" stroke-width="3"/>
</g>
<defs>
<filter id="filter0_f" x="-1038" y="-1088" width="2111.77" height="2111.77" filterUnits="userSpaceOnUse" color-interpolation-filters="sRGB">
<feFlood flood-opacity="0" result="BackgroundImageFix"/>
<feBlend mode="normal" in="SourceGraphic" in2="BackgroundImageFix" result="shape"/>
<feGaussianBlur stdDeviation="125" result="effect1_foregroundBlur"/>
</filter>
<filter id="filter1_f" x="-712" y="-749" width="1542.44" height="1542.44" filterUnits="userSpaceOnUse" color-interpolation-filters="sRGB">
<feFlood flood-opacity="0" result="BackgroundImageFix"/>
<feBlend mode="normal" in="SourceGraphic" in2="BackgroundImageFix" result="shape"/>
<feGaussianBlur stdDeviation="125" result="effect1_foregroundBlur"/>
</filter>
<radialGradient id="paint0_radial" cx="0" cy="0" r="1" gradientUnits="userSpaceOnUse" gradientTransform="translate(17.8867 -32.1135) rotate(0.0160569) scale(520.622)">
<stop stop-color="#8F5FE3"/>
<stop offset="1" stop-color="#8F5FE3" stop-opacity="0"/>
</radialGradient>
<radialGradient id="paint1_radial" cx="0" cy="0" r="1" gradientUnits="userSpaceOnUse" gradientTransform="translate(59.2227 22.2222) rotate(0.0160569) scale(336.722)">
<stop stop-color="#00B07A"/>
<stop offset="1" stop-color="#00B07A" stop-opacity="0"/>
</radialGradient>
</defs>
</svg>
