<svg width="1680" height="412" viewBox="0 0 1680 412" fill="none" xmlns="http://www.w3.org/2000/svg">
<path d="M-437 0H2117V412H-437V0Z" fill="#F0F3F4"/>
<mask id="mask0" mask-type="alpha" maskUnits="userSpaceOnUse" x="-437" y="0" width="2554" height="412">
<path d="M-437 0H2117V412H-437V0Z" fill="#1C0F52"/>
</mask>
<g mask="url(#mask0)">
<g opacity="0.2" filter="url(#filter0_f)">
<circle cx="-179.113" cy="-138.113" r="569.848" transform="rotate(-135 -179.113 -138.113)" fill="url(#paint0_radial)"/>
</g>
<path opacity="0.1" d="M174.2 171.647C289.165 244.021 349.278 390.463 277.218 504.929C241.088 562.321 181.95 607.154 117.489 628.588C53.0335 650.02 -16.5948 648.016 -73.8293 611.985C-131.103 575.93 -166.189 514.498 -177.903 447.641C-189.617 380.781 -177.929 308.633 -141.823 251.279C-105.674 193.857 -55.3012 155.932 0.301562 141.359C55.8917 126.79 116.828 135.529 174.2 171.647Z" stroke="#1C0F52" stroke-width="3"/>
<path opacity="0.05" d="M173.038 170.227C276.647 235.452 327.263 373.441 256.716 485.502C221.353 541.676 165.16 586.603 104.87 609.315C44.5778 632.029 -19.6251 632.47 -71.1904 600.008C-122.798 567.519 -153.104 510.004 -161.638 446.44C-170.173 382.879 -156.908 313.431 -121.566 257.292C-86.1845 201.088 -38.3274 163.074 13.5378 147.23C65.38 131.393 121.327 137.673 173.038 170.227Z" stroke="#1C0F52" stroke-width="3"/>
<path opacity="0.06" d="M177.735 154.707C241.785 195.028 292.454 253.141 318.381 314.966C344.303 376.78 345.458 442.185 310.739 497.336C241.053 608.032 69.4276 661.843 -58.3712 581.389C-186.284 500.864 -225.301 324.078 -155.687 213.498C-120.855 158.168 -69.4752 123.378 -10.8637 112.442C47.7561 101.506 113.727 114.412 177.735 154.707Z" stroke="#1C0F52" stroke-width="3"/>
<path opacity="0.04" d="M43.2897 629.303C-84.8912 609.836 -192.504 497.854 -171.572 360.026C-161.08 290.944 -125.613 223.973 -76.7532 176.727C-27.8916 129.48 34.218 102.082 98.0281 111.773C161.888 121.472 215.678 164.286 250.906 222.072C286.132 279.856 302.706 352.475 292.22 421.518C281.723 490.635 251.412 547.437 207.807 584.519C164.22 621.585 107.27 639.019 43.2897 629.303Z" stroke="#1C0F52" stroke-width="3"/>
<path opacity="0.04" d="M1145.89 81.9025C1310.94 97.5272 1457.08 224.035 1441.51 388.505C1433.71 470.926 1393.93 552.31 1335.47 611.124C1277.02 669.934 1200.02 706.074 1117.79 698.289C1035.5 690.5 963.464 642.837 913.923 576.425C864.381 510.011 837.426 424.957 845.224 342.579C853.03 260.123 887.063 191.067 939.661 144.58C992.25 98.1022 1063.49 74.1023 1145.89 81.9025Z" stroke="#1C0F52" stroke-width="3"/>
<path opacity="0.04" d="M1143.84 80.9958C1292.63 95.0809 1423.75 217.624 1408.51 378.622C1400.87 459.289 1364.35 539.152 1311.15 597.066C1257.94 654.983 1188.19 690.814 1114.07 683.798C1039.91 676.777 975.224 630.743 930.957 566.168C886.693 501.597 862.944 418.621 870.576 337.993C878.216 257.292 909.456 189.524 957.283 143.707C1005.09 97.9059 1069.55 73.9637 1143.84 80.9958Z" stroke="#1C0F52" stroke-width="3"/>
<path opacity="0.04" d="M1140.42 61.5167C1232.37 70.2213 1319.54 105.667 1381.81 158.78C1444.06 211.883 1481.33 282.556 1473.83 361.816C1458.78 520.799 1301.35 673.858 1117.79 656.482C934.107 639.094 794.321 467.913 809.358 309.065C816.881 229.596 853.744 163.394 911.624 119.219C969.51 75.0376 1048.51 52.8168 1140.42 61.5167Z" stroke="#1C0F52" stroke-width="3"/>
<path opacity="0.04" d="M1254.94 652.763C1104.55 702.058 925.631 639.238 872.604 477.463C846.037 396.414 847.848 303.934 875.101 225.575C902.356 147.215 954.981 83.1543 1029.9 58.5954C1104.88 34.0208 1187.07 51.1055 1257.25 94.6972C1327.42 138.288 1385.42 208.304 1411.98 289.315C1438.55 370.398 1436.78 448.982 1409.65 513.404C1382.52 577.804 1330.03 628.151 1254.94 652.763Z" stroke="#1C0F52" stroke-width="3"/>
</g>
<defs>
<filter id="filter0_f" x="-1235" y="-1194" width="2111.77" height="2111.77" filterUnits="userSpaceOnUse" color-interpolation-filters="sRGB">
<feFlood flood-opacity="0" result="BackgroundImageFix"/>
<feBlend mode="normal" in="SourceGraphic" in2="BackgroundImageFix" result="shape"/>
<feGaussianBlur stdDeviation="125" result="effect1_foregroundBlur"/>
</filter>
<radialGradient id="paint0_radial" cx="0" cy="0" r="1" gradientUnits="userSpaceOnUse" gradientTransform="translate(-179.113 -138.113) rotate(0.0160569) scale(520.622)">
<stop stop-color="#8F5FE3"/>
<stop offset="1" stop-color="#8F5FE3" stop-opacity="0"/>
</radialGradient>
</defs>
</svg>
