<svg width="424" height="302" viewBox="0 0 424 302" fill="none" xmlns="http://www.w3.org/2000/svg">
<g opacity="0.45">
<path opacity="0.5" d="M169.261 529.519C50.7202 526.392 -59.626 436.973 -56.2653 309.54C-54.5804 245.653 -29.9887 180.847 8.99536 132.425C47.9809 84.0008 101.23 52.1033 160.217 53.6589C219.254 55.2159 272.921 87.9597 311.448 136.408C349.973 184.855 373.252 248.881 371.568 312.728C369.883 376.65 348.817 431.633 313.457 470.225C278.114 508.8 228.419 531.079 169.261 529.519Z" stroke="#BBBFC4" stroke-width="3"/>
<path opacity="0.5" d="M152.757 499.229C34.2163 496.102 -76.1299 406.683 -72.7692 279.25C-71.0843 215.363 -46.4926 150.557 -7.50854 102.135C31.477 53.7108 84.7264 21.8133 143.713 23.3689C202.75 24.9258 256.417 57.6697 294.944 106.118C333.469 154.564 356.748 218.591 355.065 282.438C353.379 346.36 332.313 401.343 296.954 439.935C261.61 478.51 211.915 500.789 152.757 499.229Z" stroke="#BBBFC4" stroke-width="3"/>
<path opacity="0.5" d="M112.372 41.2109C229.212 20.9675 354.987 86.9436 376.749 212.55C387.659 275.521 376.29 343.897 347.589 399.04C318.886 454.184 272.948 495.929 214.807 506.003C156.616 516.084 97.5589 494.532 50.2574 454.605C2.95802 414.68 -32.456 356.481 -43.3593 293.55C-54.2754 230.544 -44.4325 172.491 -17.3514 127.7C9.71752 82.9292 54.0614 51.3135 112.372 41.2109Z" stroke="#BBBFC4" stroke-width="3"/>
</g>
</svg>
