<svg width="488" height="405" viewBox="0 0 488 405" fill="none" xmlns="http://www.w3.org/2000/svg">
<g opacity="0.1">
<g filter="url(#filter0_d)">
<path d="M415.02 -115.592C513.789 -69.3955 576.161 41.2061 530.214 139.441C507.161 188.729 464.535 230.315 415.341 253.798C366.153 277.278 310.54 282.6 261.421 259.626C212.259 236.632 178.215 191.23 162.234 139.162C146.252 87.0914 148.38 28.4872 171.415 -20.7608C194.482 -70.0799 230.808 -105.275 273.605 -122.402C316.388 -139.524 365.752 -138.636 415.02 -115.592Z" stroke="url(#paint0_linear)" stroke-width="3"/>
</g>
<g filter="url(#filter1_d)">
<path d="M413.951 -116.61C502.933 -74.9908 556.922 29.8094 511.934 125.995C489.368 174.241 449.094 215.609 403.35 239.694C357.604 263.78 306.565 270.502 262.33 249.812C218.049 229.101 188.204 186.355 175.083 136.593C161.962 86.8353 165.613 30.2217 188.161 -17.988C210.742 -66.2656 245.059 -101.282 284.752 -119.047C324.423 -136.803 369.559 -137.373 413.951 -116.61Z" stroke="url(#paint1_linear)" stroke-width="3"/>
</g>
<g filter="url(#filter2_d)">
<path d="M416.145 -129.449C471.175 -103.71 517.31 -62.4715 544.107 -15.8261C570.896 30.8078 578.307 82.7303 556.176 130.048C511.716 225.104 380.428 285.021 270.69 233.694C160.831 182.31 112.19 45.4351 156.593 -49.498C178.814 -97.0063 216.244 -129.802 261.798 -144.334C307.359 -158.869 361.16 -155.167 416.145 -129.449Z" stroke="url(#paint2_linear)" stroke-width="3"/>
</g>
<g filter="url(#filter3_d)">
<path d="M356.397 261.741C252.395 258.998 155.616 180.55 158.564 68.7875C160.042 12.7358 181.619 -44.1251 215.822 -86.6091C250.027 -129.095 296.73 -157.061 348.447 -155.697C400.214 -154.332 447.287 -125.619 481.089 -83.1124C514.889 -40.608 535.312 15.5653 533.835 71.5767C532.356 127.663 513.873 175.894 482.861 209.74C451.866 243.569 408.285 263.109 356.397 261.741Z" stroke="url(#paint3_linear)" stroke-width="3"/>
</g>
</g>
<defs>
<filter id="filter0_d" x="58.9727" y="-213.052" width="569.432" height="575.254" filterUnits="userSpaceOnUse" color-interpolation-filters="sRGB">
<feFlood flood-opacity="0" result="BackgroundImageFix"/>
<feColorMatrix in="SourceAlpha" type="matrix" values="0 0 0 0 0 0 0 0 0 0 0 0 0 0 0 0 0 0 127 0"/>
<feOffset/>
<feGaussianBlur stdDeviation="9.5"/>
<feColorMatrix type="matrix" values="0 0 0 0 0.561579 0 0 0 0 0.371528 0 0 0 0 0.891667 0 0 0 1 0"/>
<feBlend mode="normal" in2="BackgroundImageFix" result="effect1_dropShadow"/>
<feBlend mode="normal" in="SourceGraphic" in2="effect1_dropShadow" result="shape"/>
</filter>
<filter id="filter1_d" x="77.707" y="-206.553" width="530.738" height="550.924" filterUnits="userSpaceOnUse" color-interpolation-filters="sRGB">
<feFlood flood-opacity="0" result="BackgroundImageFix"/>
<feColorMatrix in="SourceAlpha" type="matrix" values="0 0 0 0 0 0 0 0 0 0 0 0 0 0 0 0 0 0 127 0"/>
<feOffset/>
<feGaussianBlur stdDeviation="9.5"/>
<feColorMatrix type="matrix" values="0 0 0 0 0.561579 0 0 0 0 0.371528 0 0 0 0 0.891667 0 0 0 1 0"/>
<feBlend mode="normal" in2="BackgroundImageFix" result="effect1_dropShadow"/>
<feBlend mode="normal" in="SourceGraphic" in2="effect1_dropShadow" result="shape"/>
</filter>
<filter id="filter2_d" x="47.3984" y="-235.7" width="604.223" height="581.345" filterUnits="userSpaceOnUse" color-interpolation-filters="sRGB">
<feFlood flood-opacity="0" result="BackgroundImageFix"/>
<feColorMatrix in="SourceAlpha" type="matrix" values="0 0 0 0 0 0 0 0 0 0 0 0 0 0 0 0 0 0 127 0"/>
<feOffset/>
<feGaussianBlur stdDeviation="9.5"/>
<feColorMatrix type="matrix" values="0 0 0 0 0.561579 0 0 0 0 0.371528 0 0 0 0 0.891667 0 0 0 1 0"/>
<feBlend mode="normal" in2="BackgroundImageFix" result="effect1_dropShadow"/>
<feBlend mode="normal" in="SourceGraphic" in2="effect1_dropShadow" result="shape"/>
</filter>
<filter id="filter3_d" x="133.077" y="-181.084" width="427.157" height="467.908" filterUnits="userSpaceOnUse" color-interpolation-filters="sRGB">
<feFlood flood-opacity="0" result="BackgroundImageFix"/>
<feColorMatrix in="SourceAlpha" type="matrix" values="0 0 0 0 0 0 0 0 0 0 0 0 0 0 0 0 0 0 127 0"/>
<feOffset/>
<feGaussianBlur stdDeviation="9.5"/>
<feColorMatrix type="matrix" values="0 0 0 0 0.561579 0 0 0 0 0.371528 0 0 0 0 0.891667 0 0 0 1 0"/>
<feBlend mode="normal" in2="BackgroundImageFix" result="effect1_dropShadow"/>
<feBlend mode="normal" in="SourceGraphic" in2="effect1_dropShadow" result="shape"/>
</filter>
<linearGradient id="paint0_linear" x1="77.9727" y1="175.479" x2="581.662" y2="-80.8462" gradientUnits="userSpaceOnUse">
<stop offset="0.395833" stop-color="#4AE7B6"/>
<stop offset="1" stop-color="#8038ED"/>
</linearGradient>
<linearGradient id="paint1_linear" x1="96.707" y1="174.002" x2="583.171" y2="-49.8191" gradientUnits="userSpaceOnUse">
<stop offset="0.395833" stop-color="#4AE7B6"/>
<stop offset="1" stop-color="#8038ED"/>
</linearGradient>
<linearGradient id="paint2_linear" x1="66.3984" y1="139.798" x2="558.14" y2="-154.362" gradientUnits="userSpaceOnUse">
<stop offset="0.395833" stop-color="#4AE7B6"/>
<stop offset="1" stop-color="#8038ED"/>
</linearGradient>
<linearGradient id="paint3_linear" x1="541.234" y1="-152.113" x2="166.362" y2="270.523" gradientUnits="userSpaceOnUse">
<stop offset="0.395833" stop-color="#4AE7B6"/>
<stop offset="1" stop-color="#8038ED"/>
</linearGradient>
</defs>
</svg>
