<svg width="245" height="231" viewBox="0 0 245 231" fill="none" xmlns="http://www.w3.org/2000/svg">
<g opacity="0.15">
<path opacity="0.5" d="M213.531 431.412C113.234 428.865 20.0213 356.013 22.8595 252.358C24.2836 200.351 45.0702 147.583 78.0298 108.153C110.988 68.7243 156.001 42.7562 205.861 44.0227C255.771 45.2904 301.141 71.9517 333.713 111.402C366.286 150.853 385.958 202.98 384.535 254.945C383.11 306.987 365.305 351.738 335.428 383.144C305.564 414.537 263.56 432.683 213.531 431.412Z" stroke="#1C0F52" stroke-width="3"/>
<path opacity="0.5" d="M199.561 406.718C99.2637 404.17 6.05064 331.318 8.88884 227.663C10.3129 175.656 31.0995 122.889 64.0591 83.4587C97.0173 44.03 142.03 18.0619 191.891 19.3284C241.8 20.5961 287.17 47.2574 319.743 86.7077C352.315 126.158 371.988 178.286 370.565 230.251C369.14 282.293 351.335 327.043 321.458 358.449C291.593 389.842 249.589 407.989 199.561 406.718Z" stroke="#1C0F52" stroke-width="3"/>
<path opacity="0.5" d="M165.42 33.8687C264.276 17.3726 370.544 71.1469 388.923 173.319C398.145 224.582 388.536 280.257 364.27 325.16C340.004 370.061 301.172 404.045 252.028 412.246C202.836 420.455 152.909 402.907 112.919 370.396C72.9284 337.884 42.997 290.499 33.783 239.278C24.5554 187.981 32.8772 140.731 55.7594 104.279C78.6317 67.8432 116.111 42.0971 165.42 33.8687Z" stroke="#1C0F52" stroke-width="3"/>
</g>
</svg>
