<svg id="Layer_1" data-name="Layer 1" xmlns="http://www.w3.org/2000/svg" xmlns:xlink="http://www.w3.org/1999/xlink" viewBox="0 0 489 351"><defs><style>.cls-1{fill:#f0f3f4;}.cls-2{mask:url(#mask);}.cls-3{opacity:0.15;}.cls-4{fill:none;stroke:#1c0f52;stroke-width:3px;opacity:0.5;isolation:isolate;}</style><mask id="mask" x="0" y="0" width="612.02" height="555.3" maskUnits="userSpaceOnUse"><g id="mask0"><rect class="cls-1" width="489" height="351" rx="40"/></g></mask></defs><g class="cls-2"><g class="cls-3"><path class="cls-4" d="M397.26,553.72C277.77,550.57,166.55,460.44,169.93,332c1.7-64.39,26.49-129.72,65.78-178.52s93-81,152.43-79.4,113.61,34.58,152.44,83.41,62.3,113.37,60.6,177.72S578.25,455.06,542.61,494,456.89,555.3,397.26,553.72Z"/><path class="cls-4" d="M380.62,523.2C261.14,520,149.91,429.91,153.3,301.46c1.7-64.39,26.48-129.72,65.78-178.52s93-81,152.43-79.4S485.11,78.12,523.94,127s62.3,113.37,60.6,177.72S561.61,424.53,526,463.43,440.25,524.77,380.62,523.2Z"/><path class="cls-4" d="M339.92,61.53c117.77-20.41,244.55,46.09,266.48,172.7,11,63.47-.46,132.39-29.39,188S501.77,519.87,443.17,530,325,518.46,277.3,478.21s-83.37-98.9-94.36-162.33-1.08-122,26.22-167.17S281.14,71.71,339.92,61.53Z"/></g></g></svg>