<svg width="720" height="688" viewBox="0 0 720 688" fill="none" xmlns="http://www.w3.org/2000/svg">
<mask id="mask0" mask-type="alpha" maskUnits="userSpaceOnUse" x="0" y="0" width="720" height="688">
<rect width="720" height="688" rx="40" fill="#F0F3F4"/>
</mask>
<g mask="url(#mask0)">
<path opacity="0.05" d="M913.023 345.907C961.943 550.263 859.369 779.949 639.863 832.495C529.724 858.861 407.509 846.432 306.764 801.863C206.015 757.293 127.134 680.786 102.828 579.251C78.4953 477.603 109.926 370.812 175.226 282.676C240.521 194.546 339.469 125.386 449.517 99.0423C559.736 72.6576 663.467 83.5611 745.65 126.388C827.785 169.189 888.624 243.983 913.023 345.907Z" stroke="#1C0F52" stroke-width="7"/>
<path opacity="0.05" d="M868.648 388.1C917.568 592.456 814.994 822.142 595.488 874.688C485.349 901.054 363.134 888.625 262.389 844.057C161.64 799.486 82.7589 722.979 58.4532 621.445C34.1203 519.796 65.5513 413.006 130.851 324.87C196.146 236.739 295.094 167.579 405.142 141.236C515.361 114.851 619.092 125.754 701.275 168.581C783.41 211.382 844.249 286.177 868.648 388.1Z" stroke="#1C0F52" stroke-width="7"/>
<path opacity="0.05" d="M96.4771 658.804C8.33018 468.056 63.7385 222.685 268.627 128.004C371.432 80.4961 493.704 68.6511 601.246 92.5401C708.793 116.43 801.177 175.933 844.973 270.706C888.818 365.586 878.999 476.472 832.304 575.727C785.612 674.976 702.195 762.242 599.476 809.71C496.597 857.252 392.747 866.958 303.747 841.127C214.799 815.312 140.441 753.94 96.4771 658.804Z" stroke="#1C0F52" stroke-width="7"/>
</g>
</svg>
