<svg width="1680" height="410" viewBox="0 0 1680 410" fill="none" xmlns="http://www.w3.org/2000/svg">
<rect width="1680" height="410" fill="#F0F3F4"/>
<mask id="mask0" mask-type="alpha" maskUnits="userSpaceOnUse" x="0" y="0" width="1680" height="410">
<rect width="1680" height="410" fill="#F0F3F4"/>
</mask>
<g mask="url(#mask0)">
<path opacity="0.05" d="M339.746 252.566C378.566 414.732 297.151 596.871 123.118 638.532C35.7155 659.455 -61.2832 649.591 -141.233 614.222C-221.188 578.85 -283.696 518.177 -302.952 437.737C-322.235 357.184 -297.338 272.5 -245.519 202.558C-193.703 132.622 -115.182 77.7435 -27.8702 56.8425C59.6123 35.9006 141.896 44.5661 207.053 78.5202C272.162 112.449 320.397 171.737 339.746 252.566Z" stroke="#1C0F52" stroke-width="7"/>
<path opacity="0.05" d="M304.469 286.146C343.289 448.312 261.874 630.451 87.8411 672.112C0.43813 693.035 -96.5605 683.171 -176.511 647.802C-256.466 612.43 -318.974 551.757 -338.23 471.317C-357.513 390.764 -332.615 306.08 -280.796 236.139C-228.98 166.202 -150.459 111.324 -63.1476 90.4226C24.3349 69.4807 106.618 78.1461 171.776 112.1C236.885 146.029 285.12 205.317 304.469 286.146Z" stroke="#1C0F52" stroke-width="7"/>
<path opacity="0.05" d="M-308.05 500.883C-377.999 349.516 -333.987 154.924 -171.543 79.8568C-89.9608 42.1563 7.08374 32.7547 92.4278 51.7129C177.777 70.6721 250.995 117.87 285.692 192.953C320.438 268.142 312.677 356.068 275.622 434.834C238.57 513.594 172.372 582.84 90.8751 620.501C9.21827 658.236 -73.1626 665.919 -143.724 645.44C-214.234 624.976 -273.185 576.33 -308.05 500.883Z" stroke="#1C0F52" stroke-width="7"/>
</g>
</svg>
