<svg width="366" height="268" viewBox="0 0 366 268" fill="none" xmlns="http://www.w3.org/2000/svg">
<g opacity="0.08">
<path opacity="0.5" d="M146.77 213.802C94.1655 148.423 91.9083 48.0094 162.116 -8.48035C197.353 -36.832 243.584 -53.2499 287.563 -54.3968C331.544 -55.5438 373.081 -41.4254 399.205 -8.95689C425.361 23.5507 432.285 67.4532 423.794 110.427C415.304 153.398 391.425 195.278 356.219 223.605C320.955 251.978 281.661 265.781 244.688 264.382C207.739 262.984 173.002 246.405 146.77 213.802Z" stroke="#1C0F52" stroke-width="3"/>
<path opacity="0.5" d="M155.569 190.977C102.964 125.598 100.707 25.1842 170.915 -31.3056C206.152 -59.6572 252.383 -76.0751 296.362 -77.222C340.343 -78.369 381.879 -64.2506 408.004 -31.7821C434.16 0.725495 441.083 44.628 432.593 87.6018C424.102 130.573 400.223 172.453 365.018 200.779C329.754 229.153 290.459 242.956 253.487 241.557C216.538 240.159 181.8 223.579 155.569 190.977Z" stroke="#1C0F52" stroke-width="3"/>
<path opacity="0.5" d="M384.037 -40.4763C448.47 13.2826 470.427 111.293 412.698 180.484C383.724 215.211 341.623 240.399 298.729 250.171C255.832 259.944 212.33 254.268 180.331 227.57C148.294 200.841 132.873 159.156 132.748 115.352C132.623 71.5505 147.801 25.7927 176.749 -8.90319C205.746 -43.6569 241.559 -64.9165 278.085 -70.8151C314.588 -76.71 351.907 -67.2841 384.037 -40.4763Z" stroke="#1C0F52" stroke-width="3"/>
</g>
</svg>
