<svg id="Layer_1" data-name="Layer 1" xmlns="http://www.w3.org/2000/svg" xmlns:xlink="http://www.w3.org/1999/xlink" viewBox="0 0 1495.97 605.61"><defs><style>.cls-1,.cls-9{fill:#9c65e5;}.cls-10,.cls-2{fill:#087856;}.cls-3{fill:url(#linear-gradient);}.cls-4{fill:#3ed9a9;}.cls-5,.cls-8{fill:#1c0f52;}.cls-10,.cls-6,.cls-7,.cls-8,.cls-9{fill-rule:evenodd;}.cls-6{fill:url(#linear-gradient-2);}.cls-7{fill:#0ad899;}.cls-11{fill:#fff;}.cls-12{fill:#f0f3f4;}</style><linearGradient id="linear-gradient" x1="722.55" y1="18.37" x2="749.6" y2="-41.19" gradientTransform="matrix(1, 0, 0, -1, 0, 564.9)" gradientUnits="userSpaceOnUse"><stop offset="0" stop-color="#3dd8a8"/><stop offset="1" stop-color="#227182"/></linearGradient><linearGradient id="linear-gradient-2" x1="701.76" y1="122.61" x2="805.83" y2="166.05" xlink:href="#linear-gradient"/></defs><path class="cls-1" d="M313.47,393.89h9.9V365.75l-9.9,7v-7.44l10.14-7.2h7v35.76h8.1v6.24h-25.2Zm44.11,6.9a16.13,16.13,0,0,1-9.06-2.34q-3.54-2.4-4.44-7.62h7.2a4.72,4.72,0,0,0,2.22,2.76,8.59,8.59,0,0,0,4.08.84,10.62,10.62,0,0,0,3.6-.6,7.1,7.1,0,0,0,2.94-2.22,11.47,11.47,0,0,0,2.1-4.2,26.27,26.27,0,0,0,.84-6.78,8.31,8.31,0,0,1-2,2.28,10.91,10.91,0,0,1-2.58,1.5,17.08,17.08,0,0,1-2.88.84,18.59,18.59,0,0,1-2.94.24q-6.36,0-10-3.48t-3.54-9.9v-.6a14.62,14.62,0,0,1,1.08-5.7,13.51,13.51,0,0,1,3.12-4.44,14,14,0,0,1,4.68-2.88,16.33,16.33,0,0,1,5.82-1,18.49,18.49,0,0,1,6.72,1.14,12.25,12.25,0,0,1,5,3.54,15.77,15.77,0,0,1,3.12,6.06,31.85,31.85,0,0,1,1.08,8.82v1.2a37.66,37.66,0,0,1-1.26,10.44,19.57,19.57,0,0,1-3.48,7,13.1,13.1,0,0,1-5.1,4A16.67,16.67,0,0,1,357.58,400.79Zm.78-21.06a7.91,7.91,0,0,0,5.76-2.1,7.37,7.37,0,0,0,2.22-5.52v-.6a7.44,7.44,0,0,0-.6-3,7.08,7.08,0,0,0-1.68-2.46,6.37,6.37,0,0,0-2.52-1.62,8.19,8.19,0,0,0-3.18-.6,8,8,0,0,0-5.82,2.16,7.35,7.35,0,0,0-2.16,5.52v.6a7.48,7.48,0,0,0,2.16,5.52A8.12,8.12,0,0,0,358.36,379.73Zm54.73-21.6h7.2l-28.8,42h-7.2ZM388.49,378a11.21,11.21,0,0,1-4.08-.72,9.18,9.18,0,0,1-3.12-2,9.66,9.66,0,0,1-2-3.12,11.21,11.21,0,0,1-.72-4.08v-.6a10.74,10.74,0,0,1,.72-4,9.52,9.52,0,0,1,2-3.18,9.18,9.18,0,0,1,3.12-2,11.21,11.21,0,0,1,4.08-.72,10.74,10.74,0,0,1,4,.72,9.18,9.18,0,0,1,3.12,2,9.06,9.06,0,0,1,2,3.18,10.74,10.74,0,0,1,.72,4v.6a11.21,11.21,0,0,1-.72,4.08,9.1,9.1,0,0,1-5.16,5.16A10.74,10.74,0,0,1,388.49,378Zm0-5.4a3.28,3.28,0,0,0,2.58-1.08,5.17,5.17,0,0,0,1-3.48v-.6a5.17,5.17,0,0,0-1-3.48,3.62,3.62,0,0,0-5.16,0,5.17,5.17,0,0,0-1,3.48v.6a5.17,5.17,0,0,0,1,3.48A3.28,3.28,0,0,0,388.49,372.59Zm27.6,28.14A11.21,11.21,0,0,1,412,400a9.18,9.18,0,0,1-3.12-2,9.66,9.66,0,0,1-2-3.12,11.21,11.21,0,0,1-.72-4.08v-.6a10.74,10.74,0,0,1,.72-4,9.52,9.52,0,0,1,2-3.18,9.18,9.18,0,0,1,3.12-2,11.21,11.21,0,0,1,4.08-.72,10.74,10.74,0,0,1,4,.72,9.18,9.18,0,0,1,3.12,2,9.06,9.06,0,0,1,2,3.18,10.74,10.74,0,0,1,.72,4v.6a11.21,11.21,0,0,1-.72,4.08,9.1,9.1,0,0,1-5.16,5.16A10.74,10.74,0,0,1,416.09,400.73Zm0-5.4a3.28,3.28,0,0,0,2.58-1.08,5.17,5.17,0,0,0,1-3.48v-.6a5.17,5.17,0,0,0-1-3.48,3.62,3.62,0,0,0-5.16,0,5.17,5.17,0,0,0-1,3.48v.6a5.17,5.17,0,0,0,1,3.48A3.28,3.28,0,0,0,416.09,395.33Z"/><path class="cls-2" d="M300.57,64.81l15.66-13.56q1.92-1.68,3.24-3a19.51,19.51,0,0,0,2.22-2.46A7.93,7.93,0,0,0,323,43.45a7.43,7.43,0,0,0-1.44-7.38,6.57,6.57,0,0,0-5-1.92,8.24,8.24,0,0,0-6,2.1q-2.1,2-2.1,6.3h-7.2a16,16,0,0,1,1.08-6,13,13,0,0,1,3.06-4.68,12.87,12.87,0,0,1,4.8-3,17.67,17.67,0,0,1,6.36-1.08,16.73,16.73,0,0,1,6.06,1,11.4,11.4,0,0,1,4.38,2.76,11,11,0,0,1,2.7,4.2,14.09,14.09,0,0,1,1,5.28,11.52,11.52,0,0,1-.72,4.08,14,14,0,0,1-1.92,3.66A22.7,22.7,0,0,1,325,52.21a43.58,43.58,0,0,1-3.72,3.3l-10.68,8.7h20.58v6.24h-30.6Zm50.69,6.3a16.13,16.13,0,0,1-9.06-2.34q-3.54-2.4-4.44-7.62H345a4.72,4.72,0,0,0,2.22,2.76,8.59,8.59,0,0,0,4.08.84,10.62,10.62,0,0,0,3.6-.6,7.1,7.1,0,0,0,2.94-2.22,11.47,11.47,0,0,0,2.1-4.2,26.27,26.27,0,0,0,.84-6.78,8.31,8.31,0,0,1-2,2.28,10.91,10.91,0,0,1-2.58,1.5,17.08,17.08,0,0,1-2.88.84,18.59,18.59,0,0,1-2.94.24q-6.36,0-10-3.48t-3.54-9.9v-.6a14.62,14.62,0,0,1,1.08-5.7,13.51,13.51,0,0,1,3.12-4.44,14,14,0,0,1,4.68-2.88,16.33,16.33,0,0,1,5.82-1,18.49,18.49,0,0,1,6.72,1.14,12.25,12.25,0,0,1,5,3.54,15.77,15.77,0,0,1,3.12,6.06,31.85,31.85,0,0,1,1.08,8.82v1.2A37.66,37.66,0,0,1,366.2,59a19.57,19.57,0,0,1-3.48,7,13.1,13.1,0,0,1-5.1,4A16.67,16.67,0,0,1,351.26,71.11ZM352,50.05A7.91,7.91,0,0,0,357.8,48,7.37,7.37,0,0,0,360,42.43v-.6a7.44,7.44,0,0,0-.6-3,7.08,7.08,0,0,0-1.68-2.46,6.37,6.37,0,0,0-2.52-1.62,8.19,8.19,0,0,0-3.18-.6,8,8,0,0,0-5.82,2.16,7.35,7.35,0,0,0-2.16,5.52v.6A7.48,7.48,0,0,0,346.22,48,8.12,8.12,0,0,0,352,50.05Zm54.73-21.6H414l-28.8,42H378Zm-24.6,19.86a11.21,11.21,0,0,1-4.08-.72,9.18,9.18,0,0,1-3.12-2,9.66,9.66,0,0,1-2-3.12,11.21,11.21,0,0,1-.72-4.08v-.6a10.74,10.74,0,0,1,.72-4,9.52,9.52,0,0,1,2-3.18,9.18,9.18,0,0,1,3.12-2,11.21,11.21,0,0,1,4.08-.72,10.74,10.74,0,0,1,4,.72,9.18,9.18,0,0,1,3.12,2,9.06,9.06,0,0,1,2,3.18,10.74,10.74,0,0,1,.72,4v.6a11.21,11.21,0,0,1-.72,4.08,9.1,9.1,0,0,1-5.16,5.16A10.74,10.74,0,0,1,382.17,48.31Zm0-5.4a3.28,3.28,0,0,0,2.58-1.08,5.17,5.17,0,0,0,1-3.48v-.6a5.17,5.17,0,0,0-1-3.48,3.62,3.62,0,0,0-5.16,0,5.17,5.17,0,0,0-1,3.48v.6a5.17,5.17,0,0,0,1,3.48A3.28,3.28,0,0,0,382.17,42.91Zm27.6,28.14a11.21,11.21,0,0,1-4.08-.72,9.18,9.18,0,0,1-3.12-2,9.66,9.66,0,0,1-2-3.12,11.21,11.21,0,0,1-.72-4.08v-.6a10.74,10.74,0,0,1,.72-4,9.52,9.52,0,0,1,2-3.18,9.18,9.18,0,0,1,3.12-2,11.21,11.21,0,0,1,4.08-.72,10.74,10.74,0,0,1,4,.72,9.18,9.18,0,0,1,3.12,2,9.06,9.06,0,0,1,2,3.18,10.74,10.74,0,0,1,.72,4v.6a11.21,11.21,0,0,1-.72,4.08,9.1,9.1,0,0,1-5.16,5.16A10.74,10.74,0,0,1,409.77,71.05Zm0-5.4a3.28,3.28,0,0,0,2.58-1.08,5.17,5.17,0,0,0,1-3.48v-.6a5.17,5.17,0,0,0-1-3.48,3.62,3.62,0,0,0-5.16,0,5.17,5.17,0,0,0-1,3.48v.6a5.17,5.17,0,0,0,1,3.48A3.28,3.28,0,0,0,409.77,65.65Z"/><path class="cls-3" d="M712.87,605.11a16.13,16.13,0,0,1-9.06-2.34q-3.54-2.4-4.44-7.62h7.2a4.72,4.72,0,0,0,2.22,2.76,8.59,8.59,0,0,0,4.08.84,10.62,10.62,0,0,0,3.6-.6,7.1,7.1,0,0,0,2.94-2.22,11.47,11.47,0,0,0,2.1-4.2,26.27,26.27,0,0,0,.84-6.78,8.31,8.31,0,0,1-2,2.28,10.91,10.91,0,0,1-2.58,1.5,17.08,17.08,0,0,1-2.88.84,18.59,18.59,0,0,1-2.94.24q-6.36,0-10-3.48t-3.54-9.9v-.6a14.62,14.62,0,0,1,1.08-5.7,13.51,13.51,0,0,1,3.12-4.44,14,14,0,0,1,4.68-2.88,16.33,16.33,0,0,1,5.82-1,18.49,18.49,0,0,1,6.72,1.14,12.25,12.25,0,0,1,5,3.54,15.77,15.77,0,0,1,3.12,6.06,31.85,31.85,0,0,1,1.08,8.82v1.2A37.66,37.66,0,0,1,727.81,593a19.57,19.57,0,0,1-3.48,7,13.1,13.1,0,0,1-5.1,4A16.67,16.67,0,0,1,712.87,605.11Zm.78-21.06a7.91,7.91,0,0,0,5.76-2.1,7.37,7.37,0,0,0,2.22-5.52v-.6a7.44,7.44,0,0,0-.6-3,7.08,7.08,0,0,0-1.68-2.46,6.37,6.37,0,0,0-2.52-1.62,8.19,8.19,0,0,0-3.18-.6,8,8,0,0,0-5.82,2.16,7.35,7.35,0,0,0-2.16,5.52v.6a7.48,7.48,0,0,0,2.16,5.52A8.12,8.12,0,0,0,713.65,584.05Zm54.73-21.6h7.2l-28.8,42h-7.2Zm-24.6,19.86a11.21,11.21,0,0,1-4.08-.72,9.18,9.18,0,0,1-3.12-2,9.66,9.66,0,0,1-2-3.12,11.21,11.21,0,0,1-.72-4.08v-.6a10.74,10.74,0,0,1,.72-4,9.52,9.52,0,0,1,2-3.18,9.18,9.18,0,0,1,3.12-2,11.21,11.21,0,0,1,4.08-.72,10.74,10.74,0,0,1,4,.72,9.18,9.18,0,0,1,3.12,2,9.06,9.06,0,0,1,2,3.18,10.74,10.74,0,0,1,.72,4v.6a11.21,11.21,0,0,1-.72,4.08,9.1,9.1,0,0,1-5.16,5.16A10.74,10.74,0,0,1,743.78,582.31Zm0-5.4a3.28,3.28,0,0,0,2.58-1.08,5.17,5.17,0,0,0,1-3.48v-.6a5.17,5.17,0,0,0-1-3.48,3.62,3.62,0,0,0-5.16,0,5.17,5.17,0,0,0-1,3.48v.6a5.17,5.17,0,0,0,1,3.48A3.28,3.28,0,0,0,743.78,576.91Zm27.6,28.14a11.21,11.21,0,0,1-4.08-.72,9.18,9.18,0,0,1-3.12-2,9.66,9.66,0,0,1-2-3.12,11.21,11.21,0,0,1-.72-4.08v-.6a10.74,10.74,0,0,1,.72-4,9.52,9.52,0,0,1,2-3.18,9.18,9.18,0,0,1,3.12-2,11.21,11.21,0,0,1,4.08-.72,10.74,10.74,0,0,1,4,.72,9.18,9.18,0,0,1,3.12,2,9.06,9.06,0,0,1,2,3.18,10.74,10.74,0,0,1,.72,4v.6a11.21,11.21,0,0,1-.72,4.08,9.1,9.1,0,0,1-5.16,5.16A10.74,10.74,0,0,1,771.38,605.05Zm0-5.4a3.28,3.28,0,0,0,2.58-1.08,5.17,5.17,0,0,0,1-3.48v-.6a5.17,5.17,0,0,0-1-3.48,3.62,3.62,0,0,0-5.16,0,5.17,5.17,0,0,0-1,3.48v.6a5.17,5.17,0,0,0,1,3.48A3.28,3.28,0,0,0,771.38,599.65Z"/><path class="cls-4" d="M1020.47,427.8h9.9V399.66l-9.9,7v-7.44l10.14-7.2h7V427.8h8.1V434h-25.2Zm48.61-3.24h-20.7v-5.34l20.4-27.18h7.5v26.28h5.1v6.24h-5.1V434h-7.2Zm0-6.24v-18l-13.5,18Zm51-26.28h7.2l-28.8,42h-7.2Zm-24.6,19.86a11.21,11.21,0,0,1-4.08-.72,9.18,9.18,0,0,1-3.12-2,9.66,9.66,0,0,1-2-3.12,11.21,11.21,0,0,1-.72-4.08v-.6a10.74,10.74,0,0,1,.72-4,9.52,9.52,0,0,1,2-3.18,9.18,9.18,0,0,1,3.12-2,11.21,11.21,0,0,1,4.08-.72,10.74,10.74,0,0,1,4,.72,9.18,9.18,0,0,1,3.12,2,9.06,9.06,0,0,1,2,3.18,10.74,10.74,0,0,1,.72,4v.6a11.21,11.21,0,0,1-.72,4.08,9.1,9.1,0,0,1-5.16,5.16A10.74,10.74,0,0,1,1095.49,411.9Zm0-5.4a3.28,3.28,0,0,0,2.58-1.08,5.17,5.17,0,0,0,1-3.48v-.6a5.17,5.17,0,0,0-1-3.48,3.62,3.62,0,0,0-5.16,0,5.17,5.17,0,0,0-1,3.48v.6a5.17,5.17,0,0,0,1,3.48A3.28,3.28,0,0,0,1095.49,406.5Zm27.6,28.14a11.21,11.21,0,0,1-4.08-.72,9.18,9.18,0,0,1-3.12-2,9.66,9.66,0,0,1-2-3.12,11.21,11.21,0,0,1-.72-4.08v-.6a10.74,10.74,0,0,1,.72-4,9.52,9.52,0,0,1,2-3.18,9.18,9.18,0,0,1,3.12-2,11.21,11.21,0,0,1,4.08-.72,10.74,10.74,0,0,1,4,.72,9.18,9.18,0,0,1,3.12,2,9.06,9.06,0,0,1,2,3.18,10.74,10.74,0,0,1,.72,4v.6a11.21,11.21,0,0,1-.72,4.08,9.1,9.1,0,0,1-5.16,5.16A10.74,10.74,0,0,1,1123.09,434.64Zm0-5.4a3.28,3.28,0,0,0,2.58-1.08,5.17,5.17,0,0,0,1-3.48v-.6a5.17,5.17,0,0,0-1-3.48,3.62,3.62,0,0,0-5.16,0,5.17,5.17,0,0,0-1,3.48v.6a5.17,5.17,0,0,0,1,3.48A3.28,3.28,0,0,0,1123.09,429.24Z"/><path d="M304.21,10.8a6.34,6.34,0,0,1-2.07-.32,4.34,4.34,0,0,1-1.54-.94,4.27,4.27,0,0,1-1-1.45,5.21,5.21,0,0,1-.33-1.89V5.9a4.42,4.42,0,0,1,.33-1.71,3.83,3.83,0,0,1,1-1.36,4.59,4.59,0,0,1,1.54-.91,6.08,6.08,0,0,1,2.07-.32V.5h1.41V1.6a6.08,6.08,0,0,1,2.07.32,4.64,4.64,0,0,1,1.55.91,3.66,3.66,0,0,1,1,1.36,4.25,4.25,0,0,1,.34,1.71v.3a5,5,0,0,1-.34,1.89,4.09,4.09,0,0,1-1,1.45,4.38,4.38,0,0,1-1.55.94,6.34,6.34,0,0,1-2.07.32v1.1h-1.41ZM309,5.9a3.16,3.16,0,0,0-.22-1.2,2.66,2.66,0,0,0-.66-1,2.77,2.77,0,0,0-1.08-.64,4.09,4.09,0,0,0-1.46-.25V9.54a4.11,4.11,0,0,0,1.46-.23,3,3,0,0,0,1.08-.68,2.84,2.84,0,0,0,.66-1.05A4,4,0,0,0,309,6.2Zm-8.25.3A4,4,0,0,0,301,7.58a2.84,2.84,0,0,0,.66,1.05,3,3,0,0,0,1.06.68,4.2,4.2,0,0,0,1.47.23V2.85a4.19,4.19,0,0,0-1.47.25,2.77,2.77,0,0,0-1.06.64,2.66,2.66,0,0,0-.66,1,3.17,3.17,0,0,0-.23,1.2Zm11.78-2.7h1.32v6l4.11-6h1.32v8H318v-6l-4.11,6h-1.32Zm9.16,0h1.32V6.81h4.11V3.5h1.32v8h-1.32V8h-4.11v3.46h-1.32Zm11.42,8.1a3.51,3.51,0,0,1-1.17-.18,2.54,2.54,0,0,1-.84-.52,2.24,2.24,0,0,1-.53-.79,2.59,2.59,0,0,1-.18-1,2,2,0,0,1,.69-1.71,3.25,3.25,0,0,1,2-.53h2.58V6.35a1.77,1.77,0,0,0-.46-1.41,2.05,2.05,0,0,0-1.37-.39,1.9,1.9,0,0,0-1.24.33,1.08,1.08,0,0,0-.44.72h-1.32a2,2,0,0,1,.26-.88,2.45,2.45,0,0,1,.63-.73,3.06,3.06,0,0,1,1-.46A4,4,0,0,1,334,3.35a3.41,3.41,0,0,1,2.23.68A2.59,2.59,0,0,1,337,6.2v4.33c0,.31,0,.62.08.92H336c0-.23-.05-.44-.06-.65s0-.44,0-.7a2.65,2.65,0,0,1-1,1.06A3.2,3.2,0,0,1,333.15,11.6Zm.28-1.2a3,3,0,0,0,.87-.12A2.46,2.46,0,0,0,335,9.9a1.72,1.72,0,0,0,.49-.61,1.86,1.86,0,0,0,.18-.84V7.91h-2.35a2,2,0,0,0-1.16.3,1,1,0,0,0-.42.92,1.2,1.2,0,0,0,.39.91A1.86,1.86,0,0,0,333.43,10.4Zm5.94-6.9h1.32V6.81h4.11V3.5h1.32v8H344.8V8h-4.11v3.46h-1.32Zm12.23,8.1a4.17,4.17,0,0,1-1.43-.24,3.15,3.15,0,0,1-1.14-.75,3.66,3.66,0,0,1-.76-1.28A5.29,5.29,0,0,1,348,7.55v-.3a4.4,4.4,0,0,1,.3-1.69,3.44,3.44,0,0,1,.79-1.22,3.16,3.16,0,0,1,1.14-.74,4,4,0,0,1,1.37-.25,4.07,4.07,0,0,1,1.26.19,2.94,2.94,0,0,1,1,.54,2.69,2.69,0,0,1,.68.82,3.36,3.36,0,0,1,.39,1h-1.35a2.59,2.59,0,0,0-.29-.52,1.38,1.38,0,0,0-.39-.44,1.74,1.74,0,0,0-.54-.29,2.3,2.3,0,0,0-.73-.1,2,2,0,0,0-.84.17,1.77,1.77,0,0,0-.72.47,2.34,2.34,0,0,0-.51.83,3.71,3.71,0,0,0-.18,1.23v.3a4.3,4.3,0,0,0,.18,1.32,2.63,2.63,0,0,0,.51.89,2.19,2.19,0,0,0,.72.49,2.4,2.4,0,0,0,.84.15,2,2,0,0,0,1.23-.36,1.92,1.92,0,0,0,.72-1h1.35a3.22,3.22,0,0,1-1.17,1.87A3.41,3.41,0,0,1,351.6,11.6Zm8.4,0a4.43,4.43,0,0,1-1.46-.24,3.52,3.52,0,0,1-1.21-.75,3.66,3.66,0,0,1-.84-1.28,4.6,4.6,0,0,1-.32-1.78v-.3a4.21,4.21,0,0,1,.32-1.69,3.4,3.4,0,0,1,.84-1.22,3.35,3.35,0,0,1,1.21-.74A4.43,4.43,0,0,1,360,3.35a4.37,4.37,0,0,1,1.45.25,3.47,3.47,0,0,1,2.06,2,4.21,4.21,0,0,1,.31,1.69v.3a4.61,4.61,0,0,1-.31,1.78,3.66,3.66,0,0,1-.84,1.28,3.56,3.56,0,0,1-1.22.75A4.37,4.37,0,0,1,360,11.6Zm0-1.2a2.83,2.83,0,0,0,.9-.15,2.39,2.39,0,0,0,.79-.49,2.56,2.56,0,0,0,.56-.89,3.44,3.44,0,0,0,.22-1.32v-.3A3,3,0,0,0,362.25,6a2.43,2.43,0,0,0-.56-.84,2.08,2.08,0,0,0-.79-.48,2.78,2.78,0,0,0-1.8,0,2.11,2.11,0,0,0-.8.48,2.59,2.59,0,0,0-.57.84,3.23,3.23,0,0,0-.21,1.23v.3a3.65,3.65,0,0,0,.21,1.32,2.73,2.73,0,0,0,.57.89,2.43,2.43,0,0,0,.8.49A2.83,2.83,0,0,0,360,10.4Zm5.69-6.9h3.45a3.18,3.18,0,0,1,2.16.61A2,2,0,0,1,372,5.67a1.64,1.64,0,0,1-.09.53,1.87,1.87,0,0,1-.26.48,1.52,1.52,0,0,1-.37.39,1.84,1.84,0,0,1-.48.26A1.81,1.81,0,0,1,371.9,8a1.88,1.88,0,0,1,.39,1.18,2.11,2.11,0,0,1-.69,1.65,3.24,3.24,0,0,1-2.16.61h-3.75Zm3.75,6.78a1.8,1.8,0,0,0,1.18-.3,1.08,1.08,0,0,0,.35-.85,1.07,1.07,0,0,0-.35-.87,1.68,1.68,0,0,0-1.18-.32H367v2.34Zm-.3-3.42a1.76,1.76,0,0,0,1.18-.3,1,1,0,0,0,.35-.82,1,1,0,0,0-.35-.79,1.84,1.84,0,0,0-1.18-.28H367V6.86Zm5-3.36h1.32v3h1.61a3.13,3.13,0,0,1,2.2.66A2.36,2.36,0,0,1,380,9a2.32,2.32,0,0,1-.72,1.8,3.13,3.13,0,0,1-2.2.66h-2.93ZM377,10.28a2,2,0,0,0,1.31-.33,1.24,1.24,0,0,0,.37-1,1.22,1.22,0,0,0-.37-1A2,2,0,0,0,377,7.67h-1.53v2.61Zm4.23-6.78h1.32v8h-1.32Zm3.72,0h1.32v6l4.11-6h1.32v8H390.4v-6l-4.11,6H385Zm3.37-1a2.48,2.48,0,0,1-1.71-.5,1.91,1.91,0,0,1-.54-1.45h1.29q0,1,1,1a.89.89,0,0,0,1-1h1.26A1.91,1.91,0,0,1,390.05,2,2.48,2.48,0,0,1,388.34,2.53ZM401,11.6a4.17,4.17,0,0,1-1.43-.24,3.15,3.15,0,0,1-1.14-.75,3.66,3.66,0,0,1-.76-1.28,5.29,5.29,0,0,1-.27-1.78v-.3a4.4,4.4,0,0,1,.3-1.69,3.44,3.44,0,0,1,.79-1.22,3.16,3.16,0,0,1,1.14-.74A4,4,0,0,1,401,3.35a4.07,4.07,0,0,1,1.26.19,2.94,2.94,0,0,1,1,.54,2.69,2.69,0,0,1,.68.82,3.36,3.36,0,0,1,.39,1H402.9a2.59,2.59,0,0,0-.29-.52,1.38,1.38,0,0,0-.39-.44,1.74,1.74,0,0,0-.54-.29,2.3,2.3,0,0,0-.73-.1,2,2,0,0,0-.84.17,1.77,1.77,0,0,0-.72.47,2.34,2.34,0,0,0-.51.83,3.71,3.71,0,0,0-.18,1.23v.3a4.3,4.3,0,0,0,.18,1.32,2.63,2.63,0,0,0,.51.89,2.19,2.19,0,0,0,.72.49,2.4,2.4,0,0,0,.84.15,2,2,0,0,0,1.23-.36,1.92,1.92,0,0,0,.72-1h1.35a3.22,3.22,0,0,1-1.17,1.87A3.41,3.41,0,0,1,401,11.6Zm8.4,0a4.43,4.43,0,0,1-1.46-.24,3.35,3.35,0,0,1-1.21-.74,3.71,3.71,0,0,1-.84-1.27,4.71,4.71,0,0,1-.32-1.8v-.3a4.43,4.43,0,0,1,.3-1.71,3.5,3.5,0,0,1,.8-1.21,3.15,3.15,0,0,1,1.17-.74,4.18,4.18,0,0,1,1.41-.24,3.66,3.66,0,0,1,2.71,1,3.67,3.67,0,0,1,1,2.72v.83h-6a2.8,2.8,0,0,0,.23,1.19,2.21,2.21,0,0,0,.58.78,2.3,2.3,0,0,0,.8.43,3.13,3.13,0,0,0,.9.14,2.62,2.62,0,0,0,1.38-.3,1.65,1.65,0,0,0,.7-.82h1.29a2.64,2.64,0,0,1-.43,1,2.93,2.93,0,0,1-.75.74,3.71,3.71,0,0,1-1,.43A4.49,4.49,0,0,1,409.35,11.6Zm-.08-7a3,3,0,0,0-.9.14,1.93,1.93,0,0,0-.78.4,2.08,2.08,0,0,0-.54.69,2.23,2.23,0,0,0-.21,1h4.79a2.62,2.62,0,0,0-.21-1,1.71,1.71,0,0,0-.5-.69,1.92,1.92,0,0,0-.75-.39A3.26,3.26,0,0,0,409.27,4.55Zm5.48-1h1.32V6.83h1.05l3-3.33h1.56L418.2,7.31l3.6,4.14h-1.68l-3-3.48h-1.05v3.48h-1.32Zm10.44,1.17h-2.72V3.5h6.75V4.67h-2.71v6.78h-1.32Zm8.69,6.93a4.37,4.37,0,0,1-1.45-.24,3.56,3.56,0,0,1-1.22-.75,3.66,3.66,0,0,1-.84-1.28,4.61,4.61,0,0,1-.31-1.78v-.3a4.21,4.21,0,0,1,.31-1.69,3.47,3.47,0,0,1,2.06-2,4.37,4.37,0,0,1,1.45-.25,4.43,4.43,0,0,1,1.46.25,3.35,3.35,0,0,1,1.21.74,3.4,3.4,0,0,1,.84,1.22,4.21,4.21,0,0,1,.32,1.69v.3a4.6,4.6,0,0,1-.32,1.78,3.66,3.66,0,0,1-.84,1.28,3.52,3.52,0,0,1-1.21.75A4.43,4.43,0,0,1,433.88,11.6Zm0-1.2a2.83,2.83,0,0,0,.9-.15,2.43,2.43,0,0,0,.8-.49,2.54,2.54,0,0,0,.55-.89,3.43,3.43,0,0,0,.23-1.32v-.3A3,3,0,0,0,436.13,6a2.41,2.41,0,0,0-.55-.84,2.11,2.11,0,0,0-.8-.48,2.78,2.78,0,0,0-1.8,0,2.08,2.08,0,0,0-.79.48,2.59,2.59,0,0,0-.57.84,3.23,3.23,0,0,0-.21,1.23v.3a3.65,3.65,0,0,0,.21,1.32,2.73,2.73,0,0,0,.57.89,2.39,2.39,0,0,0,.79.49A2.83,2.83,0,0,0,433.88,10.4Zm5.7-6.9h1.23V5a2.88,2.88,0,0,1,1.12-1.22,3.28,3.28,0,0,1,1.7-.43,3.09,3.09,0,0,1,2.4,1,4.16,4.16,0,0,1,.9,2.91v.3a5.9,5.9,0,0,1-.24,1.78,3.53,3.53,0,0,1-.68,1.26,2.81,2.81,0,0,1-1.05.75,3.19,3.19,0,0,1-1.33.26,3.07,3.07,0,0,1-1.71-.45,3,3,0,0,1-1-1.12v4.42h-1.32Zm3.75,6.93a2.26,2.26,0,0,0,.9-.18,2,2,0,0,0,.72-.56,2.42,2.42,0,0,0,.48-.9,3.86,3.86,0,0,0,.18-1.24v-.3a3.43,3.43,0,0,0-.18-1.15,2.32,2.32,0,0,0-.48-.86,1.9,1.9,0,0,0-.72-.54,2.26,2.26,0,0,0-.9-.18,2.64,2.64,0,0,0-1,.18,2.1,2.1,0,0,0-.77.48,2.14,2.14,0,0,0-.49.72,2.26,2.26,0,0,0-.18.9V8a2.64,2.64,0,0,0,.18,1,2.36,2.36,0,0,0,.49.77,2.26,2.26,0,0,0,.77.49A2.64,2.64,0,0,0,443.33,10.43Z"/><path d="M701.34,524.6a6,6,0,0,1-1.5-.18,3.86,3.86,0,0,1-1.24-.6,3.41,3.41,0,0,1-.9-1,4.14,4.14,0,0,1-.48-1.5h1.5a2.33,2.33,0,0,0,.79,1.47,2.71,2.71,0,0,0,1.83.57,3,3,0,0,0,1-.16,2.37,2.37,0,0,0,.92-.59,3.36,3.36,0,0,0,.7-1.11,5.19,5.19,0,0,0,.33-1.75h-4.18v-1.2h4.18a5,5,0,0,0-.31-1.65,3,3,0,0,0-.66-1.08,2.29,2.29,0,0,0-.92-.57,3.21,3.21,0,0,0-1-.17,2.81,2.81,0,0,0-1.74.51,2.44,2.44,0,0,0-.88,1.53h-1.5a3.83,3.83,0,0,1,.42-1.39,3.41,3.41,0,0,1,.88-1,4,4,0,0,1,1.25-.64,5.22,5.22,0,0,1,1.57-.23,4.93,4.93,0,0,1,1.67.29,3.74,3.74,0,0,1,1.42.9,4.3,4.3,0,0,1,1,1.6,7,7,0,0,1,.36,2.39v.3a7.45,7.45,0,0,1-.36,2.47,4.61,4.61,0,0,1-1,1.65,3.67,3.67,0,0,1-1.42.92A4.92,4.92,0,0,1,701.34,524.6ZM708.16,514h1.41v4.52h1.2l4.11-4.52h1.68L712,519l4.74,5.49h-1.8l-4.14-4.81h-1.2v4.81h-1.41Zm14.11,6.6a8.32,8.32,0,0,1,.4-2.67,12.31,12.31,0,0,1,.93-2.08,10.55,10.55,0,0,1,1.34-1.85h1.53A10,10,0,0,0,725,515.8a10.63,10.63,0,0,0-.52,1,10.46,10.46,0,0,0-.47,1.12,9.59,9.59,0,0,0-.31,1.28,7.74,7.74,0,0,0-.12,1.39v.3a8,8,0,0,0,.12,1.41,9.59,9.59,0,0,0,.31,1.28,10.46,10.46,0,0,0,.47,1.12,10.63,10.63,0,0,0,.52,1,9,9,0,0,0,1.43,1.83h-1.59a9.28,9.28,0,0,1-1.31-1.83,11.68,11.68,0,0,1-.9-2.08,8.49,8.49,0,0,1-.4-2.69Zm5.54-4h1.32v3.32h4.11V516.5h1.32v8h-1.32V521h-4.11v3.46h-1.32Zm12.46,8.1a4.37,4.37,0,0,1-1.45-.24,3.37,3.37,0,0,1-1.22-.73,3.75,3.75,0,0,1-.84-1.28,4.71,4.71,0,0,1-.31-1.8v-.3a4.43,4.43,0,0,1,.3-1.71,3.48,3.48,0,0,1,.79-1.21,3.28,3.28,0,0,1,1.17-.74,4.18,4.18,0,0,1,1.41-.24A3.34,3.34,0,0,1,743.8,520v.84h-6a2.76,2.76,0,0,0,.22,1.18,2.24,2.24,0,0,0,.59.78,2.29,2.29,0,0,0,.79.44,3.11,3.11,0,0,0,.9.13,2.62,2.62,0,0,0,1.38-.3,1.67,1.67,0,0,0,.71-.82h1.29a2.59,2.59,0,0,1-.44,1,2.78,2.78,0,0,1-.75.74,3.36,3.36,0,0,1-1,.43A4.56,4.56,0,0,1,740.27,524.6Zm-.07-7.05a3,3,0,0,0-.9.14,2,2,0,0,0-1.32,1.09,2.25,2.25,0,0,0-.21,1h4.78a2.63,2.63,0,0,0-.21-1,1.7,1.7,0,0,0-.49-.69,1.92,1.92,0,0,0-.75-.39A3.26,3.26,0,0,0,740.2,517.55Zm9.16,7.05a4.34,4.34,0,0,1-3.15-1.05,4,4,0,0,1-1.06-3v-.3a3.83,3.83,0,0,1,1.06-2.88,4.38,4.38,0,0,1,3.15-1V514h1.32v2.4a4.34,4.34,0,0,1,3.14,1,3.8,3.8,0,0,1,1.08,2.88v.3a4,4,0,0,1-1.08,3,4.3,4.3,0,0,1-3.14,1.05v2.85h-1.32Zm4.19-4.33a2.7,2.7,0,0,0-.71-2,3,3,0,0,0-2.17-.68v5.85a3,3,0,0,0,2.17-.69,2.87,2.87,0,0,0,.71-2.14Zm-7,.3a2.91,2.91,0,0,0,.69,2.14,3,3,0,0,0,2.19.69v-5.85a3.07,3.07,0,0,0-2.19.68,2.74,2.74,0,0,0-.69,2Zm11.94-2.9h-2.71V516.5h6.75v1.17h-2.72v6.78h-1.32Zm8.7,6.93a4.43,4.43,0,0,1-1.46-.24,3.33,3.33,0,0,1-1.21-.73,3.75,3.75,0,0,1-.84-1.28,4.71,4.71,0,0,1-.32-1.8v-.3a4.43,4.43,0,0,1,.3-1.71,3.5,3.5,0,0,1,.8-1.21,3.28,3.28,0,0,1,1.17-.74,4.18,4.18,0,0,1,1.41-.24,3.34,3.34,0,0,1,3.67,3.68v.84h-6a2.76,2.76,0,0,0,.23,1.18,2.21,2.21,0,0,0,.58.78,2.33,2.33,0,0,0,.8.44,3.11,3.11,0,0,0,.9.13,2.62,2.62,0,0,0,1.38-.3,1.65,1.65,0,0,0,.7-.82h1.29a2.58,2.58,0,0,1-.43,1,2.78,2.78,0,0,1-.75.74,3.42,3.42,0,0,1-1,.43A4.49,4.49,0,0,1,767.14,524.6Zm-.08-7.05a3,3,0,0,0-.9.14,2,2,0,0,0-1.32,1.09,2.25,2.25,0,0,0-.21,1h4.79a2.63,2.63,0,0,0-.21-1,1.71,1.71,0,0,0-.5-.69,1.92,1.92,0,0,0-.75-.39A3.26,3.26,0,0,0,767.06,517.55Zm5.48-1h5.4v1.17h-4.08v6.78h-1.32Zm8.87,8.1a3.51,3.51,0,0,1-1.17-.18,2.54,2.54,0,0,1-.84-.52,2.21,2.21,0,0,1-.53-.78,2.64,2.64,0,0,1-.18-1,2,2,0,0,1,.69-1.71,3.32,3.32,0,0,1,2-.53H784v-.54a1.77,1.77,0,0,0-.46-1.41,2.05,2.05,0,0,0-1.37-.39,1.9,1.9,0,0,0-1.24.33,1.08,1.08,0,0,0-.44.72h-1.32a2,2,0,0,1,.26-.88A2.41,2.41,0,0,1,780,517a3.07,3.07,0,0,1,1-.47,4,4,0,0,1,1.23-.18,3.41,3.41,0,0,1,2.23.68,2.59,2.59,0,0,1,.84,2.17v4.34a9,9,0,0,0,.08.91h-1.16c0-.23-.05-.44-.06-.64s0-.45,0-.71a2.67,2.67,0,0,1-1,1.07A3.19,3.19,0,0,1,781.41,524.6Zm.28-1.2a3,3,0,0,0,.87-.12,2.45,2.45,0,0,0,.74-.37,1.82,1.82,0,0,0,.67-1.46v-.54h-2.35a2,2,0,0,0-1.16.3,1,1,0,0,0-.42.92,1.18,1.18,0,0,0,.39.91A1.86,1.86,0,0,0,781.69,523.4Zm8.63,1.2A3.88,3.88,0,0,1,788,524a2.32,2.32,0,0,1-1-1.77h1.32a1.29,1.29,0,0,0,.62.9,2.71,2.71,0,0,0,1.36.3,2.56,2.56,0,0,0,1.5-.34,1.06,1.06,0,0,0,.48-.86,1.12,1.12,0,0,0-.39-.91,2,2,0,0,0-1.35-.35H789.2v-1.08h1.27a1.73,1.73,0,0,0,1.17-.31,1.12,1.12,0,0,0,.36-.89,1,1,0,0,0-.42-.78,2,2,0,0,0-1.26-.33,2.31,2.31,0,0,0-1.33.3,1.22,1.22,0,0,0-.5.83h-1.32a2.4,2.4,0,0,1,.27-.92,2.45,2.45,0,0,1,.65-.75,2.88,2.88,0,0,1,1-.48,4.19,4.19,0,0,1,1.27-.18,4.3,4.3,0,0,1,1.32.18,2.58,2.58,0,0,1,1,.48,1.83,1.83,0,0,1,.55.72,2.34,2.34,0,0,1,.18.93,1.81,1.81,0,0,1-.28,1,1.88,1.88,0,0,1-.92.66,1.94,1.94,0,0,1,1.17.72,2,2,0,0,1,.33,1.15,2.11,2.11,0,0,1-.21.93,2.19,2.19,0,0,1-.63.77,3.2,3.2,0,0,1-1,.51A4.76,4.76,0,0,1,790.32,524.6Zm8.49,0a4.43,4.43,0,0,1-1.46-.24,3.52,3.52,0,0,1-1.21-.75,3.71,3.71,0,0,1-.84-1.27,4.69,4.69,0,0,1-.32-1.79v-.3a4.24,4.24,0,0,1,.32-1.69,3.49,3.49,0,0,1,.84-1.22,3.33,3.33,0,0,1,1.21-.73,4.19,4.19,0,0,1,1.46-.26,4.14,4.14,0,0,1,1.45.26,3.37,3.37,0,0,1,1.22.73,3.49,3.49,0,0,1,.84,1.22,4.25,4.25,0,0,1,.31,1.69v.3a4.69,4.69,0,0,1-.31,1.79,3.71,3.71,0,0,1-.84,1.27,3.56,3.56,0,0,1-1.22.75A4.37,4.37,0,0,1,798.81,524.6Zm0-1.2a2.83,2.83,0,0,0,.9-.15,2.23,2.23,0,0,0,.79-.49,2.56,2.56,0,0,0,.56-.89,3.44,3.44,0,0,0,.22-1.32v-.3a3,3,0,0,0-.22-1.23,2.43,2.43,0,0,0-.56-.84,2.08,2.08,0,0,0-.79-.48,2.77,2.77,0,0,0-1.8,0,2.11,2.11,0,0,0-.8.48,2.59,2.59,0,0,0-.57.84,3.23,3.23,0,0,0-.21,1.23v.3a3.65,3.65,0,0,0,.21,1.32,2.73,2.73,0,0,0,.57.89,2.27,2.27,0,0,0,.8.49A2.83,2.83,0,0,0,798.81,523.4Zm5.69-6.9H808a3.18,3.18,0,0,1,2.16.62,2,2,0,0,1,.69,1.56,1.63,1.63,0,0,1-.09.52,1.87,1.87,0,0,1-.26.48,1.52,1.52,0,0,1-.37.39,1.59,1.59,0,0,1-.48.26,1.87,1.87,0,0,1,1.11.69,1.83,1.83,0,0,1,.39,1.17,2.1,2.1,0,0,1-.69,1.65,3.18,3.18,0,0,1-2.16.61H804.5Zm3.75,6.78a1.8,1.8,0,0,0,1.18-.3,1.06,1.06,0,0,0,.35-.85,1.09,1.09,0,0,0-.35-.87,1.74,1.74,0,0,0-1.18-.32h-2.43v2.34Zm-.3-3.42a1.76,1.76,0,0,0,1.18-.3,1,1,0,0,0,.35-.82,1,1,0,0,0-.35-.78,1.83,1.83,0,0,0-1.18-.29h-2.13v2.19Zm5-3.36h1.32v3h1.61a3.13,3.13,0,0,1,2.2.66,2.36,2.36,0,0,1,.72,1.83,2.32,2.32,0,0,1-.72,1.8,3.13,3.13,0,0,1-2.2.66H813Zm2.85,6.78a2,2,0,0,0,1.31-.33,1.22,1.22,0,0,0,.37-1,1.24,1.24,0,0,0-.37-1,2,2,0,0,0-1.31-.33H814.3v2.61Zm4.23-6.78h1.32v8h-1.32Zm3.72,0h1.32v6l4.11-6h1.32v8h-1.32v-6l-4.11,6h-1.32Zm3.37-1a2.48,2.48,0,0,1-1.71-.5,1.89,1.89,0,0,1-.54-1.45h1.29q0,1,1,1a.89.89,0,0,0,1-1h1.26a1.89,1.89,0,0,1-.54,1.45A2.48,2.48,0,0,1,827.15,515.53ZM700.74,545.6a4.11,4.11,0,0,1-1.42-.24,3.15,3.15,0,0,1-1.14-.75,3.72,3.72,0,0,1-.77-1.27,5.39,5.39,0,0,1-.27-1.79v-.3a4.43,4.43,0,0,1,.3-1.69,3.55,3.55,0,0,1,.8-1.22,3.14,3.14,0,0,1,1.14-.73,3.73,3.73,0,0,1,1.36-.26,3.78,3.78,0,0,1,1.26.2,3,3,0,0,1,1,.54,2.74,2.74,0,0,1,.67.81,3.47,3.47,0,0,1,.39,1h-1.35a2.87,2.87,0,0,0-.28-.52,1.49,1.49,0,0,0-.39-.44,1.72,1.72,0,0,0-.54-.28,2.35,2.35,0,0,0-.74-.11,2.21,2.21,0,0,0-.84.17,1.9,1.9,0,0,0-.72.48,2.3,2.3,0,0,0-.51.82,3.71,3.71,0,0,0-.18,1.23v.3a4.3,4.3,0,0,0,.18,1.32,2.63,2.63,0,0,0,.51.89,2.05,2.05,0,0,0,.72.49,2.4,2.4,0,0,0,.84.15A2,2,0,0,0,702,544a1.92,1.92,0,0,0,.72-1H704a3.27,3.27,0,0,1-1.17,1.88A3.41,3.41,0,0,1,700.74,545.6Zm8.4,0a4.37,4.37,0,0,1-1.45-.24,3.37,3.37,0,0,1-1.22-.73,3.75,3.75,0,0,1-.84-1.28,4.71,4.71,0,0,1-.31-1.8v-.3a4.43,4.43,0,0,1,.3-1.71,3.48,3.48,0,0,1,.79-1.21,3.28,3.28,0,0,1,1.17-.74,4.18,4.18,0,0,1,1.41-.24,3.34,3.34,0,0,1,3.68,3.68v.84h-6a2.76,2.76,0,0,0,.22,1.18,2.24,2.24,0,0,0,.59.78,2.29,2.29,0,0,0,.79.44,3.11,3.11,0,0,0,.9.13,2.62,2.62,0,0,0,1.38-.3,1.67,1.67,0,0,0,.71-.82h1.29a2.59,2.59,0,0,1-.44,1,2.78,2.78,0,0,1-.75.74,3.36,3.36,0,0,1-1,.43A4.56,4.56,0,0,1,709.14,545.6Zm-.07-7.05a3,3,0,0,0-.9.14,2,2,0,0,0-1.32,1.09,2.25,2.25,0,0,0-.21,1h4.78a2.63,2.63,0,0,0-.21-1,1.7,1.7,0,0,0-.49-.69,1.92,1.92,0,0,0-.75-.39A3.26,3.26,0,0,0,709.07,538.55Zm5.47-1h1.32v3.33h1l3-3.33h1.56L718,541.31l3.6,4.14h-1.68l-3-3.48h-1v3.48h-1.32ZM725,538.67h-2.72V537.5H729v1.17h-2.71v6.78H725Zm8.69,6.93a4.43,4.43,0,0,1-1.46-.24,3.52,3.52,0,0,1-1.21-.75,3.71,3.71,0,0,1-.84-1.27,4.69,4.69,0,0,1-.32-1.79v-.3a4.24,4.24,0,0,1,.32-1.69,3.49,3.49,0,0,1,.84-1.22,3.33,3.33,0,0,1,1.21-.73,4.19,4.19,0,0,1,1.46-.26,4.14,4.14,0,0,1,1.45.26,3.37,3.37,0,0,1,1.22.73,3.49,3.49,0,0,1,.84,1.22,4.25,4.25,0,0,1,.31,1.69v.3a4.69,4.69,0,0,1-.31,1.79,3.71,3.71,0,0,1-.84,1.27,3.56,3.56,0,0,1-1.22.75A4.37,4.37,0,0,1,733.68,545.6Zm0-1.2a2.83,2.83,0,0,0,.9-.15,2.23,2.23,0,0,0,.79-.49,2.56,2.56,0,0,0,.56-.89,3.44,3.44,0,0,0,.22-1.32v-.3a3,3,0,0,0-.22-1.23,2.43,2.43,0,0,0-.56-.84,2.08,2.08,0,0,0-.79-.48,2.77,2.77,0,0,0-1.8,0,2.11,2.11,0,0,0-.8.48,2.59,2.59,0,0,0-.57.84,3.23,3.23,0,0,0-.21,1.23v.3a3.65,3.65,0,0,0,.21,1.32,2.73,2.73,0,0,0,.57.89,2.27,2.27,0,0,0,.8.49A2.83,2.83,0,0,0,733.68,544.4Zm5.69-6.9h1.23V539a2.88,2.88,0,0,1,1.13-1.21,3.25,3.25,0,0,1,1.69-.44,3.09,3.09,0,0,1,2.4,1,4.16,4.16,0,0,1,.9,2.91v.3a6,6,0,0,1-.24,1.79,3.6,3.6,0,0,1-.67,1.26,2.81,2.81,0,0,1-1,.75,3.4,3.4,0,0,1-1.34.25,3.07,3.07,0,0,1-1.71-.45,3,3,0,0,1-1-1.12v4.42h-1.32Zm3.75,6.93a2.26,2.26,0,0,0,.9-.18,2,2,0,0,0,.72-.55,2.42,2.42,0,0,0,.48-.9,4,4,0,0,0,.18-1.25v-.3a3.43,3.43,0,0,0-.18-1.15,2.32,2.32,0,0,0-.48-.86,1.9,1.9,0,0,0-.72-.54,2.26,2.26,0,0,0-.9-.18,2.64,2.64,0,0,0-1,.18,2.06,2.06,0,0,0-.76.48,2.16,2.16,0,0,0-.5.72,2.26,2.26,0,0,0-.18.9V542a2.64,2.64,0,0,0,.18,1,2.28,2.28,0,0,0,.5.77,2.21,2.21,0,0,0,.76.49A2.64,2.64,0,0,0,743.12,544.43Zm5.41,1V543.8h1.65v1.65l-1.5,2.25h-.75Zm10.73.15a3.41,3.41,0,0,1-2.13-.67,3.27,3.27,0,0,1-1.17-1.88h1.35a1.94,1.94,0,0,0,.7,1,2.12,2.12,0,0,0,1.25.36,2.39,2.39,0,0,0,.82-.13,1.77,1.77,0,0,0,.68-.42,2.22,2.22,0,0,0,.49-.74,3.5,3.5,0,0,0,.24-1.12h-3.13v-1.17h3.13a2.47,2.47,0,0,0-.72-1.73,2.2,2.2,0,0,0-1.51-.54,2.35,2.35,0,0,0-.74.11,1.9,1.9,0,0,0-.55.28,1.84,1.84,0,0,0-.39.44,2.33,2.33,0,0,0-.27.52H756a3.17,3.17,0,0,1,.37-1,3.12,3.12,0,0,1,.68-.81,3.16,3.16,0,0,1,1-.54,4,4,0,0,1,1.28-.2,3.8,3.8,0,0,1,1.41.26,3,3,0,0,1,1.14.73,3.21,3.21,0,0,1,.76,1.22,4.64,4.64,0,0,1,.29,1.69v.3a5.39,5.39,0,0,1-.27,1.79,3.54,3.54,0,0,1-.75,1.27,3,3,0,0,1-1.14.75A4.18,4.18,0,0,1,759.26,545.6Zm5.47-8.1h1.32v3.32h4.11V537.5h1.32v8h-1.32V542h-4.11v3.46h-1.32Zm12.45,8.1a4.37,4.37,0,0,1-1.45-.24,3.37,3.37,0,0,1-1.22-.73,3.75,3.75,0,0,1-.84-1.28,4.71,4.71,0,0,1-.31-1.8v-.3a4.43,4.43,0,0,1,.3-1.71,3.48,3.48,0,0,1,.79-1.21,3.28,3.28,0,0,1,1.17-.74,4.18,4.18,0,0,1,1.41-.24,3.34,3.34,0,0,1,3.68,3.68v.84h-6a2.76,2.76,0,0,0,.22,1.18,2.24,2.24,0,0,0,.59.78,2.29,2.29,0,0,0,.79.44,3.11,3.11,0,0,0,.9.13,2.62,2.62,0,0,0,1.38-.3,1.67,1.67,0,0,0,.71-.82h1.29a2.59,2.59,0,0,1-.44,1,2.78,2.78,0,0,1-.75.74,3.36,3.36,0,0,1-1,.43A4.56,4.56,0,0,1,777.18,545.6Zm-.07-7.05a3,3,0,0,0-.9.14,2,2,0,0,0-1.32,1.09,2.25,2.25,0,0,0-.21,1h4.78a2.63,2.63,0,0,0-.21-1,1.7,1.7,0,0,0-.49-.69,1.92,1.92,0,0,0-.75-.39A3.26,3.26,0,0,0,777.11,538.55Zm5.48-1h1.23V539a2.86,2.86,0,0,1,1.12-1.21,3.29,3.29,0,0,1,1.7-.44,3.09,3.09,0,0,1,2.4,1,4.16,4.16,0,0,1,.9,2.91v.3a6,6,0,0,1-.24,1.79,3.62,3.62,0,0,1-.68,1.26,2.81,2.81,0,0,1-1,.75,3.35,3.35,0,0,1-1.33.25,3.07,3.07,0,0,1-1.71-.45,3,3,0,0,1-1-1.12v4.42h-1.32Zm3.75,6.93a2.26,2.26,0,0,0,.9-.18,2,2,0,0,0,.72-.55,2.42,2.42,0,0,0,.48-.9,4,4,0,0,0,.18-1.25v-.3a3.43,3.43,0,0,0-.18-1.15,2.32,2.32,0,0,0-.48-.86,1.9,1.9,0,0,0-.72-.54,2.26,2.26,0,0,0-.9-.18,2.64,2.64,0,0,0-1,.18,2.1,2.1,0,0,0-.77.48,2.14,2.14,0,0,0-.49.72,2.26,2.26,0,0,0-.18.9V542a2.64,2.64,0,0,0,.18,1,2.1,2.1,0,0,0,1.26,1.26A2.64,2.64,0,0,0,786.34,544.43Zm5.47-6.93h5.4v1.17h-4.08v6.78h-1.32Zm10.06,8.1a4.43,4.43,0,0,1-1.46-.24,3.33,3.33,0,0,1-1.21-.73,3.75,3.75,0,0,1-.84-1.28,4.71,4.71,0,0,1-.32-1.8v-.3a4.43,4.43,0,0,1,.3-1.71,3.5,3.5,0,0,1,.8-1.21,3.28,3.28,0,0,1,1.17-.74,4.18,4.18,0,0,1,1.41-.24,3.34,3.34,0,0,1,3.67,3.68v.84h-6a2.76,2.76,0,0,0,.23,1.18,2.21,2.21,0,0,0,.58.78,2.33,2.33,0,0,0,.8.44,3.11,3.11,0,0,0,.9.13,2.62,2.62,0,0,0,1.38-.3,1.65,1.65,0,0,0,.7-.82h1.29a2.58,2.58,0,0,1-.43,1,2.78,2.78,0,0,1-.75.74,3.42,3.42,0,0,1-1,.43A4.49,4.49,0,0,1,801.87,545.6Zm-.08-7.05a3,3,0,0,0-.9.14,2,2,0,0,0-1.32,1.09,2.25,2.25,0,0,0-.21,1h4.79a2.63,2.63,0,0,0-.21-1,1.71,1.71,0,0,0-.5-.69,1.92,1.92,0,0,0-.75-.39A3.26,3.26,0,0,0,801.79,538.55Zm7.15.12h-2.72V537.5H813v1.17h-2.71v6.78h-1.32Zm5.54-1.17h1.32v6l4.11-6h1.32v8h-1.32v-6l-4.11,6h-1.32Zm9.15,0H825v3.33h1l3-3.33h1.56l-3.45,3.81,3.6,4.14H829L826,542h-1v3.48h-1.32Zm10.75,8.1a3.51,3.51,0,0,1-1.17-.18,2.54,2.54,0,0,1-.84-.52,2.21,2.21,0,0,1-.53-.78,2.64,2.64,0,0,1-.18-1,2,2,0,0,1,.69-1.71,3.32,3.32,0,0,1,2-.53h2.58v-.54a1.77,1.77,0,0,0-.46-1.41,2.05,2.05,0,0,0-1.37-.39,1.9,1.9,0,0,0-1.24.33,1.08,1.08,0,0,0-.44.72h-1.32a2,2,0,0,1,.26-.88A2.41,2.41,0,0,1,833,538a3.07,3.07,0,0,1,1-.47,4,4,0,0,1,1.23-.18,3.41,3.41,0,0,1,2.23.68,2.59,2.59,0,0,1,.84,2.17v4.34a9,9,0,0,0,.08.91h-1.16c0-.23,0-.44-.06-.64s0-.45,0-.71a2.67,2.67,0,0,1-1,1.07A3.19,3.19,0,0,1,834.38,545.6Zm.28-1.2a3,3,0,0,0,.87-.12,2.45,2.45,0,0,0,.74-.37,1.82,1.82,0,0,0,.67-1.46v-.54h-2.35a2,2,0,0,0-1.16.3,1,1,0,0,0-.42.92,1.18,1.18,0,0,0,.39.91A1.86,1.86,0,0,0,834.66,544.4Zm9.07-2.55a8,8,0,0,1-.42,2.67,11.69,11.69,0,0,1-.92,2.09,10.42,10.42,0,0,1-1.33,1.84h-1.53a9.91,9.91,0,0,0,1.42-1.84,10.61,10.61,0,0,0,.53-1,8.87,8.87,0,0,0,.45-1.13,8.31,8.31,0,0,0,.33-1.26,8,8,0,0,0,.12-1.41v-.3a8,8,0,0,0-.12-1.41,8.13,8.13,0,0,0-.33-1.27,8.87,8.87,0,0,0-.45-1.13,10.61,10.61,0,0,0-.53-1,8.94,8.94,0,0,0-1.42-1.83h1.59a9.24,9.24,0,0,1,1.3,1.83,11.8,11.8,0,0,1,.9,2.09,8.42,8.42,0,0,1,.41,2.68Z"/><path d="M1019,362h6.6v1.23h-5.19v9.27H1019Zm9.74,10.65a4.43,4.43,0,0,1-1.46-.24,3.52,3.52,0,0,1-1.21-.75,3.71,3.71,0,0,1-.84-1.27,4.69,4.69,0,0,1-.32-1.79v-.3a4.24,4.24,0,0,1,.32-1.69,3.49,3.49,0,0,1,.84-1.22,3.33,3.33,0,0,1,1.21-.73,4.19,4.19,0,0,1,1.46-.26,4.14,4.14,0,0,1,1.45.26,3.37,3.37,0,0,1,1.22.73,3.49,3.49,0,0,1,.84,1.22,4.25,4.25,0,0,1,.31,1.69v.3a4.69,4.69,0,0,1-.31,1.79,3.71,3.71,0,0,1-.84,1.27,3.56,3.56,0,0,1-1.22.75A4.37,4.37,0,0,1,1028.71,372.6Zm0-1.2a2.83,2.83,0,0,0,.9-.15,2.23,2.23,0,0,0,.79-.49,2.56,2.56,0,0,0,.56-.89,3.44,3.44,0,0,0,.22-1.32v-.3A3,3,0,0,0,1031,367a2.43,2.43,0,0,0-.56-.84,2.08,2.08,0,0,0-.79-.48,2.78,2.78,0,0,0-1.8,0,2.11,2.11,0,0,0-.8.48,2.59,2.59,0,0,0-.57.84,3.23,3.23,0,0,0-.21,1.23v.3a3.65,3.65,0,0,0,.21,1.32,2.73,2.73,0,0,0,.57.89,2.27,2.27,0,0,0,.8.49A2.83,2.83,0,0,0,1028.71,371.4Zm8.77,1.2a4.17,4.17,0,0,1-1.43-.24,3.15,3.15,0,0,1-1.14-.75,3.7,3.7,0,0,1-.76-1.27,5.39,5.39,0,0,1-.27-1.79v-.3a4.43,4.43,0,0,1,.3-1.69,3.53,3.53,0,0,1,.79-1.22,3.14,3.14,0,0,1,1.14-.73,3.89,3.89,0,0,1,2.63-.06,2.94,2.94,0,0,1,1,.54,2.77,2.77,0,0,1,.68.81,3.47,3.47,0,0,1,.39,1h-1.35a2.9,2.9,0,0,0-.29-.52,1.49,1.49,0,0,0-.39-.44,1.72,1.72,0,0,0-.54-.28,2.29,2.29,0,0,0-.73-.11,2.21,2.21,0,0,0-.84.17,1.9,1.9,0,0,0-.72.48,2.3,2.3,0,0,0-.51.82,3.71,3.71,0,0,0-.18,1.23v.3a4.3,4.3,0,0,0,.18,1.32,2.63,2.63,0,0,0,.51.89,2.05,2.05,0,0,0,.72.49,2.4,2.4,0,0,0,.84.15,2,2,0,0,0,1.23-.36,1.92,1.92,0,0,0,.72-1h1.35a3.27,3.27,0,0,1-1.17,1.88A3.41,3.41,0,0,1,1037.48,372.6Zm8.17,0a4.17,4.17,0,0,1-1.43-.24,3.15,3.15,0,0,1-1.14-.75,3.7,3.7,0,0,1-.76-1.27,5.39,5.39,0,0,1-.27-1.79v-.3a4.43,4.43,0,0,1,.3-1.69,3.53,3.53,0,0,1,.79-1.22,3.14,3.14,0,0,1,1.14-.73,3.89,3.89,0,0,1,2.63-.06,2.94,2.94,0,0,1,1,.54,2.77,2.77,0,0,1,.68.81,3.47,3.47,0,0,1,.39,1h-1.35a2.9,2.9,0,0,0-.29-.52,1.49,1.49,0,0,0-.39-.44,1.72,1.72,0,0,0-.54-.28,2.29,2.29,0,0,0-.73-.11,2.21,2.21,0,0,0-.84.17,1.9,1.9,0,0,0-.72.48,2.3,2.3,0,0,0-.51.82,3.71,3.71,0,0,0-.18,1.23v.3a4.3,4.3,0,0,0,.18,1.32,2.63,2.63,0,0,0,.51.89,2.05,2.05,0,0,0,.72.49,2.4,2.4,0,0,0,.84.15,2,2,0,0,0,1.23-.36,1.92,1.92,0,0,0,.72-1H1049a3.27,3.27,0,0,1-1.17,1.88A3.41,3.41,0,0,1,1045.65,372.6Zm8.4,0a4.43,4.43,0,0,1-1.46-.24,3.33,3.33,0,0,1-1.21-.73,3.75,3.75,0,0,1-.84-1.28,4.71,4.71,0,0,1-.32-1.8v-.3a4.43,4.43,0,0,1,.3-1.71,3.5,3.5,0,0,1,.8-1.21,3.28,3.28,0,0,1,1.17-.74,4.18,4.18,0,0,1,1.41-.24,3.34,3.34,0,0,1,3.67,3.68v.84h-6a2.76,2.76,0,0,0,.23,1.18,2.21,2.21,0,0,0,.58.78,2.33,2.33,0,0,0,.8.44,3.11,3.11,0,0,0,.9.13,2.62,2.62,0,0,0,1.38-.3,1.65,1.65,0,0,0,.7-.82h1.29a2.58,2.58,0,0,1-.43,1,2.78,2.78,0,0,1-.75.74,3.42,3.42,0,0,1-1,.43A4.49,4.49,0,0,1,1054.05,372.6Zm-.08-7.05a3,3,0,0,0-.9.14,2,2,0,0,0-1.32,1.09,2.25,2.25,0,0,0-.21,1h4.79a2.63,2.63,0,0,0-.21-1,1.71,1.71,0,0,0-.5-.69,1.92,1.92,0,0,0-.75-.39A3.26,3.26,0,0,0,1054,365.55Zm5.48-1.05h1.32v3.33h1l3-3.33h1.56l-3.45,3.81,3.6,4.14h-1.68l-3-3.48h-1v3.48h-1.32Zm10.44,1.17h-2.71V364.5h6.75v1.17h-2.72v6.78h-1.32Zm8.69,6.93a4.37,4.37,0,0,1-1.45-.24,3.56,3.56,0,0,1-1.22-.75,3.71,3.71,0,0,1-.84-1.27,4.69,4.69,0,0,1-.31-1.79v-.3a4.25,4.25,0,0,1,.31-1.69,3.49,3.49,0,0,1,.84-1.22,3.37,3.37,0,0,1,1.22-.73,4.14,4.14,0,0,1,1.45-.26,4.19,4.19,0,0,1,1.46.26,3.33,3.33,0,0,1,1.21.73,3.49,3.49,0,0,1,.84,1.22,4.24,4.24,0,0,1,.32,1.69v.3a4.69,4.69,0,0,1-.32,1.79,3.71,3.71,0,0,1-.84,1.27,3.52,3.52,0,0,1-1.21.75A4.43,4.43,0,0,1,1078.58,372.6Zm0-1.2a2.83,2.83,0,0,0,.9-.15,2.27,2.27,0,0,0,.8-.49,2.54,2.54,0,0,0,.55-.89,3.43,3.43,0,0,0,.23-1.32v-.3a3,3,0,0,0-.23-1.23,2.41,2.41,0,0,0-.55-.84,2.11,2.11,0,0,0-.8-.48,2.77,2.77,0,0,0-1.8,0,2.08,2.08,0,0,0-.79.48,2.59,2.59,0,0,0-.57.84,3.23,3.23,0,0,0-.21,1.23v.3a3.65,3.65,0,0,0,.21,1.32,2.73,2.73,0,0,0,.57.89,2.23,2.23,0,0,0,.79.49A2.83,2.83,0,0,0,1078.58,371.4Zm5.7-6.9h1.23V366a2.86,2.86,0,0,1,1.12-1.21,3.29,3.29,0,0,1,1.7-.44,3.09,3.09,0,0,1,2.4,1,4.16,4.16,0,0,1,.9,2.91v.3a6,6,0,0,1-.24,1.79,3.62,3.62,0,0,1-.68,1.26,2.81,2.81,0,0,1-1,.75,3.35,3.35,0,0,1-1.33.25,3.07,3.07,0,0,1-1.71-.45,3,3,0,0,1-1-1.12v4.42h-1.32Zm3.75,6.93a2.26,2.26,0,0,0,.9-.18,2,2,0,0,0,.72-.55,2.42,2.42,0,0,0,.48-.9,4,4,0,0,0,.18-1.25v-.3a3.43,3.43,0,0,0-.18-1.15,2.32,2.32,0,0,0-.48-.86,1.9,1.9,0,0,0-.72-.54,2.26,2.26,0,0,0-.9-.18,2.64,2.64,0,0,0-1,.18,2.1,2.1,0,0,0-.77.48,2.14,2.14,0,0,0-.49.72,2.26,2.26,0,0,0-.18.9V369a2.64,2.64,0,0,0,.18,1,2.1,2.1,0,0,0,1.26,1.26A2.64,2.64,0,0,0,1088,371.43Z"/><path d="M316.41,331.86h-3.64v-1.23h8.7v1.23h-3.65v9.27h-1.41Zm8.51,9.42a4.37,4.37,0,0,1-1.45-.24,3.26,3.26,0,0,1-1.22-.74,3.61,3.61,0,0,1-.84-1.27,4.71,4.71,0,0,1-.31-1.8v-.3a4.43,4.43,0,0,1,.3-1.71,3.39,3.39,0,0,1,.79-1.21,3.15,3.15,0,0,1,1.17-.74,4.18,4.18,0,0,1,1.41-.24,3.34,3.34,0,0,1,3.68,3.67v.84h-6a2.81,2.81,0,0,0,.22,1.19,2.24,2.24,0,0,0,.59.78,2.29,2.29,0,0,0,.79.44,3.11,3.11,0,0,0,.9.13,2.62,2.62,0,0,0,1.38-.3A1.69,1.69,0,0,0,327,339h1.29a2.64,2.64,0,0,1-.44,1,2.93,2.93,0,0,1-.75.74,3.36,3.36,0,0,1-1,.43A4.56,4.56,0,0,1,324.92,341.28Zm-.07-7a3,3,0,0,0-.9.13,2.24,2.24,0,0,0-.78.41,2.08,2.08,0,0,0-.54.69,2.22,2.22,0,0,0-.21,1h4.78a2.59,2.59,0,0,0-.21-1,1.7,1.7,0,0,0-.49-.69,1.92,1.92,0,0,0-.75-.39A3.26,3.26,0,0,0,324.85,334.23Zm4.95,7a2.3,2.3,0,0,1-.45,0v-1.31h.23a.84.84,0,0,0,.57-.21,1.47,1.47,0,0,0,.4-.74,7.48,7.48,0,0,0,.23-1.42c.05-.6.07-1.36.07-2.28v-2.1h5.7v7.95h-1.32v-6.78h-3.06v1.23a20.94,20.94,0,0,1-.15,2.76,6.48,6.48,0,0,1-.45,1.76,2,2,0,0,1-.73.91A2,2,0,0,1,329.8,341.28Zm12.45,0a4.37,4.37,0,0,1-1.45-.24,3.26,3.26,0,0,1-1.22-.74,3.61,3.61,0,0,1-.84-1.27,4.71,4.71,0,0,1-.31-1.8v-.3a4.43,4.43,0,0,1,.3-1.71,3.39,3.39,0,0,1,.79-1.21,3.15,3.15,0,0,1,1.17-.74,4.18,4.18,0,0,1,1.41-.24,3.34,3.34,0,0,1,3.68,3.67v.84h-6a2.81,2.81,0,0,0,.22,1.19,2.24,2.24,0,0,0,.59.78,2.29,2.29,0,0,0,.79.44,3.11,3.11,0,0,0,.9.13,2.62,2.62,0,0,0,1.38-.3,1.69,1.69,0,0,0,.71-.83h1.29a2.64,2.64,0,0,1-.44,1,2.93,2.93,0,0,1-.75.74,3.36,3.36,0,0,1-1,.43A4.56,4.56,0,0,1,342.25,341.28Zm-.07-7a3,3,0,0,0-.9.13,2.24,2.24,0,0,0-.78.41,2.08,2.08,0,0,0-.54.69,2.22,2.22,0,0,0-.21,1h4.78a2.59,2.59,0,0,0-.21-1,1.7,1.7,0,0,0-.49-.69,1.92,1.92,0,0,0-.75-.39A3.26,3.26,0,0,0,342.18,334.23Zm5.47-1.05H349v3.33h1l3-3.33h1.56L351.1,337l3.6,4.14H353l-3-3.48h-1v3.48h-1.32Zm11.64,8.1a4.43,4.43,0,0,1-1.46-.24,3.52,3.52,0,0,1-1.21-.75,3.75,3.75,0,0,1-.84-1.28,4.6,4.6,0,0,1-.32-1.78v-.3a4.33,4.33,0,0,1,.32-1.7,3.45,3.45,0,0,1,.84-1.21,3.33,3.33,0,0,1,1.21-.73,4,4,0,0,1,1.46-.26,3.92,3.92,0,0,1,1.45.26A3.37,3.37,0,0,1,362,334a3.45,3.45,0,0,1,.84,1.21,4.33,4.33,0,0,1,.31,1.7v.3a4.61,4.61,0,0,1-.31,1.78,3.75,3.75,0,0,1-.84,1.28,3.56,3.56,0,0,1-1.22.75A4.37,4.37,0,0,1,359.29,341.28Zm0-1.2a2.83,2.83,0,0,0,.9-.15,2.23,2.23,0,0,0,.79-.49,2.65,2.65,0,0,0,.56-.89,3.44,3.44,0,0,0,.22-1.32v-.3a3,3,0,0,0-.22-1.23,2.43,2.43,0,0,0-.56-.84,2.08,2.08,0,0,0-.79-.48,2.77,2.77,0,0,0-1.8,0,2.11,2.11,0,0,0-.8.48,2.59,2.59,0,0,0-.57.84,3.23,3.23,0,0,0-.21,1.23v.3a3.65,3.65,0,0,0,.21,1.32,2.84,2.84,0,0,0,.57.89,2.27,2.27,0,0,0,.8.49A2.83,2.83,0,0,0,359.29,340.08Zm5.69-6.9h1.41l2.84,4.95,2.83-4.95h1.32v7.95h-1.32v-5.77l-2.35,4.05h-1l-2.36-4.05v5.77H365Z"/><path class="cls-5" d="M1043.57,152.81l15.66-13.56q1.92-1.68,3.24-3a19.51,19.51,0,0,0,2.22-2.46,7.93,7.93,0,0,0,1.26-2.34,7.43,7.43,0,0,0-1.44-7.38,6.57,6.57,0,0,0-5-1.92,8.24,8.24,0,0,0-6,2.1q-2.1,2-2.1,6.3h-7.2a16,16,0,0,1,1.08-6,13,13,0,0,1,3.06-4.68,12.87,12.87,0,0,1,4.8-3,17.67,17.67,0,0,1,6.36-1.08,16.73,16.73,0,0,1,6.06,1,11.4,11.4,0,0,1,4.38,2.76,11,11,0,0,1,2.7,4.2,14.09,14.09,0,0,1,1,5.28,11.52,11.52,0,0,1-.72,4.08,14,14,0,0,1-1.92,3.66,22.7,22.7,0,0,1-2.94,3.42,43.58,43.58,0,0,1-3.72,3.3l-10.68,8.7h20.58v6.24h-30.6Zm50.69,6.3a16.13,16.13,0,0,1-9.06-2.34q-3.54-2.4-4.44-7.62h7.2a4.72,4.72,0,0,0,2.22,2.76,8.59,8.59,0,0,0,4.08.84,10.62,10.62,0,0,0,3.6-.6,7.1,7.1,0,0,0,2.94-2.22,11.47,11.47,0,0,0,2.1-4.2,26.27,26.27,0,0,0,.84-6.78,8.31,8.31,0,0,1-2,2.28,10.91,10.91,0,0,1-2.58,1.5,17.08,17.08,0,0,1-2.88.84,18.59,18.59,0,0,1-2.94.24q-6.36,0-10-3.48t-3.54-9.9v-.6a14.62,14.62,0,0,1,1.08-5.7,13.51,13.51,0,0,1,3.12-4.44,14,14,0,0,1,4.68-2.88,16.33,16.33,0,0,1,5.82-1,18.49,18.49,0,0,1,6.72,1.14,12.25,12.25,0,0,1,5,3.54,15.77,15.77,0,0,1,3.12,6.06,31.85,31.85,0,0,1,1.08,8.82v1.2A37.66,37.66,0,0,1,1109.2,147a19.57,19.57,0,0,1-3.48,7,13.1,13.1,0,0,1-5.1,4A16.67,16.67,0,0,1,1094.26,159.11Zm.78-21.06a7.91,7.91,0,0,0,5.76-2.1,7.37,7.37,0,0,0,2.22-5.52v-.6a7.44,7.44,0,0,0-.6-3,7.08,7.08,0,0,0-1.68-2.46,6.37,6.37,0,0,0-2.52-1.62,8.19,8.19,0,0,0-3.18-.6,8,8,0,0,0-5.82,2.16,7.35,7.35,0,0,0-2.16,5.52v.6a7.48,7.48,0,0,0,2.16,5.52A8.12,8.12,0,0,0,1095,138.05Zm54.73-21.6h7.2l-28.8,42H1121Zm-24.6,19.86a11.21,11.21,0,0,1-4.08-.72,9.18,9.18,0,0,1-3.12-2,9.66,9.66,0,0,1-2-3.12,11.21,11.21,0,0,1-.72-4.08v-.6a10.74,10.74,0,0,1,.72-4,9.52,9.52,0,0,1,2-3.18,9.18,9.18,0,0,1,3.12-2,11.21,11.21,0,0,1,4.08-.72,10.74,10.74,0,0,1,4,.72,9.18,9.18,0,0,1,3.12,2,9.06,9.06,0,0,1,2,3.18,10.74,10.74,0,0,1,.72,4v.6a11.21,11.21,0,0,1-.72,4.08,9.1,9.1,0,0,1-5.16,5.16A10.74,10.74,0,0,1,1125.17,136.31Zm0-5.4a3.28,3.28,0,0,0,2.58-1.08,5.17,5.17,0,0,0,1-3.48v-.6a5.17,5.17,0,0,0-1-3.48,3.62,3.62,0,0,0-5.16,0,5.17,5.17,0,0,0-1,3.48v.6a5.17,5.17,0,0,0,1,3.48A3.28,3.28,0,0,0,1125.17,130.91Zm27.6,28.14a11.21,11.21,0,0,1-4.08-.72,9.18,9.18,0,0,1-3.12-2,9.66,9.66,0,0,1-2-3.12,11.21,11.21,0,0,1-.72-4.08v-.6a10.74,10.74,0,0,1,.72-4,9.52,9.52,0,0,1,2-3.18,9.18,9.18,0,0,1,3.12-2,11.21,11.21,0,0,1,4.08-.72,10.74,10.74,0,0,1,4,.72,9.18,9.18,0,0,1,3.12,2,9.06,9.06,0,0,1,2,3.18,10.74,10.74,0,0,1,.72,4v.6a11.21,11.21,0,0,1-.72,4.08,9.1,9.1,0,0,1-5.16,5.16A10.74,10.74,0,0,1,1152.77,159.05Zm0-5.4a3.28,3.28,0,0,0,2.58-1.08,5.17,5.17,0,0,0,1-3.48v-.6a5.17,5.17,0,0,0-1-3.48,3.62,3.62,0,0,0-5.16,0,5.17,5.17,0,0,0-1,3.48v.6a5.17,5.17,0,0,0,1,3.48A3.28,3.28,0,0,0,1152.77,153.65Z"/><path class="cls-6" d="M697.81,391.54a167.85,167.85,0,0,0,116.55-6.4l22.94,53a225.57,225.57,0,0,1-156.46,8.59Z"/><path class="cls-7" d="M829.86,377.74A168,168,0,0,0,908.92,280l55.17,17A225.69,225.69,0,0,1,858,428.15Z"/><path class="cls-8" d="M916.1,233a168.77,168.77,0,0,0-110.76-161L825.11,17.7c92.16,33.6,150.22,121.8,148.7,216.18a225.79,225.79,0,0,1-4,38.78l-56.69-10.85A168.22,168.22,0,0,0,916.1,233Z"/><path class="cls-9" d="M586.2,180.74A168.67,168.67,0,0,0,686.31,387.55l-20.84,53.83C555.67,398.86,495.88,278,531,163.77Z"/><path class="cls-10" d="M793.32,68A168.69,168.69,0,0,0,590.56,168.3l-53.69-21.17C579.2,39.71,696.69-19.34,809.06,12.51Z"/><circle class="cls-11" cx="747.29" cy="229.15" r="190"/><path d="M669.25,195.93h20.52v25.2h-4.32V199.67H673.57v21.46h-4.32Zm26.28,6.12h3.67v3.2a6.39,6.39,0,0,1,2.56-2.62,7.78,7.78,0,0,1,3.89-1,7.64,7.64,0,0,1,5.9,2.34c1.44,1.56,2.16,3.92,2.16,7.06v.72a14.45,14.45,0,0,1-.57,4.28,8.31,8.31,0,0,1-1.66,3.06,6.64,6.64,0,0,1-2.52,1.8,8.53,8.53,0,0,1-3.31.62,7.87,7.87,0,0,1-3.75-.9,5.25,5.25,0,0,1-2.41-2.52v10.22h-4Zm9.18,16a4.57,4.57,0,0,0,3.6-1.55,7,7,0,0,0,1.37-4.75v-.72a6.38,6.38,0,0,0-1.33-4.46,4.64,4.64,0,0,0-3.64-1.48,6,6,0,0,0-1.94.32,5,5,0,0,0-1.69,1,4.3,4.3,0,0,0-1.16,1.58,5.2,5.2,0,0,0-.43,2.16v2.52a6.2,6.2,0,0,0,.43,2.38,5.13,5.13,0,0,0,1.16,1.69,4.68,4.68,0,0,0,1.65,1A6.22,6.22,0,0,0,704.71,218.07ZM726,221.53a11,11,0,0,1-3.71-.62,8.41,8.41,0,0,1-4.93-4.89,11.61,11.61,0,0,1-.72-4.25v-.72a10.38,10.38,0,0,1,.72-4,8.33,8.33,0,0,1,2-3,8.11,8.11,0,0,1,3-1.83,11,11,0,0,1,3.71-.62,10.67,10.67,0,0,1,3.67.62,8.1,8.1,0,0,1,3,1.83,8.33,8.33,0,0,1,2,3,10.38,10.38,0,0,1,.72,4v.72a11.61,11.61,0,0,1-.72,4.25,8.33,8.33,0,0,1-5,4.89A10.67,10.67,0,0,1,726,221.53Zm0-3.46a5.44,5.44,0,0,0,2-.36,4.36,4.36,0,0,0,1.69-1.12,5.14,5.14,0,0,0,1.19-1.94,7.89,7.89,0,0,0,.47-2.88v-.72a6.88,6.88,0,0,0-.47-2.66,4.89,4.89,0,0,0-1.19-1.84,4.62,4.62,0,0,0-1.69-1.08,5.44,5.44,0,0,0-2-.36,5.77,5.77,0,0,0-2,.36,5.18,5.18,0,0,0-1.69,1.08,5.74,5.74,0,0,0-1.19,1.84,7.53,7.53,0,0,0-.43,2.66v.72a8.65,8.65,0,0,0,.43,2.88,6,6,0,0,0,1.19,1.94,4.85,4.85,0,0,0,1.69,1.12A5.77,5.77,0,0,0,726,218.07Zm11.33-.32h2.16a5.56,5.56,0,0,0,.65-1.62,21.05,21.05,0,0,0,.54-2.45c.14-.94.25-1.93.32-3s.11-2.16.11-3.24v-5.4h14.22v15.7h2.52v7.88h-3.67v-4.5H741v4.5h-3.67Zm14,0V205.43h-6.44v2.74a41.68,41.68,0,0,1-.33,5.33,15.3,15.3,0,0,1-1.08,4.25Zm15.84,3.78a8.21,8.21,0,0,1-2.77-.44,6.08,6.08,0,0,1-2-1.26,5.64,5.64,0,0,1-1.26-1.9,6.34,6.34,0,0,1-.43-2.38,5.08,5.08,0,0,1,1.69-4.21,7.61,7.61,0,0,1,5-1.41h5.94v-1a3.65,3.65,0,0,0-1-2.95,4.47,4.47,0,0,0-3-.83,4.92,4.92,0,0,0-2.7.58,2.2,2.2,0,0,0-1,1.58h-3.85a5.32,5.32,0,0,1,.61-2.23,5.8,5.8,0,0,1,1.55-1.8,7.09,7.09,0,0,1,2.41-1.15,10.7,10.7,0,0,1,3.17-.44,11.84,11.84,0,0,1,3.17.4,6.2,6.2,0,0,1,2.45,1.26,5.3,5.3,0,0,1,1.54,2.16,8,8,0,0,1,.58,3.2v7.6c0,1,0,1.9,0,2.66a19.78,19.78,0,0,0,.18,2.2h-3.6c-.08-.55-.14-1-.18-1.4s0-.87,0-1.44a5.88,5.88,0,0,1-2.38,2.3A8.26,8.26,0,0,1,767.17,221.53Zm1.08-3.46a7,7,0,0,0,1.91-.25,5.56,5.56,0,0,0,1.62-.79,4.22,4.22,0,0,0,1.08-1.3,3.69,3.69,0,0,0,.43-1.8v-1h-5.22a4.25,4.25,0,0,0-2.45.64,2.21,2.21,0,0,0-.9,1.91,2.42,2.42,0,0,0,.83,1.91A4.19,4.19,0,0,0,768.25,218.07Zm18.91-6.77-6.48-9.25h4.54l5.18,7.67h1.8v-7.67h4v7.67H798l5.62-7.67h4.1l-6.84,9.07,7.2,10h-4.46l-5.62-8h-1.8v8h-4v-8h-1.8l-5.4,8h-4.68Zm29.33,10.23a8.26,8.26,0,0,1-2.77-.44,6,6,0,0,1-2-1.26,5.35,5.35,0,0,1-1.26-1.9,6.34,6.34,0,0,1-.44-2.38,5.08,5.08,0,0,1,1.7-4.21,7.56,7.56,0,0,1,5-1.41h5.94v-1a3.65,3.65,0,0,0-1-2.95,4.45,4.45,0,0,0-3-.83,4.92,4.92,0,0,0-2.7.58,2.18,2.18,0,0,0-1,1.58h-3.86a5.33,5.33,0,0,1,.62-2.23,5.77,5.77,0,0,1,1.54-1.8,7.15,7.15,0,0,1,2.42-1.15,10.63,10.63,0,0,1,3.16-.44,11.79,11.79,0,0,1,3.17.4,6.14,6.14,0,0,1,2.45,1.26,5.32,5.32,0,0,1,1.55,2.16,8.14,8.14,0,0,1,.57,3.2v7.6c0,1,0,1.9,0,2.66a19.78,19.78,0,0,0,.18,2.2h-3.6l-.18-1.4c0-.39,0-.87,0-1.44a5.78,5.78,0,0,1-2.37,2.3A8.3,8.3,0,0,1,816.49,221.53Zm1.08-3.46a6.94,6.94,0,0,0,1.91-.25,5.32,5.32,0,0,0,1.62-.79,4,4,0,0,0,1.08-1.3,3.69,3.69,0,0,0,.43-1.8v-1h-5.22a4.21,4.21,0,0,0-2.44.64,2.21,2.21,0,0,0-.9,1.91,2.41,2.41,0,0,0,.82,1.91A4.19,4.19,0,0,0,817.57,218.07Zm-178.36,27h16.56v19.08h-4v-15.7h-8.64v15.7h-4Zm29.87,19.48a11,11,0,0,1-3.71-.62,8.41,8.41,0,0,1-4.93-4.89,11.61,11.61,0,0,1-.72-4.25v-.72a10.38,10.38,0,0,1,.72-4,8.33,8.33,0,0,1,2-3,8.11,8.11,0,0,1,3-1.83,11,11,0,0,1,3.71-.62,10.67,10.67,0,0,1,3.67.62,8.1,8.1,0,0,1,3,1.83,8.33,8.33,0,0,1,2,3,10.38,10.38,0,0,1,.72,4v.72a11.61,11.61,0,0,1-.72,4.25,8.33,8.33,0,0,1-5,4.89A10.67,10.67,0,0,1,669.08,264.53Zm0-3.46a5.51,5.51,0,0,0,2-.36,4.36,4.36,0,0,0,1.69-1.12,5.27,5.27,0,0,0,1.19-1.94,7.89,7.89,0,0,0,.47-2.88v-.72a6.88,6.88,0,0,0-.47-2.66,5,5,0,0,0-1.19-1.84,4.62,4.62,0,0,0-1.69-1.08,5.51,5.51,0,0,0-2-.36,5.77,5.77,0,0,0-2,.36,5.07,5.07,0,0,0-1.69,1.08,5.57,5.57,0,0,0-1.19,1.84,7.31,7.31,0,0,0-.43,2.66v.72a8.4,8.4,0,0,0,.43,2.88,5.86,5.86,0,0,0,1.19,1.94,4.76,4.76,0,0,0,1.69,1.12A5.77,5.77,0,0,0,669.08,261.07Zm30.23,3.46a11,11,0,0,1-3.71-.62,8.41,8.41,0,0,1-4.93-4.89,11.61,11.61,0,0,1-.72-4.25v-.72a10.38,10.38,0,0,1,.72-4,8.33,8.33,0,0,1,2-3,8.19,8.19,0,0,1,3-1.83,11,11,0,0,1,3.71-.62,10.63,10.63,0,0,1,3.67.62,8,8,0,0,1,3,1.83,8.33,8.33,0,0,1,2,3,10.38,10.38,0,0,1,.72,4v.72A11.61,11.61,0,0,1,708,259a8.53,8.53,0,0,1-2,3,8.38,8.38,0,0,1-3,1.87A10.63,10.63,0,0,1,699.31,264.53Zm0-3.46a5.44,5.44,0,0,0,2-.36,4.36,4.36,0,0,0,1.69-1.12,5.14,5.14,0,0,0,1.19-1.94,7.89,7.89,0,0,0,.47-2.88v-.72a6.88,6.88,0,0,0-.47-2.66,4.89,4.89,0,0,0-1.19-1.84,4.62,4.62,0,0,0-1.69-1.08,5.44,5.44,0,0,0-2-.36,5.72,5.72,0,0,0-2,.36,5.12,5.12,0,0,0-1.7,1.08,5.56,5.56,0,0,0-1.18,1.84,7.3,7.3,0,0,0-.44,2.66v.72a8.39,8.39,0,0,0,.44,2.88,5.85,5.85,0,0,0,1.18,1.94,4.79,4.79,0,0,0,1.7,1.12A5.72,5.72,0,0,0,699.31,261.07Zm17.46-12.64h-6.3v-3.38H727v3.38h-6.3v15.7h-4Zm13.5-3.38h3.67v3.2a6.37,6.37,0,0,1,2.55-2.62,7.8,7.8,0,0,1,3.89-1,7.65,7.65,0,0,1,5.91,2.34c1.44,1.56,2.16,3.92,2.16,7.06v.72a14.43,14.43,0,0,1-.58,4.28,8.17,8.17,0,0,1-1.66,3.06,6.49,6.49,0,0,1-2.52,1.8,8.49,8.49,0,0,1-3.31.62,7.83,7.83,0,0,1-3.74-.9,5.2,5.2,0,0,1-2.41-2.52v10.22h-4Zm9.18,16a4.6,4.6,0,0,0,3.6-1.55,7,7,0,0,0,1.36-4.75v-.72a6.38,6.38,0,0,0-1.33-4.46,4.63,4.63,0,0,0-3.63-1.48,6.09,6.09,0,0,0-2,.32,5.13,5.13,0,0,0-1.69,1,4.28,4.28,0,0,0-1.15,1.58,5,5,0,0,0-.43,2.16v2.52a6,6,0,0,0,.43,2.38,5.11,5.11,0,0,0,1.15,1.69,4.64,4.64,0,0,0,1.66,1A6.13,6.13,0,0,0,739.45,261.07ZM758,264.53a8.26,8.26,0,0,1-2.77-.44,6,6,0,0,1-2-1.26,5.35,5.35,0,0,1-1.26-1.9,6.34,6.34,0,0,1-.44-2.38,5.08,5.08,0,0,1,1.7-4.21,7.56,7.56,0,0,1,5-1.41h5.94v-1a3.65,3.65,0,0,0-1-2.95,4.45,4.45,0,0,0-3-.83,4.92,4.92,0,0,0-2.7.58,2.18,2.18,0,0,0-1,1.58h-3.86a5.33,5.33,0,0,1,.62-2.23,5.77,5.77,0,0,1,1.54-1.8,7.15,7.15,0,0,1,2.42-1.15,10.63,10.63,0,0,1,3.16-.44,11.79,11.79,0,0,1,3.17.4,6.14,6.14,0,0,1,2.45,1.26,5.32,5.32,0,0,1,1.55,2.16,8.14,8.14,0,0,1,.57,3.2v7.6c0,1,0,1.9,0,2.66a19.78,19.78,0,0,0,.18,2.2h-3.6l-.18-1.4c0-.39,0-.87,0-1.44a5.78,5.78,0,0,1-2.37,2.3A8.3,8.3,0,0,1,758,264.53Zm1.08-3.46a6.94,6.94,0,0,0,1.91-.25,5.32,5.32,0,0,0,1.62-.79,4,4,0,0,0,1.08-1.3,3.69,3.69,0,0,0,.43-1.8v-1h-5.22a4.21,4.21,0,0,0-2.44.64,2.21,2.21,0,0,0-.9,1.91,2.41,2.41,0,0,0,.82,1.91A4.19,4.19,0,0,0,759.07,261.07Zm21.8,3.46a11,11,0,0,1-3.6-.58,8,8,0,0,1-2.85-1.84,8.64,8.64,0,0,1-1.87-3.06,12.13,12.13,0,0,1-.68-4.28v-.72a10.71,10.71,0,0,1,.72-4.07,8.52,8.52,0,0,1,1.94-2.95,8.08,8.08,0,0,1,2.88-1.76,10.44,10.44,0,0,1,6.77-.11,7,7,0,0,1,2.48,1.4,6.55,6.55,0,0,1,1.66,2.05,8.64,8.64,0,0,1,.83,2.56h-4a4.56,4.56,0,0,0-1.29-2.2,4.3,4.3,0,0,0-3-.86,5.07,5.07,0,0,0-1.91.36,4.14,4.14,0,0,0-1.59,1,5.25,5.25,0,0,0-1.08,1.88,8.07,8.07,0,0,0-.39,2.66v.72a9.69,9.69,0,0,0,.39,2.92,5.55,5.55,0,0,0,1.08,1.94,4.35,4.35,0,0,0,1.59,1.12,5.71,5.71,0,0,0,1.91.32,4,4,0,0,0,4.24-3.06h4a8.71,8.71,0,0,1-1,2.74,7.38,7.38,0,0,1-1.77,2.05,8.34,8.34,0,0,1-2.48,1.29A10.16,10.16,0,0,1,780.87,264.53Zm11.68,0c-.19,0-.4,0-.64,0a2.51,2.51,0,0,1-.62-.07v-3.75a2.46,2.46,0,0,0,.54,0,2,2,0,0,0,1.3-.43,3.2,3.2,0,0,0,.86-1.59,15.26,15.26,0,0,0,.54-3.06c.12-1.27.18-2.88.18-4.82v-5.76h14.4v19.08h-4v-15.7h-6.62v3.1a41.37,41.37,0,0,1-.4,6.37,12.93,12.93,0,0,1-1.11,4,4.78,4.78,0,0,1-1.87,2.09A5.66,5.66,0,0,1,792.55,264.53Zm25.31-7.64a5.83,5.83,0,0,1-3.21-2.12,6,6,0,0,1-1-3.56,5.66,5.66,0,0,1,1.87-4.47c1.25-1.13,3.14-1.69,5.69-1.69h8.64v19.08h-4v-6.77h-4.11l-4.24,6.77h-4.61Zm-.22-5.68a2.5,2.5,0,0,0,.9,2.16A4.37,4.37,0,0,0,821,254h4.86v-5.55H821a4.14,4.14,0,0,0-2.45.65A2.39,2.39,0,0,0,817.64,251.21Zm17.22-6.16h4.46l6.08,11.16,6.09-11.16h4.25v19.08h-4V251l-5,9.18h-2.88l-5-9.18v13.14h-4Z"/><path class="cls-12" d="M1181.48,102.13a35,35,0,0,1,35-35h244a35,35,0,0,1,35,35v166a35,35,0,0,1-35,35h-244a35,35,0,0,1-35-35V169.25a25,25,0,0,0-8.88-19.11l-7.13-6,2.26-1.14a25,25,0,0,0,13.75-22.33Z"/><path d="M1225.08,116.6h-5.31V115h7.2v1.41l-3.6,9.09h-1.95ZM1236.5,115h1.8l-7.2,10.5h-1.8Zm-6.15,5a3,3,0,0,1-1-.17,2.2,2.2,0,0,1-1.28-1.3,2.79,2.79,0,0,1-.18-1v-.16a2.66,2.66,0,0,1,.18-1,2.27,2.27,0,0,1,.5-.79,2.48,2.48,0,0,1,.78-.52,3,3,0,0,1,1-.17,2.87,2.87,0,0,1,1,.17,2.48,2.48,0,0,1,.78.52,2.16,2.16,0,0,1,.51.79,2.66,2.66,0,0,1,.18,1v.16a2.79,2.79,0,0,1-.18,1,2.34,2.34,0,0,1-.51.79,2.45,2.45,0,0,1-.78.51A2.87,2.87,0,0,1,1230.35,120Zm0-1.34a.79.79,0,0,0,.64-.28,1.26,1.26,0,0,0,.24-.86v-.16a1.33,1.33,0,0,0-.24-.87.84.84,0,0,0-.64-.27.87.87,0,0,0-.65.27,1.33,1.33,0,0,0-.24.87v.16a1.26,1.26,0,0,0,.24.86A.81.81,0,0,0,1230.35,118.66Zm6.9,7a2.8,2.8,0,0,1-1-.18,2.29,2.29,0,0,1-.78-.51,2.43,2.43,0,0,1-.5-.78,2.8,2.8,0,0,1-.18-1v-.15a2.66,2.66,0,0,1,.18-1,2.41,2.41,0,0,1,.5-.8,2.29,2.29,0,0,1,.78-.51,2.8,2.8,0,0,1,1-.18,2.66,2.66,0,0,1,1,.18,2.23,2.23,0,0,1,1.29,1.31,2.66,2.66,0,0,1,.18,1v.15a2.8,2.8,0,0,1-.18,1,2.27,2.27,0,0,1-1.29,1.29A2.66,2.66,0,0,1,1237.25,125.69Zm0-1.35a.81.81,0,0,0,.64-.27,1.29,1.29,0,0,0,.24-.87v-.15a1.29,1.29,0,0,0-.24-.87.81.81,0,0,0-.64-.27.83.83,0,0,0-.65.27,1.29,1.29,0,0,0-.24.87v.15a1.29,1.29,0,0,0,.24.87A.83.83,0,0,0,1237.25,124.34Zm15.38,1.35a4.72,4.72,0,0,1-1.68-.3,3.94,3.94,0,0,1-1.41-1,4.74,4.74,0,0,1-1-1.66,7.15,7.15,0,0,1-.36-2.41v-.29a6.71,6.71,0,0,1,.36-2.33,4.51,4.51,0,0,1,1-1.61,4,4,0,0,1,1.41-.92,4.33,4.33,0,0,1,1.68-.32,5.44,5.44,0,0,1,1.56.22,4.17,4.17,0,0,1,1.26.65,3.14,3.14,0,0,1,.87,1,3.65,3.65,0,0,1,.43,1.39h-1.5a2.44,2.44,0,0,0-.88-1.53,2.81,2.81,0,0,0-1.74-.51,2.88,2.88,0,0,0-1.08.21,2.54,2.54,0,0,0-1,.67,3.47,3.47,0,0,0-.66,1.21,6.06,6.06,0,0,0-.24,1.83v.29a5.84,5.84,0,0,0,.27,1.92,3.71,3.71,0,0,0,.69,1.25,2.49,2.49,0,0,0,.95.69,2.74,2.74,0,0,0,1,.21,2.71,2.71,0,0,0,1.83-.57,2.33,2.33,0,0,0,.79-1.47h1.5a4.14,4.14,0,0,1-.48,1.5,3.31,3.31,0,0,1-.91,1,3.72,3.72,0,0,1-1.25.6A5.83,5.83,0,0,1,1252.63,125.69Zm7.88-6.93h-2.71v-1.17h6.75v1.17h-2.72v6.78h-1.32Zm5.54-1.17h1.23v1.5a2.86,2.86,0,0,1,1.12-1.21,3.19,3.19,0,0,1,1.7-.44,3.09,3.09,0,0,1,2.4,1,4.16,4.16,0,0,1,.9,2.91v.3a6.06,6.06,0,0,1-.24,1.79,3.62,3.62,0,0,1-.68,1.26,2.81,2.81,0,0,1-1,.75,3.54,3.54,0,0,1-1.33.25,3.07,3.07,0,0,1-1.71-.45,2.91,2.91,0,0,1-1-1.13v4.43h-1.32Zm3.75,6.93a2.26,2.26,0,0,0,.9-.18,2.07,2.07,0,0,0,.72-.56,2.34,2.34,0,0,0,.48-.9,3.9,3.9,0,0,0,.18-1.24v-.3a3.39,3.39,0,0,0-.18-1.15,2.32,2.32,0,0,0-.48-.86,1.9,1.9,0,0,0-.72-.54,2.26,2.26,0,0,0-.9-.18,2.64,2.64,0,0,0-1,.18,2.1,2.1,0,0,0-.77.48,2.14,2.14,0,0,0-.49.72,2.26,2.26,0,0,0-.18.9v1.2a2.64,2.64,0,0,0,.18,1,2.36,2.36,0,0,0,.49.77,2.42,2.42,0,0,0,.77.49A2.64,2.64,0,0,0,1269.8,124.52Zm8.78,1.17a4.43,4.43,0,0,1-1.46-.24,3.52,3.52,0,0,1-1.21-.75,3.71,3.71,0,0,1-.84-1.27,4.73,4.73,0,0,1-.32-1.79v-.3a4.3,4.3,0,0,1,.32-1.7,3.54,3.54,0,0,1,.84-1.21,3.35,3.35,0,0,1,1.21-.74,4.19,4.19,0,0,1,1.46-.25,4.13,4.13,0,0,1,1.45.25,3.39,3.39,0,0,1,1.22.74,3.54,3.54,0,0,1,.84,1.21,4.3,4.3,0,0,1,.31,1.7v.3a4.73,4.73,0,0,1-.31,1.79,3.71,3.71,0,0,1-.84,1.27,3.56,3.56,0,0,1-1.22.75A4.37,4.37,0,0,1,1278.58,125.69Zm0-1.2a2.83,2.83,0,0,0,.9-.15,2.23,2.23,0,0,0,.79-.49,2.65,2.65,0,0,0,.56-.89,3.44,3.44,0,0,0,.22-1.32v-.3a3,3,0,0,0-.22-1.23,2.43,2.43,0,0,0-.56-.84,2.08,2.08,0,0,0-.79-.48,2.78,2.78,0,0,0-1.8,0,2.11,2.11,0,0,0-.8.48,2.59,2.59,0,0,0-.57.84,3.23,3.23,0,0,0-.21,1.23v.3a3.65,3.65,0,0,0,.21,1.32,2.84,2.84,0,0,0,.57.89,2.27,2.27,0,0,0,.8.49A2.83,2.83,0,0,0,1278.58,124.49Zm5.69-6.9h1.32v6l4.11-6H1291v8h-1.32v-6l-4.11,6h-1.32Zm11,1.17h-2.71v-1.17h6.75v1.17h-2.72v6.78h-1.32Zm8.7,6.93a4.43,4.43,0,0,1-1.46-.24,3.33,3.33,0,0,1-1.21-.73,3.75,3.75,0,0,1-.84-1.28,4.71,4.71,0,0,1-.32-1.8v-.3a4.43,4.43,0,0,1,.3-1.71,3.64,3.64,0,0,1,.8-1.22,3.25,3.25,0,0,1,1.17-.73,4.18,4.18,0,0,1,1.41-.24,3.34,3.34,0,0,1,3.67,3.67V122h-6a2.76,2.76,0,0,0,.23,1.18,2.21,2.21,0,0,0,.58.78,2.15,2.15,0,0,0,.8.43,3.13,3.13,0,0,0,.9.14,2.62,2.62,0,0,0,1.38-.3,1.63,1.63,0,0,0,.7-.83h1.29a2.72,2.72,0,0,1-1.18,1.74,3.19,3.19,0,0,1-1,.44A4.49,4.49,0,0,1,1303.94,125.69Zm-.08-7a3.38,3.38,0,0,0-.9.13,2.09,2.09,0,0,0-1.32,1.1,2.25,2.25,0,0,0-.21,1h4.79a2.63,2.63,0,0,0-.21-1,1.71,1.71,0,0,0-.5-.69,1.92,1.92,0,0,0-.75-.39A3.26,3.26,0,0,0,1303.86,118.64Zm5,7a1.73,1.73,0,0,1-.45,0v-1.31h.22a.84.84,0,0,0,.57-.21,1.47,1.47,0,0,0,.41-.74,7.6,7.6,0,0,0,.22-1.42c0-.6.08-1.36.08-2.28v-2.1h5.7v8h-1.32v-6.78h-3.06V120a20.94,20.94,0,0,1-.15,2.76,6.3,6.3,0,0,1-.45,1.75,1.9,1.9,0,0,1-.74.92A2,2,0,0,1,1308.82,125.69Zm9.14-8.1h1.32v3h1.91a3.13,3.13,0,0,1,2.2.66,2.36,2.36,0,0,1,.72,1.83,2.32,2.32,0,0,1-.72,1.8,3.13,3.13,0,0,1-2.2.66H1318Zm3.15,6.78a2,2,0,0,0,1.31-.33,1.47,1.47,0,0,0,0-2,2,2,0,0,0-1.31-.33h-1.83v2.61Zm8,1.32a4.17,4.17,0,0,1-1.43-.24,3.15,3.15,0,0,1-1.14-.75,3.7,3.7,0,0,1-.76-1.27,5.43,5.43,0,0,1-.27-1.79v-.3a4.49,4.49,0,0,1,.3-1.7,3.58,3.58,0,0,1,.79-1.21,3.16,3.16,0,0,1,1.14-.74,4.06,4.06,0,0,1,2.63-.06,3,3,0,0,1,1,.55,2.77,2.77,0,0,1,.68.81,3.47,3.47,0,0,1,.39,1H1331a2.9,2.9,0,0,0-.29-.52,1.49,1.49,0,0,0-.39-.44,2,2,0,0,0-.54-.29,2.63,2.63,0,0,0-.73-.1,2.2,2.2,0,0,0-.84.16,2.16,2.16,0,0,0-.72.48,2.34,2.34,0,0,0-.51.83,3.71,3.71,0,0,0-.18,1.23v.3A4.3,4.3,0,0,0,1327,123a2.74,2.74,0,0,0,.51.89,2.05,2.05,0,0,0,.72.49,2.4,2.4,0,0,0,.84.15,2,2,0,0,0,1.23-.36,1.92,1.92,0,0,0,.72-1h1.35a3.31,3.31,0,0,1-1.17,1.88A3.41,3.41,0,0,1,1329.07,125.69Zm6.91-6.93h-2.71v-1.17H1340v1.17h-2.72v6.78H1336Zm5.54-1.17H1345a3.18,3.18,0,0,1,2.16.62,2,2,0,0,1,.69,1.56,1.63,1.63,0,0,1-.09.52,1.87,1.87,0,0,1-.26.48,1.52,1.52,0,0,1-.37.39,1.57,1.57,0,0,1-.48.25,1.92,1.92,0,0,1,1.11.69,1.87,1.87,0,0,1,.39,1.17,2.11,2.11,0,0,1-.69,1.66,3.24,3.24,0,0,1-2.16.61h-3.75Zm3.75,6.78a1.8,1.8,0,0,0,1.18-.3,1.23,1.23,0,0,0,0-1.72,1.68,1.68,0,0,0-1.18-.32h-2.43v2.34ZM1345,121a1.76,1.76,0,0,0,1.18-.3,1,1,0,0,0,.35-.82,1,1,0,0,0-.35-.78,1.77,1.77,0,0,0-1.18-.29h-2.13V121Zm8.33,4.74a4.37,4.37,0,0,1-1.45-.24,3.56,3.56,0,0,1-1.22-.75,3.71,3.71,0,0,1-.84-1.27,4.73,4.73,0,0,1-.31-1.79v-.3a4.3,4.3,0,0,1,.31-1.7,3.54,3.54,0,0,1,.84-1.21,3.39,3.39,0,0,1,1.22-.74,4.13,4.13,0,0,1,1.45-.25,4.19,4.19,0,0,1,1.46.25,3.35,3.35,0,0,1,1.21.74,3.54,3.54,0,0,1,.84,1.21,4.3,4.3,0,0,1,.32,1.7v.3a4.73,4.73,0,0,1-.32,1.79,3.71,3.71,0,0,1-.84,1.27,3.52,3.52,0,0,1-1.21.75A4.43,4.43,0,0,1,1353.3,125.69Zm0-1.2a2.83,2.83,0,0,0,.9-.15,2.27,2.27,0,0,0,.8-.49,2.64,2.64,0,0,0,.55-.89,3.43,3.43,0,0,0,.23-1.32v-.3a3,3,0,0,0-.23-1.23,2.41,2.41,0,0,0-.55-.84,2.11,2.11,0,0,0-.8-.48,2.78,2.78,0,0,0-1.8,0,2.08,2.08,0,0,0-.79.48,2.59,2.59,0,0,0-.57.84,3.23,3.23,0,0,0-.21,1.23v.3A3.65,3.65,0,0,0,1351,123a2.84,2.84,0,0,0,.57.89,2.23,2.23,0,0,0,.79.49A2.83,2.83,0,0,0,1353.3,124.49Zm-129,31.22a4.6,4.6,0,0,1-1.67-.29,3.09,3.09,0,0,1-1.26-.89,4.07,4.07,0,0,1-.78-1.51,8,8,0,0,1-.27-2.2v-.3a9.22,9.22,0,0,1,.32-2.6,4.91,4.91,0,0,1,.87-1.76,3.3,3.3,0,0,1,1.3-1,4.2,4.2,0,0,1,1.64-.31,3.85,3.85,0,0,1,2.2.59,2.7,2.7,0,0,1,1.1,1.89h-1.8a1.21,1.21,0,0,0-.54-.68,1.85,1.85,0,0,0-1-.21,2.67,2.67,0,0,0-1,.16,1.73,1.73,0,0,0-.76.54,2.82,2.82,0,0,0-.53,1.07,6.36,6.36,0,0,0-.21,1.67,2,2,0,0,1,.48-.55,2.48,2.48,0,0,1,.65-.37,3.22,3.22,0,0,1,.73-.22,3.78,3.78,0,0,1,.74-.07,3.37,3.37,0,0,1,2.47.87,3.28,3.28,0,0,1,.9,2.48v.14a3.48,3.48,0,0,1-.28,1.43,3.21,3.21,0,0,1-.77,1.11,3.49,3.49,0,0,1-1.17.72A4.06,4.06,0,0,1,1224.27,155.71Zm-.12-1.6a2,2,0,0,0,1.44-.52,1.85,1.85,0,0,0,.55-1.4v-.14a1.8,1.8,0,0,0-.55-1.37,2,2,0,0,0-1.44-.54,2,2,0,0,0-1.46.54,1.83,1.83,0,0,0-.54,1.37v.14a1.88,1.88,0,0,0,.54,1.4A2,2,0,0,0,1224.15,154.11ZM1237.7,145h1.8l-7.2,10.5h-1.8Zm-6.15,5a3,3,0,0,1-1-.17,2.2,2.2,0,0,1-1.28-1.3,2.79,2.79,0,0,1-.18-1v-.16a2.66,2.66,0,0,1,.18-1,2.27,2.27,0,0,1,.5-.79,2.48,2.48,0,0,1,.78-.52,3,3,0,0,1,1-.17,2.87,2.87,0,0,1,1,.17,2.48,2.48,0,0,1,.78.52,2.16,2.16,0,0,1,.51.79,2.66,2.66,0,0,1,.18,1v.16a2.79,2.79,0,0,1-.18,1,2.34,2.34,0,0,1-.51.79,2.45,2.45,0,0,1-.78.51A2.87,2.87,0,0,1,1231.55,150Zm0-1.34a.79.79,0,0,0,.64-.28,1.26,1.26,0,0,0,.24-.86v-.16a1.33,1.33,0,0,0-.24-.87.84.84,0,0,0-.64-.27.87.87,0,0,0-.65.27,1.33,1.33,0,0,0-.24.87v.16a1.26,1.26,0,0,0,.24.86A.81.81,0,0,0,1231.55,148.66Zm6.9,7a2.8,2.8,0,0,1-1-.18,2.29,2.29,0,0,1-.78-.51,2.43,2.43,0,0,1-.5-.78,2.8,2.8,0,0,1-.18-1v-.15a2.66,2.66,0,0,1,.18-1,2.41,2.41,0,0,1,.5-.8,2.29,2.29,0,0,1,.78-.51,2.8,2.8,0,0,1,1-.18,2.66,2.66,0,0,1,1,.18,2.23,2.23,0,0,1,1.29,1.31,2.66,2.66,0,0,1,.18,1v.15a2.8,2.8,0,0,1-.18,1,2.27,2.27,0,0,1-1.29,1.29A2.66,2.66,0,0,1,1238.45,155.69Zm0-1.35a.81.81,0,0,0,.64-.27,1.29,1.29,0,0,0,.24-.87v-.15a1.29,1.29,0,0,0-.24-.87.81.81,0,0,0-.64-.27.83.83,0,0,0-.65.27,1.29,1.29,0,0,0-.24.87v.15a1.29,1.29,0,0,0,.24.87A.83.83,0,0,0,1238.45,154.34ZM1250,145h8.25v10.5h-1.41v-9.27h-5.43v9.27H1250Zm11,2.55h1.23v1.5a2.88,2.88,0,0,1,1.13-1.21,3.16,3.16,0,0,1,1.69-.44,3.09,3.09,0,0,1,2.4,1,4.16,4.16,0,0,1,.9,2.91v.3a6.06,6.06,0,0,1-.24,1.79,3.6,3.6,0,0,1-.67,1.26,2.81,2.81,0,0,1-1.05.75,3.59,3.59,0,0,1-1.34.25,3.07,3.07,0,0,1-1.71-.45,2.91,2.91,0,0,1-1-1.13v4.43H1261Zm3.75,6.93a2.26,2.26,0,0,0,.9-.18,2.07,2.07,0,0,0,.72-.56,2.34,2.34,0,0,0,.48-.9,3.9,3.9,0,0,0,.18-1.24v-.3a3.39,3.39,0,0,0-.18-1.15,2.32,2.32,0,0,0-.48-.86,1.9,1.9,0,0,0-.72-.54,2.26,2.26,0,0,0-.9-.18,2.64,2.64,0,0,0-1,.18,2.06,2.06,0,0,0-.76.48,2.16,2.16,0,0,0-.5.72,2.26,2.26,0,0,0-.18.9v1.2a2.64,2.64,0,0,0,.18,1,2.17,2.17,0,0,0,1.26,1.26A2.64,2.64,0,0,0,1264.7,154.52Zm8.78,1.17a4.37,4.37,0,0,1-1.45-.24,3.56,3.56,0,0,1-1.22-.75,3.71,3.71,0,0,1-.84-1.27,4.73,4.73,0,0,1-.31-1.79v-.3a4.3,4.3,0,0,1,.31-1.7,3.54,3.54,0,0,1,.84-1.21,3.39,3.39,0,0,1,1.22-.74,4.13,4.13,0,0,1,1.45-.25,4.19,4.19,0,0,1,1.46.25,3.35,3.35,0,0,1,1.21.74,3.54,3.54,0,0,1,.84,1.21,4.3,4.3,0,0,1,.32,1.7v.3a4.73,4.73,0,0,1-.32,1.79,3.71,3.71,0,0,1-.84,1.27,3.52,3.52,0,0,1-1.21.75A4.43,4.43,0,0,1,1273.48,155.69Zm0-1.2a2.83,2.83,0,0,0,.9-.15,2.27,2.27,0,0,0,.8-.49,2.64,2.64,0,0,0,.55-.89,3.43,3.43,0,0,0,.23-1.32v-.3a3,3,0,0,0-.23-1.23,2.41,2.41,0,0,0-.55-.84,2.11,2.11,0,0,0-.8-.48,2.77,2.77,0,0,0-1.8,0,2.08,2.08,0,0,0-.79.48,2.59,2.59,0,0,0-.57.84,3.23,3.23,0,0,0-.21,1.23v.3a3.65,3.65,0,0,0,.21,1.32,2.84,2.84,0,0,0,.57.89,2.23,2.23,0,0,0,.79.49A2.83,2.83,0,0,0,1273.48,154.49Zm5.69-6.9h1.41l2.84,4.95,2.83-4.95h1.32v7.95h-1.32v-5.77l-2.35,4h-1.05l-2.36-4v5.77h-1.32Zm10.8,0h1.32v3h1.61a3.13,3.13,0,0,1,2.2.66,2.36,2.36,0,0,1,.72,1.83,2.32,2.32,0,0,1-.72,1.8,3.13,3.13,0,0,1-2.2.66H1290Zm2.85,6.78a2,2,0,0,0,1.31-.33,1.47,1.47,0,0,0,0-1.95,2,2,0,0,0-1.31-.33h-1.53v2.61Zm4.23-6.78h1.32v7.95h-1.32Zm3.72,0h1.32v6.78H1305v-6.78h1.32v6.78h2.9v-6.78h1.32v7.95h-9.75Zm11.77,8.1a1.73,1.73,0,0,1-.45-.05v-1.31h.22a.84.84,0,0,0,.57-.21,1.47,1.47,0,0,0,.41-.74,7.6,7.6,0,0,0,.22-1.42c0-.6.08-1.36.08-2.28v-2.1h5.7v7.95H1318v-6.78h-3.06V150a20.94,20.94,0,0,1-.15,2.76,6.3,6.3,0,0,1-.45,1.75,1.9,1.9,0,0,1-.74.92A2,2,0,0,1,1312.54,155.69Zm12.45,0a4.43,4.43,0,0,1-1.46-.24,3.33,3.33,0,0,1-1.21-.73,3.75,3.75,0,0,1-.84-1.28,4.71,4.71,0,0,1-.32-1.8v-.3a4.43,4.43,0,0,1,.3-1.71,3.64,3.64,0,0,1,.8-1.22,3.25,3.25,0,0,1,1.17-.73,4.18,4.18,0,0,1,1.41-.24,3.34,3.34,0,0,1,3.67,3.67V152h-6a2.76,2.76,0,0,0,.23,1.18,2.21,2.21,0,0,0,.58.78,2.15,2.15,0,0,0,.8.43,3.13,3.13,0,0,0,.9.14,2.62,2.62,0,0,0,1.38-.3,1.63,1.63,0,0,0,.7-.83h1.29a2.72,2.72,0,0,1-1.18,1.74,3.19,3.19,0,0,1-1,.44A4.49,4.49,0,0,1,1325,155.69Zm-.08-7.05a3.38,3.38,0,0,0-.9.13,2.09,2.09,0,0,0-1.32,1.1,2.25,2.25,0,0,0-.21,1h4.79a2.63,2.63,0,0,0-.21-1,1.71,1.71,0,0,0-.5-.69,1.92,1.92,0,0,0-.75-.39A3.26,3.26,0,0,0,1324.91,148.64Zm5.48-1h1.32v3.32h4.11v-3.32h1.32v7.95h-1.32v-3.46h-4.11v3.46h-1.32Zm9.15,0h1.32v3.32H1345v-3.32h1.32v7.95H1345v-3.46h-4.11v3.46h-1.32Zm12.46,8.1a4.43,4.43,0,0,1-1.46-.24,3.52,3.52,0,0,1-1.21-.75,3.71,3.71,0,0,1-.84-1.27,4.73,4.73,0,0,1-.32-1.79v-.3a4.3,4.3,0,0,1,.32-1.7,3.54,3.54,0,0,1,.84-1.21,3.35,3.35,0,0,1,1.21-.74,4.19,4.19,0,0,1,1.46-.25,4.13,4.13,0,0,1,1.45.25,3.39,3.39,0,0,1,1.22.74,3.54,3.54,0,0,1,.84,1.21,4.3,4.3,0,0,1,.31,1.7v.3a4.73,4.73,0,0,1-.31,1.79,3.71,3.71,0,0,1-.84,1.27,3.56,3.56,0,0,1-1.22.75A4.37,4.37,0,0,1,1352,155.69Zm0-1.2a2.83,2.83,0,0,0,.9-.15,2.23,2.23,0,0,0,.79-.49,2.65,2.65,0,0,0,.56-.89,3.44,3.44,0,0,0,.22-1.32v-.3a3,3,0,0,0-.22-1.23,2.43,2.43,0,0,0-.56-.84,2.08,2.08,0,0,0-.79-.48,2.77,2.77,0,0,0-1.8,0,2.11,2.11,0,0,0-.8.48,2.59,2.59,0,0,0-.57.84,3.23,3.23,0,0,0-.21,1.23v.3a3.65,3.65,0,0,0,.21,1.32,2.84,2.84,0,0,0,.57.89,2.27,2.27,0,0,0,.8.49A2.83,2.83,0,0,0,1352,154.49Zm8.77,1.2a4.17,4.17,0,0,1-1.43-.24,3.15,3.15,0,0,1-1.14-.75,3.7,3.7,0,0,1-.76-1.27,5.43,5.43,0,0,1-.27-1.79v-.3a4.49,4.49,0,0,1,.3-1.7,3.58,3.58,0,0,1,.79-1.21,3.16,3.16,0,0,1,1.14-.74,4.06,4.06,0,0,1,2.63-.06,3,3,0,0,1,1,.55,2.77,2.77,0,0,1,.68.81,3.47,3.47,0,0,1,.39,1h-1.35a2.9,2.9,0,0,0-.29-.52,1.49,1.49,0,0,0-.39-.44,2,2,0,0,0-.54-.29,2.63,2.63,0,0,0-.73-.1,2.2,2.2,0,0,0-.84.16,2.16,2.16,0,0,0-.72.48,2.34,2.34,0,0,0-.51.83,3.71,3.71,0,0,0-.18,1.23v.3a4.3,4.3,0,0,0,.18,1.32,2.74,2.74,0,0,0,.51.89,2.05,2.05,0,0,0,.72.49,2.4,2.4,0,0,0,.84.15,2,2,0,0,0,1.23-.36,1.92,1.92,0,0,0,.72-1h1.35a3.31,3.31,0,0,1-1.17,1.88A3.41,3.41,0,0,1,1360.77,155.69Zm6.91-6.93H1365v-1.17h6.75v1.17H1369v6.78h-1.32Zm5.54-1.17h1.32v3h1.9a3.16,3.16,0,0,1,2.21.66,2.36,2.36,0,0,1,.72,1.83,2.32,2.32,0,0,1-.72,1.8,3.16,3.16,0,0,1-2.21.66h-3.22Zm3.15,6.78a2,2,0,0,0,1.3-.33,1.44,1.44,0,0,0,0-1.95,2,2,0,0,0-1.3-.33h-1.83v2.61Zm-152.25,31.34a6.11,6.11,0,0,1-1.68-.22,3.58,3.58,0,0,1-1.22-.61,2.69,2.69,0,0,1-.75-.94,2.9,2.9,0,0,1-.25-1.22,2.46,2.46,0,0,1,.55-1.59,3.11,3.11,0,0,1,1.65-1,4.33,4.33,0,0,1-.75-.36,2.62,2.62,0,0,1-.6-.55,2.49,2.49,0,0,1-.4-.69,2.32,2.32,0,0,1-.15-.84,2.64,2.64,0,0,1,.24-1.11,2.58,2.58,0,0,1,.69-.89,3.26,3.26,0,0,1,1.12-.61,5.25,5.25,0,0,1,1.55-.2,5.18,5.18,0,0,1,1.54.2,3.14,3.14,0,0,1,1.13.61,2.36,2.36,0,0,1,.69.89,2.64,2.64,0,0,1,.24,1.11,2.21,2.21,0,0,1-.54,1.52,3.29,3.29,0,0,1-1.35.92,3.37,3.37,0,0,1,1.63,1,2.36,2.36,0,0,1,.56,1.62,2.9,2.9,0,0,1-.26,1.22,2.69,2.69,0,0,1-.75.94,3.54,3.54,0,0,1-1.23.61A5.91,5.91,0,0,1,1224.12,185.71Zm0-1.6a2.43,2.43,0,0,0,1.57-.42,1.37,1.37,0,0,0,.53-1.11,1.44,1.44,0,0,0-.6-1.21,2.2,2.2,0,0,0-3,0,1.44,1.44,0,0,0-.6,1.21,1.36,1.36,0,0,0,.52,1.11A2.54,2.54,0,0,0,1224.12,184.11Zm0-4.62a2.8,2.8,0,0,0,1.29-.5,1.39,1.39,0,0,0,.51-1.16,1.17,1.17,0,0,0-.5-1,2.18,2.18,0,0,0-1.3-.34,2.27,2.27,0,0,0-1.32.34,1.15,1.15,0,0,0-.48,1,1.39,1.39,0,0,0,.51,1.16A2.89,2.89,0,0,0,1224.12,179.49Zm13.65-4.45h1.8l-7.2,10.5h-1.8Zm-6.15,5a3,3,0,0,1-1-.17,2.15,2.15,0,0,1-1.27-1.3,2.79,2.79,0,0,1-.18-1v-.16a2.66,2.66,0,0,1,.18-1,2.25,2.25,0,0,1,.49-.79,2.48,2.48,0,0,1,.78-.52,3,3,0,0,1,1-.17,2.93,2.93,0,0,1,1,.17,2.48,2.48,0,0,1,.78.52,2.16,2.16,0,0,1,.51.79,2.66,2.66,0,0,1,.18,1v.16a2.79,2.79,0,0,1-.18,1,2.34,2.34,0,0,1-.51.79,2.45,2.45,0,0,1-.78.51A2.93,2.93,0,0,1,1231.62,180Zm0-1.34a.81.81,0,0,0,.65-.28,1.26,1.26,0,0,0,.24-.86v-.16a1.33,1.33,0,0,0-.24-.87.87.87,0,0,0-.65-.27.84.84,0,0,0-.64.27,1.33,1.33,0,0,0-.24.87v.16a1.26,1.26,0,0,0,.24.86A.79.79,0,0,0,1231.62,178.66Zm6.9,7a2.8,2.8,0,0,1-1-.18,2.29,2.29,0,0,1-.78-.51,2.4,2.4,0,0,1-.49-.78,2.8,2.8,0,0,1-.18-1v-.15a2.66,2.66,0,0,1,.18-1,2.39,2.39,0,0,1,.49-.8,2.29,2.29,0,0,1,.78-.51,2.8,2.8,0,0,1,1-.18,2.71,2.71,0,0,1,1,.18,2.23,2.23,0,0,1,1.29,1.31,2.66,2.66,0,0,1,.18,1v.15a2.8,2.8,0,0,1-.18,1,2.27,2.27,0,0,1-1.29,1.29A2.71,2.71,0,0,1,1238.52,185.69Zm0-1.35a.83.83,0,0,0,.65-.27,1.29,1.29,0,0,0,.24-.87v-.15a1.29,1.29,0,0,0-.24-.87.83.83,0,0,0-.65-.27.81.81,0,0,0-.64.27,1.29,1.29,0,0,0-.24.87v.15a1.29,1.29,0,0,0,.24.87A.81.81,0,0,0,1238.52,184.34Zm14.15-8.07H1249V175h8.7v1.23h-3.64v9.27h-1.41Zm8.51,9.42a4.43,4.43,0,0,1-1.46-.24,3.52,3.52,0,0,1-1.21-.75,3.71,3.71,0,0,1-.84-1.27,4.73,4.73,0,0,1-.32-1.79v-.3a4.3,4.3,0,0,1,.32-1.7,3.54,3.54,0,0,1,.84-1.21,3.35,3.35,0,0,1,1.21-.74,4.19,4.19,0,0,1,1.46-.25,4.13,4.13,0,0,1,1.45.25,3.39,3.39,0,0,1,1.22.74,3.54,3.54,0,0,1,.84,1.21,4.3,4.3,0,0,1,.31,1.7v.3a4.73,4.73,0,0,1-.31,1.79,3.71,3.71,0,0,1-.84,1.27,3.56,3.56,0,0,1-1.22.75A4.37,4.37,0,0,1,1261.18,185.69Zm0-1.2a2.83,2.83,0,0,0,.9-.15,2.23,2.23,0,0,0,.79-.49,2.65,2.65,0,0,0,.56-.89,3.44,3.44,0,0,0,.22-1.32v-.3a3,3,0,0,0-.22-1.23,2.43,2.43,0,0,0-.56-.84,2.08,2.08,0,0,0-.79-.48,2.77,2.77,0,0,0-1.8,0,2.11,2.11,0,0,0-.8.48,2.59,2.59,0,0,0-.57.84,3.23,3.23,0,0,0-.21,1.23v.3a3.65,3.65,0,0,0,.21,1.32,2.84,2.84,0,0,0,.57.89,2.27,2.27,0,0,0,.8.49A2.83,2.83,0,0,0,1261.18,184.49Zm5.69-6.9h1.23v1.5a2.86,2.86,0,0,1,1.12-1.21,3.19,3.19,0,0,1,1.7-.44,3.09,3.09,0,0,1,2.4,1,4.16,4.16,0,0,1,.9,2.91v.3a6.06,6.06,0,0,1-.24,1.79,3.62,3.62,0,0,1-.68,1.26,2.81,2.81,0,0,1-1,.75,3.54,3.54,0,0,1-1.33.25,3.07,3.07,0,0,1-1.71-.45,2.91,2.91,0,0,1-1-1.13v4.43h-1.32Zm3.75,6.93a2.26,2.26,0,0,0,.9-.18,2.07,2.07,0,0,0,.72-.56,2.34,2.34,0,0,0,.48-.9,3.9,3.9,0,0,0,.18-1.24v-.3a3.39,3.39,0,0,0-.18-1.15,2.32,2.32,0,0,0-.48-.86,1.9,1.9,0,0,0-.72-.54,2.26,2.26,0,0,0-.9-.18,2.64,2.64,0,0,0-1,.18,2.1,2.1,0,0,0-.77.48,2.14,2.14,0,0,0-.49.72,2.26,2.26,0,0,0-.18.9v1.2a2.64,2.64,0,0,0,.18,1,2.36,2.36,0,0,0,.49.77,2.42,2.42,0,0,0,.77.49A2.64,2.64,0,0,0,1270.62,184.52Zm5.48-6.93h5.4v1.17h-4.08v6.78h-1.32Zm10.05,8.1a4.37,4.37,0,0,1-1.45-.24,3.56,3.56,0,0,1-1.22-.75,3.71,3.71,0,0,1-.84-1.27,4.73,4.73,0,0,1-.31-1.79v-.3a4.3,4.3,0,0,1,.31-1.7,3.54,3.54,0,0,1,.84-1.21,3.39,3.39,0,0,1,1.22-.74,4.13,4.13,0,0,1,1.45-.25,4.19,4.19,0,0,1,1.46.25,3.35,3.35,0,0,1,1.21.74,3.54,3.54,0,0,1,.84,1.21,4.3,4.3,0,0,1,.32,1.7v.3a4.73,4.73,0,0,1-.32,1.79,3.71,3.71,0,0,1-.84,1.27,3.52,3.52,0,0,1-1.21.75A4.43,4.43,0,0,1,1286.15,185.69Zm0-1.2a2.83,2.83,0,0,0,.9-.15,2.27,2.27,0,0,0,.8-.49,2.64,2.64,0,0,0,.55-.89,3.43,3.43,0,0,0,.23-1.32v-.3a3,3,0,0,0-.23-1.23,2.41,2.41,0,0,0-.55-.84,2.11,2.11,0,0,0-.8-.48,2.77,2.77,0,0,0-1.8,0,2.08,2.08,0,0,0-.79.48,2.59,2.59,0,0,0-.57.84,3.23,3.23,0,0,0-.21,1.23v.3a3.65,3.65,0,0,0,.21,1.32,2.84,2.84,0,0,0,.57.89,2.23,2.23,0,0,0,.79.49A2.83,2.83,0,0,0,1286.15,184.49Zm5.7-6.9h3.45a3.18,3.18,0,0,1,2.16.62,2,2,0,0,1,.69,1.56,1.63,1.63,0,0,1-.09.52,1.87,1.87,0,0,1-.26.48,1.52,1.52,0,0,1-.37.39,1.57,1.57,0,0,1-.48.25,1.92,1.92,0,0,1,1.11.69,1.87,1.87,0,0,1,.39,1.17,2.11,2.11,0,0,1-.69,1.66,3.24,3.24,0,0,1-2.16.61h-3.75Zm3.75,6.78a1.8,1.8,0,0,0,1.18-.3,1.23,1.23,0,0,0,0-1.72,1.68,1.68,0,0,0-1.18-.32h-2.43v2.34Zm-.3-3.42a1.76,1.76,0,0,0,1.18-.3,1,1,0,0,0,.35-.82,1,1,0,0,0-.35-.78,1.77,1.77,0,0,0-1.18-.29h-2.13V181Zm4.65,4.74a1.73,1.73,0,0,1-.45-.05v-1.31h.23a.84.84,0,0,0,.57-.21,1.47,1.47,0,0,0,.4-.74,7.48,7.48,0,0,0,.23-1.42c0-.6.07-1.36.07-2.28v-2.1h5.7v7.95h-1.32v-6.78h-3.06V180a20.94,20.94,0,0,1-.15,2.76,6.3,6.3,0,0,1-.45,1.75,1.89,1.89,0,0,1-.73.92A2,2,0,0,1,1300,185.69Zm10.71-3.3a2.33,2.33,0,0,1-1.42-.81,2.54,2.54,0,0,1-.44-1.53,2.31,2.31,0,0,1,.71-1.81,3.32,3.32,0,0,1,2.29-.65h3.45v7.95h-1.32v-3h-2l-1.94,3h-1.47Zm-.54-2.34a1.24,1.24,0,0,0,.36,1,1.89,1.89,0,0,0,1.25.33h2.2v-2.58h-2.2a1.89,1.89,0,0,0-1.25.33A1.24,1.24,0,0,0,1310.12,180.05Zm7.76,5.49v-1.65h1.65v1.65l-1.5,2.25h-.75Zm9.07,3.15a1.73,1.73,0,0,1-.45-.05v-1.2a2.3,2.3,0,0,0,.45.05.8.8,0,0,0,.39-.08.82.82,0,0,0,.32-.28,3.25,3.25,0,0,0,.31-.6c.12-.25.26-.58.41-1l-3.38-7.95h1.47l2.58,6.45,2.34-6.45h1.41l-3,7.95q-.32.84-.6,1.44a4.24,4.24,0,0,1-.61,1,1.83,1.83,0,0,1-.71.55A2.2,2.2,0,0,1,1327,188.69Zm10.13-3a4.17,4.17,0,0,1-1.43-.24,3.15,3.15,0,0,1-1.14-.75,3.7,3.7,0,0,1-.76-1.27,5.43,5.43,0,0,1-.27-1.79v-.3a4.49,4.49,0,0,1,.3-1.7,3.58,3.58,0,0,1,.79-1.21,3.16,3.16,0,0,1,1.14-.74,4.06,4.06,0,0,1,2.63-.06,3,3,0,0,1,1,.55,2.77,2.77,0,0,1,.68.81,3.47,3.47,0,0,1,.39,1H1339a2.9,2.9,0,0,0-.29-.52,1.49,1.49,0,0,0-.39-.44,2,2,0,0,0-.54-.29,2.63,2.63,0,0,0-.73-.1,2.2,2.2,0,0,0-.84.16,2.16,2.16,0,0,0-.72.48,2.34,2.34,0,0,0-.51.83,3.71,3.71,0,0,0-.18,1.23v.3A4.3,4.3,0,0,0,1335,183a2.74,2.74,0,0,0,.51.89,2.05,2.05,0,0,0,.72.49,2.4,2.4,0,0,0,.84.15,2,2,0,0,0,1.23-.36,1.92,1.92,0,0,0,.72-1h1.35a3.31,3.31,0,0,1-1.17,1.88A3.41,3.41,0,0,1,1337.08,185.69Zm4.72,0a1.73,1.73,0,0,1-.45-.05v-1.31h.23a.84.84,0,0,0,.57-.21,1.47,1.47,0,0,0,.4-.74,7.48,7.48,0,0,0,.23-1.42c0-.6.07-1.36.07-2.28v-2.1h5.7v7.95h-1.32v-6.78h-3.06V180a20.94,20.94,0,0,1-.15,2.76,6.3,6.3,0,0,1-.45,1.75,1.89,1.89,0,0,1-.73.92A2,2,0,0,1,1341.8,185.69Zm10.2,3a1.73,1.73,0,0,1-.45-.05v-1.2a2.3,2.3,0,0,0,.45.05.8.8,0,0,0,.39-.08.82.82,0,0,0,.32-.28,3.25,3.25,0,0,0,.31-.6c.12-.25.26-.58.41-1l-3.38-7.95h1.47l2.58,6.45,2.34-6.45h1.41l-3,7.95q-.31.84-.6,1.44a4.24,4.24,0,0,1-.61,1,1.83,1.83,0,0,1-.71.55A2.2,2.2,0,0,1,1352,188.69Zm7.35-11.1h5.4v1.17h-4.08v6.78h-1.32Zm6.9,0h1.32v6l4.11-6H1373v7.95h-1.32v-6l-4.11,6h-1.32Z"/><path d="M1223.82,217.7a5.34,5.34,0,0,1-1.62-.22,3.5,3.5,0,0,1-1.17-.66,2.94,2.94,0,0,1-.72-1,3.37,3.37,0,0,1-.24-1.29h1.8a1.49,1.49,0,0,0,.46,1.17,2.29,2.29,0,0,0,1.49.4,2.2,2.2,0,0,0,1.45-.4,1.45,1.45,0,0,0,.5-1.17,1.59,1.59,0,0,0-.45-1.2,2.07,2.07,0,0,0-1.5-.45h-1v-1.5h1a2.07,2.07,0,0,0,1.35-.38,1.57,1.57,0,0,0,0-2.19,2.07,2.07,0,0,0-1.36-.35,2.13,2.13,0,0,0-1.38.37,1.32,1.32,0,0,0-.44,1h-1.8a2.81,2.81,0,0,1,.92-2.19,4,4,0,0,1,2.7-.82,4.94,4.94,0,0,1,1.56.22,3.1,3.1,0,0,1,1.12.62,2.41,2.41,0,0,1,.68.88,2.53,2.53,0,0,1,.24,1.1,2.39,2.39,0,0,1-.48,1.51,2.68,2.68,0,0,1-1.32.86,2.67,2.67,0,0,1,1.42.91,2.59,2.59,0,0,1,.53,1.71,3,3,0,0,1-.24,1.19,2.56,2.56,0,0,1-.72,1,3.3,3.3,0,0,1-1.17.65A5.34,5.34,0,0,1,1223.82,217.7ZM1237.39,207h1.8l-7.2,10.5h-1.8Zm-6.15,5a2.61,2.61,0,0,1-1-.19,2.27,2.27,0,0,1-.78-.5,2.54,2.54,0,0,1-.5-.78,2.82,2.82,0,0,1-.18-1v-.15a2.66,2.66,0,0,1,.18-1,2.37,2.37,0,0,1,.5-.79,2.32,2.32,0,0,1,.78-.52,3,3,0,0,1,1-.17,2.87,2.87,0,0,1,1,.17,2.32,2.32,0,0,1,.78.52,2.24,2.24,0,0,1,.51.79,2.66,2.66,0,0,1,.18,1v.15a2.82,2.82,0,0,1-.18,1,2.4,2.4,0,0,1-.51.78,2.27,2.27,0,0,1-.78.5A2.48,2.48,0,0,1,1231.24,212Zm0-1.35a.81.81,0,0,0,.64-.27,1.32,1.32,0,0,0,.24-.88v-.15a1.31,1.31,0,0,0-.24-.87.84.84,0,0,0-.64-.26.86.86,0,0,0-.65.26,1.31,1.31,0,0,0-.24.87v.15a1.32,1.32,0,0,0,.24.88A.83.83,0,0,0,1231.24,210.66Zm6.9,7a2.8,2.8,0,0,1-1-.18,2.29,2.29,0,0,1-.78-.51,2.43,2.43,0,0,1-.5-.78,2.8,2.8,0,0,1-.18-1v-.15a2.75,2.75,0,0,1,.18-1,2.37,2.37,0,0,1,.5-.79,2.29,2.29,0,0,1,.78-.51,2.8,2.8,0,0,1,1-.18,2.66,2.66,0,0,1,1,.18,2.29,2.29,0,0,1,.78.51,2.24,2.24,0,0,1,.51.79,2.75,2.75,0,0,1,.18,1v.15a2.8,2.8,0,0,1-.18,1,2.27,2.27,0,0,1-1.29,1.29A2.66,2.66,0,0,1,1238.14,217.69Zm0-1.35a.81.81,0,0,0,.64-.27,1.29,1.29,0,0,0,.24-.87v-.15a1.29,1.29,0,0,0-.24-.87.81.81,0,0,0-.64-.27.83.83,0,0,0-.65.27,1.29,1.29,0,0,0-.24.87v.15a1.29,1.29,0,0,0,.24.87A.83.83,0,0,0,1238.14,216.34Zm14-8.07h-3.65V207h8.7v1.23h-3.64v9.27h-1.41Zm5.21,1.32h1.23v1.5a2.86,2.86,0,0,1,1.12-1.21,3.19,3.19,0,0,1,1.7-.44,3.09,3.09,0,0,1,2.4,1,4.16,4.16,0,0,1,.9,2.91v.3a5.9,5.9,0,0,1-.24,1.78,3.67,3.67,0,0,1-.68,1.27,3.06,3.06,0,0,1-1,.75,3.35,3.35,0,0,1-1.33.25,3.07,3.07,0,0,1-1.71-.45,2.91,2.91,0,0,1-1-1.13v4.43h-1.32Zm3.75,6.93a2.26,2.26,0,0,0,.9-.18,2.16,2.16,0,0,0,.72-.55,2.59,2.59,0,0,0,.48-.9,4,4,0,0,0,.18-1.25v-.3a3.39,3.39,0,0,0-.18-1.15,2.32,2.32,0,0,0-.48-.86,1.9,1.9,0,0,0-.72-.54,2.26,2.26,0,0,0-.9-.18,2.64,2.64,0,0,0-1,.18,2.1,2.1,0,0,0-.77.48,2.14,2.14,0,0,0-.49.72,2.26,2.26,0,0,0-.18.9v1.2a2.64,2.64,0,0,0,.18,1,2.26,2.26,0,0,0,.49.77,2.42,2.42,0,0,0,.77.49A2.64,2.64,0,0,0,1261.1,216.52Zm7.74,1.17a3.51,3.51,0,0,1-1.17-.18,2.56,2.56,0,0,1-.84-.53,2.1,2.1,0,0,1-.52-.78,2.59,2.59,0,0,1-.18-1,2,2,0,0,1,.69-1.71,3.32,3.32,0,0,1,2-.53h2.58v-.54a1.77,1.77,0,0,0-.47-1.41,2,2,0,0,0-1.36-.39,1.93,1.93,0,0,0-1.25.33,1.07,1.07,0,0,0-.43.72h-1.32a2.08,2.08,0,0,1,.25-.89,2.54,2.54,0,0,1,.63-.72,3.29,3.29,0,0,1,1-.46,4,4,0,0,1,1.23-.18,3.5,3.5,0,0,1,2.24.67,2.61,2.61,0,0,1,.84,2.18v4.34a9.06,9.06,0,0,0,.07.91h-1.15c0-.23-.05-.44-.06-.65s0-.44,0-.7a2.67,2.67,0,0,1-1,1.07A3.29,3.29,0,0,1,1268.84,217.69Zm.29-1.2a3,3,0,0,0,.87-.12,2.2,2.2,0,0,0,.73-.38,1.75,1.75,0,0,0,.68-1.45V214h-2.36a1.94,1.94,0,0,0-1.15.3,1,1,0,0,0-.42.92,1.2,1.2,0,0,0,.39.91A1.86,1.86,0,0,0,1269.13,216.49Zm5.93-6.9h1.32v3.32h4.11v-3.32h1.32v7.95h-1.32v-3.47h-4.11v3.47h-1.32Zm12.23,8.1a4.17,4.17,0,0,1-1.43-.24,3.15,3.15,0,0,1-1.14-.75,3.66,3.66,0,0,1-.76-1.28,5.29,5.29,0,0,1-.27-1.78v-.3a4.52,4.52,0,0,1,.3-1.7,3.58,3.58,0,0,1,.79-1.21,3.14,3.14,0,0,1,1.14-.73,3.59,3.59,0,0,1,1.37-.26,3.78,3.78,0,0,1,1.26.2,2.92,2.92,0,0,1,1.65,1.34,3.53,3.53,0,0,1,.39,1h-1.35a2.9,2.9,0,0,0-.29-.52,1.38,1.38,0,0,0-.39-.44,2,2,0,0,0-.54-.29,2.3,2.3,0,0,0-.73-.1,2.41,2.41,0,0,0-.84.16,2.05,2.05,0,0,0-.72.49,2.21,2.21,0,0,0-.51.82,3.71,3.71,0,0,0-.18,1.23v.3a4.3,4.3,0,0,0,.18,1.32,2.74,2.74,0,0,0,.51.89,2.05,2.05,0,0,0,.72.49,2.4,2.4,0,0,0,.84.15,2,2,0,0,0,1.23-.36,1.92,1.92,0,0,0,.72-1h1.35a3.25,3.25,0,0,1-1.17,1.87A3.35,3.35,0,0,1,1287.29,217.69Zm5.1-8.1h6.6v7.95h-1.32v-6.78h-4v6.78h-1.32Zm12.29,8.1a4.37,4.37,0,0,1-1.45-.24,3.56,3.56,0,0,1-1.22-.75,3.66,3.66,0,0,1-.84-1.28,4.61,4.61,0,0,1-.31-1.78v-.3a4.33,4.33,0,0,1,.31-1.7,3.54,3.54,0,0,1,.84-1.21,3.37,3.37,0,0,1,1.22-.73,3.92,3.92,0,0,1,1.45-.26,4,4,0,0,1,1.46.26,3.33,3.33,0,0,1,1.21.73,3.54,3.54,0,0,1,.84,1.21,4.33,4.33,0,0,1,.32,1.7v.3a4.6,4.6,0,0,1-.32,1.78,3.66,3.66,0,0,1-.84,1.28,3.52,3.52,0,0,1-1.21.75A4.43,4.43,0,0,1,1304.68,217.69Zm0-1.2a2.83,2.83,0,0,0,.9-.15,2.27,2.27,0,0,0,.8-.49,2.64,2.64,0,0,0,.55-.89,3.43,3.43,0,0,0,.23-1.32v-.3a3,3,0,0,0-.23-1.23,2.41,2.41,0,0,0-.55-.84,2.11,2.11,0,0,0-.8-.48,2.77,2.77,0,0,0-1.8,0,2.08,2.08,0,0,0-.79.48,2.59,2.59,0,0,0-.57.84,3.23,3.23,0,0,0-.21,1.23v.3a3.65,3.65,0,0,0,.21,1.32,2.84,2.84,0,0,0,.57.89,2.23,2.23,0,0,0,.79.49A2.83,2.83,0,0,0,1304.68,216.49Zm5.7-6.9h1.23v1.5a2.86,2.86,0,0,1,1.12-1.21,3.19,3.19,0,0,1,1.7-.44,3.09,3.09,0,0,1,2.4,1,4.16,4.16,0,0,1,.9,2.91v.3a5.9,5.9,0,0,1-.24,1.78,3.67,3.67,0,0,1-.68,1.27,3.06,3.06,0,0,1-1,.75,3.35,3.35,0,0,1-1.33.25,3.07,3.07,0,0,1-1.71-.45,2.91,2.91,0,0,1-1-1.13v4.43h-1.32Zm3.75,6.93a2.26,2.26,0,0,0,.9-.18,2.16,2.16,0,0,0,.72-.55,2.59,2.59,0,0,0,.48-.9,4,4,0,0,0,.18-1.25v-.3a3.39,3.39,0,0,0-.18-1.15,2.32,2.32,0,0,0-.48-.86,1.9,1.9,0,0,0-.72-.54,2.26,2.26,0,0,0-.9-.18,2.64,2.64,0,0,0-1,.18,2.1,2.1,0,0,0-.77.48,2.14,2.14,0,0,0-.49.72,2.26,2.26,0,0,0-.18.9v1.2a2.64,2.64,0,0,0,.18,1,2.26,2.26,0,0,0,.49.77,2.42,2.42,0,0,0,.77.49A2.64,2.64,0,0,0,1314.13,216.52Zm7.14-5.76h-2.71v-1.17h6.75v1.17h-2.72v6.78h-1.32Zm9.29-1.17h1.32v6l4.11-6h1.32v7.95H1336v-6l-4.11,6h-1.32Zm12.91,0h5.4v1.17h-4.08v6.78h-1.32Zm6.9,0h1.23v1.5a2.86,2.86,0,0,1,1.12-1.21,3.19,3.19,0,0,1,1.7-.44,3.09,3.09,0,0,1,2.4,1,4.16,4.16,0,0,1,.9,2.91v.3a5.9,5.9,0,0,1-.24,1.78,3.67,3.67,0,0,1-.68,1.27,3.06,3.06,0,0,1-1,.75,3.35,3.35,0,0,1-1.33.25,3.07,3.07,0,0,1-1.71-.45,2.91,2.91,0,0,1-1-1.13v4.43h-1.32Zm3.75,6.93a2.26,2.26,0,0,0,.9-.18,2.16,2.16,0,0,0,.72-.55,2.59,2.59,0,0,0,.48-.9,4,4,0,0,0,.18-1.25v-.3a3.39,3.39,0,0,0-.18-1.15,2.32,2.32,0,0,0-.48-.86,1.9,1.9,0,0,0-.72-.54,2.26,2.26,0,0,0-.9-.18,2.64,2.64,0,0,0-1,.18,2.1,2.1,0,0,0-.77.48,2.14,2.14,0,0,0-.49.72,2.26,2.26,0,0,0-.18.9v1.2a2.64,2.64,0,0,0,.18,1,2.26,2.26,0,0,0,.49.77,2.42,2.42,0,0,0,.77.49A2.64,2.64,0,0,0,1354.12,216.52Zm6.23,4.17a2.3,2.3,0,0,1-.45-.05v-1.19a2.28,2.28,0,0,0,.45,0,.94.94,0,0,0,.39-.07,1,1,0,0,0,.32-.29,3.25,3.25,0,0,0,.31-.6c.12-.25.26-.58.41-1l-3.38-7.95h1.47l2.58,6.45,2.34-6.45h1.41l-3,7.95q-.32.84-.6,1.44a4.16,4.16,0,0,1-.61,1,1.77,1.77,0,0,1-.71.56A2.2,2.2,0,0,1,1360.35,220.69Zm9.75-3a3.88,3.88,0,0,1-2.35-.63,2.32,2.32,0,0,1-1-1.77h1.32a1.29,1.29,0,0,0,.62.9,2.71,2.71,0,0,0,1.36.3,2.48,2.48,0,0,0,1.5-.35,1,1,0,0,0,.48-.85,1.12,1.12,0,0,0-.39-.91,2,2,0,0,0-1.35-.35H1369V213h1.27a1.73,1.73,0,0,0,1.17-.31,1.14,1.14,0,0,0,.36-.89,1,1,0,0,0-.42-.78,2,2,0,0,0-1.26-.33,2.31,2.31,0,0,0-1.33.3,1.22,1.22,0,0,0-.5.82H1367a2.4,2.4,0,0,1,.27-.91,2.45,2.45,0,0,1,.65-.75,2.88,2.88,0,0,1,1-.48,4.19,4.19,0,0,1,1.27-.18,4.3,4.3,0,0,1,1.32.18,2.58,2.58,0,0,1,.95.48,1.83,1.83,0,0,1,.55.72,2.34,2.34,0,0,1,.18.93,1.81,1.81,0,0,1-.28,1,1.88,1.88,0,0,1-.92.66,1.9,1.9,0,0,1,1.17.72,2,2,0,0,1,.33,1.15,2.11,2.11,0,0,1-.21.93,2.16,2.16,0,0,1-.63.76,3,3,0,0,1-1,.51A4.45,4.45,0,0,1,1370.1,217.69Zm8.48,0a4.37,4.37,0,0,1-1.45-.24,3.56,3.56,0,0,1-1.22-.75,3.66,3.66,0,0,1-.84-1.28,4.61,4.61,0,0,1-.31-1.78v-.3a4.33,4.33,0,0,1,.31-1.7,3.54,3.54,0,0,1,.84-1.21,3.37,3.37,0,0,1,1.22-.73,3.92,3.92,0,0,1,1.45-.26,4,4,0,0,1,1.46.26,3.33,3.33,0,0,1,1.21.73,3.54,3.54,0,0,1,.84,1.21,4.33,4.33,0,0,1,.32,1.7v.3a4.6,4.6,0,0,1-.32,1.78,3.66,3.66,0,0,1-.84,1.28,3.52,3.52,0,0,1-1.21.75A4.43,4.43,0,0,1,1378.58,217.69Zm0-1.2a2.83,2.83,0,0,0,.9-.15,2.27,2.27,0,0,0,.8-.49,2.64,2.64,0,0,0,.55-.89,3.43,3.43,0,0,0,.23-1.32v-.3a3,3,0,0,0-.23-1.23,2.41,2.41,0,0,0-.55-.84,2.11,2.11,0,0,0-.8-.48,2.78,2.78,0,0,0-1.8,0,2.08,2.08,0,0,0-.79.48,2.59,2.59,0,0,0-.57.84,3.23,3.23,0,0,0-.21,1.23v.3a3.65,3.65,0,0,0,.21,1.32,2.84,2.84,0,0,0,.57.89,2.23,2.23,0,0,0,.79.49A2.83,2.83,0,0,0,1378.58,216.49Zm5.7-6.9h6.6v7.95h-1.32v-6.78h-4v6.78h-1.32Zm12.29,8.1a4.37,4.37,0,0,1-1.45-.24,3.51,3.51,0,0,1-1.22-.73,3.75,3.75,0,0,1-.84-1.28,4.71,4.71,0,0,1-.31-1.8v-.3a4.43,4.43,0,0,1,.3-1.71,3.39,3.39,0,0,1,.79-1.21,3.15,3.15,0,0,1,1.17-.74,4.18,4.18,0,0,1,1.41-.24,3.34,3.34,0,0,1,3.68,3.67V214h-6a2.81,2.81,0,0,0,.22,1.19,2.24,2.24,0,0,0,.59.78,2.46,2.46,0,0,0,.79.44,3.11,3.11,0,0,0,.9.13,2.62,2.62,0,0,0,1.38-.3,1.65,1.65,0,0,0,.71-.83H1400a2.64,2.64,0,0,1-.44,1,2.78,2.78,0,0,1-.75.74,3.64,3.64,0,0,1-1,.43A4.56,4.56,0,0,1,1396.57,217.69Zm-.07-7.05a3.38,3.38,0,0,0-.9.13,2.24,2.24,0,0,0-.78.41,2.08,2.08,0,0,0-.54.69,2.22,2.22,0,0,0-.21,1h4.78a2.63,2.63,0,0,0-.21-1,1.7,1.7,0,0,0-.49-.69,1.92,1.92,0,0,0-.75-.39A3.26,3.26,0,0,0,1396.5,210.64Zm5.47-1h1.23v1.5a2.88,2.88,0,0,1,1.13-1.21,3.16,3.16,0,0,1,1.69-.44,3.09,3.09,0,0,1,2.4,1,4.16,4.16,0,0,1,.9,2.91v.3a5.9,5.9,0,0,1-.24,1.78,3.65,3.65,0,0,1-.67,1.27,3.06,3.06,0,0,1-1.05.75,3.4,3.4,0,0,1-1.34.25,3.07,3.07,0,0,1-1.71-.45,2.91,2.91,0,0,1-1-1.13v4.43H1402Zm3.75,6.93a2.26,2.26,0,0,0,.9-.18,2.16,2.16,0,0,0,.72-.55,2.59,2.59,0,0,0,.48-.9,4,4,0,0,0,.18-1.25v-.3a3.39,3.39,0,0,0-.18-1.15,2.32,2.32,0,0,0-.48-.86,1.9,1.9,0,0,0-.72-.54,2.26,2.26,0,0,0-.9-.18,2.64,2.64,0,0,0-1,.18,2.06,2.06,0,0,0-.76.48,2.16,2.16,0,0,0-.5.72,2.26,2.26,0,0,0-.18.9v1.2a2.64,2.64,0,0,0,.18,1,2.28,2.28,0,0,0,.5.77,2.37,2.37,0,0,0,.76.49A2.64,2.64,0,0,0,1405.72,216.52Zm8.78,1.17a4.37,4.37,0,0,1-1.45-.24,3.51,3.51,0,0,1-1.22-.73,3.75,3.75,0,0,1-.84-1.28,4.71,4.71,0,0,1-.31-1.8v-.3a4.43,4.43,0,0,1,.3-1.71,3.39,3.39,0,0,1,.79-1.21,3.15,3.15,0,0,1,1.17-.74,4.18,4.18,0,0,1,1.41-.24,3.34,3.34,0,0,1,3.68,3.67V214h-6a2.81,2.81,0,0,0,.22,1.19,2.24,2.24,0,0,0,.59.78,2.46,2.46,0,0,0,.79.44,3.11,3.11,0,0,0,.9.13,2.62,2.62,0,0,0,1.38-.3,1.65,1.65,0,0,0,.71-.83h1.29a2.64,2.64,0,0,1-.44,1,2.78,2.78,0,0,1-.75.74,3.64,3.64,0,0,1-1,.43A4.56,4.56,0,0,1,1414.5,217.69Zm-.07-7.05a3.38,3.38,0,0,0-.9.13,2.24,2.24,0,0,0-.78.41,2.08,2.08,0,0,0-.54.69,2.22,2.22,0,0,0-.21,1h4.78a2.63,2.63,0,0,0-.21-1,1.7,1.7,0,0,0-.49-.69,1.92,1.92,0,0,0-.75-.39A3.26,3.26,0,0,0,1414.43,210.64Zm5.47-1h3.45a3.18,3.18,0,0,1,2.16.61,2,2,0,0,1,.69,1.56,1.64,1.64,0,0,1-.09.53,1.83,1.83,0,0,1-.25.48,1.56,1.56,0,0,1-.38.39,1.59,1.59,0,0,1-.48.26,1.82,1.82,0,0,1,1.11.69,1.81,1.81,0,0,1,.39,1.16,2.09,2.09,0,0,1-.69,1.65,3.18,3.18,0,0,1-2.16.62h-3.75Zm3.75,6.78a1.83,1.83,0,0,0,1.19-.3,1.07,1.07,0,0,0,.34-.85,1.06,1.06,0,0,0-.34-.87,1.77,1.77,0,0,0-1.19-.32h-2.43v2.34Zm-.3-3.42a1.8,1.8,0,0,0,1.19-.3,1,1,0,0,0,.34-.83,1,1,0,0,0-.34-.78,1.94,1.94,0,0,0-1.19-.28h-2.13V213Zm8.33,4.74a4.37,4.37,0,0,1-1.45-.24,3.56,3.56,0,0,1-1.22-.75,3.66,3.66,0,0,1-.84-1.28,4.61,4.61,0,0,1-.31-1.78v-.3a4.33,4.33,0,0,1,.31-1.7,3.54,3.54,0,0,1,.84-1.21,3.37,3.37,0,0,1,1.22-.73,3.92,3.92,0,0,1,1.45-.26,4,4,0,0,1,1.46.26,3.33,3.33,0,0,1,1.21.73,3.54,3.54,0,0,1,.84,1.21,4.33,4.33,0,0,1,.32,1.7v.3a4.6,4.6,0,0,1-.32,1.78,3.66,3.66,0,0,1-.84,1.28,3.52,3.52,0,0,1-1.21.75A4.43,4.43,0,0,1,1431.68,217.69Zm0-1.2a2.83,2.83,0,0,0,.9-.15,2.27,2.27,0,0,0,.8-.49,2.64,2.64,0,0,0,.55-.89,3.43,3.43,0,0,0,.23-1.32v-.3a3,3,0,0,0-.23-1.23,2.41,2.41,0,0,0-.55-.84,2.11,2.11,0,0,0-.8-.48,2.78,2.78,0,0,0-1.8,0,2.08,2.08,0,0,0-.79.48,2.59,2.59,0,0,0-.57.84,3.23,3.23,0,0,0-.21,1.23v.3a3.65,3.65,0,0,0,.21,1.32,2.84,2.84,0,0,0,.57.89,2.23,2.23,0,0,0,.79.49A2.83,2.83,0,0,0,1431.68,216.49Zm8.4,1.2a3.91,3.91,0,0,1-2.36-.63,2.31,2.31,0,0,1-.94-1.77h1.32a1.28,1.28,0,0,0,.61.9,2.75,2.75,0,0,0,1.37.3,2.48,2.48,0,0,0,1.5-.35,1,1,0,0,0,.48-.85,1.12,1.12,0,0,0-.39-.91,2,2,0,0,0-1.35-.35H1439V213h1.28a1.73,1.73,0,0,0,1.17-.31,1.14,1.14,0,0,0,.36-.89,1,1,0,0,0-.42-.78,2,2,0,0,0-1.26-.33,2.35,2.35,0,0,0-1.34.3,1.21,1.21,0,0,0-.49.82h-1.32a2.33,2.33,0,0,1,.91-1.66,2.88,2.88,0,0,1,1-.48,4.78,4.78,0,0,1,2.6,0,2.53,2.53,0,0,1,.94.48,1.86,1.86,0,0,1,.56.72,2.34,2.34,0,0,1,.18.93,1.81,1.81,0,0,1-.29,1,1.85,1.85,0,0,1-.91.66,1.9,1.9,0,0,1,1.17.72,2,2,0,0,1,.33,1.15,2.11,2.11,0,0,1-.21.93,2.16,2.16,0,0,1-.63.76,3.06,3.06,0,0,1-1,.51A4.39,4.39,0,0,1,1440.08,217.69Zm5.18-8.1h1.32v3.33h1.05l3-3.33h1.56l-3.45,3.81,3.6,4.14h-1.68l-3-3.48h-1.05v3.48h-1.32Zm8.63,0h1.32v6l4.11-6h1.32v7.95h-1.32v-6l-4.11,6h-1.32Zm-230,38.11a4.78,4.78,0,0,1-1.6-.23,3.37,3.37,0,0,1-1.1-.65,2.86,2.86,0,0,1-.66-.91,3.44,3.44,0,0,1-.24-1.07h1.8a1.43,1.43,0,0,0,.53.92,2.08,2.08,0,0,0,1.27.35,1.84,1.84,0,0,0,1.43-.54,2.14,2.14,0,0,0,.52-1.57,2.38,2.38,0,0,0-.18-1,1.76,1.76,0,0,0-.43-.64,1.53,1.53,0,0,0-.63-.36,2.16,2.16,0,0,0-.71-.12,2.33,2.33,0,0,0-1.08.23,1.71,1.71,0,0,0-.67.61h-1.62V237H1227v1.56h-4.75V241a2.62,2.62,0,0,1,.81-.52,2.85,2.85,0,0,1,1.17-.21,3.77,3.77,0,0,1,1.38.24,2.79,2.79,0,0,1,1.06.71,3.07,3.07,0,0,1,.69,1.15,4.71,4.71,0,0,1,.24,1.57,4.24,4.24,0,0,1-.27,1.55,3.25,3.25,0,0,1-.76,1.17,3.55,3.55,0,0,1-1.19.75A4.39,4.39,0,0,1,1223.89,247.7ZM1237.32,237h1.8l-7.2,10.5h-1.8Zm-6.15,5a2.61,2.61,0,0,1-1-.19,2.27,2.27,0,0,1-.78-.5,2.54,2.54,0,0,1-.5-.78,2.82,2.82,0,0,1-.18-1v-.15a2.66,2.66,0,0,1,.18-1,2.37,2.37,0,0,1,.5-.79,2.32,2.32,0,0,1,.78-.52,3,3,0,0,1,1-.17,2.87,2.87,0,0,1,1,.17,2.32,2.32,0,0,1,.78.52,2.24,2.24,0,0,1,.51.79,2.66,2.66,0,0,1,.18,1v.15a2.82,2.82,0,0,1-.18,1,2.4,2.4,0,0,1-.51.78,2.27,2.27,0,0,1-.78.5A2.48,2.48,0,0,1,1231.17,242Zm0-1.35a.81.81,0,0,0,.64-.27,1.32,1.32,0,0,0,.24-.88v-.15a1.31,1.31,0,0,0-.24-.87.84.84,0,0,0-.64-.26.86.86,0,0,0-.65.26,1.31,1.31,0,0,0-.24.87v.15a1.32,1.32,0,0,0,.24.88A.83.83,0,0,0,1231.17,240.66Zm6.9,7a2.8,2.8,0,0,1-1-.18,2.29,2.29,0,0,1-.78-.51,2.43,2.43,0,0,1-.5-.78,2.8,2.8,0,0,1-.18-1v-.15a2.75,2.75,0,0,1,.18-1,2.37,2.37,0,0,1,.5-.79,2.29,2.29,0,0,1,.78-.51,2.8,2.8,0,0,1,1-.18,2.66,2.66,0,0,1,1,.18,2.29,2.29,0,0,1,.78.51,2.24,2.24,0,0,1,.51.79,2.75,2.75,0,0,1,.18,1v.15a2.8,2.8,0,0,1-.18,1,2.27,2.27,0,0,1-1.29,1.29A2.66,2.66,0,0,1,1238.07,247.69Zm0-1.35a.81.81,0,0,0,.64-.27,1.29,1.29,0,0,0,.24-.87v-.15a1.29,1.29,0,0,0-.24-.87.81.81,0,0,0-.64-.27.83.83,0,0,0-.65.27,1.29,1.29,0,0,0-.24.87v.15a1.29,1.29,0,0,0,.24.87A.83.83,0,0,0,1238.07,246.34Zm10.35,0h1.13a6.43,6.43,0,0,0,.48-1.41,15.35,15.35,0,0,0,.3-1.8c.07-.65.12-1.31.15-2s0-1.35,0-2V237h6.83v9.27h1.27v3.18h-1.35v-2h-7.5v2h-1.35Zm7.52,0v-8h-4v1.17a32.24,32.24,0,0,1-.21,3.95,13.44,13.44,0,0,1-.64,2.92Zm4.34-6.72h1.23v1.5a2.86,2.86,0,0,1,1.12-1.21,3.19,3.19,0,0,1,1.7-.44,3.09,3.09,0,0,1,2.4,1,4.16,4.16,0,0,1,.9,2.91v.3a5.9,5.9,0,0,1-.24,1.78,3.67,3.67,0,0,1-.68,1.27,3.06,3.06,0,0,1-1,.75,3.35,3.35,0,0,1-1.33.25,3.07,3.07,0,0,1-1.71-.45,2.91,2.91,0,0,1-1-1.13v4.43h-1.32Zm3.75,6.93a2.26,2.26,0,0,0,.9-.18,2.16,2.16,0,0,0,.72-.55,2.59,2.59,0,0,0,.48-.9,4,4,0,0,0,.18-1.25v-.3a3.39,3.39,0,0,0-.18-1.15,2.32,2.32,0,0,0-.48-.86,1.9,1.9,0,0,0-.72-.54,2.26,2.26,0,0,0-.9-.18,2.64,2.64,0,0,0-1,.18,2.1,2.1,0,0,0-.77.48,2.14,2.14,0,0,0-.49.72,2.26,2.26,0,0,0-.18.9v1.2a2.64,2.64,0,0,0,.18,1,2.26,2.26,0,0,0,.49.77,2.42,2.42,0,0,0,.77.49A2.64,2.64,0,0,0,1264,246.52Zm6.23,4.17a2.3,2.3,0,0,1-.45-.05v-1.19a2.28,2.28,0,0,0,.45,0,.94.94,0,0,0,.39-.07,1,1,0,0,0,.32-.29,3.25,3.25,0,0,0,.31-.6c.12-.25.26-.58.41-1l-3.38-7.95h1.47l2.58,6.45,2.34-6.45h1.41l-3,7.95q-.31.84-.6,1.44a4.16,4.16,0,0,1-.61,1,1.77,1.77,0,0,1-.71.56A2.2,2.2,0,0,1,1270.26,250.69Zm7.35-11.1h5.4v1.17h-4.08v6.78h-1.32Zm6.9,0h1.32v6l4.11-6h1.32v7.95h-1.32v-6l-4.11,6h-1.32Zm12.45,8.1a4.37,4.37,0,0,1-1.45-.24,3.51,3.51,0,0,1-1.22-.73,3.75,3.75,0,0,1-.84-1.28,4.71,4.71,0,0,1-.31-1.8v-.3a4.43,4.43,0,0,1,.3-1.71,3.39,3.39,0,0,1,.79-1.21,3.15,3.15,0,0,1,1.17-.74,4.18,4.18,0,0,1,1.41-.24,3.34,3.34,0,0,1,3.68,3.67V244h-6a2.81,2.81,0,0,0,.22,1.19,2.24,2.24,0,0,0,.59.78,2.46,2.46,0,0,0,.79.44,3.11,3.11,0,0,0,.9.13,2.62,2.62,0,0,0,1.38-.3,1.65,1.65,0,0,0,.71-.83h1.29a2.64,2.64,0,0,1-.44,1,2.78,2.78,0,0,1-.75.74,3.64,3.64,0,0,1-1,.43A4.56,4.56,0,0,1,1297,247.69Zm-.07-7.05a3.38,3.38,0,0,0-.9.13,2.24,2.24,0,0,0-.78.41,2.08,2.08,0,0,0-.54.69,2.22,2.22,0,0,0-.21,1h4.78a2.63,2.63,0,0,0-.21-1,1.7,1.7,0,0,0-.49-.69,1.92,1.92,0,0,0-.75-.39A3.26,3.26,0,0,0,1296.89,240.64Z"/></svg>