<svg width="312" height="370" viewBox="0 0 312 370" fill="none" xmlns="http://www.w3.org/2000/svg">
<path opacity="0.18" d="M188.65 299.752C94.6342 258.622 35.3361 150.997 79.5344 49.9685C101.702 -0.701853 142.536 -44.6477 189.568 -70.7664C236.603 -96.8862 289.663 -105.095 336.411 -84.6436C383.206 -64.1719 415.556 -20.4546 430.657 30.9408C445.758 82.3336 443.558 141.249 421.407 191.882C399.225 242.585 364.424 279.792 323.518 299.202C282.634 318.602 235.556 320.272 188.65 299.752Z" stroke="#BBBFC4" stroke-width="3"/>
<path opacity="0.18" d="M185.283 270.072C91.267 228.942 31.9689 121.317 76.1672 20.2888C98.3346 -30.3815 139.169 -74.3273 186.201 -100.446C233.235 -126.566 286.296 -134.775 333.044 -114.323C379.838 -93.8516 412.188 -50.1343 427.29 1.26109C442.391 52.6539 440.191 111.569 418.04 162.202C395.858 212.905 361.057 250.112 320.151 269.522C279.267 288.922 232.189 290.593 185.283 270.072Z" stroke="#BBBFC4" stroke-width="3"/>
<path opacity="0.18" d="M302.114 -110.222C402.382 -88.3808 481.685 5.48292 458.215 113.23C446.444 167.27 415.048 218.387 374.069 253.244C333.089 288.102 282.679 306.584 232.822 295.724C182.916 284.853 142.601 248.35 117.688 200.927C92.7769 153.507 83.3492 95.3096 95.1121 41.309C106.891 -12.7651 133.697 -56.0892 169.987 -83.1637C206.259 -110.224 252.09 -121.119 302.114 -110.222Z" stroke="#BBBFC4" stroke-width="3"/>
</svg>
