<svg width="391" height="327" viewBox="0 0 391 327" fill="none" xmlns="http://www.w3.org/2000/svg">
<g opacity="0.92">
<path opacity="0.22" d="M216.358 269.794C224.426 350.85 177.241 433.016 96.7716 441.026C56.3499 445.049 13.3875 433.574 -20.4646 410.97C-54.3119 388.37 -78.9282 354.737 -82.9332 314.5C-86.9428 274.217 -70.8244 235.058 -43.5136 204.924C-16.2007 174.787 22.2145 153.785 62.5927 149.766C103.049 145.739 139.48 155.615 166.78 176.516C194.071 197.41 212.337 229.395 216.358 269.794Z" stroke="#1C0F52" stroke-width="3"/>
<path opacity="0.2" d="M216.596 268.715C223.86 341.697 177.228 416.281 98.4165 424.125C58.843 428.064 16.9163 418.013 -16.0029 397.854C-48.9247 377.695 -72.6781 347.538 -76.2822 311.329C-79.8913 275.07 -63.8849 239.63 -36.9639 212.213C-10.0453 184.798 27.6755 165.529 67.2092 161.594C106.818 157.652 142.369 166.308 168.893 184.975C195.397 203.628 212.975 232.335 216.596 268.715Z" stroke="#BBBFC4" stroke-width="3"/>
<path opacity="0.08" d="M225.699 265.22C230.194 310.385 221.338 355.749 201.637 390.751C181.943 425.741 151.486 450.274 112.744 454.13C34.7986 461.888 -53.7564 400.52 -62.7122 310.544C-71.6814 220.433 -2.40926 136.989 75.401 129.244C114.352 125.367 149.656 136.859 176.346 160.519C203.042 184.185 221.208 220.105 225.699 265.22Z" stroke="#1C0F52" stroke-width="3"/>
<path opacity="0.5" d="M-48.001 376.226C-85.9485 308.439 -72.5299 216.444 0.242844 175.706C36.7778 155.254 81.5126 147.389 121.837 153.118C162.163 158.847 197.891 178.133 216.726 211.78C235.586 245.469 235.146 286.603 220.774 324.524C206.403 362.443 178.151 396.994 141.652 417.427C105.086 437.897 67.0927 444.439 33.5673 437.468C0.0647682 430.501 -29.0819 410.022 -48.001 376.226Z" stroke="#BBBFC4" stroke-width="3"/>
</g>
</svg>
