<svg width="76" height="13" viewBox="0 0 76 13" fill="none" xmlns="http://www.w3.org/2000/svg">
<path d="M34.2183 5.14655L31.8094 12.1384C31.7665 12.2629 31.5993 12.3633 31.4369 12.3633H29.5C29.3371 12.3633 29.2398 12.2622 29.2827 12.1374L31.6913 5.14655H27.9022C27.7397 5.14655 27.6418 5.04569 27.6846 4.92159L28.1957 3.43807C28.2387 3.31328 28.4056 3.21217 28.5686 3.21217H38.6735C38.8361 3.21217 38.9339 3.31303 38.8911 3.43706L38.3801 4.92064C38.3372 5.04537 38.1701 5.14655 38.0072 5.14655H34.2182H34.2183ZM54.3027 7.84845L55.8225 3.43713C55.8652 3.31309 55.7674 3.21223 55.6048 3.21223H53.668C53.505 3.21223 53.338 3.31334 53.2951 3.43814C52.296 6.33803 51.2971 9.23767 50.2981 12.1375C50.2551 12.2623 50.3524 12.3634 50.5153 12.3634H52.4522C52.6147 12.3634 52.782 12.263 52.8247 12.1385L53.9514 8.86815H55.1495C55.1776 8.97362 55.2334 9.06873 55.3129 9.14932L58.4143 12.3634H61.9877L57.8372 8.05876L57.9185 7.82294L65.5304 3.21229H62.5315C62.1393 3.21229 61.779 3.3213 61.4862 3.49858C59.0916 4.94849 56.6971 6.39841 54.3027 7.84851V7.84845ZM70.2097 2.86279H71.3093C74.3971 2.86279 76.2538 4.79326 75.4396 7.15652L74.7006 9.30152C74.6076 9.5717 74.3765 9.81466 74.0844 9.99162L70.2638 12.3058C70.0359 12.4438 69.784 12.5217 69.5383 12.5686C68.9995 12.6715 68.4254 12.7458 67.9045 12.7458H66.8049C63.7173 12.7458 61.8603 10.8155 62.6746 8.45209L63.4136 6.30715C63.5066 6.03684 63.7358 5.7925 64.0297 5.61699L67.8504 3.30279C68.0787 3.16455 68.3303 3.0868 68.5759 3.03994C69.1148 2.93706 69.6887 2.86279 70.2097 2.86279ZM70.6429 4.79711H69.5433C69.319 4.79711 69.1062 4.81043 68.875 4.84669L65.8026 6.70755L65.2017 8.45202C64.7553 9.74759 65.7785 10.8114 67.4713 10.8114H68.5709C68.7954 10.8114 69.008 10.7981 69.2394 10.7618L72.3116 8.90099L72.9125 7.15652C73.3589 5.86083 72.3353 4.79711 70.6429 4.79711ZM4.58452 12.3634C3.04267 12.3634 1.80435 11.8807 1.05608 11.1029C0.308003 10.3251 0.0471258 9.25144 0.454261 8.06968L1.06145 6.30721C1.15458 6.03691 1.38494 5.79439 1.67766 5.61705L5.49835 3.30286C5.72659 3.16461 5.97984 3.08396 6.22387 3.04001C6.77925 2.93991 7.28814 2.86286 7.85758 2.86286H8.95728C10.5011 2.86286 11.7375 3.34568 12.4856 4.12343C13.2338 4.90125 13.4947 5.97495 13.0875 7.15659L11.3712 12.1385C11.3283 12.2629 11.1611 12.3634 10.9986 12.3634H9.06175C8.89897 12.3634 8.80147 12.2623 8.84445 12.1375L9.32481 10.7432L7.22513 12.0234C7.10964 12.0937 6.66616 12.3633 6.0676 12.3633H4.58445L4.58452 12.3634ZM9.43306 10.4291L10.5605 7.15659C10.7837 6.50887 10.6396 5.91912 10.2278 5.49106C9.81599 5.06299 9.13716 4.79717 8.29085 4.79717H7.19123C6.96352 4.79717 6.74708 4.81157 6.52282 4.84675L3.45053 6.70762L2.98131 8.06968C2.75811 8.71753 2.90218 9.30721 3.31396 9.73527C3.72574 10.1633 4.40456 10.4291 5.25094 10.4291C6.645 10.4291 8.039 10.4291 9.43306 10.4291ZM18.2622 12.3634C15.6556 12.3634 13.1972 10.7826 14.1329 8.06703L15.7276 3.4382C15.7706 3.3134 15.9375 3.21229 16.1004 3.21229H18.0373C18.1999 3.21229 18.2976 3.31315 18.2549 3.43719L16.6599 8.06703C16.1468 9.55654 17.4979 10.4291 18.9286 10.4291H22.3211L24.7296 3.4382C24.7725 3.3134 24.9395 3.21229 25.1025 3.21229H27.0393C27.202 3.21229 27.2996 3.31322 27.2569 3.43738L24.2592 12.1386C24.2164 12.2629 24.0491 12.3635 23.8866 12.3635H18.2622V12.3634ZM45.9243 12.3602L42.0258 12.3634C38.9383 12.3659 37.0813 10.4331 37.8955 8.06968L38.5027 6.30721C38.5958 6.03691 38.8261 5.79439 39.1189 5.61705L42.9396 3.30286C43.1679 3.16461 43.4215 3.08649 43.6651 3.04001C44.2059 2.93668 44.7779 2.86286 45.2988 2.86286H46.3985C48.9977 2.86286 51.4628 4.4454 50.5287 7.15659L50.2722 7.90106C50.0882 8.43516 49.3733 8.86822 48.6755 8.86822H40.331C40.4494 9.77525 41.3649 10.4303 42.6921 10.4292L46.5906 10.426C46.7537 10.4259 46.8508 10.5274 46.8079 10.6519L46.2969 12.1352C46.2541 12.2596 46.0865 12.3603 45.9243 12.3603V12.3602ZM48.0409 7.0208C48.4152 5.57606 47.0945 4.79711 45.7321 4.79711H44.6324C44.408 4.79711 44.1953 4.81043 43.9641 4.84669L40.8917 6.70755L40.7839 7.0208H48.0409Z" fill="#1B1E1D"/>
<path d="M21.1088 0.390625H26.4208L19.708 4.45668L21.1088 0.390625Z" fill="#00B07A"/>
</svg>
