<svg id="Layer_1" data-name="Layer 1" xmlns="http://www.w3.org/2000/svg" xmlns:xlink="http://www.w3.org/1999/xlink" viewBox="0 0 8.76 8.86"><defs><style>.cls-1,.cls-2{fill-rule:evenodd;}.cls-1{fill:url(#linear-gradient);}.cls-2{fill:url(#linear-gradient-2);}</style><linearGradient id="linear-gradient" x1="10.66" y1="5.76" x2="-1.77" y2="5.77" gradientTransform="matrix(1, 0, 0, -1, 0, 10.19)" gradientUnits="userSpaceOnUse"><stop offset="0.4" stop-color="#4ae7b6"/><stop offset="1" stop-color="#8038ed"/></linearGradient><linearGradient id="linear-gradient-2" x1="5.11" y1="0.77" x2="3.49" y2="11.01" xlink:href="#linear-gradient"/></defs><path class="cls-1" d="M2.23,2.61a3,3,0,0,0-.15,4.3,2.1,2.1,0,0,0,1.78.68A3.85,3.85,0,0,0,6.08,6.48,4.65,4.65,0,0,0,7.44,4,2.49,2.49,0,0,0,7,1.8,2.26,2.26,0,0,0,4.9,1.3,5.17,5.17,0,0,0,2.23,2.61Zm-.81-.87a4.28,4.28,0,0,0-.3,6.07C2.6,9.4,5,9.13,6.89,7.35S9.42,2.48,7.93.9,3.32,0,1.42,1.74Z"/><path class="cls-2" d="M3.13,2.22a3.89,3.89,0,0,1,2.21.34A2.42,2.42,0,0,1,6.61,3.77a1.73,1.73,0,0,1-.06,1.42,2.65,2.65,0,0,1-3.35,1A2.58,2.58,0,0,1,2,2.94,1.38,1.38,0,0,1,3.13,2.22ZM.7,2.32C1.51.58,4,.3,6,1.24A3.35,3.35,0,0,1,7.87,5.81,4.09,4.09,0,0,1,2.58,7.52,4,4,0,0,1,.7,2.32Z"/></svg>