<svg id="Layer_1" data-name="Layer 1" xmlns="http://www.w3.org/2000/svg" viewBox="0 0 195 26.46"><defs><style>.cls-1{fill:#1b1e1d;}</style></defs><polygon class="cls-1" points="54.94 0 65.18 0 53 10.96 54.94 0"/><path class="cls-1" d="M38.21,3.67H29.88A13.51,13.51,0,0,0,21.23,7h0L0,26.46H7.36L24.74,10.55a7.35,7.35,0,0,1,4.62-1.73h2.15l-1.25,7.11h-4.4a10.53,10.53,0,0,0-6.76,2.53l-2.82,2.61H29.35l-1,5.39h5.79Z"/><path class="cls-1" d="M194.82,15.07c1.11-6.29-3.17-11.4-9.45-11.4h-6.6a14.24,14.24,0,0,0-13.1,11.4c-1.1,6.18,3,11.23,9.08,11.39h7.42C179.57,26.46,192.73,27,194.82,15.07Zm-13.08,6.25h-5.2a5.11,5.11,0,0,1-5.15-6.25,7.79,7.79,0,0,1,7.36-6.25H184a5.11,5.11,0,0,1,5.15,6.25A7.78,7.78,0,0,1,181.74,21.32Z"/><path class="cls-1" d="M104.89,3.67H78.65l-.91,5.15h8.44L83.07,26.46H88.8L91.91,8.82h7.27A17,17,0,0,1,104.89,3.67Z"/><path class="cls-1" d="M166.63,3.65h-7.48l-9.64,8.83H144l1.56-8.83h-5.74l-4,22.81h5.73l1.56-8.83h6.46L154,23.68a7.46,7.46,0,0,0,6.16,2.78H163l-8.6-11.63Z"/><path class="cls-1" d="M65.68,3.65,48.22,19.5,51,3.65H45.28l-4,22.81h2.22c4.58,0,8.14-3.34,8.14-3.34L65.76,10.29,62.91,26.46h5.73l4-22.81Z"/><path class="cls-1" d="M113.49,21.32v0a5.11,5.11,0,0,1-5.15-6.25,7.79,7.79,0,0,1,7.36-6.25h10.2a1.5,1.5,0,0,1,1.51,1.84,2.29,2.29,0,0,1-2.16,1.84H111.91a4.83,4.83,0,0,0-1.37,2.57,3.52,3.52,0,0,0,.47,2.57h13.71a8.71,8.71,0,0,0,8.22-7,5.71,5.71,0,0,0-5.75-7H116a14.19,14.19,0,0,0-13.39,11.4c-1.12,6.28,3.1,11.39,9.39,11.39v0h17.79l.91-5.14Z"/><line class="cls-1" x1="48.22" y1="19.5" x2="65.68" y2="3.65"/></svg>