<svg width="581" height="447" viewBox="0 0 581 447" fill="none" xmlns="http://www.w3.org/2000/svg">
<path opacity="0.05" d="M864.302 363.151C906.857 540.922 817.616 740.647 626.764 786.334C530.952 809.27 424.627 798.457 336.985 759.686C249.339 720.912 180.775 654.382 159.652 566.14C138.501 477.784 165.815 384.924 222.62 308.253C279.421 231.587 365.498 171.426 461.219 148.512C557.111 125.557 647.327 135.051 718.781 172.286C790.188 209.497 843.085 274.52 864.302 363.151Z" stroke="#1C0F52" stroke-width="7"/>
<path opacity="0.05" d="M825.661 399.895C868.216 577.665 778.975 777.39 588.124 823.077C492.311 846.013 385.986 835.201 298.345 796.429C210.698 757.655 142.135 691.125 121.011 602.883C99.8601 514.527 127.174 421.667 183.979 344.996C240.781 268.33 326.857 208.17 422.578 185.256C518.47 162.301 608.686 171.794 680.141 209.03C751.547 246.24 804.444 311.263 825.661 399.895Z" stroke="#1C0F52" stroke-width="7"/>
<path opacity="0.05" d="M154.09 635.334C77.4102 469.401 125.637 256.028 303.779 173.706C393.211 132.378 499.587 122.073 593.141 142.855C686.701 163.638 767.007 215.387 805.07 297.752C843.181 380.225 834.66 476.643 794.039 562.987C753.421 649.325 680.855 725.236 591.508 766.524C502.002 807.886 411.68 816.318 334.299 793.859C256.97 771.416 192.32 718.063 154.09 635.334Z" stroke="#1C0F52" stroke-width="7"/>
</svg>
