<svg width="534" height="493" viewBox="0 0 534 493" fill="none" xmlns="http://www.w3.org/2000/svg">
<g filter="url(#filter0_d)">
<path d="M313.48 140.48C384.292 173.601 428.889 252.828 396.019 323.106C379.504 358.415 348.959 388.217 313.708 405.044C278.461 421.869 238.651 425.665 203.51 409.229C168.326 392.773 143.941 360.27 132.49 322.96C121.038 285.648 122.567 243.663 139.063 208.393C155.593 173.052 181.611 147.856 212.239 135.599C242.855 123.346 278.191 123.975 313.48 140.48Z" stroke="url(#paint0_linear)" stroke-width="3"/>
</g>
<g filter="url(#filter1_d)">
<path d="M284.063 144.44C323.649 162.956 356.985 192.271 376.524 225.198C396.058 258.116 401.741 294.508 386.357 327.399C355.393 393.601 262.069 434.559 183.198 397.669C104.203 360.721 68.3854 264.35 99.2929 198.269C114.768 165.183 141.217 142.529 173.62 132.727C206.035 122.921 244.519 125.945 284.063 144.44Z" stroke="url(#paint1_linear)" stroke-width="3"/>
</g>
<g filter="url(#filter2_d)">
<path d="M278.959 402.498C235.399 402.368 192.957 389.472 161.472 367.239C129.998 345.014 109.566 313.543 109.677 276.193C109.9 201.028 177.152 122.501 263.916 122.759C350.816 123.017 423.69 197.315 423.467 272.343C423.355 309.904 408.93 342.476 383.735 365.635C358.535 388.8 322.469 402.627 278.959 402.498Z" stroke="url(#paint2_linear)" stroke-width="3"/>
</g>
<g filter="url(#filter3_d)">
<path d="M317.915 121.157C385.444 152.742 426.484 231.948 392.581 304.431C375.558 340.827 345.095 372.005 310.459 390.117C275.822 408.231 237.185 413.2 203.678 397.527C170.124 381.834 147.438 349.535 137.407 311.933C127.377 274.334 130.051 231.587 147.057 195.228C164.095 158.8 190.043 132.431 220.07 119.096C250.075 105.77 284.251 105.412 317.915 121.157Z" stroke="url(#paint3_linear)" stroke-width="3"/>
</g>
<defs>
<filter id="filter0_d" x="52.5625" y="64.7407" width="419.721" height="423.902" filterUnits="userSpaceOnUse" color-interpolation-filters="sRGB">
<feFlood flood-opacity="0" result="BackgroundImageFix"/>
<feColorMatrix in="SourceAlpha" type="matrix" values="0 0 0 0 0 0 0 0 0 0 0 0 0 0 0 0 0 0 127 0"/>
<feOffset/>
<feGaussianBlur stdDeviation="9.5"/>
<feColorMatrix type="matrix" values="0 0 0 0 0.561579 0 0 0 0 0.371528 0 0 0 0 0.891667 0 0 0 1 0"/>
<feBlend mode="normal" in2="BackgroundImageFix" result="effect1_dropShadow"/>
<feBlend mode="normal" in="SourceGraphic" in2="effect1_dropShadow" result="shape"/>
</filter>
<filter id="filter1_d" x="16.8359" y="62.1992" width="442.368" height="421.817" filterUnits="userSpaceOnUse" color-interpolation-filters="sRGB">
<feFlood flood-opacity="0" result="BackgroundImageFix"/>
<feColorMatrix in="SourceAlpha" type="matrix" values="0 0 0 0 0 0 0 0 0 0 0 0 0 0 0 0 0 0 127 0"/>
<feOffset/>
<feGaussianBlur stdDeviation="9.5"/>
<feColorMatrix type="matrix" values="0 0 0 0 0.561579 0 0 0 0 0.371528 0 0 0 0 0.891667 0 0 0 1 0"/>
<feBlend mode="normal" in2="BackgroundImageFix" result="effect1_dropShadow"/>
<feBlend mode="normal" in="SourceGraphic" in2="effect1_dropShadow" result="shape"/>
</filter>
<filter id="filter2_d" x="88.7991" y="101.797" width="355.615" height="321.633" filterUnits="userSpaceOnUse" color-interpolation-filters="sRGB">
<feFlood flood-opacity="0" result="BackgroundImageFix"/>
<feColorMatrix in="SourceAlpha" type="matrix" values="0 0 0 0 0 0 0 0 0 0 0 0 0 0 0 0 0 0 127 0"/>
<feOffset/>
<feGaussianBlur stdDeviation="9.5"/>
<feColorMatrix type="matrix" values="0 0 0 0 0.561579 0 0 0 0 0.371528 0 0 0 0 0.891667 0 0 0 1 0"/>
<feBlend mode="normal" in2="BackgroundImageFix" result="effect1_dropShadow"/>
<feBlend mode="normal" in="SourceGraphic" in2="effect1_dropShadow" result="shape"/>
</filter>
<filter id="filter3_d" x="58.5898" y="47.8882" width="411.918" height="426.418" filterUnits="userSpaceOnUse" color-interpolation-filters="sRGB">
<feFlood flood-opacity="0" result="BackgroundImageFix"/>
<feColorMatrix in="SourceAlpha" type="matrix" values="0 0 0 0 0 0 0 0 0 0 0 0 0 0 0 0 0 0 127 0"/>
<feOffset/>
<feGaussianBlur stdDeviation="9.5"/>
<feColorMatrix type="matrix" values="0 0 0 0 0.561579 0 0 0 0 0.371528 0 0 0 0 0.891667 0 0 0 1 0"/>
<feBlend mode="normal" in2="BackgroundImageFix" result="effect1_dropShadow"/>
<feBlend mode="normal" in="SourceGraphic" in2="effect1_dropShadow" result="shape"/>
</filter>
<linearGradient id="paint0_linear" x1="71.5625" y1="349.17" x2="433.356" y2="165.055" gradientUnits="userSpaceOnUse">
<stop offset="0.395833" stop-color="#4AE7B6"/>
<stop offset="1" stop-color="#8038ED"/>
</linearGradient>
<linearGradient id="paint1_linear" x1="35.8359" y1="330.4" x2="379.853" y2="118.046" gradientUnits="userSpaceOnUse">
<stop offset="0.395833" stop-color="#4AE7B6"/>
<stop offset="1" stop-color="#8038ED"/>
</linearGradient>
<linearGradient id="paint2_linear" x1="425.414" y1="121.738" x2="193.976" y2="462.089" gradientUnits="userSpaceOnUse">
<stop offset="0.395833" stop-color="#4AE7B6"/>
<stop offset="1" stop-color="#8038ED"/>
</linearGradient>
<linearGradient id="paint3_linear" x1="77.5898" y1="340.209" x2="445.739" y2="169.542" gradientUnits="userSpaceOnUse">
<stop offset="0.395833" stop-color="#4AE7B6"/>
<stop offset="1" stop-color="#8038ED"/>
</linearGradient>
</defs>
</svg>
