<svg width="41" height="40" viewBox="0 0 41 40" fill="none" xmlns="http://www.w3.org/2000/svg">
<path d="M27.8611 20.4955H31.6984C33.0211 20.4952 34.2922 19.9912 35.2452 19.0891C36.1982 18.187 36.7589 16.957 36.8099 15.6571C36.8608 14.3572 36.398 13.0884 35.5184 12.1169C34.6389 11.1454 33.4109 10.5466 32.0923 10.4462C32.5385 8.75318 32.3735 6.96032 31.6252 5.37372C30.877 3.78713 29.592 2.5052 27.9896 1.74682C26.3872 0.988442 24.5669 0.800655 22.8394 1.21552C21.112 1.63039 19.5845 2.62218 18.5178 4.02155C17.5026 3.34453 16.3182 2.95387 15.0932 2.89195C13.8683 2.83003 12.6494 3.09922 11.569 3.67032C11.1456 3.93039 10.2097 4.55412 9.85331 4.96846C9.1599 5.69528 8.64274 6.56701 8.34056 7.51835C8.03838 8.46968 7.95903 9.47595 8.10845 10.4617C6.80802 10.6034 5.61219 11.2297 4.76678 12.2118C3.92138 13.1939 3.49065 14.4573 3.56315 15.7422C3.63565 17.027 4.20586 18.2358 5.15657 19.1199C6.10728 20.004 7.36623 20.4963 8.67461 20.4955H12.5119M15.1367 18.592H25.3696M15.1367 15.0435H25.3696M25.3696 11.668H15.1367M8.03506 39H7.25529H5.47686M2.91865 39H3.69843H5.47686M5.61708 36.2211H5.47686M5.33664 36.2211H5.47686M37.4544 39H36.6746H34.8962M32.338 39H33.1178H34.8962M22.7447 39H21.965H20.1865M17.6283 39H18.4081H20.1865M20.1865 23.6406V29.7253M34.756 29.9309V26.7858H5.33664V29.9309M5.47686 36.2211V39M20.1865 36.2211H21.6452H24.6634V29.9309H15.7097V36.2211H18.7279H20.1865ZM20.1865 36.2211V39M34.8962 36.2211H36.3549H39.3731V34.3341V29.9309H30.4194V36.2211H33.4376H34.8962ZM34.8962 36.2211V39M12.5119 6.657H27.8611V23.6406H12.5119V6.657ZM9.95372 29.9309V36.2211H6.93551H4.0182H1.00093L1 29.9309H9.95372Z" stroke="#00B07A" stroke-width="1.5"/>
</svg>
