<svg width="36" height="37" viewBox="0 0 36 37" fill="none" xmlns="http://www.w3.org/2000/svg">
<path d="M14 30.0594V36H1V13H8.04039V19.8639V22.896H10.9431H14V30.0678" stroke="#00B07A" stroke-width="1.5"/>
<path d="M29.7995 22.5182V24.9882V27.9863M29.7995 22.5182V17.9928V16.5498V12.9913M29.7995 22.5182L25.4732 16.5498M29.7995 22.5182L25.4732 27.9863M29.7995 7.99841V10.5815V10.9967V12.9913M29.7995 7.99841H31.5628V7.12861M29.7995 7.99841H25.4732M31.5628 7.12861H35V2.72339H31.5629V2.67744L31.5628 1M31.5628 7.12861V1M31.5628 1H23.7098V2.67744M23.7098 2.67744V2.72339M23.7098 2.67744L20.5358 7.12861M23.7098 2.72339H22.7826H16.9181M23.7098 2.72339L23.7098 7.12861M17.3266 2.72339C16.9181 2.72339 16.9181 2.72339 17.3249 2.72339H16.9181M17.3266 2.72339C18.5799 4.44374 20.5358 7.12861 20.5358 7.12861M17.3266 2.72339C17.1671 2.72339 16.9181 2.72339 16.9181 2.72339M16.9181 2.72339C16.9181 2.72339 12.6395 2.72339 9.898 2.72339M16.9181 2.72339C16.9181 2.72339 14.7793 5.40823 13.4089 7.12855M9.898 2.72339C11.5127 4.72142 12.0031 5.35493 13.4089 7.12855M9.898 2.72339H9V7.12855H12.2314L12.7218 7.12858M23.7098 7.12861V7.99841H25.4732M23.7098 7.12861H22.7827H20.5358M25.4732 7.99841V10.5813V16.5498M25.4732 7.99841L29.7995 12.9913M25.4732 16.5498V22.5182V27.9863M25.4732 16.5498L29.7995 12.9913M25.4732 27.9863H22.7036V32.5045M25.4732 27.9863H29.7995M22.7036 32.5045H20.4484V36H35V32.5045H32.7243M22.7036 32.5045H32.7243M32.7243 32.5045V27.9863H29.7995M12.7218 11.82V7.12858M13.4089 7.12855C14.7794 7.12857 16.9182 7.12861 16.9182 7.12861H20.5358M13.4089 7.12855L13.2122 7.12861L12.7218 7.12858M15.2721 11.82V16.7927H10.1715V11.82H15.2721Z" stroke="#00B07A" stroke-width="1.5"/>
</svg>
