<svg width="46" height="40" viewBox="0 0 46 40" fill="none" xmlns="http://www.w3.org/2000/svg">
<path d="M13.5508 38.726L13.5508 7.13334C13.9102 7.02667 25.2083 3.33333 30.8125 1.5V38.726" stroke="#00B07A" stroke-width="1.5"/>
<path d="M30.8125 12.833L41.0256 17.2533V38.7256" stroke="#00B07A" stroke-width="1.5"/>
<path d="M4.48828 38.7259L4.48828 17.2531L13.5507 13.4087" stroke="#00B07A" stroke-width="1.5"/>
<path d="M0 38.7261L46 38.7261" stroke="#00B07A" stroke-width="1.5"/>
<path d="M7.94141 21.0332L10.7464 21.0332" stroke="#00B07A" stroke-width="1.5"/>
<path d="M34.4102 21.0332L37.2152 21.0332" stroke="#00B07A" stroke-width="1.5"/>
<path d="M17.8672 21.0332L20.6722 21.0332" stroke="#00B07A" stroke-width="1.5"/>
<path d="M23.4766 21.0332L26.2816 21.0332" stroke="#00B07A" stroke-width="1.5"/>
<path d="M7.94141 25.4922L10.8184 25.4922" stroke="#00B07A" stroke-width="1.5"/>
<path d="M34.4102 25.4922L37.2871 25.4922" stroke="#00B07A" stroke-width="1.5"/>
<path d="M17.8672 25.4922L20.7441 25.4922" stroke="#00B07A" stroke-width="1.5"/>
<path d="M23.4766 25.4922L26.3535 25.4922" stroke="#00B07A" stroke-width="1.5"/>
<path d="M23.4766 12.2578L26.3535 12.2578" stroke="#00B07A" stroke-width="1.5"/>
<path d="M17.8672 12.2578L20.7441 12.2578" stroke="#00B07A" stroke-width="1.5"/>
<path d="M7.94141 29.8071H10.7464" stroke="#00B07A" stroke-width="1.5"/>
<path d="M34.4102 29.8071H37.2152" stroke="#00B07A" stroke-width="1.5"/>
<path d="M17.8672 29.8071H20.6722" stroke="#00B07A" stroke-width="1.5"/>
<path d="M23.4766 29.8076H26.2816" stroke="#00B07A" stroke-width="1.5"/>
<path d="M23.4766 16.5732H26.2816" stroke="#00B07A" stroke-width="1.5"/>
<path d="M17.8672 16.5732H20.6722" stroke="#00B07A" stroke-width="1.5"/>
<path d="M7.94922 34.2671H10.8183" stroke="#00B07A" stroke-width="1.5"/>
<path d="M34.418 34.2671H37.2871" stroke="#00B07A" stroke-width="1.5"/>
<path d="M17.875 34.2671H20.7441" stroke="#00B07A" stroke-width="1.5"/>
<path d="M23.4844 34.2671H26.3535" stroke="#00B07A" stroke-width="1.5"/>
</svg>
