<svg width="106" height="27" viewBox="0 0 106 27" fill="none" xmlns="http://www.w3.org/2000/svg">
<g clip-path="url(#clip0)">
<path d="M31.0404 15.4668C33.2885 15.4668 33.7244 16.5042 33.7244 18.9265C33.7244 22.347 31.9853 22.347 30.8985 22.347H29.3055V15.4668H31.0404ZM31.2211 4.70306C32.8063 4.70306 33.4407 5.98773 33.4407 7.76037C33.4407 10.0168 32.6364 10.8166 31.5052 10.8166H29.3055V4.70306H31.2211ZM22.1173 0.0507812V27.001H32.0445C38.9462 27.001 40.3957 23.0415 40.3957 19.728C40.3957 16.9 39.8436 13.9642 36.2601 12.9924C38.631 12.1421 40.4881 10.0767 40.4881 7.17704C40.4881 0.791539 35.4674 0.0509989 32.0786 0.0509989H22.1172V0.0507812H22.1173Z" fill="#DA002A"/>
<path d="M51.3455 15.4668C53.5886 15.4668 54.0303 16.5042 54.0303 18.9265C54.0303 22.3466 52.2908 22.3466 51.2039 22.3466H49.6111V15.4668H51.3455ZM51.526 4.70306C53.112 4.70306 53.7456 5.98773 53.7456 7.76037C53.7456 10.0168 52.9412 10.8159 51.8106 10.8159H49.611V4.70295L51.526 4.70306ZM42.418 0.0507812V27.001H52.3502C59.256 27.001 60.7046 23.0415 60.7046 19.728C60.7046 16.899 60.1484 13.9631 56.5707 12.9921C58.9363 12.1416 60.7938 10.0767 60.7938 7.1765C60.7938 0.790995 55.7664 0.0509989 52.383 0.0509989H42.418V0.0507812Z" fill="#DA002A"/>
<path d="M73.6897 0.0507812C73.6897 0.0507812 70.9939 9.19377 70.3842 10.8522C69.8114 9.18614 67.3148 0.0507812 67.3148 0.0507812H60.6094C60.6094 0.0507812 66.6793 17.5367 66.7174 17.6235V27.001H73.9053V17.6266C73.9489 17.5336 79.9972 0.0511079 79.9972 0.0511079H73.6897V0.0507812Z" fill="#DA002A"/>
<path d="M93.8397 0.0507812C93.8397 0.0507812 91.1479 9.19377 90.5338 10.8522C89.9604 9.18614 87.4644 0.0507812 87.4644 0.0507812H80.7695C80.7695 0.0507812 86.8296 17.5367 86.8679 17.6235V27.001H94.0547V17.6266C94.0988 17.5336 100.147 0.0511079 100.147 0.0511079H93.8395L93.8397 0.0507812Z" fill="#DA002A"/>
<path d="M8.54647 16.6002L10.4065 8.55339L12.2657 16.6002H8.54647ZM14.6713 26.9999H20.8135L14.5832 0.0488281H6.23068L0 26.9995H6.14177L7.47138 21.2583H13.3422L14.6713 26.9999Z" fill="#DA002A"/>
<path d="M103.708 0C104.995 0 105.997 0.902105 105.997 2.00192C105.997 3.10739 104.995 4.00504 103.708 4.00504C102.423 4.00504 101.41 3.10761 101.41 2.00192C101.41 0.901778 102.423 0 103.708 0ZM103.708 3.70379C104.746 3.70379 105.565 2.94082 105.565 2.00181C105.565 1.05844 104.741 0.304839 103.708 0.304839C102.669 0.304839 101.847 1.05833 101.847 2.00181C101.847 2.94071 102.664 3.70379 103.708 3.70379ZM102.869 0.98648H103.879C104.124 0.98648 104.636 1.04179 104.636 1.56371C104.636 1.70002 104.596 1.89893 104.252 2.02141V2.03327C104.543 2.08063 104.564 2.30981 104.583 2.51285C104.602 2.82074 104.583 2.87898 104.673 2.98459H104.228C104.155 2.90566 104.161 2.8595 104.147 2.5306C104.141 2.34889 104.125 2.15848 103.646 2.15848H103.293V2.98448H102.87L102.869 0.98648ZM103.293 1.88401H103.779C104.141 1.88401 104.202 1.70644 104.202 1.56339C104.202 1.32115 104.014 1.26073 103.745 1.26073H103.293L103.293 1.88401Z" fill="#DA002A"/>
</g>
<defs>
<clipPath id="clip0">
<rect width="106" height="27" fill="white"/>
</clipPath>
</defs>
</svg>
