<svg width="164" height="57" viewBox="0 0 164 57" fill="none" xmlns="http://www.w3.org/2000/svg">
<path d="M8.4671 56.6989C7.50628 56.7035 6.55306 56.5285 5.65652 56.183C4.79116 55.8504 4.00156 55.3471 3.33474 54.703C2.64548 54.0228 2.09697 53.2136 1.72053 52.3214C1.34408 51.4292 1.14709 50.4716 1.14078 49.5033C1.13448 48.5349 1.319 47.5749 1.6838 46.6778C2.04859 45.7808 2.58652 44.9645 3.26686 44.2754L3.33474 44.2075C4.0008 43.5592 4.79036 43.0513 5.65652 42.714C6.56156 42.3651 7.5243 42.19 8.49424 42.198C9.71387 42.1921 10.918 42.4711 12.0108 43.0127C12.4699 43.2314 12.8951 43.5149 13.2736 43.8545C13.5945 44.141 13.8693 44.4753 14.0882 44.8457L13.518 46.5429C13.2685 46.2037 12.9764 45.8979 12.649 45.6332C12.2937 45.3376 11.9067 45.0826 11.4949 44.8728C11.0652 44.6457 10.6092 44.4725 10.1371 44.3569C9.64468 44.2308 9.13836 44.1669 8.63002 44.1668C7.84976 44.1562 7.07352 44.2802 6.3354 44.5334C5.6744 44.7569 5.06822 45.1178 4.55673 45.5924C4.06494 46.0588 3.67641 46.6231 3.41622 47.2489C3.13909 47.9483 3.00518 48.6963 3.02246 49.4485C3.01308 50.2057 3.15145 50.9574 3.42979 51.6616C3.68218 52.2951 4.0771 52.8619 4.5839 53.3181C5.10283 53.7761 5.70735 54.1269 6.36256 54.35C7.10068 54.6032 7.87693 54.7272 8.65718 54.7166C9.70802 54.7381 10.748 54.5003 11.685 54.0241C12.4743 53.6413 13.1591 53.0729 13.6809 52.3677L14.224 54.0377C13.5091 54.8654 12.6257 55.531 11.6329 55.9899C10.6401 56.4488 9.56079 56.6906 8.4671 56.6989Z" fill="#50287D"/>
<path d="M27.2144 42.4424V44.3704H22.4894V56.3866H20.67V44.3568H15.8906V42.4424H27.228H27.2144Z" fill="#50287D"/>
<path d="M38.7539 46.7057C38.7619 47.2877 38.651 47.8652 38.428 48.4029C38.2254 48.9088 37.9256 49.3701 37.5455 49.7607C37.1618 50.1461 36.6983 50.4427 36.1877 50.6296C35.6169 50.8326 35.0148 50.9337 34.409 50.9283H31.8428V56.3594H30.0234V42.4423H34.409C34.9767 42.4277 35.5415 42.5274 36.0699 42.7355C36.5982 42.9436 37.0794 43.2557 37.4847 43.6535C37.89 44.0512 38.2113 44.5263 38.4293 45.0507C38.6473 45.575 38.7577 46.1378 38.7539 46.7057ZM36.853 46.7057C36.8585 46.4022 36.7983 46.1012 36.6765 45.8231C36.5674 45.5573 36.411 45.3135 36.2148 45.1035C36.016 44.8995 35.7812 44.7338 35.5224 44.6147C35.2463 44.484 34.9453 44.4145 34.6398 44.4111H31.775V49.0139H34.6398C34.9429 49.0346 35.2469 48.9895 35.5308 48.8816C35.8148 48.7737 36.0721 48.6056 36.2849 48.3889C36.4978 48.1722 36.6612 47.912 36.7639 47.6261C36.8667 47.3402 36.9063 47.0355 36.8801 46.7328L36.853 46.7057Z" fill="#50287D"/>
<path d="M42.5296 53.1416L41.1719 56.4002H39.2031L45.0279 42.4424H47.051L52.7943 56.4002H50.8256L49.4678 53.1416H42.5432H42.5296ZM48.6396 51.2135L45.924 44.7777L43.2085 51.2135H48.5309H48.6396Z" fill="#50287D"/>
<path d="M54.0312 56.3861L58.9871 49.1628L54.3028 42.374H56.5974L60.1005 47.4249L63.6442 42.4148H65.9252L61.241 49.2036L66.2511 56.4269H64.038L60.1683 50.9958L56.3666 56.4269H54.0448L54.0312 56.3861Z" fill="#50287D"/>
<path d="M75.0314 56.6581C74.0587 56.6685 73.0938 56.4838 72.1937 56.115C71.3223 55.7581 70.5221 55.2477 69.8312 54.6078C69.1362 53.9631 68.5815 53.1819 68.2019 52.3132C67.8109 51.392 67.6094 50.4016 67.6094 49.4008C67.6094 48.4001 67.8109 47.4096 68.2019 46.4884C68.5819 45.6199 69.1365 44.8388 69.8312 44.1938C70.5207 43.5657 71.3159 43.0647 72.1801 42.7138C74.017 41.9912 76.0594 41.9912 77.8963 42.7138C78.7903 43.0601 79.6139 43.5662 80.3267 44.2074C81.0208 44.8529 81.5754 45.6339 81.956 46.502C82.3486 47.42 82.5474 48.4092 82.5399 49.4076C82.4901 51.3596 81.6749 53.2139 80.2702 54.5703C78.8656 55.9267 76.984 56.6765 75.0314 56.6581ZM80.5982 49.4619C80.6015 48.7495 80.4486 48.045 80.1502 47.3981C79.8663 46.7609 79.4583 46.1866 78.9501 45.7087C78.442 45.2309 77.8437 44.859 77.1903 44.6147C75.7603 44.0709 74.1804 44.0709 72.7504 44.6147C72.097 44.8636 71.4998 45.2404 70.9939 45.723C70.488 46.2056 70.0834 46.7843 69.804 47.4253C69.5204 48.0668 69.374 48.7605 69.374 49.4619C69.374 50.1633 69.5204 50.857 69.804 51.4986C70.0873 52.1362 70.495 52.7108 71.0033 53.1888C71.5116 53.6667 72.1101 54.0384 72.7639 54.282C74.1942 54.8245 75.7736 54.8245 77.2038 54.282C77.8548 54.0362 78.4504 53.6636 78.9562 53.1858C79.462 52.708 79.8678 52.1345 80.1502 51.4986C80.4486 50.8516 80.6015 50.1472 80.5982 49.4348V49.4619Z" fill="#50287D"/>
<path d="M92.9346 48.9456C93.4912 49.2386 93.9599 49.6744 94.2924 50.2084C94.6813 50.8252 94.8797 51.5431 94.8626 52.2722C94.8721 52.882 94.7566 53.4873 94.5232 54.0508C94.3138 54.5468 93.9932 54.9881 93.5863 55.3407C93.191 55.6914 92.7293 55.9592 92.2286 56.1282C91.6713 56.3075 91.0896 56.3991 90.5042 56.3998H85.7656V42.442H89.8389C90.4229 42.4338 91.0046 42.5162 91.5633 42.6864C92.0604 42.8375 92.5221 43.0868 92.921 43.4195C93.5111 43.9646 93.914 44.682 94.0725 45.4694C94.231 46.2569 94.1369 47.0743 93.8036 47.8051C93.5934 48.2357 93.2923 48.6156 92.921 48.9185L92.9346 48.9456ZM90.7622 54.3767C91.0584 54.3782 91.3525 54.3277 91.6312 54.2273C91.9013 54.1332 92.1471 53.9802 92.3508 53.7793C92.5548 53.5804 92.7205 53.3457 92.8396 53.0868C92.9703 52.8108 93.0398 52.5097 93.0432 52.2043C93.0428 51.9325 92.9872 51.6636 92.8799 51.4138C92.7725 51.1641 92.6156 50.9388 92.4187 50.7515C92.2134 50.5434 91.9679 50.3795 91.6971 50.2698C91.4262 50.1601 91.1358 50.1068 90.8437 50.1133H87.585V54.3495L90.7622 54.3767ZM90.1919 48.1853C90.7311 48.1959 91.2562 48.0128 91.6719 47.6693C91.8729 47.5051 92.0346 47.2978 92.145 47.0629C92.2554 46.8279 92.3118 46.5712 92.3101 46.3116C92.3106 46.0561 92.2577 45.8034 92.1548 45.5696C92.0519 45.3357 91.9013 45.126 91.7126 44.9538C91.5112 44.7644 91.2744 44.6166 91.0158 44.5187C90.7572 44.4209 90.4819 44.375 90.2055 44.3836H87.585V48.3211L90.1919 48.1853Z" fill="#50287D"/>
<path d="M100.092 53.1416L98.7344 56.4002H96.7656L102.509 42.4424H104.532L110.289 56.4002H108.32L106.962 53.1416H100.024H100.092ZM106.202 51.2135L103.487 44.7777L100.771 51.2135H106.093H106.202Z" fill="#50287D"/>
<path d="M114.859 42.4424V48.24H123.168V42.4424H125.001V56.3866H123.182V50.1409H114.859V56.3866H113.04V42.4424H114.859Z" fill="#50287D"/>
<path d="M139.653 56.3866V45.3208L131.425 56.3866H129.375V42.4424H131.208V53.5353L139.49 42.4424H141.432V56.3866H139.613H139.653Z" fill="#50287D"/>
<path d="M153.736 42.4424V44.3704H147.694V48.24H153.125V50.1409H147.694V54.4586H153.736V56.3866H145.875V42.4424H153.736Z" fill="#50287D"/>
<path d="M12.5091 11.7446C12.5146 12.5815 12.3578 13.4114 12.0475 14.1886C11.7381 14.9132 11.2748 15.5618 10.6897 16.0895C10.1148 16.6253 9.44165 17.0448 8.70741 17.325C7.89206 17.6328 7.02621 17.7847 6.15481 17.7731H3.71084V25.3358H0.601562V5.58039H6.19554C7.02194 5.54302 7.84721 5.67575 8.62021 5.97036C9.39321 6.26496 10.0975 6.71516 10.6894 7.29307C11.2813 7.87097 11.7482 8.56426 12.0612 9.32999C12.3743 10.0957 12.5267 10.9176 12.5091 11.7446ZM3.71084 14.4602H6.57572C6.93481 14.4712 7.29253 14.4109 7.62814 14.2827C7.96376 14.1545 8.2706 13.961 8.5309 13.7134C8.78103 13.4627 8.97745 13.1636 9.10818 12.8344C9.23891 12.5053 9.3012 12.153 9.29124 11.7989C9.30229 11.4398 9.24198 11.0821 9.11379 10.7465C8.9856 10.4109 8.7921 10.1041 8.54447 9.84376C8.29306 9.58049 7.98903 9.37309 7.65217 9.23507C7.31531 9.09705 6.95316 9.0315 6.5893 9.04268H3.71084V14.4737V14.4602Z" fill="#50287D"/>
<path d="M33.4303 16.5516H40.1377V11.3785H43.1383V25.3228H40.1377V19.7424H33.4303V25.3363H30.4297V11.3921H33.4303V16.5652V16.5516Z" fill="#50287D"/>
<path d="M53.949 22.7156C54.7596 22.7401 55.5659 22.5875 56.3115 22.2686C57.0572 21.9497 57.7244 21.4721 58.2667 20.8691L59.1492 23.1637C58.5123 23.9463 57.7119 24.5803 56.8043 25.0212C55.8967 25.4621 54.9036 25.6994 53.8947 25.7163C52.8995 25.739 51.909 25.5731 50.9755 25.2275C50.1183 24.9246 49.3326 24.4486 48.6673 23.829C47.9884 23.177 47.4602 22.3846 47.1194 21.5072C46.7433 20.533 46.5544 19.4965 46.5628 18.4523C46.5582 17.4927 46.7284 16.5403 47.0651 15.6417C47.3723 14.7873 47.8324 13.996 48.4229 13.3063C49.0319 12.613 49.7818 12.0576 50.6225 11.677C51.5336 11.2777 52.5198 11.0786 53.5145 11.0932C54.4337 11.0777 55.3453 11.2615 56.1867 11.6318C57.0281 12.0021 57.7794 12.5502 58.3889 13.2385C58.9902 13.9101 59.4518 14.6947 59.7466 15.5466C60.0418 16.4216 60.1931 17.3387 60.1947 18.2622C60.1974 18.6304 60.1702 18.9982 60.1132 19.362H49.6042C49.7969 20.3536 50.3443 21.2411 51.144 21.8584C51.9437 22.4756 52.9409 22.7804 53.949 22.7156ZM53.3923 14.2432C52.5429 14.181 51.6986 14.4186 51.0064 14.9148C50.3142 15.411 49.818 16.1343 49.6042 16.9587H57.1669C56.9465 16.1408 56.4506 15.4239 55.7629 14.9292C55.0752 14.4344 54.2379 14.1921 53.3923 14.2432Z" fill="#50287D"/>
<path d="M20.9392 22.7152C21.7497 22.7387 22.5557 22.5857 23.3012 22.2669C24.0467 21.948 24.714 21.4709 25.2569 20.8686L26.1394 23.1632C25.5025 23.9459 24.7022 24.5798 23.7945 25.0207C22.8869 25.4617 21.8938 25.6989 20.8849 25.7158C19.8897 25.7385 18.8992 25.5727 17.9657 25.227C17.0942 24.9114 16.2986 24.4165 15.6303 23.7742C14.9557 23.1214 14.4321 22.329 14.0961 21.4524C13.7189 20.4785 13.53 19.4418 13.5394 18.3975C13.5314 17.4388 13.697 16.4866 14.0282 15.5869C14.3361 14.7329 14.7961 13.9417 15.386 13.2516C15.9947 12.5579 16.7446 12.0024 17.5855 11.6222C18.4967 11.2229 19.4829 11.0238 20.4776 11.0384C21.3966 11.0238 22.3079 11.208 23.1492 11.5783C23.9905 11.9485 24.7419 12.4961 25.3519 13.1837C25.9533 13.8553 26.4148 14.6399 26.7097 15.4919C27.0104 16.3659 27.1664 17.2831 27.1713 18.2074C27.175 18.5756 27.1478 18.9435 27.0899 19.3072H16.5944C16.7754 20.3088 17.3178 21.2092 18.1187 21.8374C18.9196 22.4656 19.9233 22.7779 20.9392 22.7152ZM20.3825 14.2427C19.5331 14.1805 18.6888 14.4182 17.9966 14.9144C17.3044 15.4106 16.8082 16.1338 16.5944 16.9582H24.225C24.0029 16.1306 23.4988 15.4064 22.7998 14.9106C22.1008 14.4149 21.2507 14.1786 20.3961 14.2427H20.3825Z" fill="#50287D"/>
<path d="M84.7303 25.7437C82.7858 25.7437 80.9209 24.9712 79.5459 23.5962C78.1709 22.2212 77.3984 20.3563 77.3984 18.4117C77.3984 16.4672 78.1709 14.6023 79.5459 13.2273C80.9209 11.8523 82.7858 11.0798 84.7303 11.0798C85.7077 11.0542 86.6778 11.254 87.5654 11.6637C88.4531 12.0734 89.2345 12.682 89.8491 13.4423L89.0209 15.927C87.9562 14.9604 86.5989 14.3774 85.1648 14.2706C84.5891 14.2166 84.0085 14.2807 83.4584 14.4589C82.9083 14.6371 82.4004 14.9257 81.9657 15.307C81.531 15.6883 81.1787 16.1543 80.9303 16.6765C80.682 17.1986 80.5428 17.766 80.5213 18.3438C80.512 18.9132 80.6289 19.4776 80.8637 19.9964C81.0984 20.5152 81.4452 20.9756 81.879 21.3445C82.8186 22.1444 84.0273 22.557 85.2599 22.4986C86.7695 22.4758 88.2184 21.9011 89.3332 20.8829L90.2157 23.3676C89.5212 24.1287 88.6732 24.7341 87.7277 25.1436C86.7822 25.5532 85.7607 25.7577 84.7303 25.7437Z" fill="#50287D"/>
<path d="M69.7616 25.7437C67.8171 25.7437 65.9522 24.9712 64.5772 23.5962C63.2022 22.2212 62.4297 20.3563 62.4297 18.4117C62.4297 16.4672 63.2022 14.6023 64.5772 13.2273C65.9522 11.8523 67.8171 11.0798 69.7616 11.0798C70.7389 11.0542 71.709 11.254 72.5967 11.6637C73.4843 12.0734 74.2658 12.682 74.8804 13.4423L74.0521 15.927C72.9874 14.9604 71.6302 14.3774 70.1961 14.2706C69.6204 14.2166 69.0397 14.2807 68.4896 14.4589C67.9396 14.6371 67.4316 14.9257 66.9969 15.307C66.5622 15.6883 66.2099 16.1543 65.9616 16.6765C65.7132 17.1986 65.574 17.766 65.5525 18.3438C65.5433 18.9132 65.6602 19.4776 65.8949 19.9964C66.1297 20.5152 66.4765 20.9756 66.9103 21.3445C67.8499 22.1444 69.0586 22.557 70.2911 22.4986C71.8007 22.4758 73.2497 21.9011 74.3644 20.8829L75.247 23.3676C74.5525 24.1287 73.7045 24.7341 72.759 25.1436C71.8135 25.5532 70.7919 25.7577 69.7616 25.7437Z" fill="#50287D"/>
<path d="M133.801 25.7437C131.856 25.7437 129.991 24.9712 128.616 23.5962C127.241 22.2212 126.469 20.3563 126.469 18.4117C126.469 16.4672 127.241 14.6023 128.616 13.2273C129.991 11.8523 131.856 11.0798 133.801 11.0798C134.778 11.0542 135.748 11.254 136.636 11.6637C137.523 12.0734 138.305 12.682 138.919 13.4423L138.091 15.927C137.017 14.9598 135.65 14.3812 134.208 14.2841C133.632 14.2302 133.052 14.2942 132.502 14.4724C131.951 14.6507 131.444 14.9392 131.009 15.3206C130.574 15.7019 130.222 16.1679 129.973 16.69C129.725 17.2122 129.586 17.7796 129.564 18.3574C129.555 18.9268 129.672 19.4912 129.907 20.01C130.142 20.5288 130.488 20.9892 130.922 21.3581C131.862 22.158 133.07 22.5706 134.303 22.5122C135.813 22.4894 137.262 21.9146 138.376 20.8964L139.259 23.3811C138.566 24.1357 137.721 24.736 136.781 25.1431C135.841 25.5501 134.825 25.7547 133.801 25.7437Z" fill="#50287D"/>
<path d="M103.64 25.336V23.8832C103.103 24.4636 102.452 24.927 101.728 25.2447C101.004 25.5624 100.222 25.7275 99.4312 25.7297C98.474 25.7433 97.524 25.562 96.639 25.1969C95.7539 24.8318 94.9524 24.2905 94.2831 23.606C93.6139 22.9215 93.0908 22.108 92.7457 21.215C92.4006 20.322 92.2408 19.3681 92.2758 18.4114C92.1933 17.4593 92.3128 16.5006 92.6263 15.5978C92.9399 14.6951 93.4405 13.8687 94.0954 13.1728C94.7503 12.4768 95.5448 11.927 96.4269 11.5593C97.3089 11.1915 98.2587 11.0142 99.214 11.0387C100.845 11.0511 102.41 11.6876 103.586 12.8174V11.4597H106.492V25.336H103.64ZM95.2493 18.3978C95.2574 18.9583 95.3792 19.5113 95.6074 20.0234C95.8355 20.5354 96.1652 20.9958 96.5765 21.3766C96.9878 21.7575 97.4722 22.0509 98.0002 22.239C98.5283 22.4271 99.089 22.5061 99.6485 22.4711C100.379 22.5037 101.107 22.3718 101.779 22.0851C102.451 21.7984 103.05 21.3642 103.532 20.8146V15.886C103.04 15.35 102.439 14.9259 101.769 14.6424C101.099 14.359 100.376 14.2228 99.6485 14.2431C99.0799 14.1973 98.508 14.2714 97.9699 14.4607C97.4318 14.65 96.9394 14.9502 96.5247 15.3419C96.11 15.7336 95.7822 16.208 95.5625 16.7344C95.3428 17.2608 95.2361 17.8275 95.2493 18.3978Z" fill="#50287D"/>
<path d="M113.837 16.5515H120.625V11.3784H123.626V25.3226H120.625V19.7422H113.837V25.3362H110.836V11.392H113.837V16.5651V16.5515Z" fill="#50287D"/>
<path d="M146.014 21.4937H142.172V25.3361H146.014V21.4937Z" fill="#50287D"/>
<path d="M152.776 19.7419L142.172 0H163.38L152.776 19.7419Z" fill="#D0DF00"/>
</svg>
