<svg width="321" height="351" viewBox="0 0 321 351" fill="none" xmlns="http://www.w3.org/2000/svg">
    <mask id="mask0" mask-type="alpha" maskUnits="userSpaceOnUse" x="0" y="0" width="321" height="352">
        <rect x="0.00390625" y="0.000976562" width="320" height="351" fill="white" />
    </mask>
    <g mask="url(#mask0)">
        <path opacity="0.05"
            d="M365.128 65.8686C370.077 86.5457 359.683 109.671 337.612 114.954C326.466 117.623 314.087 116.364 303.889 111.853C293.691 107.341 285.788 99.6346 283.357 89.4799C280.918 79.2926 284.059 68.5411 290.667 59.622C297.274 50.7044 307.287 43.7095 318.407 41.0476C329.575 38.374 340.042 39.4889 348.305 43.7946C356.554 48.0931 362.67 55.6025 365.128 65.8686Z"
            stroke="#1C0F52" stroke-width="2" />
        <path opacity="0.05"
            d="M360.585 70.1916C365.534 90.8687 355.14 113.994 333.069 119.277C321.923 121.946 309.544 120.687 299.347 116.176C289.148 111.664 281.245 103.958 278.814 93.8029C276.376 83.6156 279.516 72.8641 286.124 63.945C292.731 55.0273 302.744 48.0325 313.864 45.3706C325.032 42.697 335.499 43.8119 343.762 48.1176C352.011 52.4161 358.127 59.9255 360.585 70.1916Z"
            stroke="#1C0F52" stroke-width="2" />
        <path opacity="0.05"
            d="M282.665 97.5114C273.746 78.2112 279.39 53.4935 299.992 43.9735C310.395 39.1658 322.78 37.9655 333.666 40.3835C344.553 42.8019 353.816 48.804 358.197 58.2825C362.591 67.7914 361.626 78.9505 356.9 88.9949C352.176 99.0376 343.734 107.865 333.354 112.661C322.93 117.479 312.448 118.444 303.5 115.847C294.567 113.254 287.093 107.094 282.665 97.5114Z"
            stroke="#1C0F52" stroke-width="2" />
        <path opacity="0.05"
            d="M236.781 240.751C257.262 326.308 214.317 422.463 122.425 444.461C76.3131 455.499 25.1452 450.296 -17.0334 431.636C-59.214 412.976 -92.2344 380.947 -102.409 338.445C-112.595 295.893 -99.438 251.186 -72.0993 214.287C-44.7623 177.39 -3.33629 148.435 42.7362 137.406C88.8819 126.359 132.309 130.925 166.713 148.853C201.097 166.771 226.566 198.082 236.781 240.751Z"
            stroke="#1C0F52" stroke-width="3" />
        <path opacity="0.05"
            d="M218.21 258.416C238.691 343.973 195.746 440.129 103.854 462.126C57.7428 473.164 6.57488 467.961 -35.6037 449.301C-77.7843 430.641 -110.805 398.612 -120.979 356.11C-131.165 313.558 -118.008 268.852 -90.6697 231.952C-63.3326 195.055 -21.9066 166.1 24.1659 155.071C70.3116 144.024 113.739 148.59 148.143 166.519C182.527 184.436 207.996 215.747 218.21 258.416Z"
            stroke="#1C0F52" stroke-width="3" />
        <path opacity="0.05"
            d="M-105.066 371.748C-141.97 291.889 -118.77 189.167 -32.9975 149.53C10.0435 129.64 61.2356 124.681 106.26 134.682C151.286 144.685 189.96 169.595 208.293 209.268C226.647 248.985 222.538 295.406 202.988 336.961C183.44 378.513 148.516 415.048 105.512 434.921C62.4387 454.826 18.9618 458.888 -18.2963 448.075C-55.532 437.268 -86.6605 411.576 -105.066 371.748Z"
            stroke="#1C0F52" stroke-width="3" />
    </g>
</svg>