<svg width="27" height="19" viewBox="0 0 27 19" fill="none" xmlns="http://www.w3.org/2000/svg">
<path d="M9.16071 0C7.30748 0 5.78571 1.49922 5.78571 3.325C5.78571 5.15078 7.30748 6.65 9.16071 6.65C11.014 6.65 12.5357 5.15078 12.5357 3.325C12.5357 1.49922 11.014 0 9.16071 0ZM17.8393 0C15.986 0 14.4643 1.49922 14.4643 3.325C14.4643 5.15078 15.986 6.65 17.8393 6.65C19.6925 6.65 21.2143 5.15078 21.2143 3.325C21.2143 1.49922 19.6925 0 17.8393 0ZM9.16071 1.9C9.97056 1.9 10.6071 2.52715 10.6071 3.325C10.6071 4.12285 9.97056 4.75 9.16071 4.75C8.35086 4.75 7.71429 4.12285 7.71429 3.325C7.71429 2.52715 8.35086 1.9 9.16071 1.9ZM17.8393 1.9C18.6491 1.9 19.2857 2.52715 19.2857 3.325C19.2857 4.12285 18.6491 4.75 17.8393 4.75C17.0294 4.75 16.3929 4.12285 16.3929 3.325C16.3929 2.52715 17.0294 1.9 17.8393 1.9ZM4.82143 5.7C2.70075 5.7 0.964286 7.41074 0.964286 9.5C0.964286 10.5576 1.42383 11.5113 2.13951 12.2016C0.85505 13.0588 0 14.5172 0 16.15H1.92857C1.92857 14.5654 3.21303 13.3 4.82143 13.3C6.42983 13.3 7.71429 14.5654 7.71429 16.15H9.64286C9.64286 14.5172 8.78781 13.0588 7.50335 12.2016C8.21903 11.5113 8.67857 10.5576 8.67857 9.5C8.67857 7.41074 6.9421 5.7 4.82143 5.7ZM9.64286 16.15C9.04018 16.9441 8.67857 17.9424 8.67857 19H10.6071C10.6071 17.4154 11.8916 16.15 13.5 16.15C15.1084 16.15 16.3929 17.4154 16.3929 19H18.3214C18.3214 17.9424 17.9598 16.9441 17.3571 16.15C17.0294 15.7195 16.6339 15.3521 16.1819 15.0516C16.8976 14.3613 17.3571 13.4076 17.3571 12.35C17.3571 10.2607 15.6207 8.55 13.5 8.55C11.3793 8.55 9.64286 10.2607 9.64286 12.35C9.64286 13.4076 10.1024 14.3613 10.8181 15.0516C10.3661 15.3521 9.97056 15.7195 9.64286 16.15ZM17.3571 16.15H19.2857C19.2857 14.5654 20.5702 13.3 22.1786 13.3C23.787 13.3 25.0714 14.5654 25.0714 16.15H27C27 14.5172 26.145 13.0588 24.8605 12.2016C25.5762 11.5113 26.0357 10.5576 26.0357 9.5C26.0357 7.41074 24.2992 5.7 22.1786 5.7C20.0579 5.7 18.3214 7.41074 18.3214 9.5C18.3214 10.5576 18.781 11.5113 19.4967 12.2016C18.2122 13.0588 17.3571 14.5172 17.3571 16.15ZM4.82143 7.6C5.89872 7.6 6.75 8.43867 6.75 9.5C6.75 10.5613 5.89872 11.4 4.82143 11.4C3.74414 11.4 2.89286 10.5613 2.89286 9.5C2.89286 8.43867 3.74414 7.6 4.82143 7.6ZM22.1786 7.6C23.2559 7.6 24.1071 8.43867 24.1071 9.5C24.1071 10.5613 23.2559 11.4 22.1786 11.4C21.1013 11.4 20.25 10.5613 20.25 9.5C20.25 8.43867 21.1013 7.6 22.1786 7.6ZM13.5 10.45C14.5773 10.45 15.4286 11.2887 15.4286 12.35C15.4286 13.4113 14.5773 14.25 13.5 14.25C12.4227 14.25 11.5714 13.4113 11.5714 12.35C11.5714 11.2887 12.4227 10.45 13.5 10.45Z" fill="#00B07A"/>
</svg>
