<svg width="519" height="468" viewBox="0 0 519 468" fill="none" xmlns="http://www.w3.org/2000/svg">
<path opacity="0.03" d="M713.075 197.731C748.254 344.689 674.515 510.042 516.444 547.882C437.242 566.842 349.376 557.905 276.934 525.857C204.489 493.809 147.641 438.736 130.117 365.533C112.582 292.281 135.247 215.401 182.204 152.022C229.159 88.6456 300.313 38.9067 379.475 19.9565C458.711 0.98885 533.352 8.81153 592.535 39.6525C651.698 70.4827 695.511 124.361 713.075 197.731Z" stroke="#1C0F52" stroke-width="3"/>
<path opacity="0.03" d="M681.27 227.984C716.449 374.941 642.71 540.295 484.639 578.135C405.438 597.094 317.571 588.158 245.129 556.11C172.685 524.062 115.836 468.989 98.3122 395.786C80.777 322.534 103.442 245.654 150.399 182.275C197.355 118.899 268.509 69.1596 347.671 50.2095C426.906 31.2418 501.547 39.0645 560.731 69.9055C619.893 100.736 663.706 154.614 681.27 227.984Z" stroke="#1C0F52" stroke-width="3"/>
<path opacity="0.03" d="M125.637 422.768C62.2483 285.597 102.034 108.972 249.579 40.7894C323.506 6.62671 411.415 -1.88845 488.744 15.2893C566.076 32.4675 632.644 75.2869 664.219 143.615C695.815 211.989 688.709 291.825 655.131 363.2C621.554 434.572 561.57 497.331 487.679 531.477C413.72 565.654 338.998 572.661 274.906 554.059C210.836 535.464 157.284 491.252 125.637 422.768Z" stroke="#1C0F52" stroke-width="3"/>
</svg>
