<svg width="313" height="464" viewBox="0 0 313 464" fill="none" xmlns="http://www.w3.org/2000/svg">
<mask id="mask0" mask-type="alpha" maskUnits="userSpaceOnUse" x="0" y="0" width="313" height="464">
<rect x="0.5" y="0.5" width="312" height="463" rx="24.5" fill="white" stroke="#00B07A"/>
</mask>
<g mask="url(#mask0)">
<path opacity="0.03" d="M774.584 185.602C804.894 312.218 741.357 454.646 605.21 487.238C536.971 503.573 461.263 495.873 398.847 468.261C336.429 440.648 287.474 393.209 272.385 330.177C257.284 267.096 276.8 200.875 317.257 146.268C357.713 91.6642 419.019 48.811 487.218 32.4851C555.491 16.1416 619.791 22.8852 670.766 49.4484C721.719 76.0008 759.455 122.403 774.584 185.602Z" stroke="#1C0F52" stroke-width="3"/>
<path opacity="0.03" d="M747.162 211.685C777.472 338.301 713.935 480.729 577.788 513.321C509.549 529.656 433.841 521.956 371.425 494.344C309.007 466.731 260.052 419.292 244.963 356.26C229.863 293.179 249.378 226.958 289.835 172.351C330.291 117.747 391.597 74.894 459.796 58.5681C528.07 42.2246 592.37 48.9682 643.344 75.5314C694.298 102.084 732.033 148.486 747.162 211.685Z" stroke="#1C0F52" stroke-width="3"/>
<path opacity="0.03" d="M268.505 379.484C213.89 261.3 248.181 109.158 375.262 50.4329C438.956 20.9987 514.701 13.6616 581.328 28.4619C647.957 43.2628 705.284 80.1491 732.472 138.984C759.682 197.864 753.568 266.63 724.638 328.126C695.708 389.619 644.026 443.69 580.368 473.107C516.641 502.556 452.271 508.587 397.068 492.566C341.888 476.551 295.765 438.475 268.505 379.484Z" stroke="#1C0F52" stroke-width="3"/>
</g>
</svg>
